<svg xmlns="http://www.w3.org/2000/svg" width="317.363" height="189.302" viewBox="0 0 317.363 189.302">
  <g id="Grupo_16468" data-name="Grupo 16468" transform="translate(-422.887 -6533.93)">
    <g id="Grupo_16467" data-name="Grupo 16467" transform="translate(-450)">
      <path id="Trazado_40680" data-name="Trazado 40680" d="M5.981-.452A2.5,2.5,0,0,0,8.447-2.417a18.511,18.511,0,0,0,.671-5.688,22.2,22.2,0,0,0-.4-4.736q-.757-3.3-2.832-3.3T3.04-12.744a22.667,22.667,0,0,0-.4,4.761,18.954,18.954,0,0,0,.415,4.431Q3.833-.452,5.981-.452ZM5.945-16.8A4.78,4.78,0,0,1,10.3-13.855a11.722,11.722,0,0,1,1.233,5.469,13.678,13.678,0,0,1-.757,4.578Q9.351.232,5.835.232A4.676,4.676,0,0,1,1.88-1.953,10.735,10.735,0,0,1,.22-8.289a12.221,12.221,0,0,1,1.111-5.42A4.88,4.88,0,0,1,5.945-16.8Z" transform="translate(941 6723)" fill="#1ec488"/>
      <g id="Grupo_16466" data-name="Grupo 16466">
        <path id="Trazado_40676" data-name="Trazado 40676" d="M14.57-14.1a2.879,2.879,0,0,0-.645-2.07,2.1,2.1,0,0,0-1.562-.664q-3.184,0-5.918,4.883a15.812,15.812,0,0,0-2.4,7.4,3.233,3.233,0,0,0,.674,2.275,2.205,2.205,0,0,0,1.67.713q2.949,0,5.684-4.746A15.894,15.894,0,0,0,14.57-14.1Zm-2.441-3.613a3.317,3.317,0,0,1,2.383.8,2.9,2.9,0,0,1,.7,1.133l.1.273.43-1.484a1.488,1.488,0,0,1,.137-.342.359.359,0,0,1,.273-.107l2.207-.254q.176,0,.205.068a.452.452,0,0,1-.01.244q-.078.254-.117.4t-.117.42l-1.8,6.992q-.586,2.285-1,3.945A29.878,29.878,0,0,0,14.8-2.187a.5.5,0,0,0,.146.4.532.532,0,0,0,.361.127.776.776,0,0,0,.381-.117,4.076,4.076,0,0,0,.5-.352l.332-.273q.156-.137.352-.322t.469-.459l1.211-1.25.469.41A20.469,20.469,0,0,1,15.762-.5,3.95,3.95,0,0,1,13.418.43a1.349,1.349,0,0,1-1.123-.508,1.987,1.987,0,0,1-.4-1.27,11.163,11.163,0,0,1,.264-2.021q.264-1.318.518-2.217Q12.324-5,11.494-3.877A13.744,13.744,0,0,1,9.453-1.7,9.642,9.642,0,0,1,6.719.1,5.963,5.963,0,0,1,4.766.449,3.964,3.964,0,0,1,1.895-.85,5,5,0,0,1,.605-4.531q0-4.1,3.672-8.555Q8.066-17.715,12.129-17.715ZM54.59-15.176,54.1-12.812H34.043l.488-2.363Zm-1.68,7.91L52.422-4.9H32.363l.488-2.363ZM74.863-.781q3.73,0,6.465-7.422a34.792,34.792,0,0,0,2.363-12.148,10.063,10.063,0,0,0-.43-3.242,2.962,2.962,0,0,0-2.949-2.344q-4,0-6.777,8.633a37.571,37.571,0,0,0-2.109,11,9.655,9.655,0,0,0,.43,3.105A3.053,3.053,0,0,0,74.863-.781ZM80.371-27.07a5.6,5.6,0,0,1,5.41,3.73,14.007,14.007,0,0,1,1.074,5.684,21.509,21.509,0,0,1-3.77,12.578Q79.375.234,74.707.234a5.706,5.706,0,0,1-4.59-2.314,9.891,9.891,0,0,1-1.875-6.4,23.147,23.147,0,0,1,3.691-12.637Q75.723-27.07,80.371-27.07ZM14.766,12.363a1.973,1.973,0,0,1,1.68.781,2.885,2.885,0,0,1,.586,1.777q0,2.637-5.215,9.238Q6.875,30.43,5.9,30.43q-.293,0-.391-.8a13.5,13.5,0,0,1-.059-1.523q0-1.309-.254-4.434t-.488-4.629a17.985,17.985,0,0,0-.957-4.258,1.79,1.79,0,0,0-1.777-.957q-.215,0-.5.02t-.654.059V13.4q.586-.117,2.461-.527t1.992-.449l.645-.2q.273-.078.43.3a10.408,10.408,0,0,1,.391,1.416,65.907,65.907,0,0,1,1.113,6.7q.234,2.051.469,6.074l.645-.684a41.87,41.87,0,0,0,4.023-5.059Q15,18.047,15,16.836a2.3,2.3,0,0,0-.879-1.455,2.332,2.332,0,0,1-.879-1.553,1.378,1.378,0,0,1,.439-1.055A1.529,1.529,0,0,1,14.766,12.363Zm37.578,2.461-.488,2.363H31.8l.488-2.363Zm-1.68,7.91L50.176,25.1H30.117l.488-2.363ZM77.246,12.363a4.667,4.667,0,0,1,3.438,1.074,3.073,3.073,0,0,1,1.055,2.09A1.808,1.808,0,0,1,79.9,17.461a1.721,1.721,0,0,1-1.211-.449A1.452,1.452,0,0,1,78.2,15.9a2.289,2.289,0,0,1,.322-1.094,2.286,2.286,0,0,0,.322-.762.7.7,0,0,0-.4-.6,2.549,2.549,0,0,0-1.279-.244q-3.145,0-5.459,3.574a13.588,13.588,0,0,0-2.314,7.5,5.65,5.65,0,0,0,.938,3.457,3.291,3.291,0,0,0,2.813,1.25,5.512,5.512,0,0,0,2.92-.869A11.541,11.541,0,0,0,78.672,25.9l.137-.156.566.43a14.286,14.286,0,0,1-2.637,2.676,8.315,8.315,0,0,1-4.98,1.621A5.641,5.641,0,0,1,67.52,28.8,6.269,6.269,0,0,1,65.9,24.238a11.532,11.532,0,0,1,3.613-8.164Q73.086,12.363,77.246,12.363ZM84,28.711q0-.156.02-.361a2.5,2.5,0,0,1,.078-.42l3.672-13.652H84.8a1.686,1.686,0,0,1,.078-.664.83.83,0,0,1,.391-.273,16.237,16.237,0,0,0,3.057-1.621,19.156,19.156,0,0,0,2.959-3.008L91.6,8.34a.46.46,0,0,1,.146-.127.376.376,0,0,1,.186-.049,1.211,1.211,0,0,1,.273.078.821.821,0,0,1,.068.244.879.879,0,0,1-.01.225l-1.113,4.258h3.184L94.1,14.277h-3.32L87.266,27.422a.927.927,0,0,0,.059.674.542.542,0,0,0,.527.322q.508,0,1.426-1.016.527-.547,1.777-2.168l.508.293-.273.41a15.125,15.125,0,0,1-2.959,3.506,4.05,4.05,0,0,1-2.432.986A1.687,1.687,0,0,1,84,28.711Zm10.859-3.887q0-4.336,3.906-8.4,3.867-4.063,7.988-4.062a3.827,3.827,0,0,1,2.422.7,2.491,2.491,0,0,1,.9,2.09q0,2.813-3.291,4.814a17.29,17.29,0,0,1-6.924,2.451l-1.113.137a13.254,13.254,0,0,0-.352,1.279,6.156,6.156,0,0,0-.1,1.2,3.325,3.325,0,0,0,1.123,2.676,3.977,3.977,0,0,0,2.666.957A6.11,6.11,0,0,0,105.2,27.7a25.764,25.764,0,0,0,2.715-2.031l.508.449A12.315,12.315,0,0,1,105.9,28.4a9.962,9.962,0,0,1-5.84,2.09,5.147,5.147,0,0,1-3.633-1.465A5.477,5.477,0,0,1,94.863,24.824Zm4.16-3.145a11.4,11.4,0,0,0,6.074-2.627q2.344-2.08,2.344-4.131a1.838,1.838,0,0,0-.352-1.182,1.247,1.247,0,0,0-1.035-.439,3.749,3.749,0,0,0-2.49,1.084,14.656,14.656,0,0,0-2.2,2.451A19.234,19.234,0,0,0,99.727,19.9Q99.395,20.684,99.023,21.68ZM-1.113,58.672a1.22,1.22,0,0,1,.469-1.084,1.672,1.672,0,0,1,.957-.322,1.667,1.667,0,0,1,.469.068,2.386,2.386,0,0,1,.508.225l.684.371a.979.979,0,0,0,.264.107,1.262,1.262,0,0,0,.283.029,1.067,1.067,0,0,0,.752-.244,19.339,19.339,0,0,0,1.357-1.709q.723-.957,3.281-4.668,0-.137-.449-2.1t-.82-3.33a7.158,7.158,0,0,0-.664-1.826,1.221,1.221,0,0,0-1.094-.439,5.715,5.715,0,0,0-1.074.2q-.508.117-1.094.273l-.176-.605,2.168-.742q.84-.293,1.553-.469a5.227,5.227,0,0,1,1.221-.176,1.516,1.516,0,0,1,1.23.488A7.591,7.591,0,0,1,9.766,45.8l.41,2.227a34.719,34.719,0,0,1,2.734-3.789,7.883,7.883,0,0,1,1.66-1.484,2.819,2.819,0,0,1,1.484-.488,2.515,2.515,0,0,1,1.074.2,1.33,1.33,0,0,1,.742,1.328,1.4,1.4,0,0,1-.371,1.035,1.3,1.3,0,0,1-.957.371,1.685,1.685,0,0,1-.41-.049,2.407,2.407,0,0,1-.41-.146l-.508-.215q-.215-.1-.41-.166a.991.991,0,0,0-.293-.068q-.879,0-2.441,2.275a10.966,10.966,0,0,0-1.562,2.627,15.09,15.09,0,0,0,.361,1.9q.361,1.611.791,3.408a16.218,16.218,0,0,0,.664,2.344q.449,1.055,1.016,1.055a1.525,1.525,0,0,0,1.074-.586,23.828,23.828,0,0,0,1.641-2.109l.547.332a16.352,16.352,0,0,1-1.738,2.6q-1.7,2.031-3.242,2.031a1.732,1.732,0,0,1-1.543-.937,6.948,6.948,0,0,1-.645-1.8L8.223,52.871l-4,5.254a12.923,12.923,0,0,1-1.807,1.836A2.574,2.574,0,0,1,.84,60.43a1.789,1.789,0,0,1-1.7-.781A1.818,1.818,0,0,1-1.113,58.672ZM52.344,44.824l-.488,2.363H31.8l.488-2.363Zm-1.68,7.91L50.176,55.1H30.117l.488-2.363Zm22.969,5.938a1.22,1.22,0,0,1,.469-1.084,1.6,1.6,0,0,1,1.426-.254,2.385,2.385,0,0,1,.508.225l.684.371a.979.979,0,0,0,.264.107,1.262,1.262,0,0,0,.283.029,1.067,1.067,0,0,0,.752-.244,19.338,19.338,0,0,0,1.357-1.709q.723-.957,3.281-4.668,0-.137-.449-2.1t-.82-3.33a7.158,7.158,0,0,0-.664-1.826,1.221,1.221,0,0,0-1.094-.439,5.715,5.715,0,0,0-1.074.2q-.508.117-1.094.273l-.176-.605,2.168-.742q.84-.293,1.553-.469a5.227,5.227,0,0,1,1.221-.176,1.516,1.516,0,0,1,1.23.488A7.591,7.591,0,0,1,84.512,45.8l.41,2.227a34.719,34.719,0,0,1,2.734-3.789,7.883,7.883,0,0,1,1.66-1.484,2.819,2.819,0,0,1,1.484-.488,2.515,2.515,0,0,1,1.074.2,1.33,1.33,0,0,1,.742,1.328,1.4,1.4,0,0,1-.371,1.035,1.3,1.3,0,0,1-.957.371,1.685,1.685,0,0,1-.41-.049,2.407,2.407,0,0,1-.41-.146l-.508-.215q-.215-.1-.41-.166a.991.991,0,0,0-.293-.068q-.879,0-2.441,2.275a10.967,10.967,0,0,0-1.562,2.627,15.091,15.091,0,0,0,.361,1.9q.361,1.611.791,3.408a16.218,16.218,0,0,0,.664,2.344q.449,1.055,1.016,1.055a1.525,1.525,0,0,0,1.074-.586A23.827,23.827,0,0,0,90.8,55.469l.547.332a16.352,16.352,0,0,1-1.738,2.6q-1.7,2.031-3.242,2.031a1.732,1.732,0,0,1-1.543-.937,6.948,6.948,0,0,1-.645-1.8l-1.211-4.824-4,5.254a12.923,12.923,0,0,1-1.807,1.836,2.574,2.574,0,0,1-1.572.469,1.789,1.789,0,0,1-1.7-.781A1.818,1.818,0,0,1,73.633,58.672Zm52.324-7.5V48.809H134.8V39.961h2.363v8.848h8.848v2.363h-8.848V60H134.8V51.172Zm68.3-8.809a1.973,1.973,0,0,1,1.68.781,2.885,2.885,0,0,1,.586,1.777q0,2.637-5.215,9.238-4.941,6.27-5.918,6.27-.293,0-.391-.8a13.5,13.5,0,0,1-.059-1.523q0-1.309-.254-4.434t-.488-4.629a17.985,17.985,0,0,0-.957-4.258,1.79,1.79,0,0,0-1.777-.957q-.215,0-.5.02t-.654.059V43.4q.586-.117,2.461-.527t1.992-.449l.645-.2q.273-.078.43.3a10.407,10.407,0,0,1,.391,1.416,65.9,65.9,0,0,1,1.113,6.7q.234,2.051.469,6.074l.645-.684a41.87,41.87,0,0,0,4.023-5.059q2.012-2.93,2.012-4.141a2.3,2.3,0,0,0-.879-1.455,2.332,2.332,0,0,1-.879-1.553,1.378,1.378,0,0,1,.439-1.055A1.529,1.529,0,0,1,194.258,42.363ZM218.75,58.711q0-.156.02-.361a2.494,2.494,0,0,1,.078-.42l3.672-13.652h-2.969a1.687,1.687,0,0,1,.078-.664.83.83,0,0,1,.391-.273,16.236,16.236,0,0,0,3.057-1.621,19.156,19.156,0,0,0,2.959-3.008l.313-.371a.46.46,0,0,1,.146-.127.376.376,0,0,1,.186-.049,1.211,1.211,0,0,1,.273.078.821.821,0,0,1,.068.244.879.879,0,0,1-.01.225L225.9,42.969h3.184l-.234,1.309h-3.32l-3.516,13.145a.927.927,0,0,0,.059.674.542.542,0,0,0,.527.322q.508,0,1.426-1.016.527-.547,1.777-2.168l.508.293-.273.41a15.125,15.125,0,0,1-2.959,3.506,4.05,4.05,0,0,1-2.432.986,1.687,1.687,0,0,1-1.895-1.719Z" transform="translate(874 6561)" fill="#1ec488"/>
        <path id="Trazado_40626" data-name="Trazado 40626" d="M8.154.586A2.668,2.668,0,0,1,6.177-.232,2.7,2.7,0,0,1,5.371-2.2,2.64,2.64,0,0,1,6.189-4.15a2.7,2.7,0,0,1,1.965-.806,2.66,2.66,0,0,1,1.953.806A2.66,2.66,0,0,1,10.913-2.2,2.722,2.722,0,0,1,10.12-.232,2.629,2.629,0,0,1,8.154.586Z" transform="translate(1070 6614)" fill="#1ec488"/>
        <path id="Trazado_40679" data-name="Trazado 40679" d="M5.981-.452A2.5,2.5,0,0,0,8.447-2.417a18.511,18.511,0,0,0,.671-5.688,22.2,22.2,0,0,0-.4-4.736q-.757-3.3-2.832-3.3T3.04-12.744a22.667,22.667,0,0,0-.4,4.761,18.954,18.954,0,0,0,.415,4.431Q3.833-.452,5.981-.452ZM5.945-16.8A4.78,4.78,0,0,1,10.3-13.855a11.722,11.722,0,0,1,1.233,5.469,13.678,13.678,0,0,1-.757,4.578Q9.351.232,5.835.232A4.676,4.676,0,0,1,1.88-1.953,10.735,10.735,0,0,1,.22-8.289a12.221,12.221,0,0,1,1.111-5.42A4.88,4.88,0,0,1,5.945-16.8Z" transform="translate(969 6628)" fill="#1ec488"/>
        <path id="Trazado_40677" data-name="Trazado 40677" d="M14.766-17.637a1.973,1.973,0,0,1,1.68.781,2.885,2.885,0,0,1,.586,1.777q0,2.637-5.215,9.238Q6.875.43,5.9.43q-.293,0-.391-.8a13.5,13.5,0,0,1-.059-1.523q0-1.309-.254-4.434t-.488-4.629a17.985,17.985,0,0,0-.957-4.258,1.79,1.79,0,0,0-1.777-.957q-.215,0-.5.02t-.654.059V-16.6q.586-.117,2.461-.527t1.992-.449l.645-.2q.273-.078.43.3a10.408,10.408,0,0,1,.391,1.416,65.907,65.907,0,0,1,1.113,6.7Q8.086-7.3,8.32-3.281l.645-.684a41.87,41.87,0,0,0,4.023-5.059Q15-11.953,15-13.164a2.3,2.3,0,0,0-.879-1.455,2.332,2.332,0,0,1-.879-1.553,1.378,1.378,0,0,1,.439-1.055A1.529,1.529,0,0,1,14.766-17.637Zm15.488,7.461h8.789l-.566,2.5H29.688ZM65.84-17.637a1.973,1.973,0,0,1,1.68.781,2.885,2.885,0,0,1,.586,1.777q0,2.637-5.215,9.238Q57.949.43,56.973.43q-.293,0-.391-.8a13.5,13.5,0,0,1-.059-1.523q0-1.309-.254-4.434t-.488-4.629a17.985,17.985,0,0,0-.957-4.258,1.79,1.79,0,0,0-1.777-.957q-.215,0-.5.02t-.654.059V-16.6q.586-.117,2.461-.527t1.992-.449l.645-.2q.273-.078.43.3a10.408,10.408,0,0,1,.391,1.416,65.906,65.906,0,0,1,1.113,6.7q.234,2.051.469,6.074l.645-.684a41.87,41.87,0,0,0,4.023-5.059q2.012-2.93,2.012-4.141a2.3,2.3,0,0,0-.879-1.455,2.332,2.332,0,0,1-.879-1.553,1.378,1.378,0,0,1,.439-1.055A1.529,1.529,0,0,1,65.84-17.637Zm57.578,2.461-.488,2.363H102.871l.488-2.363Zm-1.68,7.91L121.25-4.9H101.191l.488-2.363ZM160.391-14.1a2.879,2.879,0,0,0-.645-2.07,2.1,2.1,0,0,0-1.562-.664q-3.184,0-5.918,4.883a15.812,15.812,0,0,0-2.4,7.4,3.233,3.233,0,0,0,.674,2.275,2.205,2.205,0,0,0,1.67.713q2.949,0,5.684-4.746A15.894,15.894,0,0,0,160.391-14.1Zm-2.441-3.613a3.317,3.317,0,0,1,2.383.8,2.9,2.9,0,0,1,.7,1.133l.1.273.43-1.484a1.488,1.488,0,0,1,.137-.342.359.359,0,0,1,.273-.107l2.207-.254q.176,0,.205.068a.451.451,0,0,1-.01.244q-.078.254-.117.4t-.117.42l-1.8,6.992q-.586,2.285-1,3.945a29.879,29.879,0,0,0-.723,3.438.5.5,0,0,0,.146.4.532.532,0,0,0,.361.127.776.776,0,0,0,.381-.117,4.076,4.076,0,0,0,.5-.352l.332-.273q.156-.137.352-.322t.469-.459l1.211-1.25.469.41A20.469,20.469,0,0,1,161.582-.5a3.95,3.95,0,0,1-2.344.928,1.349,1.349,0,0,1-1.123-.508,1.987,1.987,0,0,1-.4-1.27,11.163,11.163,0,0,1,.264-2.021q.264-1.318.518-2.217-.352.586-1.182,1.709A13.744,13.744,0,0,1,155.273-1.7,9.642,9.642,0,0,1,152.539.1a5.963,5.963,0,0,1-1.953.352,3.964,3.964,0,0,1-2.871-1.3,5,5,0,0,1-1.289-3.682q0-4.1,3.672-8.555Q153.887-17.715,157.949-17.715ZM218.4-26.152a26.762,26.762,0,0,0-2.949,3.613,26.327,26.327,0,0,0-3.2,6.836A41.8,41.8,0,0,0,210.7-9.072a38.45,38.45,0,0,0-.449,5.244,32.75,32.75,0,0,0,.361,5.381,37.15,37.15,0,0,0,1.533,5.5l-.684.234A28.269,28.269,0,0,1,208.428.107a28.433,28.433,0,0,1-.947-7.217,21.154,21.154,0,0,1,1.582-8.437q2.363-5.488,8.828-11.211ZM230.645-1.289q0-.156.02-.361a2.494,2.494,0,0,1,.078-.42l3.672-13.652h-2.969a1.687,1.687,0,0,1,.078-.664.83.83,0,0,1,.391-.273,16.236,16.236,0,0,0,3.057-1.621,19.156,19.156,0,0,0,2.959-3.008l.313-.371a.46.46,0,0,1,.146-.127.376.376,0,0,1,.186-.049,1.211,1.211,0,0,1,.273.078.821.821,0,0,1,.068.244.879.879,0,0,1-.01.225l-1.113,4.258h3.184l-.234,1.309h-3.32L233.906-2.578a.927.927,0,0,0,.059.674.542.542,0,0,0,.527.322q.508,0,1.426-1.016.527-.547,1.777-2.168l.508.293-.273.41a15.125,15.125,0,0,1-2.959,3.506,4.05,4.05,0,0,1-2.432.986A1.8,1.8,0,0,1,231.094-.1,1.788,1.788,0,0,1,230.645-1.289Zm22.109-8.887h8.789l-.566,2.5h-8.789Zm22.324,8.887q0-.156.02-.361a2.5,2.5,0,0,1,.078-.42l3.672-13.652h-2.969a1.686,1.686,0,0,1,.078-.664.83.83,0,0,1,.391-.273,16.237,16.237,0,0,0,3.057-1.621,19.156,19.156,0,0,0,2.959-3.008l.313-.371a.46.46,0,0,1,.146-.127.377.377,0,0,1,.186-.049,1.211,1.211,0,0,1,.273.078.821.821,0,0,1,.068.244.879.879,0,0,1-.01.225l-1.113,4.258h3.184l-.234,1.309h-3.32L278.34-2.578a.927.927,0,0,0,.059.674.542.542,0,0,0,.527.322q.508,0,1.426-1.016.527-.547,1.777-2.168l.508.293-.273.41A15.124,15.124,0,0,1,279.4-.557a4.05,4.05,0,0,1-2.432.986A1.8,1.8,0,0,1,275.527-.1,1.788,1.788,0,0,1,275.078-1.289Zm30.254,7.871a32.21,32.21,0,0,0,3.105-3.789,26.434,26.434,0,0,0,3.027-6.66,43.928,43.928,0,0,0,1.523-6.387,38.258,38.258,0,0,0,.488-5.937,28.753,28.753,0,0,0-.576-6.094,20.22,20.22,0,0,0-1.377-4.316l.742-.234a26.632,26.632,0,0,1,2.92,6.768,27.8,27.8,0,0,1,1.064,7.607,21.307,21.307,0,0,1-1.309,7.734q-2.363,6.133-9.1,11.914Z" transform="translate(874 6713)" fill="#1ec488"/>
        <path id="Trazado_40627" data-name="Trazado 40627" d="M8.154.586A2.668,2.668,0,0,1,6.177-.232,2.7,2.7,0,0,1,5.371-2.2,2.64,2.64,0,0,1,6.189-4.15a2.7,2.7,0,0,1,1.965-.806,2.66,2.66,0,0,1,1.953.806A2.66,2.66,0,0,1,10.913-2.2,2.722,2.722,0,0,1,10.12-.232,2.629,2.629,0,0,1,8.154.586Z" transform="translate(1050 6706)" fill="#1ec488"/>
        <path id="Trazado_40678" data-name="Trazado 40678" d="M5.981-.452A2.5,2.5,0,0,0,8.447-2.417a18.511,18.511,0,0,0,.671-5.688,22.2,22.2,0,0,0-.4-4.736q-.757-3.3-2.832-3.3T3.04-12.744a22.667,22.667,0,0,0-.4,4.761,18.954,18.954,0,0,0,.415,4.431Q3.833-.452,5.981-.452ZM5.945-16.8A4.78,4.78,0,0,1,10.3-13.855a11.722,11.722,0,0,1,1.233,5.469,13.678,13.678,0,0,1-.757,4.578Q9.351.232,5.835.232A4.676,4.676,0,0,1,1.88-1.953,10.735,10.735,0,0,1,.22-8.289a12.221,12.221,0,0,1,1.111-5.42A4.88,4.88,0,0,1,5.945-16.8Z" transform="translate(1163 6723)" fill="#1ec488"/>
      </g>
    </g>
  </g>
</svg>
