<svg xmlns="http://www.w3.org/2000/svg" width="305.449" height="39.263" viewBox="0 0 305.449 39.263">
  <g id="Grupo_16465" data-name="Grupo 16465" transform="translate(-818.684 -5684.969)">
    <path id="Trazado_40673" data-name="Trazado 40673" d="M9.258-17.949v.547A4.075,4.075,0,0,0,8-17.2a.742.742,0,0,0-.518.771,7.254,7.254,0,0,0,1.035,2.09q.547.9,1.387,2.207,1.152-1.582,1.719-2.48a5.157,5.157,0,0,0,.957-1.875.672.672,0,0,0-.41-.684,3.78,3.78,0,0,0-1.152-.234v-.547H17.3v.547a4.67,4.67,0,0,0-1.855.537,3.876,3.876,0,0,0-1.387,1.221l-3.34,4.824,5.156,7.813a6.984,6.984,0,0,0,1.689,1.973,3.12,3.12,0,0,0,1.592.488V0H11.094V-.547l.566-.039a1.4,1.4,0,0,0,.752-.273.714.714,0,0,0,.3-.586,4.83,4.83,0,0,0-.742-1.641q-.352-.625-1.055-1.7-.332-.527-.986-1.465t-1.1-1.6l-3.145,4.9a12.973,12.973,0,0,0-.7,1.172,1.214,1.214,0,0,0-.137.488.47.47,0,0,0,.3.488,7.275,7.275,0,0,0,1.318.254V0H.684V-.547a4.644,4.644,0,0,0,1.563-.547A6.146,6.146,0,0,0,3.594-2.637L8.145-9.258l-3.75-5.684a10.043,10.043,0,0,0-1.562-2.012A4.343,4.343,0,0,0,.957-17.4v-.547Zm22.3,7.676h9.824v2.5H31.563Zm31.016-7.676v.547a4.075,4.075,0,0,0-1.26.205.742.742,0,0,0-.518.771,7.254,7.254,0,0,0,1.035,2.09q.547.9,1.387,2.207,1.152-1.582,1.719-2.48a5.157,5.157,0,0,0,.957-1.875.672.672,0,0,0-.41-.684,3.78,3.78,0,0,0-1.152-.234v-.547h6.289v.547a4.67,4.67,0,0,0-1.855.537,3.876,3.876,0,0,0-1.387,1.221l-3.34,4.824L69.2-3.008a6.984,6.984,0,0,0,1.689,1.973,3.12,3.12,0,0,0,1.592.488V0H64.414V-.547l.566-.039a1.4,1.4,0,0,0,.752-.273.714.714,0,0,0,.3-.586,4.83,4.83,0,0,0-.742-1.641q-.352-.625-1.055-1.7-.332-.527-.986-1.465t-1.1-1.6L59-2.949a12.972,12.972,0,0,0-.7,1.172,1.214,1.214,0,0,0-.137.488.47.47,0,0,0,.3.488,7.275,7.275,0,0,0,1.318.254V0H54V-.547a4.645,4.645,0,0,0,1.563-.547,6.146,6.146,0,0,0,1.348-1.543l4.551-6.621-3.75-5.684a10.043,10.043,0,0,0-1.562-2.012,4.343,4.343,0,0,0-1.875-.449v-.547ZM114.707-7.441v2.734h-20.2V-7.441Zm0-8.066v2.734h-20.2v-2.734Zm29.766-2.637v.605a5.146,5.146,0,0,0-1.436.313.847.847,0,0,0-.42.859,2,2,0,0,0,.088.6q.088.283.3.83l4.063,10.1,3.516-8.945q.254-.645.479-1.348a3.871,3.871,0,0,0,.225-1.074,1.128,1.128,0,0,0-.723-1.094,4.018,4.018,0,0,0-1.172-.234v-.605h5.547v.605a1.811,1.811,0,0,0-1.377.635,13.475,13.475,0,0,0-1.221,2.568L146.7-.273a2.95,2.95,0,0,1-.254.508.317.317,0,0,1-.273.137.392.392,0,0,1-.332-.225,6.007,6.007,0,0,1-.293-.557l-5.977-14.3a5.72,5.72,0,0,0-1.543-2.363,3.107,3.107,0,0,0-1.426-.469v-.605Zm53.242,8.105a18.684,18.684,0,0,1,4.063-11.934,20.065,20.065,0,0,1,5.9-5.059l.371.645a17.838,17.838,0,0,0-4.492,4.863q-2.363,4.121-2.363,10.977a32.607,32.607,0,0,0,.9,8.379,14.44,14.44,0,0,0,5.957,8.652l-.508.645a16.7,16.7,0,0,1-5.2-4.512A19.252,19.252,0,0,1,197.715-10.039Zm31.66-7.969V-16.6h-3.984l-.039,11.25a7.526,7.526,0,0,0,.254,2.246,1.8,1.8,0,0,0,1.836,1.348,2.211,2.211,0,0,0,1.221-.332,6.406,6.406,0,0,0,1.182-1.055l.508.43-.43.586A6.249,6.249,0,0,1,227.773-.2a4.884,4.884,0,0,1-2.187.566,3.078,3.078,0,0,1-3.125-2.051,8.493,8.493,0,0,1-.449-3.086V-16.6h-2.129a.575.575,0,0,1-.146-.117.236.236,0,0,1-.049-.156.466.466,0,0,1,.088-.3,5.858,5.858,0,0,1,.557-.5,16.819,16.819,0,0,0,1.943-1.807q.6-.693,2.8-3.662a.651.651,0,0,1,.3.039q.049.039.049.293v4.8Zm12.5,7.734H251.7v2.5h-9.824Zm31.934-7.734V-16.6h-3.984l-.039,11.25a7.526,7.526,0,0,0,.254,2.246,1.8,1.8,0,0,0,1.836,1.348A2.211,2.211,0,0,0,273.1-2.09a6.406,6.406,0,0,0,1.182-1.055l.508.43-.43.586A6.249,6.249,0,0,1,272.207-.2a4.884,4.884,0,0,1-2.187.566,3.078,3.078,0,0,1-3.125-2.051,8.493,8.493,0,0,1-.449-3.086V-16.6h-2.129a.575.575,0,0,1-.146-.117.236.236,0,0,1-.049-.156.466.466,0,0,1,.088-.3,5.858,5.858,0,0,1,.557-.5,16.818,16.818,0,0,0,1.943-1.807q.6-.693,2.8-3.662a.651.651,0,0,1,.3.039q.049.039.049.293v4.8Zm32.324,8.164a19.48,19.48,0,0,1-.762,5.508,19.134,19.134,0,0,1-2.227,4.9,19.277,19.277,0,0,1-4.121,4.59,15.6,15.6,0,0,1-2.852,1.973l-.371-.645A16.526,16.526,0,0,0,300.2,1.816q2.461-4.219,2.461-11.152a30.806,30.806,0,0,0-1.133-9.16,14.67,14.67,0,0,0-5.723-7.891l.508-.645a18.978,18.978,0,0,1,5.742,5.2A19.283,19.283,0,0,1,306.133-9.844Z" transform="translate(818 5712)" fill="#1ec488"/>
    <path id="Trazado_40675" data-name="Trazado 40675" d="M5.981-.452A2.5,2.5,0,0,0,8.447-2.417a18.511,18.511,0,0,0,.671-5.688,22.2,22.2,0,0,0-.4-4.736q-.757-3.3-2.832-3.3T3.04-12.744a22.667,22.667,0,0,0-.4,4.761,18.954,18.954,0,0,0,.415,4.431Q3.833-.452,5.981-.452ZM5.945-16.8A4.78,4.78,0,0,1,10.3-13.855a11.722,11.722,0,0,1,1.233,5.469,13.678,13.678,0,0,1-.757,4.578Q9.351.232,5.835.232A4.676,4.676,0,0,1,1.88-1.953,10.735,10.735,0,0,1,.22-8.289a12.221,12.221,0,0,1,1.111-5.42A4.88,4.88,0,0,1,5.945-16.8Z" transform="translate(892 5724)" fill="#1ec488"/>
    <path id="Trazado_40674" data-name="Trazado 40674" d="M5.981-.452A2.5,2.5,0,0,0,8.447-2.417a18.511,18.511,0,0,0,.671-5.688,22.2,22.2,0,0,0-.4-4.736q-.757-3.3-2.832-3.3T3.04-12.744a22.667,22.667,0,0,0-.4,4.761,18.954,18.954,0,0,0,.415,4.431Q3.833-.452,5.981-.452ZM5.945-16.8A4.78,4.78,0,0,1,10.3-13.855a11.722,11.722,0,0,1,1.233,5.469,13.678,13.678,0,0,1-.757,4.578Q9.351.232,5.835.232A4.676,4.676,0,0,1,1.88-1.953,10.735,10.735,0,0,1,.22-8.289a12.221,12.221,0,0,1,1.111-5.42A4.88,4.88,0,0,1,5.945-16.8Z" transform="translate(1099 5720)" fill="#1ec488"/>
    <path id="Trazado_40625" data-name="Trazado 40625" d="M8.154.586A2.668,2.668,0,0,1,6.177-.232,2.7,2.7,0,0,1,5.371-2.2,2.64,2.64,0,0,1,6.189-4.15a2.7,2.7,0,0,1,1.965-.806,2.66,2.66,0,0,1,1.953.806A2.66,2.66,0,0,1,10.913-2.2,2.722,2.722,0,0,1,10.12-.232,2.629,2.629,0,0,1,8.154.586Z" transform="translate(985 5706)" fill="#1ec488"/>
  </g>
</svg>
