<svg xmlns="http://www.w3.org/2000/svg" width="531" height="279.123" viewBox="0 0 531 279.123">
  <g id="Grupo_16471" data-name="Grupo 16471" transform="translate(-840 -8040)">
    <g id="Grupo_16469" data-name="Grupo 16469" transform="translate(-119)">
      <path id="Trazado_40681" data-name="Trazado 40681" d="M.236-.359l4.43-4.7A20.29,20.29,0,0,0,6.48-7.208a5.271,5.271,0,0,0,1.2-2.851,2.618,2.618,0,0,0-.7-1.846,2.491,2.491,0,0,0-1.923-.759,2.923,2.923,0,0,0-2.01.769,5.348,5.348,0,0,0-.933,1.21l-.441-.154a5.024,5.024,0,0,1,2.481-2.953,4.306,4.306,0,0,1,1.876-.42,3.148,3.148,0,0,1,2.538,1.1,3.688,3.688,0,0,1,.928,2.44,3.821,3.821,0,0,1-.713,2.2A21.609,21.609,0,0,1,6.368-5.732l-4.04,4.04V-1.6H6.316a2.415,2.415,0,0,0,1.3-.277,2.519,2.519,0,0,0,.795-1.036l.338.144L7.7,0H.236Z" transform="translate(1281 8096)" fill="#1ec488"/>
      <g id="Grupo_16446" data-name="Grupo 16446" transform="translate(7 -104)">
        <text id="X-x._v_t_-_t_" data-name="X-x. = v   ( t - t ) + " transform="translate(954 8189)" fill="#1ec488" font-size="40" font-family="Times-Italic, Times" font-style="italic"><tspan x="0" y="0" xml:space="preserve">x-x. = v   ( t - t ) + </tspan></text>
        <text id="_1" data-name="1" transform="translate(1274 8174)" fill="#1ec488" font-size="21" font-family="Times-Italic, Times" font-style="italic"><tspan x="0" y="0">1</tspan></text>
        <path id="Trazado_40628" data-name="Trazado 40628" d="M2066,372h27.955" transform="translate(-802 7807.319)" fill="none" stroke="#1ec488" stroke-width="2"/>
        <path id="Trazado_40629" data-name="Trazado 40629" d="M8.154.586A2.668,2.668,0,0,1,6.177-.232,2.7,2.7,0,0,1,5.371-2.2,2.64,2.64,0,0,1,6.189-4.15a2.7,2.7,0,0,1,1.965-.806,2.66,2.66,0,0,1,1.953.806A2.66,2.66,0,0,1,10.913-2.2,2.722,2.722,0,0,1,10.12-.232,2.629,2.629,0,0,1,8.154.586Z" transform="translate(1305 8182)" fill="#1ec488"/>
        <text id="A_T_-_t_" data-name="A   (T - t )" transform="translate(1330 8189)" fill="#1ec488" font-size="40" font-family="Times-Italic, Times" font-style="italic"><tspan x="0" y="0" xml:space="preserve">a   (t - t )</tspan></text>
        <text id="_2" data-name="2" transform="translate(1472 8160)" fill="#1ec488" font-size="21" font-family="Times-Italic, Times" font-style="italic"><tspan x="0" y="0">2</tspan></text>
        <text id="_0" data-name="0" transform="translate(1449 8197)" fill="#1ec488" font-size="21" font-family="Times-Italic, Times" font-style="italic"><tspan x="0" y="0">0</tspan></text>
        <path id="Trazado_40630" data-name="Trazado 40630" d="M8.154.586A2.668,2.668,0,0,1,6.177-.232,2.7,2.7,0,0,1,5.371-2.2,2.64,2.64,0,0,1,6.189-4.15a2.7,2.7,0,0,1,1.965-.806,2.66,2.66,0,0,1,1.953.806A2.66,2.66,0,0,1,10.913-2.2,2.722,2.722,0,0,1,10.12-.232,2.629,2.629,0,0,1,8.154.586Z" transform="translate(1357 8182)" fill="#1ec488"/>
        <text id="_0-2" data-name="0" transform="translate(1076 8196)" fill="#1ec488" font-size="21" font-family="Times-Italic, Times" font-style="italic"><tspan x="0" y="0">0</tspan></text>
        <path id="Trazado_40631" data-name="Trazado 40631" d="M8.154.586A2.668,2.668,0,0,1,6.177-.232,2.7,2.7,0,0,1,5.371-2.2,2.64,2.64,0,0,1,6.189-4.15a2.7,2.7,0,0,1,1.965-.806,2.66,2.66,0,0,1,1.953.806A2.66,2.66,0,0,1,10.913-2.2,2.722,2.722,0,0,1,10.12-.232,2.629,2.629,0,0,1,8.154.586Z" transform="translate(1089 8182)" fill="#1ec488"/>
      </g>
    </g>
    <g id="Grupo_16470" data-name="Grupo 16470" transform="translate(0.113)">
      <path id="Trazado_40686" data-name="Trazado 40686" d="M14.57-14.1a2.879,2.879,0,0,0-.645-2.07,2.1,2.1,0,0,0-1.562-.664q-3.184,0-5.918,4.883a15.812,15.812,0,0,0-2.4,7.4,3.233,3.233,0,0,0,.674,2.275,2.205,2.205,0,0,0,1.67.713q2.949,0,5.684-4.746A15.894,15.894,0,0,0,14.57-14.1Zm-2.441-3.613a3.317,3.317,0,0,1,2.383.8,2.9,2.9,0,0,1,.7,1.133l.1.273.43-1.484a1.488,1.488,0,0,1,.137-.342.359.359,0,0,1,.273-.107l2.207-.254q.176,0,.205.068a.452.452,0,0,1-.01.244q-.078.254-.117.4t-.117.42l-1.8,6.992q-.586,2.285-1,3.945A29.878,29.878,0,0,0,14.8-2.187a.5.5,0,0,0,.146.4.532.532,0,0,0,.361.127.776.776,0,0,0,.381-.117,4.076,4.076,0,0,0,.5-.352l.332-.273q.156-.137.352-.322t.469-.459l1.211-1.25.469.41A20.469,20.469,0,0,1,15.762-.5,3.95,3.95,0,0,1,13.418.43a1.349,1.349,0,0,1-1.123-.508,1.987,1.987,0,0,1-.4-1.27,11.163,11.163,0,0,1,.264-2.021q.264-1.318.518-2.217Q12.324-5,11.494-3.877A13.744,13.744,0,0,1,9.453-1.7,9.642,9.642,0,0,1,6.719.1,5.963,5.963,0,0,1,4.766.449,3.964,3.964,0,0,1,1.895-.85,5,5,0,0,1,.605-4.531q0-4.1,3.672-8.555Q8.066-17.715,12.129-17.715ZM54.59-15.176,54.1-12.812H34.043l.488-2.363Zm-1.68,7.91L52.422-4.9H32.363l.488-2.363ZM79.492-17.637a4.667,4.667,0,0,1,3.438,1.074,3.073,3.073,0,0,1,1.055,2.09,1.849,1.849,0,0,1-.547,1.426,1.832,1.832,0,0,1-1.289.508,1.721,1.721,0,0,1-1.211-.449,1.452,1.452,0,0,1-.488-1.113,2.289,2.289,0,0,1,.322-1.094,2.286,2.286,0,0,0,.322-.762.7.7,0,0,0-.4-.6,2.549,2.549,0,0,0-1.279-.244q-3.145,0-5.459,3.574a13.588,13.588,0,0,0-2.314,7.5,5.65,5.65,0,0,0,.938,3.457,3.291,3.291,0,0,0,2.813,1.25,5.512,5.512,0,0,0,2.92-.869A11.541,11.541,0,0,0,80.918-4.1l.137-.156.566.43a14.286,14.286,0,0,1-2.637,2.676A8.315,8.315,0,0,1,74,.469,5.641,5.641,0,0,1,69.766-1.2a6.269,6.269,0,0,1-1.621-4.561,11.532,11.532,0,0,1,3.613-8.164Q75.332-17.637,79.492-17.637ZM86.25-1.289q0-.156.02-.361a2.5,2.5,0,0,1,.078-.42L90.02-15.723H87.051a1.686,1.686,0,0,1,.078-.664.83.83,0,0,1,.391-.273,16.237,16.237,0,0,0,3.057-1.621,19.156,19.156,0,0,0,2.959-3.008l.313-.371a.46.46,0,0,1,.146-.127.376.376,0,0,1,.186-.049,1.211,1.211,0,0,1,.273.078.821.821,0,0,1,.068.244.879.879,0,0,1-.01.225L93.4-17.031h3.184l-.234,1.309h-3.32L89.512-2.578a.927.927,0,0,0,.059.674.542.542,0,0,0,.527.322q.508,0,1.426-1.016.527-.547,1.777-2.168l.508.293-.273.41A15.124,15.124,0,0,1,90.576-.557,4.05,4.05,0,0,1,88.145.43,1.8,1.8,0,0,1,86.7-.1,1.788,1.788,0,0,1,86.25-1.289ZM97.109-5.176q0-4.336,3.906-8.4,3.867-4.063,7.988-4.062a3.827,3.827,0,0,1,2.422.7,2.491,2.491,0,0,1,.9,2.09q0,2.813-3.291,4.814a17.29,17.29,0,0,1-6.924,2.451L101-7.441a13.254,13.254,0,0,0-.352,1.279,6.156,6.156,0,0,0-.1,1.2,3.325,3.325,0,0,0,1.123,2.676,3.977,3.977,0,0,0,2.666.957,6.11,6.11,0,0,0,3.105-.977,25.764,25.764,0,0,0,2.715-2.031l.508.449a12.315,12.315,0,0,1-2.52,2.285A9.962,9.962,0,0,1,102.3.488,5.147,5.147,0,0,1,98.672-.977,5.477,5.477,0,0,1,97.109-5.176Zm4.16-3.145a11.4,11.4,0,0,0,6.074-2.627q2.344-2.08,2.344-4.131a1.838,1.838,0,0,0-.352-1.182A1.247,1.247,0,0,0,108.3-16.7a3.749,3.749,0,0,0-2.49,1.084,14.656,14.656,0,0,0-2.2,2.451,19.234,19.234,0,0,0-1.641,3.066Q101.641-9.316,101.27-8.32Zm-86.5,20.684a1.973,1.973,0,0,1,1.68.781,2.885,2.885,0,0,1,.586,1.777q0,2.637-5.215,9.238Q6.875,30.43,5.9,30.43q-.293,0-.391-.8a13.5,13.5,0,0,1-.059-1.523q0-1.309-.254-4.434t-.488-4.629a17.985,17.985,0,0,0-.957-4.258,1.79,1.79,0,0,0-1.777-.957q-.215,0-.5.02t-.654.059V13.4q.586-.117,2.461-.527t1.992-.449l.645-.2q.273-.078.43.3a10.408,10.408,0,0,1,.391,1.416,65.907,65.907,0,0,1,1.113,6.7q.234,2.051.469,6.074l.645-.684a41.87,41.87,0,0,0,4.023-5.059Q15,18.047,15,16.836a2.3,2.3,0,0,0-.879-1.455,2.332,2.332,0,0,1-.879-1.553,1.378,1.378,0,0,1,.439-1.055A1.529,1.529,0,0,1,14.766,12.363Zm37.578,2.461-.488,2.363H31.8l.488-2.363Zm-1.68,7.91L50.176,25.1H30.117l.488-2.363ZM79.512,12.363a1.973,1.973,0,0,1,1.68.781,2.885,2.885,0,0,1,.586,1.777q0,2.637-5.215,9.238-4.941,6.27-5.918,6.27-.293,0-.391-.8a13.5,13.5,0,0,1-.059-1.523q0-1.309-.254-4.434t-.488-4.629a17.986,17.986,0,0,0-.957-4.258,1.79,1.79,0,0,0-1.777-.957q-.215,0-.5.02t-.654.059V13.4q.586-.117,2.461-.527t1.992-.449l.645-.2q.273-.078.43.3a10.409,10.409,0,0,1,.391,1.416,65.908,65.908,0,0,1,1.113,6.7q.234,2.051.469,6.074l.645-.684a41.87,41.87,0,0,0,4.023-5.059q2.012-2.93,2.012-4.141a2.3,2.3,0,0,0-.879-1.455,2.332,2.332,0,0,1-.879-1.553,1.378,1.378,0,0,1,.439-1.055A1.529,1.529,0,0,1,79.512,12.363Zm16.445,8.809V18.809H104.8V9.961h2.363v8.848h8.848v2.363h-8.848V30H104.8V21.172ZM144.063,15.9a2.879,2.879,0,0,0-.645-2.07,2.1,2.1,0,0,0-1.562-.664q-3.184,0-5.918,4.883a15.812,15.812,0,0,0-2.4,7.4,3.233,3.233,0,0,0,.674,2.275,2.205,2.205,0,0,0,1.67.713q2.949,0,5.684-4.746A15.894,15.894,0,0,0,144.063,15.9Zm-2.441-3.613a3.317,3.317,0,0,1,2.383.8,2.9,2.9,0,0,1,.7,1.133l.1.273.43-1.484a1.488,1.488,0,0,1,.137-.342.359.359,0,0,1,.273-.107l2.207-.254q.176,0,.205.068a.451.451,0,0,1-.01.244q-.078.254-.117.4t-.117.42l-1.8,6.992q-.586,2.285-1,3.945a29.879,29.879,0,0,0-.723,3.438.5.5,0,0,0,.146.4.532.532,0,0,0,.361.127.776.776,0,0,0,.381-.117,4.076,4.076,0,0,0,.5-.352l.332-.273q.156-.137.352-.322t.469-.459l1.211-1.25.469.41a20.469,20.469,0,0,1-3.262,3.525,3.95,3.95,0,0,1-2.344.928,1.349,1.349,0,0,1-1.123-.508,1.987,1.987,0,0,1-.4-1.27,11.163,11.163,0,0,1,.264-2.021q.264-1.318.518-2.217-.352.586-1.182,1.709a13.744,13.744,0,0,1-2.041,2.178,9.642,9.642,0,0,1-2.734,1.8,5.963,5.963,0,0,1-1.953.352,3.964,3.964,0,0,1-2.871-1.3,5,5,0,0,1-1.289-3.682q0-4.1,3.672-8.555Q137.559,12.285,141.621,12.285ZM171,28.711q0-.156.02-.361a2.494,2.494,0,0,1,.078-.42l3.672-13.652H171.8a1.687,1.687,0,0,1,.078-.664.83.83,0,0,1,.391-.273,16.236,16.236,0,0,0,3.057-1.621,19.156,19.156,0,0,0,2.959-3.008l.313-.371a.46.46,0,0,1,.146-.127.376.376,0,0,1,.186-.049,1.211,1.211,0,0,1,.273.078.821.821,0,0,1,.068.244.879.879,0,0,1-.01.225l-1.113,4.258h3.184l-.234,1.309h-3.32l-3.516,13.145a.927.927,0,0,0,.059.674.542.542,0,0,0,.527.322q.508,0,1.426-1.016.527-.547,1.777-2.168l.508.293-.273.41a15.125,15.125,0,0,1-2.959,3.506,4.05,4.05,0,0,1-2.432.986A1.687,1.687,0,0,1,171,28.711ZM-1.113,58.672a1.22,1.22,0,0,1,.469-1.084,1.672,1.672,0,0,1,.957-.322,1.667,1.667,0,0,1,.469.068,2.386,2.386,0,0,1,.508.225l.684.371a.979.979,0,0,0,.264.107,1.262,1.262,0,0,0,.283.029,1.067,1.067,0,0,0,.752-.244,19.339,19.339,0,0,0,1.357-1.709q.723-.957,3.281-4.668,0-.137-.449-2.1t-.82-3.33a7.158,7.158,0,0,0-.664-1.826,1.221,1.221,0,0,0-1.094-.439,5.715,5.715,0,0,0-1.074.2q-.508.117-1.094.273l-.176-.605,2.168-.742q.84-.293,1.553-.469a5.227,5.227,0,0,1,1.221-.176,1.516,1.516,0,0,1,1.23.488A7.591,7.591,0,0,1,9.766,45.8l.41,2.227a34.719,34.719,0,0,1,2.734-3.789,7.883,7.883,0,0,1,1.66-1.484,2.819,2.819,0,0,1,1.484-.488,2.515,2.515,0,0,1,1.074.2,1.33,1.33,0,0,1,.742,1.328,1.4,1.4,0,0,1-.371,1.035,1.3,1.3,0,0,1-.957.371,1.685,1.685,0,0,1-.41-.049,2.407,2.407,0,0,1-.41-.146l-.508-.215q-.215-.1-.41-.166a.991.991,0,0,0-.293-.068q-.879,0-2.441,2.275a10.966,10.966,0,0,0-1.562,2.627,15.09,15.09,0,0,0,.361,1.9q.361,1.611.791,3.408a16.218,16.218,0,0,0,.664,2.344q.449,1.055,1.016,1.055a1.525,1.525,0,0,0,1.074-.586,23.828,23.828,0,0,0,1.641-2.109l.547.332a16.352,16.352,0,0,1-1.738,2.6q-1.7,2.031-3.242,2.031a1.732,1.732,0,0,1-1.543-.937,6.948,6.948,0,0,1-.645-1.8L8.223,52.871l-4,5.254a12.923,12.923,0,0,1-1.807,1.836A2.574,2.574,0,0,1,.84,60.43a1.789,1.789,0,0,1-1.7-.781A1.818,1.818,0,0,1-1.113,58.672ZM52.344,44.824l-.488,2.363H31.8l.488-2.363Zm-1.68,7.91L50.176,55.1H30.117l.488-2.363Zm12.969,5.938a1.22,1.22,0,0,1,.469-1.084,1.6,1.6,0,0,1,1.426-.254,2.385,2.385,0,0,1,.508.225l.684.371a.979.979,0,0,0,.264.107,1.262,1.262,0,0,0,.283.029,1.067,1.067,0,0,0,.752-.244,19.338,19.338,0,0,0,1.357-1.709q.723-.957,3.281-4.668,0-.137-.449-2.1t-.82-3.33a7.158,7.158,0,0,0-.664-1.826,1.221,1.221,0,0,0-1.094-.439,5.715,5.715,0,0,0-1.074.2q-.508.117-1.094.273l-.176-.605,2.168-.742q.84-.293,1.553-.469a5.227,5.227,0,0,1,1.221-.176,1.516,1.516,0,0,1,1.23.488A7.591,7.591,0,0,1,74.512,45.8l.41,2.227a34.719,34.719,0,0,1,2.734-3.789,7.883,7.883,0,0,1,1.66-1.484,2.819,2.819,0,0,1,1.484-.488,2.515,2.515,0,0,1,1.074.2,1.33,1.33,0,0,1,.742,1.328,1.4,1.4,0,0,1-.371,1.035,1.3,1.3,0,0,1-.957.371,1.685,1.685,0,0,1-.41-.049,2.407,2.407,0,0,1-.41-.146l-.508-.215q-.215-.1-.41-.166a.991.991,0,0,0-.293-.068q-.879,0-2.441,2.275a10.967,10.967,0,0,0-1.562,2.627,15.091,15.091,0,0,0,.361,1.9q.361,1.611.791,3.408a16.218,16.218,0,0,0,.664,2.344q.449,1.055,1.016,1.055a1.525,1.525,0,0,0,1.074-.586A23.827,23.827,0,0,0,80.8,55.469l.547.332a16.352,16.352,0,0,1-1.738,2.6q-1.7,2.031-3.242,2.031a1.732,1.732,0,0,1-1.543-.937,6.948,6.948,0,0,1-.645-1.8l-1.211-4.824-4,5.254a12.923,12.923,0,0,1-1.807,1.836,2.574,2.574,0,0,1-1.572.469,1.789,1.789,0,0,1-1.7-.781A1.818,1.818,0,0,1,63.633,58.672Zm32.324-7.5V48.809H104.8V39.961h2.363v8.848h8.848v2.363h-8.848V60H104.8V51.172Zm48.3-8.809a1.973,1.973,0,0,1,1.68.781,2.885,2.885,0,0,1,.586,1.777q0,2.637-5.215,9.238-4.941,6.27-5.918,6.27-.293,0-.391-.8a13.5,13.5,0,0,1-.059-1.523q0-1.309-.254-4.434t-.488-4.629a17.985,17.985,0,0,0-.957-4.258,1.79,1.79,0,0,0-1.777-.957q-.215,0-.5.02t-.654.059V43.4q.586-.117,2.461-.527t1.992-.449l.645-.2q.273-.078.43.3a10.407,10.407,0,0,1,.391,1.416,65.9,65.9,0,0,1,1.113,6.7q.234,2.051.469,6.074l.645-.684a41.87,41.87,0,0,0,4.023-5.059q2.012-2.93,2.012-4.141a2.3,2.3,0,0,0-.879-1.455,2.332,2.332,0,0,1-.879-1.553,1.378,1.378,0,0,1,.439-1.055A1.529,1.529,0,0,1,144.258,42.363ZM168.75,58.711q0-.156.02-.361a2.494,2.494,0,0,1,.078-.42l3.672-13.652h-2.969a1.687,1.687,0,0,1,.078-.664.83.83,0,0,1,.391-.273,16.236,16.236,0,0,0,3.057-1.621,19.156,19.156,0,0,0,2.959-3.008l.313-.371a.46.46,0,0,1,.146-.127.376.376,0,0,1,.186-.049,1.211,1.211,0,0,1,.273.078.821.821,0,0,1,.068.244.879.879,0,0,1-.01.225L175.9,42.969h3.184l-.234,1.309h-3.32l-3.516,13.145a.927.927,0,0,0,.059.674.542.542,0,0,0,.527.322q.508,0,1.426-1.016.527-.547,1.777-2.168l.508.293-.273.41a15.125,15.125,0,0,1-2.959,3.506,4.05,4.05,0,0,1-2.432.986,1.687,1.687,0,0,1-1.895-1.719Zm23.066-7.539V48.809h8.848V39.961h2.363v8.848h8.848v2.363h-8.848V60h-2.363V51.172Z" transform="translate(842 8172)" fill="#1ec488"/>
      <path id="Trazado_40632" data-name="Trazado 40632" d="M8.154.586A2.668,2.668,0,0,1,6.177-.232,2.7,2.7,0,0,1,5.371-2.2,2.64,2.64,0,0,1,6.189-4.15a2.7,2.7,0,0,1,1.965-.806,2.66,2.66,0,0,1,1.953.806A2.66,2.66,0,0,1,10.913-2.2,2.722,2.722,0,0,1,10.12-.232,2.629,2.629,0,0,1,8.154.586Z" transform="translate(993 8196)" fill="#1ec488"/>
      <path id="Trazado_40690" data-name="Trazado 40690" d="M4.132-.41q1.958,0,3.394-3.9a18.266,18.266,0,0,0,1.241-6.378,5.283,5.283,0,0,0-.226-1.7,1.555,1.555,0,0,0-1.548-1.23q-2.1,0-3.558,4.532A19.725,19.725,0,0,0,2.328-3.312a5.069,5.069,0,0,0,.226,1.63A1.6,1.6,0,0,0,4.132-.41Zm2.892-13.8a2.94,2.94,0,0,1,2.84,1.958,7.354,7.354,0,0,1,.564,2.984,11.292,11.292,0,0,1-1.979,6.6Q6.5.123,4.05.123a3,3,0,0,1-2.41-1.215A5.193,5.193,0,0,1,.656-4.45a12.152,12.152,0,0,1,1.938-6.634Q4.583-14.212,7.024-14.212Z" transform="translate(922 8209)" fill="#1ec488"/>
      <path id="Trazado_40687" data-name="Trazado 40687" d="M4.132-.41q1.958,0,3.394-3.9a18.266,18.266,0,0,0,1.241-6.378,5.283,5.283,0,0,0-.226-1.7,1.555,1.555,0,0,0-1.548-1.23q-2.1,0-3.558,4.532A19.725,19.725,0,0,0,2.328-3.312a5.069,5.069,0,0,0,.226,1.63A1.6,1.6,0,0,0,4.132-.41Zm2.892-13.8a2.94,2.94,0,0,1,2.84,1.958,7.354,7.354,0,0,1,.564,2.984,11.292,11.292,0,0,1-1.979,6.6Q6.5.123,4.05.123a3,3,0,0,1-2.41-1.215A5.193,5.193,0,0,1,.656-4.45a12.152,12.152,0,0,1,1.938-6.634Q4.583-14.212,7.024-14.212Z" transform="translate(986 8234)" fill="#1ec488"/>
      <path id="Trazado_40633" data-name="Trazado 40633" d="M8.154.586A2.668,2.668,0,0,1,6.177-.232,2.7,2.7,0,0,1,5.371-2.2,2.64,2.64,0,0,1,6.189-4.15a2.7,2.7,0,0,1,1.965-.806,2.66,2.66,0,0,1,1.953.806A2.66,2.66,0,0,1,10.913-2.2,2.722,2.722,0,0,1,10.12-.232,2.629,2.629,0,0,1,8.154.586Z" transform="translate(996 8224)" fill="#1ec488"/>
      <path id="Trazado_40685" data-name="Trazado 40685" d="M.236-.359l4.43-4.7A20.29,20.29,0,0,0,6.48-7.208a5.271,5.271,0,0,0,1.2-2.851,2.618,2.618,0,0,0-.7-1.846,2.491,2.491,0,0,0-1.923-.759,2.923,2.923,0,0,0-2.01.769,5.348,5.348,0,0,0-.933,1.21l-.441-.154a5.024,5.024,0,0,1,2.481-2.953,4.306,4.306,0,0,1,1.876-.42,3.148,3.148,0,0,1,2.538,1.1,3.688,3.688,0,0,1,.928,2.44,3.821,3.821,0,0,1-.713,2.2A21.609,21.609,0,0,1,6.368-5.732l-4.04,4.04V-1.6H6.316a2.415,2.415,0,0,0,1.3-.277,2.519,2.519,0,0,0,.795-1.036l.338.144L7.7,0H.236Z" transform="translate(1074 8242)" fill="#1ec488"/>
      <path id="Trazado_40684" data-name="Trazado 40684" d="M1.015-.349l.7-.01a3.123,3.123,0,0,0,1.1-.3,1.179,1.179,0,0,0,.564-.764L6.265-11.761q.072-.256.108-.436a1.663,1.663,0,0,0,.036-.323A.492.492,0,0,0,6.173-13a1.7,1.7,0,0,0-.749-.123l-1,.051v-.318l.267-.041q.287-.051,1.523-.3t1.759-.359l.318-.072.195-.031.123.072q0,.062-.005.123a.526.526,0,0,1-.026.123L5.127-1.312q-.021.082-.036.164a.888.888,0,0,0-.015.164.5.5,0,0,0,.369.533A6.461,6.461,0,0,0,6.87-.308V0H1.015Z" transform="translate(1074 8216)" fill="#1ec488"/>
      <path id="Trazado_40634" data-name="Trazado 40634" d="M2066,372h27.955" transform="translate(-1002 7849.319)" fill="none" stroke="#1ec488" stroke-width="2"/>
      <path id="Trazado_40635" data-name="Trazado 40635" d="M8.154.586A2.668,2.668,0,0,1,6.177-.232,2.7,2.7,0,0,1,5.371-2.2,2.64,2.64,0,0,1,6.189-4.15a2.7,2.7,0,0,1,1.965-.806,2.66,2.66,0,0,1,1.953.806A2.66,2.66,0,0,1,10.913-2.2,2.722,2.722,0,0,1,10.12-.232,2.629,2.629,0,0,1,8.154.586Z" transform="translate(1098 8224)" fill="#1ec488"/>
      <path id="Trazado_40682" data-name="Trazado 40682" d="M14.57-14.1a2.879,2.879,0,0,0-.645-2.07,2.1,2.1,0,0,0-1.562-.664q-3.184,0-5.918,4.883a15.812,15.812,0,0,0-2.4,7.4,3.233,3.233,0,0,0,.674,2.275,2.205,2.205,0,0,0,1.67.713q2.949,0,5.684-4.746A15.894,15.894,0,0,0,14.57-14.1Zm-2.441-3.613a3.317,3.317,0,0,1,2.383.8,2.9,2.9,0,0,1,.7,1.133l.1.273.43-1.484a1.488,1.488,0,0,1,.137-.342.359.359,0,0,1,.273-.107l2.207-.254q.176,0,.205.068a.452.452,0,0,1-.01.244q-.078.254-.117.4t-.117.42l-1.8,6.992q-.586,2.285-1,3.945A29.878,29.878,0,0,0,14.8-2.187a.5.5,0,0,0,.146.4.532.532,0,0,0,.361.127.776.776,0,0,0,.381-.117,4.076,4.076,0,0,0,.5-.352l.332-.273q.156-.137.352-.322t.469-.459l1.211-1.25.469.41A20.469,20.469,0,0,1,15.762-.5,3.95,3.95,0,0,1,13.418.43a1.349,1.349,0,0,1-1.123-.508,1.987,1.987,0,0,1-.4-1.27,11.163,11.163,0,0,1,.264-2.021q.264-1.318.518-2.217Q12.324-5,11.494-3.877A13.744,13.744,0,0,1,9.453-1.7,9.642,9.642,0,0,1,6.719.1,5.963,5.963,0,0,1,4.766.449,3.964,3.964,0,0,1,1.895-.85,5,5,0,0,1,.605-4.531q0-4.1,3.672-8.555Q8.066-17.715,12.129-17.715ZM41.5-1.289q0-.156.02-.361a2.5,2.5,0,0,1,.078-.42l3.672-13.652H42.3a1.687,1.687,0,0,1,.078-.664.83.83,0,0,1,.391-.273,16.237,16.237,0,0,0,3.057-1.621,19.156,19.156,0,0,0,2.959-3.008l.313-.371a.46.46,0,0,1,.146-.127.376.376,0,0,1,.186-.049,1.211,1.211,0,0,1,.273.078.821.821,0,0,1,.068.244.879.879,0,0,1-.01.225l-1.113,4.258h3.184L51.6-15.723h-3.32L44.766-2.578a.927.927,0,0,0,.059.674.542.542,0,0,0,.527.322q.508,0,1.426-1.016.527-.547,1.777-2.168l.508.293-.273.41A15.125,15.125,0,0,1,45.83-.557,4.05,4.05,0,0,1,43.4.43,1.8,1.8,0,0,1,41.953-.1,1.788,1.788,0,0,1,41.5-1.289Z" transform="translate(1127 8229)" fill="#1ec488"/>
      <path id="Trazado_40683" data-name="Trazado 40683" d="M.236-.359l4.43-4.7A20.29,20.29,0,0,0,6.48-7.208a5.271,5.271,0,0,0,1.2-2.851,2.618,2.618,0,0,0-.7-1.846,2.491,2.491,0,0,0-1.923-.759,2.923,2.923,0,0,0-2.01.769,5.348,5.348,0,0,0-.933,1.21l-.441-.154a5.024,5.024,0,0,1,2.481-2.953,4.306,4.306,0,0,1,1.876-.42,3.148,3.148,0,0,1,2.538,1.1,3.688,3.688,0,0,1,.928,2.44,3.821,3.821,0,0,1-.713,2.2A21.609,21.609,0,0,1,6.368-5.732l-4.04,4.04V-1.6H6.316a2.415,2.415,0,0,0,1.3-.277,2.519,2.519,0,0,0,.795-1.036l.338.144L7.7,0H.236Z" transform="translate(1188 8214)" fill="#1ec488"/>
      <path id="Trazado_40636" data-name="Trazado 40636" d="M8.154.586A2.668,2.668,0,0,1,6.177-.232,2.7,2.7,0,0,1,5.371-2.2,2.64,2.64,0,0,1,6.189-4.15a2.7,2.7,0,0,1,1.965-.806,2.66,2.66,0,0,1,1.953.806A2.66,2.66,0,0,1,10.913-2.2,2.722,2.722,0,0,1,10.12-.232,2.629,2.629,0,0,1,8.154.586Z" transform="translate(1149 8224)" fill="#1ec488"/>
      <path id="Trazado_40691" data-name="Trazado 40691" d="M4.132-.41q1.958,0,3.394-3.9a18.266,18.266,0,0,0,1.241-6.378,5.283,5.283,0,0,0-.226-1.7,1.555,1.555,0,0,0-1.548-1.23q-2.1,0-3.558,4.532A19.725,19.725,0,0,0,2.328-3.312a5.069,5.069,0,0,0,.226,1.63A1.6,1.6,0,0,0,4.132-.41Zm2.892-13.8a2.94,2.94,0,0,1,2.84,1.958,7.354,7.354,0,0,1,.564,2.984,11.292,11.292,0,0,1-1.979,6.6Q6.5.123,4.05.123a3,3,0,0,1-2.41-1.215A5.193,5.193,0,0,1,.656-4.45a12.152,12.152,0,0,1,1.938-6.634Q4.583-14.212,7.024-14.212Z" transform="translate(922 8237)" fill="#1ec488"/>
      <path id="Trazado_40688" data-name="Trazado 40688" d="M14.766-17.637a1.973,1.973,0,0,1,1.68.781,2.885,2.885,0,0,1,.586,1.777q0,2.637-5.215,9.238Q6.875.43,5.9.43q-.293,0-.391-.8a13.5,13.5,0,0,1-.059-1.523q0-1.309-.254-4.434t-.488-4.629a17.985,17.985,0,0,0-.957-4.258,1.79,1.79,0,0,0-1.777-.957q-.215,0-.5.02t-.654.059V-16.6q.586-.117,2.461-.527t1.992-.449l.645-.2q.273-.078.43.3a10.408,10.408,0,0,1,.391,1.416,65.907,65.907,0,0,1,1.113,6.7Q8.086-7.3,8.32-3.281l.645-.684a41.87,41.87,0,0,0,4.023-5.059Q15-11.953,15-13.164a2.3,2.3,0,0,0-.879-1.455,2.332,2.332,0,0,1-.879-1.553,1.378,1.378,0,0,1,.439-1.055A1.529,1.529,0,0,1,14.766-17.637Zm37.578,2.461-.488,2.363H31.8l.488-2.363Zm-1.68,7.91L50.176-4.9H30.117l.488-2.363ZM79.512-17.637a1.973,1.973,0,0,1,1.68.781,2.885,2.885,0,0,1,.586,1.777q0,2.637-5.215,9.238Q71.621.43,70.645.43q-.293,0-.391-.8A13.5,13.5,0,0,1,70.2-1.895q0-1.309-.254-4.434t-.488-4.629a17.986,17.986,0,0,0-.957-4.258,1.79,1.79,0,0,0-1.777-.957q-.215,0-.5.02t-.654.059V-16.6q.586-.117,2.461-.527t1.992-.449l.645-.2q.273-.078.43.3a10.409,10.409,0,0,1,.391,1.416,65.908,65.908,0,0,1,1.113,6.7q.234,2.051.469,6.074l.645-.684a41.87,41.87,0,0,0,4.023-5.059q2.012-2.93,2.012-4.141a2.3,2.3,0,0,0-.879-1.455,2.332,2.332,0,0,1-.879-1.553,1.378,1.378,0,0,1,.439-1.055A1.529,1.529,0,0,1,79.512-17.637Zm26.445,8.809v-2.363H114.8v-8.848h2.363v8.848h8.848v2.363h-8.848V0H114.8V-8.828ZM139.941-.684l8.438-8.945a38.648,38.648,0,0,0,3.457-4.1q2.285-3.2,2.285-5.43a4.987,4.987,0,0,0-1.338-3.516,4.745,4.745,0,0,0-3.662-1.445,5.568,5.568,0,0,0-3.828,1.465,10.187,10.187,0,0,0-1.777,2.3l-.84-.293A9.57,9.57,0,0,1,147.4-26.27a8.2,8.2,0,0,1,3.574-.8,6,6,0,0,1,4.834,2.09,7.024,7.024,0,0,1,1.768,4.648,7.278,7.278,0,0,1-1.357,4.2,41.16,41.16,0,0,1-4.6,5.215l-7.7,7.7v.176h7.6a4.6,4.6,0,0,0,2.471-.527,4.8,4.8,0,0,0,1.514-1.973l.645.273L154.16,0H139.941ZM174.063-14.1a2.879,2.879,0,0,0-.645-2.07,2.1,2.1,0,0,0-1.562-.664q-3.184,0-5.918,4.883a15.812,15.812,0,0,0-2.4,7.4,3.233,3.233,0,0,0,.674,2.275,2.205,2.205,0,0,0,1.67.713q2.949,0,5.684-4.746A15.894,15.894,0,0,0,174.063-14.1Zm-2.441-3.613a3.317,3.317,0,0,1,2.383.8,2.9,2.9,0,0,1,.7,1.133l.1.273.43-1.484a1.488,1.488,0,0,1,.137-.342.359.359,0,0,1,.273-.107l2.207-.254q.176,0,.205.068a.451.451,0,0,1-.01.244q-.078.254-.117.4t-.117.42l-1.8,6.992q-.586,2.285-1,3.945a29.879,29.879,0,0,0-.723,3.438.5.5,0,0,0,.146.4.532.532,0,0,0,.361.127.776.776,0,0,0,.381-.117,4.076,4.076,0,0,0,.5-.352l.332-.273q.156-.137.352-.322t.469-.459l1.211-1.25.469.41A20.469,20.469,0,0,1,175.254-.5,3.95,3.95,0,0,1,172.91.43a1.349,1.349,0,0,1-1.123-.508,1.987,1.987,0,0,1-.4-1.27,11.163,11.163,0,0,1,.264-2.021q.264-1.318.518-2.217-.352.586-1.182,1.709A13.744,13.744,0,0,1,168.945-1.7,9.642,9.642,0,0,1,166.211.1a5.963,5.963,0,0,1-1.953.352,3.964,3.964,0,0,1-2.871-1.3A5,5,0,0,1,160.1-4.531q0-4.1,3.672-8.555Q167.559-17.715,171.621-17.715Zm30.449-8.437a26.762,26.762,0,0,0-2.949,3.613,26.327,26.327,0,0,0-3.2,6.836,41.8,41.8,0,0,0-1.543,6.631,38.45,38.45,0,0,0-.449,5.244,32.75,32.75,0,0,0,.361,5.381,37.15,37.15,0,0,0,1.533,5.5l-.684.234A28.269,28.269,0,0,1,192.1.107a28.433,28.433,0,0,1-.947-7.217,21.154,21.154,0,0,1,1.582-8.437q2.363-5.488,8.828-11.211ZM201.7-1.328a1.22,1.22,0,0,1,.469-1.084,1.672,1.672,0,0,1,.957-.322,1.667,1.667,0,0,1,.469.068,2.386,2.386,0,0,1,.508.225l.684.371a.979.979,0,0,0,.264.107,1.262,1.262,0,0,0,.283.029,1.067,1.067,0,0,0,.752-.244,19.34,19.34,0,0,0,1.357-1.709q.723-.957,3.281-4.668,0-.137-.449-2.1t-.82-3.33a7.158,7.158,0,0,0-.664-1.826,1.221,1.221,0,0,0-1.094-.439,5.715,5.715,0,0,0-1.074.2q-.508.117-1.094.273l-.176-.605,2.168-.742q.84-.293,1.553-.469a5.227,5.227,0,0,1,1.221-.176,1.516,1.516,0,0,1,1.23.488,7.591,7.591,0,0,1,1.055,3.086l.41,2.227a34.718,34.718,0,0,1,2.734-3.789,7.883,7.883,0,0,1,1.66-1.484,2.819,2.819,0,0,1,1.484-.488,2.515,2.515,0,0,1,1.074.2,1.33,1.33,0,0,1,.742,1.328,1.4,1.4,0,0,1-.371,1.035,1.3,1.3,0,0,1-.957.371,1.685,1.685,0,0,1-.41-.049,2.408,2.408,0,0,1-.41-.146l-.508-.215q-.215-.1-.41-.166a.991.991,0,0,0-.293-.068q-.879,0-2.441,2.275a10.966,10.966,0,0,0-1.562,2.627,15.089,15.089,0,0,0,.361,1.9q.361,1.611.791,3.408a16.218,16.218,0,0,0,.664,2.344q.449,1.055,1.016,1.055a1.525,1.525,0,0,0,1.074-.586,23.83,23.83,0,0,0,1.641-2.109l.547.332a16.352,16.352,0,0,1-1.738,2.6Q215.977.43,214.434.43a1.732,1.732,0,0,1-1.543-.937,6.947,6.947,0,0,1-.645-1.8l-1.211-4.824-4,5.254a12.924,12.924,0,0,1-1.807,1.836,2.574,2.574,0,0,1-1.572.469,1.789,1.789,0,0,1-1.7-.781A1.818,1.818,0,0,1,201.7-1.328Zm21.367-8.848h8.789l-.566,2.5H222.5Zm9.707,8.848a1.22,1.22,0,0,1,.469-1.084,1.672,1.672,0,0,1,.957-.322,1.667,1.667,0,0,1,.469.068,2.386,2.386,0,0,1,.508.225l.684.371a.979.979,0,0,0,.264.107,1.262,1.262,0,0,0,.283.029,1.067,1.067,0,0,0,.752-.244,19.34,19.34,0,0,0,1.357-1.709q.723-.957,3.281-4.668,0-.137-.449-2.1t-.82-3.33a7.158,7.158,0,0,0-.664-1.826,1.221,1.221,0,0,0-1.094-.439,5.715,5.715,0,0,0-1.074.2q-.508.117-1.094.273l-.176-.605,2.168-.742q.84-.293,1.553-.469a5.227,5.227,0,0,1,1.221-.176,1.516,1.516,0,0,1,1.23.488,7.591,7.591,0,0,1,1.055,3.086l.41,2.227a34.718,34.718,0,0,1,2.734-3.789,7.883,7.883,0,0,1,1.66-1.484,2.819,2.819,0,0,1,1.484-.488,2.515,2.515,0,0,1,1.074.2,1.33,1.33,0,0,1,.742,1.328,1.4,1.4,0,0,1-.371,1.035,1.3,1.3,0,0,1-.957.371,1.685,1.685,0,0,1-.41-.049,2.408,2.408,0,0,1-.41-.146l-.508-.215q-.215-.1-.41-.166a.991.991,0,0,0-.293-.068q-.879,0-2.441,2.275a10.966,10.966,0,0,0-1.562,2.627,15.089,15.089,0,0,0,.361,1.9q.361,1.611.791,3.408a16.218,16.218,0,0,0,.664,2.344q.449,1.055,1.016,1.055a1.525,1.525,0,0,0,1.074-.586,23.83,23.83,0,0,0,1.641-2.109l.547.332a16.352,16.352,0,0,1-1.738,2.6Q247.051.43,245.508.43a1.732,1.732,0,0,1-1.543-.937,6.947,6.947,0,0,1-.645-1.8l-1.211-4.824-4,5.254A12.924,12.924,0,0,1,236.3-.039a2.574,2.574,0,0,1-1.572.469,1.789,1.789,0,0,1-1.7-.781A1.818,1.818,0,0,1,232.773-1.328Zm39.512,7.91a32.21,32.21,0,0,0,3.105-3.789,26.434,26.434,0,0,0,3.027-6.66,43.928,43.928,0,0,0,1.523-6.387,38.258,38.258,0,0,0,.488-5.937,28.753,28.753,0,0,0-.576-6.094,20.22,20.22,0,0,0-1.377-4.316l.742-.234a26.632,26.632,0,0,1,2.92,6.768,27.8,27.8,0,0,1,1.064,7.607,21.307,21.307,0,0,1-1.309,7.734q-2.363,6.133-9.1,11.914Z" transform="translate(842 8309)" fill="#1ec488"/>
      <path id="Trazado_40694" data-name="Trazado 40694" d="M.236-.359l4.43-4.7A20.29,20.29,0,0,0,6.48-7.208a5.271,5.271,0,0,0,1.2-2.851,2.618,2.618,0,0,0-.7-1.846,2.491,2.491,0,0,0-1.923-.759,2.923,2.923,0,0,0-2.01.769,5.348,5.348,0,0,0-.933,1.21l-.441-.154a5.024,5.024,0,0,1,2.481-2.953,4.306,4.306,0,0,1,1.876-.42,3.148,3.148,0,0,1,2.538,1.1,3.688,3.688,0,0,1,.928,2.44,3.821,3.821,0,0,1-.713,2.2A21.609,21.609,0,0,1,6.368-5.732l-4.04,4.04V-1.6H6.316a2.415,2.415,0,0,0,1.3-.277,2.519,2.519,0,0,0,.795-1.036l.338.144L7.7,0H.236Z" transform="translate(862 8285)" fill="#1ec488"/>
      <path id="Trazado_40692" data-name="Trazado 40692" d="M.236-.359l4.43-4.7A20.29,20.29,0,0,0,6.48-7.208a5.271,5.271,0,0,0,1.2-2.851,2.618,2.618,0,0,0-.7-1.846,2.491,2.491,0,0,0-1.923-.759,2.923,2.923,0,0,0-2.01.769,5.348,5.348,0,0,0-.933,1.21l-.441-.154a5.024,5.024,0,0,1,2.481-2.953,4.306,4.306,0,0,1,1.876-.42,3.148,3.148,0,0,1,2.538,1.1,3.688,3.688,0,0,1,.928,2.44,3.821,3.821,0,0,1-.713,2.2A21.609,21.609,0,0,1,6.368-5.732l-4.04,4.04V-1.6H6.316a2.415,2.415,0,0,0,1.3-.277,2.519,2.519,0,0,0,.795-1.036l.338.144L7.7,0H.236Z" transform="translate(929 8285)" fill="#1ec488"/>
      <path id="Trazado_40693" data-name="Trazado 40693" d="M.236-.359l4.43-4.7A20.29,20.29,0,0,0,6.48-7.208a5.271,5.271,0,0,0,1.2-2.851,2.618,2.618,0,0,0-.7-1.846,2.491,2.491,0,0,0-1.923-.759,2.923,2.923,0,0,0-2.01.769,5.348,5.348,0,0,0-.933,1.21l-.441-.154a5.024,5.024,0,0,1,2.481-2.953,4.306,4.306,0,0,1,1.876-.42,3.148,3.148,0,0,1,2.538,1.1,3.688,3.688,0,0,1,.928,2.44,3.821,3.821,0,0,1-.713,2.2A21.609,21.609,0,0,1,6.368-5.732l-4.04,4.04V-1.6H6.316a2.415,2.415,0,0,0,1.3-.277,2.519,2.519,0,0,0,.795-1.036l.338.144L7.7,0H.236Z" transform="translate(929 8319)" fill="#1ec488"/>
      <path id="Trazado_40689" data-name="Trazado 40689" d="M4.132-.41q1.958,0,3.394-3.9a18.266,18.266,0,0,0,1.241-6.378,5.283,5.283,0,0,0-.226-1.7,1.555,1.555,0,0,0-1.548-1.23q-2.1,0-3.558,4.532A19.725,19.725,0,0,0,2.328-3.312a5.069,5.069,0,0,0,.226,1.63A1.6,1.6,0,0,0,4.132-.41Zm2.892-13.8a2.94,2.94,0,0,1,2.84,1.958,7.354,7.354,0,0,1,.564,2.984,11.292,11.292,0,0,1-1.979,6.6Q6.5.123,4.05.123a3,3,0,0,1-2.41-1.215A5.193,5.193,0,0,1,.656-4.45a12.152,12.152,0,0,1,1.938-6.634Q4.583-14.212,7.024-14.212Z" transform="translate(1098 8319)" fill="#1ec488"/>
    </g>
  </g>
</svg>
