<svg xmlns="http://www.w3.org/2000/svg" width="516.449" height="88.676" viewBox="0 0 516.449 88.676">
  <g id="Grupo_16464" data-name="Grupo 16464" transform="translate(-810.723 -4383.695)">
    <path id="Trazado_40666" data-name="Trazado 40666" d="M-4.932-1.8l-8.047-19.219L-21.143-1.8ZM.537,0H-23.916L-12.1-27.266h.781ZM16.494-17.949v.547a4.075,4.075,0,0,0-1.26.205.742.742,0,0,0-.518.771,7.254,7.254,0,0,0,1.035,2.09q.547.9,1.387,2.207,1.152-1.582,1.719-2.48a5.157,5.157,0,0,0,.957-1.875.672.672,0,0,0-.41-.684,3.78,3.78,0,0,0-1.152-.234v-.547h6.289v.547a4.67,4.67,0,0,0-1.855.537A3.876,3.876,0,0,0,21.3-15.645l-3.34,4.824,5.156,7.813A6.984,6.984,0,0,0,24.8-1.035,3.12,3.12,0,0,0,26.4-.547V0H18.33V-.547L18.9-.586a1.4,1.4,0,0,0,.752-.273.714.714,0,0,0,.3-.586,4.83,4.83,0,0,0-.742-1.641q-.352-.625-1.055-1.7-.332-.527-.986-1.465t-1.1-1.6l-3.145,4.9a12.972,12.972,0,0,0-.7,1.172,1.214,1.214,0,0,0-.137.488.47.47,0,0,0,.3.488A7.275,7.275,0,0,0,13.7-.547V0H7.92V-.547a4.644,4.644,0,0,0,1.563-.547A6.146,6.146,0,0,0,10.83-2.637l4.551-6.621-3.75-5.684a10.043,10.043,0,0,0-1.562-2.012A4.343,4.343,0,0,0,8.193-17.4v-.547Z" transform="translate(1052 4411)" fill="#1ec488"/>
    <path id="Trazado_40665" data-name="Trazado 40665" d="M8.594-18.145v.605a5.146,5.146,0,0,0-1.436.313.847.847,0,0,0-.42.859,2,2,0,0,0,.088.6q.088.283.3.83l4.063,10.1,3.516-8.945q.254-.645.479-1.348a3.871,3.871,0,0,0,.225-1.074,1.128,1.128,0,0,0-.723-1.094,4.019,4.019,0,0,0-1.172-.234v-.605h5.547v.605a1.811,1.811,0,0,0-1.377.635,13.475,13.475,0,0,0-1.221,2.568L10.82-.273a2.95,2.95,0,0,1-.254.508.317.317,0,0,1-.273.137A.392.392,0,0,1,9.961.146,6,6,0,0,1,9.668-.41l-5.977-14.3A5.72,5.72,0,0,0,2.148-17.07a3.107,3.107,0,0,0-1.426-.469v-.605Zm52.793,10.7v2.734h-20.2V-7.441Zm0-8.066v2.734h-20.2v-2.734ZM93.379-.547a4.624,4.624,0,0,0,2.461-.732,2.83,2.83,0,0,0,.645-2.178V-22.539a4.983,4.983,0,0,0-.215-1.777,1.574,1.574,0,0,0-1.582-.82,3.346,3.346,0,0,0-.6.059q-.322.059-.811.176v-.645q2.637-.7,6.348-1.875a.15.15,0,0,1,.166.117,2.677,2.677,0,0,1,.029.508V-3.379a2.928,2.928,0,0,0,.586,2.2,4.561,4.561,0,0,0,2.422.635V0H93.379Zm13.574-24.668a2.006,2.006,0,0,1,.586-1.445,1.932,1.932,0,0,1,1.445-.605,1.957,1.957,0,0,1,1.436.6,1.979,1.979,0,0,1,.6,1.455,1.957,1.957,0,0,1-.6,1.436,1.957,1.957,0,0,1-1.436.6,1.947,1.947,0,0,1-1.445-.6A1.973,1.973,0,0,1,106.953-25.215Zm-2.5,24.668a4.982,4.982,0,0,0,2.637-.713q.547-.518.547-2.8v-9.316a5.925,5.925,0,0,0-.176-1.758,1.181,1.181,0,0,0-1.23-.8,2.239,2.239,0,0,0-.42.039q-.205.039-1.182.313v-.605l.84-.273q3.418-1.113,4.766-1.68a2.544,2.544,0,0,1,.7-.234,1.062,1.062,0,0,1,.039.293V-4.062q0,2.227.537,2.793a4.009,4.009,0,0,0,2.432.723V0h-9.492Zm10.977.039a4.465,4.465,0,0,0,2.031-.508,2.663,2.663,0,0,0,.781-2.266v-10.1a3.178,3.178,0,0,0-.381-1.895,1.569,1.569,0,0,0-1.26-.449,3.564,3.564,0,0,0-.615.039,3.279,3.279,0,0,0-.479.137v-.684l1.406-.469q.762-.254,2.5-.918t1.836-.664a.109.109,0,0,1,.117.1,2.273,2.273,0,0,1,.02.371v2.637a14.9,14.9,0,0,1,3.34-2.432,6.619,6.619,0,0,1,2.891-.674,4.034,4.034,0,0,1,3.2,1.367,5.935,5.935,0,0,1,1.035,2.012,16.29,16.29,0,0,1,2.52-2.168,6.859,6.859,0,0,1,3.789-1.211,4.1,4.1,0,0,1,4.2,2.559,12.673,12.673,0,0,1,.605,4.57v8.105a2.335,2.335,0,0,0,.615,1.885,4.333,4.333,0,0,0,2.217.654V0h-8.809V-.547a3.85,3.85,0,0,0,2.236-.684,3.088,3.088,0,0,0,.537-2.148V-11.8a7.115,7.115,0,0,0-.41-2.793,2.8,2.8,0,0,0-2.832-1.6,4.484,4.484,0,0,0-2.52.84,12.48,12.48,0,0,0-1.777,1.563v10a4.283,4.283,0,0,0,.557,2.4,2.815,2.815,0,0,0,2.354.879V0h-8.965V-.508a3.577,3.577,0,0,0,2.363-.9,6.408,6.408,0,0,0,.508-3.262v-5.469a14.644,14.644,0,0,0-.391-4.141,2.623,2.623,0,0,0-2.734-1.914,4.7,4.7,0,0,0-2.344.654,7.363,7.363,0,0,0-2.031,1.709V-3.145a3.075,3.075,0,0,0,.518,2.051,3.2,3.2,0,0,0,2.256.586V0H115.43Z" transform="translate(810 4431)" fill="#1ec488"/>
    <path id="Trazado_40667" data-name="Trazado 40667" d="M21.387-7.441v2.734H1.191V-7.441Zm0-8.066v2.734H1.191v-2.734Z" transform="translate(1153 4431)" fill="#1ec488"/>
    <path id="Trazado_40621" data-name="Trazado 40621" d="M2066,372h141.172" transform="translate(-1072 4051)" fill="none" stroke="#1ec488" stroke-width="2"/>
    <path id="Trazado_40668" data-name="Trazado 40668" d="M-.488-1.8-8.535-21.016-16.7-1.8ZM4.98,0H-19.473L-7.656-27.266h.781ZM21.855-18.008V-16.6H17.871l-.039,11.25a7.526,7.526,0,0,0,.254,2.246,1.8,1.8,0,0,0,1.836,1.348,2.211,2.211,0,0,0,1.221-.332,6.406,6.406,0,0,0,1.182-1.055l.508.43-.43.586A6.249,6.249,0,0,1,20.254-.2a4.884,4.884,0,0,1-2.187.566A3.078,3.078,0,0,1,14.941-1.68a8.493,8.493,0,0,1-.449-3.086V-16.6H12.363a.575.575,0,0,1-.146-.117.236.236,0,0,1-.049-.156.466.466,0,0,1,.088-.3,5.858,5.858,0,0,1,.557-.5,16.818,16.818,0,0,0,1.943-1.807q.6-.693,2.8-3.662a.651.651,0,0,1,.3.039q.049.039.049.293v4.8Z" transform="translate(1052 4471)" fill="#1ec488"/>
    <path id="Trazado_40669" data-name="Trazado 40669" d="M-.488-1.8-8.535-21.016-16.7-1.8ZM4.98,0H-19.473L-7.656-27.266h.781ZM21.855-18.008V-16.6H17.871l-.039,11.25a7.526,7.526,0,0,0,.254,2.246,1.8,1.8,0,0,0,1.836,1.348,2.211,2.211,0,0,0,1.221-.332,6.406,6.406,0,0,0,1.182-1.055l.508.43-.43.586A6.249,6.249,0,0,1,20.254-.2a4.884,4.884,0,0,1-2.187.566A3.078,3.078,0,0,1,14.941-1.68a8.493,8.493,0,0,1-.449-3.086V-16.6H12.363a.575.575,0,0,1-.146-.117.236.236,0,0,1-.049-.156.466.466,0,0,1,.088-.3,5.858,5.858,0,0,1,.557-.5,16.818,16.818,0,0,0,1.943-1.807q.6-.693,2.8-3.662a.651.651,0,0,1,.3.039q.049.039.049.293v4.8Z" transform="translate(896 4471)" fill="#1ec488"/>
    <g id="Grupo_16445" data-name="Grupo 16445" transform="translate(93 -37)">
      <path id="Trazado_40622" data-name="Trazado 40622" d="M5338.615,3203.229h25.5" transform="translate(-4503 1296)" fill="none" stroke="#1ec488" stroke-width="2"/>
      <path id="Trazado_40623" data-name="Trazado 40623" d="M5360.908,3195l8.313,8.313-8.312,8.313" transform="translate(-4508 1296)" fill="none" stroke="#1ec488" stroke-width="2"/>
    </g>
    <path id="Trazado_40670" data-name="Trazado 40670" d="M-.43-.723q2.871,0,3.945-3.145a29.618,29.618,0,0,0,1.074-9.1,35.524,35.524,0,0,0-.645-7.578Q2.734-25.82-.586-25.82t-4.551,5.43a36.267,36.267,0,0,0-.645,7.617,30.326,30.326,0,0,0,.664,7.09Q-3.867-.723-.43-.723ZM-.488-26.875q4.492,0,6.973,4.707a18.754,18.754,0,0,1,1.973,8.75A21.884,21.884,0,0,1,7.246-6.094Q4.961.371-.664.371a7.481,7.481,0,0,1-6.328-3.5q-2.656-3.73-2.656-10.137a19.553,19.553,0,0,1,1.777-8.672Q-5.469-26.875-.488-26.875Z" transform="translate(974 4472)" fill="#1ec488"/>
    <path id="Trazado_40671" data-name="Trazado 40671" d="M-15.527-18.457a5.547,5.547,0,0,1,2.617.625,6.249,6.249,0,0,1,1.5,1.133V-22.91a3.545,3.545,0,0,0-.264-1.641Q-11.934-25-12.93-25a3.765,3.765,0,0,0-.41.02q-.176.02-.781.078v-.645l1.6-.41q.879-.234,1.758-.488t1.543-.488q.312-.1,1.035-.371l.117.039-.039,2.051q-.02,1.113-.039,2.295t-.02,2.334L-8.2-4.629a3.625,3.625,0,0,0,.313,1.777q.313.508,1.66.508.215,0,.43-.01a3.216,3.216,0,0,0,.43-.049v.645L-8.2-.781-11.27.371-11.406.2v-2.4A10.2,10.2,0,0,1-13.3-.508a6.161,6.161,0,0,1-3.3.879A6.571,6.571,0,0,1-21.982-2.2a9.229,9.229,0,0,1-2.061-5.947,11.165,11.165,0,0,1,2.471-7.275A7.526,7.526,0,0,1-15.527-18.457ZM-14.8-1.738a3.408,3.408,0,0,0,2.461-.9,2.488,2.488,0,0,0,.938-1.7v-8.379A4.256,4.256,0,0,0-12.764-16.3a4.369,4.369,0,0,0-2.646-1.045,4.289,4.289,0,0,0-3.828,2.178A9.894,9.894,0,0,0-20.605-9.8,10.8,10.8,0,0,0-19.15-4.2,4.734,4.734,0,0,0-14.8-1.738ZM14.258-17.949v.547A4.075,4.075,0,0,0,13-17.2a.742.742,0,0,0-.518.771,7.254,7.254,0,0,0,1.035,2.09q.547.9,1.387,2.207,1.152-1.582,1.719-2.48a5.157,5.157,0,0,0,.957-1.875.672.672,0,0,0-.41-.684,3.78,3.78,0,0,0-1.152-.234v-.547H22.3v.547a4.67,4.67,0,0,0-1.855.537,3.876,3.876,0,0,0-1.387,1.221l-3.34,4.824,5.156,7.813a6.984,6.984,0,0,0,1.689,1.973,3.12,3.12,0,0,0,1.592.488V0H16.094V-.547l.566-.039a1.4,1.4,0,0,0,.752-.273.714.714,0,0,0,.3-.586,4.83,4.83,0,0,0-.742-1.641q-.352-.625-1.055-1.7-.332-.527-.986-1.465t-1.1-1.6l-3.145,4.9a12.972,12.972,0,0,0-.7,1.172,1.214,1.214,0,0,0-.137.488.47.47,0,0,0,.3.488,7.275,7.275,0,0,0,1.318.254V0H5.684V-.547a4.644,4.644,0,0,0,1.563-.547A6.146,6.146,0,0,0,8.594-2.637l4.551-6.621-3.75-5.684a10.043,10.043,0,0,0-1.562-2.012A4.343,4.343,0,0,0,5.957-17.4v-.547Z" transform="translate(1244 4411)" fill="#1ec488"/>
    <path id="Trazado_40624" data-name="Trazado 40624" d="M2066,372h141.172" transform="translate(-880 4051)" fill="none" stroke="#1ec488" stroke-width="2"/>
    <path id="Trazado_40672" data-name="Trazado 40672" d="M-11.084-18.457a5.547,5.547,0,0,1,2.617.625,6.249,6.249,0,0,1,1.5,1.133V-22.91a3.545,3.545,0,0,0-.264-1.641Q-7.49-25-8.486-25a3.765,3.765,0,0,0-.41.02q-.176.02-.781.078v-.645l1.6-.41q.879-.234,1.758-.488t1.543-.488q.313-.1,1.035-.371l.117.039-.039,2.051Q-3.682-24.1-3.7-22.92t-.02,2.334L-3.76-4.629a3.625,3.625,0,0,0,.313,1.777q.312.508,1.66.508.215,0,.43-.01A3.216,3.216,0,0,0-.928-2.4v.645L-3.76-.781-6.826.371-6.963.2v-2.4a10.2,10.2,0,0,1-1.895,1.7,6.161,6.161,0,0,1-3.3.879A6.571,6.571,0,0,1-17.539-2.2,9.229,9.229,0,0,1-19.6-8.145a11.165,11.165,0,0,1,2.471-7.275A7.526,7.526,0,0,1-11.084-18.457Zm.723,16.719a3.408,3.408,0,0,0,2.461-.9,2.488,2.488,0,0,0,.938-1.7v-8.379A4.256,4.256,0,0,0-8.32-16.3a4.369,4.369,0,0,0-2.646-1.045,4.289,4.289,0,0,0-3.828,2.178A9.894,9.894,0,0,0-16.162-9.8,10.8,10.8,0,0,0-14.707-4.2,4.734,4.734,0,0,0-10.361-1.738Zm29.98-16.27V-16.6H15.635L15.6-5.352a7.526,7.526,0,0,0,.254,2.246,1.8,1.8,0,0,0,1.836,1.348,2.211,2.211,0,0,0,1.221-.332,6.406,6.406,0,0,0,1.182-1.055l.508.43-.43.586A6.249,6.249,0,0,1,18.018-.2,4.884,4.884,0,0,1,15.83.371,3.078,3.078,0,0,1,12.705-1.68a8.493,8.493,0,0,1-.449-3.086V-16.6H10.127a.575.575,0,0,1-.146-.117.236.236,0,0,1-.049-.156.466.466,0,0,1,.088-.3,5.858,5.858,0,0,1,.557-.5,16.818,16.818,0,0,0,1.943-1.807q.6-.693,2.8-3.662a.651.651,0,0,1,.3.039q.049.039.049.293v4.8Z" transform="translate(1244 4471)" fill="#1ec488"/>
  </g>
</svg>
