<svg xmlns="http://www.w3.org/2000/svg" width="347.129" height="49.212" viewBox="0 0 347.129 49.212">
  <g id="Grupo_16474" data-name="Grupo 16474" transform="translate(-1023.887 -10957.788)">
    <path id="Trazado_40731" data-name="Trazado 40731" d="M-1.113-1.328A1.22,1.22,0,0,1-.645-2.412a1.672,1.672,0,0,1,.957-.322,1.667,1.667,0,0,1,.469.068,2.386,2.386,0,0,1,.508.225l.684.371a.979.979,0,0,0,.264.107,1.262,1.262,0,0,0,.283.029,1.067,1.067,0,0,0,.752-.244A19.339,19.339,0,0,0,4.629-3.887q.723-.957,3.281-4.668,0-.137-.449-2.1t-.82-3.33a7.158,7.158,0,0,0-.664-1.826,1.221,1.221,0,0,0-1.094-.439,5.715,5.715,0,0,0-1.074.2q-.508.117-1.094.273l-.176-.605,2.168-.742q.84-.293,1.553-.469a5.227,5.227,0,0,1,1.221-.176,1.516,1.516,0,0,1,1.23.488A7.591,7.591,0,0,1,9.766-14.2l.41,2.227a34.719,34.719,0,0,1,2.734-3.789,7.883,7.883,0,0,1,1.66-1.484,2.819,2.819,0,0,1,1.484-.488,2.515,2.515,0,0,1,1.074.2,1.33,1.33,0,0,1,.742,1.328,1.4,1.4,0,0,1-.371,1.035,1.3,1.3,0,0,1-.957.371,1.685,1.685,0,0,1-.41-.049,2.407,2.407,0,0,1-.41-.146l-.508-.215q-.215-.1-.41-.166a.991.991,0,0,0-.293-.068q-.879,0-2.441,2.275a10.966,10.966,0,0,0-1.562,2.627,15.09,15.09,0,0,0,.361,1.9q.361,1.611.791,3.408a16.218,16.218,0,0,0,.664,2.344q.449,1.055,1.016,1.055a1.525,1.525,0,0,0,1.074-.586,23.828,23.828,0,0,0,1.641-2.109L16.6-4.2a16.352,16.352,0,0,1-1.738,2.6Q13.164.43,11.621.43a1.732,1.732,0,0,1-1.543-.937,6.948,6.948,0,0,1-.645-1.8L8.223-7.129l-4,5.254A12.923,12.923,0,0,1,2.412-.039,2.574,2.574,0,0,1,.84.43a1.789,1.789,0,0,1-1.7-.781A1.818,1.818,0,0,1-1.113-1.328Z" transform="translate(1025 10996)" fill="#1ec488"/>
    <path id="Trazado_40728" data-name="Trazado 40728" d="M3.457-8.828v-2.363H12.3v-8.848h2.363v8.848h8.848v2.363H14.668V0H12.3V-8.828Zm48.3-8.809a1.973,1.973,0,0,1,1.68.781,2.885,2.885,0,0,1,.586,1.777q0,2.637-5.215,9.238Q43.867.43,42.891.43q-.293,0-.391-.8a13.5,13.5,0,0,1-.059-1.523q0-1.309-.254-4.434T41.7-10.957a17.985,17.985,0,0,0-.957-4.258,1.79,1.79,0,0,0-1.777-.957q-.215,0-.5.02t-.654.059V-16.6q.586-.117,2.461-.527t1.992-.449l.645-.2q.273-.078.43.3a10.408,10.408,0,0,1,.391,1.416,65.906,65.906,0,0,1,1.113,6.7q.234,2.051.469,6.074l.645-.684A41.87,41.87,0,0,0,49.98-9.023q2.012-2.93,2.012-4.141a2.3,2.3,0,0,0-.879-1.455,2.332,2.332,0,0,1-.879-1.553,1.378,1.378,0,0,1,.439-1.055A1.529,1.529,0,0,1,51.758-17.637ZM66.25-1.289q0-.156.02-.361a2.5,2.5,0,0,1,.078-.42L70.02-15.723H67.051a1.686,1.686,0,0,1,.078-.664.83.83,0,0,1,.391-.273,16.237,16.237,0,0,0,3.057-1.621,19.156,19.156,0,0,0,2.959-3.008l.313-.371a.46.46,0,0,1,.146-.127.376.376,0,0,1,.186-.049,1.211,1.211,0,0,1,.273.078.821.821,0,0,1,.068.244.879.879,0,0,1-.01.225L73.4-17.031h3.184l-.234,1.309h-3.32L69.512-2.578a.927.927,0,0,0,.059.674.542.542,0,0,0,.527.322q.508,0,1.426-1.016.527-.547,1.777-2.168l.508.293-.273.41A15.124,15.124,0,0,1,70.576-.557,4.05,4.05,0,0,1,68.145.43,1.8,1.8,0,0,1,66.7-.1,1.788,1.788,0,0,1,66.25-1.289Z" transform="translate(1060 10996)" fill="#1ec488"/>
    <path id="Trazado_40729" data-name="Trazado 40729" d="M4.132-.41q1.958,0,3.394-3.9a18.266,18.266,0,0,0,1.241-6.378,5.283,5.283,0,0,0-.226-1.7,1.555,1.555,0,0,0-1.548-1.23q-2.1,0-3.558,4.532A19.725,19.725,0,0,0,2.328-3.312a5.069,5.069,0,0,0,.226,1.63A1.6,1.6,0,0,0,4.132-.41Zm2.892-13.8a2.94,2.94,0,0,1,2.84,1.958,7.354,7.354,0,0,1,.564,2.984,11.292,11.292,0,0,1-1.979,6.6Q6.5.123,4.05.123a3,3,0,0,1-2.41-1.215A5.193,5.193,0,0,1,.656-4.45a12.152,12.152,0,0,1,1.938-6.634Q4.583-14.212,7.024-14.212Z" transform="translate(1111 11002)" fill="#1ec488"/>
    <path id="Trazado_40646" data-name="Trazado 40646" d="M2066,372h49" transform="translate(-912 10614.319)" fill="none" stroke="#1ec488" stroke-width="2"/>
    <path id="Trazado_40727" data-name="Trazado 40727" d="M.236-.359l4.43-4.7A20.29,20.29,0,0,0,6.48-7.208a5.271,5.271,0,0,0,1.2-2.851,2.618,2.618,0,0,0-.7-1.846,2.491,2.491,0,0,0-1.923-.759,2.923,2.923,0,0,0-2.01.769,5.348,5.348,0,0,0-.933,1.21l-.441-.154a5.024,5.024,0,0,1,2.481-2.953,4.306,4.306,0,0,1,1.876-.42,3.148,3.148,0,0,1,2.538,1.1,3.688,3.688,0,0,1,.928,2.44,3.821,3.821,0,0,1-.713,2.2A21.609,21.609,0,0,1,6.368-5.732l-4.04,4.04V-1.6H6.316a2.415,2.415,0,0,0,1.3-.277,2.519,2.519,0,0,0,.795-1.036l.338.144L7.7,0H.236Z" transform="translate(1229 11007)" fill="#1ec488"/>
    <path id="Trazado_40723" data-name="Trazado 40723" d="M1.015-.349l.7-.01a3.123,3.123,0,0,0,1.1-.3,1.179,1.179,0,0,0,.564-.764L6.265-11.761q.072-.256.108-.436a1.663,1.663,0,0,0,.036-.323A.492.492,0,0,0,6.173-13a1.7,1.7,0,0,0-.749-.123l-1,.051v-.318l.267-.041q.287-.051,1.523-.3t1.759-.359l.318-.072.195-.031.123.072q0,.062-.005.123a.526.526,0,0,1-.026.123L5.127-1.312q-.021.082-.036.164a.888.888,0,0,0-.015.164.5.5,0,0,0,.369.533A6.461,6.461,0,0,0,6.87-.308V0H1.015Z" transform="translate(1229 10981)" fill="#1ec488"/>
    <path id="Trazado_40647" data-name="Trazado 40647" d="M2066,372h27.955" transform="translate(-847 10614.319)" fill="none" stroke="#1ec488" stroke-width="2"/>
    <path id="Trazado_40724" data-name="Trazado 40724" d="M6.934-10A4.258,4.258,0,0,0,7.3-8.066,2.31,2.31,0,0,0,9.551-6.875q1.758,0,3.135-2.236a9.223,9.223,0,0,0,1.377-4.932,3.23,3.23,0,0,0-.566-2.021,2.014,2.014,0,0,0-1.7-.732,3.989,3.989,0,0,0-3.525,2.324A8.974,8.974,0,0,0,6.934-10ZM7.617,7.422a6.4,6.4,0,0,0,3.857-1.113,3.23,3.23,0,0,0,1.533-2.656,2.681,2.681,0,0,0-.8-1.973A5.625,5.625,0,0,0,10.82.762Q10.02.371,8.115-.361a12.416,12.416,0,0,0-2.2-.732q-.508,0-1.973,1.357A4.105,4.105,0,0,0,2.48,3.34,3.568,3.568,0,0,0,4.727,6.914,7.274,7.274,0,0,0,7.617,7.422ZM.313,3.848A4.237,4.237,0,0,1,1.436,1.064,12.334,12.334,0,0,1,5-1.562a4,4,0,0,1-.8-.654,1.294,1.294,0,0,1-.312-.908A2.8,2.8,0,0,1,5-4.961,17.891,17.891,0,0,1,7.031-6.5,6.231,6.231,0,0,1,4.883-7.832,4.163,4.163,0,0,1,3.789-10.82a6.16,6.16,0,0,1,2.3-4.9,8.518,8.518,0,0,1,5.7-1.953,7.277,7.277,0,0,1,3.008.557,3.524,3.524,0,0,1,1.445.928h2.637v1.563H16.895a7.993,7.993,0,0,1,.176.781,6.448,6.448,0,0,1,.059,1,5.862,5.862,0,0,1-2.451,4.98A8.7,8.7,0,0,1,9.395-6.055a4.783,4.783,0,0,1-.547-.029q-.254-.029-.625-.107-.293,0-.8.566a1.6,1.6,0,0,0-.527,1.016q0,.664,4.3,2.266Q15.469-.723,15.469,2.4A5.215,5.215,0,0,1,13.32,6.514Q11.172,8.281,6.836,8.281A7.9,7.9,0,0,1,2.07,6.992,3.8,3.8,0,0,1,.313,3.848ZM21.5-1.289q0-.156.02-.361a2.5,2.5,0,0,1,.078-.42l3.672-13.652H22.3a1.686,1.686,0,0,1,.078-.664.83.83,0,0,1,.391-.273,16.237,16.237,0,0,0,3.057-1.621,19.156,19.156,0,0,0,2.959-3.008l.313-.371a.46.46,0,0,1,.146-.127.376.376,0,0,1,.186-.049,1.211,1.211,0,0,1,.273.078.821.821,0,0,1,.068.244.879.879,0,0,1-.01.225l-1.113,4.258h3.184L31.6-15.723h-3.32L24.766-2.578a.927.927,0,0,0,.059.674.542.542,0,0,0,.527.322q.508,0,1.426-1.016.527-.547,1.777-2.168l.508.293-.273.41A15.125,15.125,0,0,1,25.83-.557,4.05,4.05,0,0,1,23.4.43,1.8,1.8,0,0,1,21.953-.1,1.788,1.788,0,0,1,21.5-1.289Z" transform="translate(1261 10996)" fill="#1ec488"/>
    <path id="Trazado_40725" data-name="Trazado 40725" d="M.236-.359l4.43-4.7A20.29,20.29,0,0,0,6.48-7.208a5.271,5.271,0,0,0,1.2-2.851,2.618,2.618,0,0,0-.7-1.846,2.491,2.491,0,0,0-1.923-.759,2.923,2.923,0,0,0-2.01.769,5.348,5.348,0,0,0-.933,1.21l-.441-.154a5.024,5.024,0,0,1,2.481-2.953,4.306,4.306,0,0,1,1.876-.42,3.148,3.148,0,0,1,2.538,1.1,3.688,3.688,0,0,1,.928,2.44,3.821,3.821,0,0,1-.713,2.2A21.609,21.609,0,0,1,6.368-5.732l-4.04,4.04V-1.6H6.316a2.415,2.415,0,0,0,1.3-.277,2.519,2.519,0,0,0,.795-1.036l.338.144L7.7,0H.236Z" transform="translate(1301 10972)" fill="#1ec488"/>
    <path id="Trazado_40726" data-name="Trazado 40726" d="M21.387-7.441v2.734H1.191V-7.441Zm0-8.066v2.734H1.191v-2.734ZM42.129-.723q2.871,0,3.945-3.145a29.618,29.618,0,0,0,1.074-9.1,35.524,35.524,0,0,0-.645-7.578q-1.211-5.273-4.531-5.273t-4.551,5.43a36.267,36.267,0,0,0-.645,7.617,30.326,30.326,0,0,0,.664,7.09Q38.691-.723,42.129-.723ZM42.07-26.875q4.492,0,6.973,4.707a18.754,18.754,0,0,1,1.973,8.75A21.884,21.884,0,0,1,49.8-6.094Q47.52.371,41.895.371a7.481,7.481,0,0,1-6.328-3.5Q32.91-6.855,32.91-13.262a19.553,19.553,0,0,1,1.777-8.672Q37.09-26.875,42.07-26.875Z" transform="translate(1320 10996)" fill="#1ec488"/>
    <path id="Trazado_40730" data-name="Trazado 40730" d="M4.132-.41q1.958,0,3.394-3.9a18.266,18.266,0,0,0,1.241-6.378,5.283,5.283,0,0,0-.226-1.7,1.555,1.555,0,0,0-1.548-1.23q-2.1,0-3.558,4.532A19.725,19.725,0,0,0,2.328-3.312a5.069,5.069,0,0,0,.226,1.63A1.6,1.6,0,0,0,4.132-.41Zm2.892-13.8a2.94,2.94,0,0,1,2.84,1.958,7.354,7.354,0,0,1,.564,2.984,11.292,11.292,0,0,1-1.979,6.6Q6.5.123,4.05.123a3,3,0,0,1-2.41-1.215A5.193,5.193,0,0,1,.656-4.45a12.152,12.152,0,0,1,1.938-6.634Q4.583-14.212,7.024-14.212Z" transform="translate(1043 11002)" fill="#1ec488"/>
  </g>
</svg>
