<svg xmlns="http://www.w3.org/2000/svg" width="475.233" height="125" viewBox="0 0 475.233 125">
  <g id="Grupo_16475" data-name="Grupo 16475" transform="translate(-950.637 -12584)">
    <path id="Trazado_40737" data-name="Trazado 40737" d="M2.637-10.449l21.758-9.863v2.539L7.168-10.039,24.395-2.3V.234L2.637-9.57Zm49.121-7.187a1.973,1.973,0,0,1,1.68.781,2.885,2.885,0,0,1,.586,1.777q0,2.637-5.215,9.238Q43.867.43,42.891.43q-.293,0-.391-.8a13.5,13.5,0,0,1-.059-1.523q0-1.309-.254-4.434T41.7-10.957a17.985,17.985,0,0,0-.957-4.258,1.79,1.79,0,0,0-1.777-.957q-.215,0-.5.02t-.654.059V-16.6q.586-.117,2.461-.527t1.992-.449l.645-.2q.273-.078.43.3a10.408,10.408,0,0,1,.391,1.416,65.906,65.906,0,0,1,1.113,6.7q.234,2.051.469,6.074l.645-.684A41.87,41.87,0,0,0,49.98-9.023q2.012-2.93,2.012-4.141a2.3,2.3,0,0,0-.879-1.455,2.332,2.332,0,0,1-.879-1.553,1.378,1.378,0,0,1,.439-1.055A1.529,1.529,0,0,1,51.758-17.637ZM67.324.234V-2.3l17.227-7.734L67.324-17.773v-2.539l21.758,9.863v.879Zm59-15.41-.488,2.363H105.781l.488-2.363Zm-1.68,7.91L124.16-4.9H104.1l.488-2.363Z" transform="translate(948 12670)" fill="#1ec488"/>
    <path id="Trazado_40733" data-name="Trazado 40733" d="M8.145-17.773a.267.267,0,0,1,.244.107.445.445,0,0,1,.068.244q-.02.2-.039.293L6.465-9.57l.43-.84a27.346,27.346,0,0,1,3.291-5.029q1.885-2.275,3.584-2.275a1.73,1.73,0,0,1,1.416.605,2.121,2.121,0,0,1,.5,1.387,2.146,2.146,0,0,1-.5,1.455,1.724,1.724,0,0,1-1.377.576,1.515,1.515,0,0,1-.918-.234,1.763,1.763,0,0,1-.488-.547l-.234-.43a.63.63,0,0,0-.186-.186.481.481,0,0,0-.264-.068q-.762,0-2.2,2.129A32.008,32.008,0,0,0,6.953-8.418Q6.27-6.914,5.43-4.434,4.9-2.871,4.023,0H1.016L4.258-11.758q.273-1.016.439-1.816a6.728,6.728,0,0,0,.166-1.309,1.265,1.265,0,0,0-.293-.9,1.354,1.354,0,0,0-1.016-.312,5.477,5.477,0,0,0-.586.039q-.352.039-.84.1V-16.6l.781-.156q1.523-.313,3.33-.664T8.145-17.773Zm17.891-8.75a2.018,2.018,0,0,1,1.66.82,3.126,3.126,0,0,1,.645,1.992,5.151,5.151,0,0,1-1.494,3.584,12.422,12.422,0,0,1-3.1,2.49l-.605.332-.371-.645a14.544,14.544,0,0,0,1.816-1.426,3.136,3.136,0,0,0,1.211-2.07,1.257,1.257,0,0,0-.1-.488,1.258,1.258,0,0,0-.273-.41l-.371-.371a6.242,6.242,0,0,1-.859-1,1.785,1.785,0,0,1-.215-.937,1.6,1.6,0,0,1,.654-1.445A2.5,2.5,0,0,1,26.035-26.523ZM45.938,5V3.027h20V5Zm20,0V3.027h20V5Zm68.145-22.773a.267.267,0,0,1,.244.107.445.445,0,0,1,.068.244q-.02.2-.039.293L132.4-9.57l.43-.84a27.346,27.346,0,0,1,3.291-5.029q1.885-2.275,3.584-2.275a1.73,1.73,0,0,1,1.416.605,2.121,2.121,0,0,1,.5,1.387,2.146,2.146,0,0,1-.5,1.455,1.724,1.724,0,0,1-1.377.576,1.515,1.515,0,0,1-.918-.234,1.763,1.763,0,0,1-.488-.547l-.234-.43a.63.63,0,0,0-.186-.186.481.481,0,0,0-.264-.068q-.762,0-2.2,2.129a32.008,32.008,0,0,0-2.568,4.609q-.684,1.5-1.523,3.984Q130.84-2.871,129.961,0h-3.008L130.2-11.758q.273-1.016.439-1.816a6.728,6.728,0,0,0,.166-1.309,1.265,1.265,0,0,0-.293-.9,1.354,1.354,0,0,0-1.016-.312,5.477,5.477,0,0,0-.586.039q-.352.039-.84.1V-16.6l.781-.156q1.523-.313,3.33-.664T134.082-17.773Z" transform="translate(1105 12638)" fill="#1ec488"/>
    <path id="Trazado_40735" data-name="Trazado 40735" d="M1.5-1.289q0-.156.02-.361A2.5,2.5,0,0,1,1.6-2.07L5.273-15.723H2.3a1.687,1.687,0,0,1,.078-.664.83.83,0,0,1,.391-.273A16.237,16.237,0,0,0,5.83-18.281a19.156,19.156,0,0,0,2.959-3.008L9.1-21.66a.46.46,0,0,1,.146-.127.376.376,0,0,1,.186-.049,1.211,1.211,0,0,1,.273.078.821.821,0,0,1,.068.244.879.879,0,0,1-.01.225L8.652-17.031h3.184L11.6-15.723H8.281L4.766-2.578a.927.927,0,0,0,.059.674.542.542,0,0,0,.527.322q.508,0,1.426-1.016Q7.3-3.145,8.555-4.766l.508.293-.273.41A15.125,15.125,0,0,1,5.83-.557,4.05,4.05,0,0,1,3.4.43,1.8,1.8,0,0,1,1.953-.1,1.788,1.788,0,0,1,1.5-1.289ZM20.1-26.523a2.018,2.018,0,0,1,1.66.82,3.126,3.126,0,0,1,.645,1.992,5.151,5.151,0,0,1-1.494,3.584,12.422,12.422,0,0,1-3.1,2.49l-.605.332-.371-.645a14.544,14.544,0,0,0,1.816-1.426,3.136,3.136,0,0,0,1.211-2.07,1.257,1.257,0,0,0-.1-.488,1.258,1.258,0,0,0-.273-.41l-.371-.371a6.242,6.242,0,0,1-.859-1,1.785,1.785,0,0,1-.215-.937,1.6,1.6,0,0,1,.654-1.445A2.5,2.5,0,0,1,20.1-26.523ZM40,5V3.027H60V5ZM60,5V3.027H80V5Zm51.5-6.289q0-.156.02-.361a2.5,2.5,0,0,1,.078-.42l3.672-13.652H112.3a1.686,1.686,0,0,1,.078-.664.83.83,0,0,1,.391-.273,16.237,16.237,0,0,0,3.057-1.621,19.156,19.156,0,0,0,2.959-3.008l.313-.371a.46.46,0,0,1,.146-.127.376.376,0,0,1,.186-.049,1.211,1.211,0,0,1,.273.078.821.821,0,0,1,.068.244.879.879,0,0,1-.01.225l-1.113,4.258h3.184l-.234,1.309h-3.32L114.766-2.578a.927.927,0,0,0,.059.674.542.542,0,0,0,.527.322q.508,0,1.426-1.016.527-.547,1.777-2.168l.508.293-.273.41A15.124,15.124,0,0,1,115.83-.557,4.05,4.05,0,0,1,113.4.43,1.8,1.8,0,0,1,111.953-.1,1.788,1.788,0,0,1,111.5-1.289Z" transform="translate(1105 12704)" fill="#1ec488"/>
    <path id="Trazado_40648" data-name="Trazado 40648" d="M5601,11364h166.078" transform="translate(-4503 1296)" fill="none" stroke="#1ec488" stroke-width="2"/>
    <path id="Trazado_40734" data-name="Trazado 40734" d="M24.59-15.176,24.1-12.812H4.043l.488-2.363Zm-1.68,7.91L22.422-4.9H2.363l.488-2.363Z" transform="translate(1282 12670)" fill="#1ec488"/>
    <path id="Trazado_40649" data-name="Trazado 40649" d="M5601,11364h95.87" transform="translate(-4271 1296)" fill="none" stroke="#1ec488" stroke-width="2"/>
    <path id="Trazado_40732" data-name="Trazado 40732" d="M-.234-1.8-4.2-21.016-16.445-1.8ZM4.844,0H-19.609L-1.992-27.266h.781ZM12.6-17.773a.267.267,0,0,1,.244.107.445.445,0,0,1,.068.244q-.02.2-.039.293L10.918-9.57l.43-.84a27.346,27.346,0,0,1,3.291-5.029q1.885-2.275,3.584-2.275a1.73,1.73,0,0,1,1.416.605,2.121,2.121,0,0,1,.5,1.387,2.146,2.146,0,0,1-.5,1.455,1.724,1.724,0,0,1-1.377.576,1.515,1.515,0,0,1-.918-.234,1.763,1.763,0,0,1-.488-.547l-.234-.43a.63.63,0,0,0-.186-.186.481.481,0,0,0-.264-.068q-.762,0-2.2,2.129a32.008,32.008,0,0,0-2.568,4.609q-.684,1.5-1.523,3.984Q9.355-2.871,8.477,0H5.469L8.711-11.758q.273-1.016.439-1.816a6.728,6.728,0,0,0,.166-1.309,1.265,1.265,0,0,0-.293-.9,1.354,1.354,0,0,0-1.016-.312,5.477,5.477,0,0,0-.586.039q-.352.039-.84.1V-16.6l.781-.156q1.523-.313,3.33-.664T12.6-17.773Z" transform="translate(1378 12638)" fill="#1ec488"/>
    <path id="Trazado_40736" data-name="Trazado 40736" d="M1.992-1.8-1.973-21.016-14.219-1.8ZM7.07,0H-17.383L.234-27.266h.781ZM8.184-1.289q0-.156.02-.361a2.5,2.5,0,0,1,.078-.42l3.672-13.652H8.984a1.687,1.687,0,0,1,.078-.664.83.83,0,0,1,.391-.273,16.237,16.237,0,0,0,3.057-1.621,19.156,19.156,0,0,0,2.959-3.008l.313-.371a.46.46,0,0,1,.146-.127.376.376,0,0,1,.186-.049,1.211,1.211,0,0,1,.273.078.821.821,0,0,1,.068.244.879.879,0,0,1-.01.225l-1.113,4.258h3.184l-.234,1.309h-3.32L11.445-2.578A.927.927,0,0,0,11.5-1.9a.542.542,0,0,0,.527.322q.508,0,1.426-1.016.527-.547,1.777-2.168l.508.293-.273.41A15.125,15.125,0,0,1,12.51-.557,4.05,4.05,0,0,1,10.078.43,1.8,1.8,0,0,1,8.633-.1,1.788,1.788,0,0,1,8.184-1.289Z" transform="translate(1378 12702)" fill="#1ec488"/>
    <g id="Grupo_16447" data-name="Grupo 16447" transform="translate(1077.438 12584)">
      <path id="Trazado_38311" data-name="Trazado 38311" d="M2272,538.629h67.821" transform="translate(-2272 -533.501)" fill="none" stroke="#1ec488" stroke-width="1"/>
      <path id="Polígono_10" data-name="Polígono 10" d="M5,0l5,8H0Z" transform="translate(72.563) rotate(90)" fill="#1ec488"/>
    </g>
    <g id="Grupo_16448" data-name="Grupo 16448" transform="translate(1173.438 12584)">
      <path id="Trazado_38311-2" data-name="Trazado 38311" d="M2272,538.629h67.821" transform="translate(-2272 -533.501)" fill="none" stroke="#1ec488" stroke-width="1"/>
      <path id="Polígono_10-2" data-name="Polígono 10" d="M5,0l5,8H0Z" transform="translate(72.563) rotate(90)" fill="#1ec488"/>
    </g>
    <g id="Grupo_16449" data-name="Grupo 16449" transform="translate(1342.438 12584)">
      <path id="Trazado_38311-3" data-name="Trazado 38311" d="M2272,538.629h67.821" transform="translate(-2272 -533.501)" fill="none" stroke="#1ec488" stroke-width="1"/>
      <path id="Polígono_10-3" data-name="Polígono 10" d="M5,0l5,8H0Z" transform="translate(72.563) rotate(90)" fill="#1ec488"/>
    </g>
    <g id="Grupo_16450" data-name="Grupo 16450" transform="translate(960.438 12629)">
      <path id="Trazado_38311-4" data-name="Trazado 38311" d="M2272,538.629h67.821" transform="translate(-2272 -533.501)" fill="none" stroke="#1ec488" stroke-width="1"/>
      <path id="Polígono_10-4" data-name="Polígono 10" d="M5,0l5,8H0Z" transform="translate(72.563) rotate(90)" fill="#1ec488"/>
    </g>
  </g>
</svg>
