<svg xmlns="http://www.w3.org/2000/svg" width="440.18" height="119" viewBox="0 0 440.18 119">
  <g id="Grupo_16477" data-name="Grupo 16477" transform="translate(-916.637 -13921)">
    <path id="Trazado_40743" data-name="Trazado 40743" d="M2.637-10.449l21.758-9.863v2.539L7.168-10.039,24.395-2.3V.234L2.637-9.57ZM51.563-14.1a2.879,2.879,0,0,0-.645-2.07,2.1,2.1,0,0,0-1.562-.664q-3.184,0-5.918,4.883a15.812,15.812,0,0,0-2.4,7.4,3.233,3.233,0,0,0,.674,2.275,2.205,2.205,0,0,0,1.67.713q2.949,0,5.684-4.746A15.894,15.894,0,0,0,51.563-14.1Zm-2.441-3.613a3.317,3.317,0,0,1,2.383.8,2.9,2.9,0,0,1,.7,1.133l.1.273.43-1.484a1.488,1.488,0,0,1,.137-.342.359.359,0,0,1,.273-.107l2.207-.254q.176,0,.205.068a.451.451,0,0,1-.01.244q-.078.254-.117.4t-.117.42l-1.8,6.992q-.586,2.285-1,3.945A29.878,29.878,0,0,0,51.8-2.187a.5.5,0,0,0,.146.4.532.532,0,0,0,.361.127.776.776,0,0,0,.381-.117,4.076,4.076,0,0,0,.5-.352l.332-.273q.156-.137.352-.322t.469-.459l1.211-1.25.469.41A20.469,20.469,0,0,1,52.754-.5,3.95,3.95,0,0,1,50.41.43a1.349,1.349,0,0,1-1.123-.508,1.987,1.987,0,0,1-.4-1.27,11.163,11.163,0,0,1,.264-2.021q.264-1.318.518-2.217Q49.316-5,48.486-3.877A13.744,13.744,0,0,1,46.445-1.7,9.642,9.642,0,0,1,43.711.1a5.963,5.963,0,0,1-1.953.352,3.964,3.964,0,0,1-2.871-1.3A5,5,0,0,1,37.6-4.531q0-4.1,3.672-8.555Q45.059-17.715,49.121-17.715ZM69.57.234V-2.3L86.8-10.039,69.57-17.773v-2.539l21.758,9.863v.879Zm59-15.41-.488,2.363H108.027l.488-2.363Zm-1.68,7.91L126.406-4.9H106.348l.488-2.363Z" transform="translate(914 13991)" fill="#1ec488"/>
    <path id="Trazado_40741" data-name="Trazado 40741" d="M14.766-17.637a1.973,1.973,0,0,1,1.68.781,2.885,2.885,0,0,1,.586,1.777q0,2.637-5.215,9.238Q6.875.43,5.9.43q-.293,0-.391-.8a13.5,13.5,0,0,1-.059-1.523q0-1.309-.254-4.434t-.488-4.629a17.985,17.985,0,0,0-.957-4.258,1.79,1.79,0,0,0-1.777-.957q-.215,0-.5.02t-.654.059V-16.6q.586-.117,2.461-.527t1.992-.449l.645-.2q.273-.078.43.3a10.408,10.408,0,0,1,.391,1.416,65.907,65.907,0,0,1,1.113,6.7Q8.086-7.3,8.32-3.281l.645-.684a41.87,41.87,0,0,0,4.023-5.059Q15-11.953,15-13.164a2.3,2.3,0,0,0-.879-1.455,2.332,2.332,0,0,1-.879-1.553,1.378,1.378,0,0,1,.439-1.055A1.529,1.529,0,0,1,14.766-17.637Zm11.973-8.887a2.018,2.018,0,0,1,1.66.82,3.126,3.126,0,0,1,.645,1.992,5.151,5.151,0,0,1-1.494,3.584,12.422,12.422,0,0,1-3.1,2.49l-.605.332-.371-.645a14.544,14.544,0,0,0,1.816-1.426,3.136,3.136,0,0,0,1.211-2.07,1.257,1.257,0,0,0-.1-.488,1.258,1.258,0,0,0-.273-.41l-.371-.371a6.242,6.242,0,0,1-.859-1,1.785,1.785,0,0,1-.215-.937,1.6,1.6,0,0,1,.654-1.445A2.5,2.5,0,0,1,26.738-26.523ZM46.641,5V3.027h20V5Zm20,0V3.027h20V5Zm44.766-22.637a1.973,1.973,0,0,1,1.68.781,2.885,2.885,0,0,1,.586,1.777q0,2.637-5.215,9.238Q103.516.43,102.539.43q-.293,0-.391-.8a13.5,13.5,0,0,1-.059-1.523q0-1.309-.254-4.434t-.488-4.629a17.986,17.986,0,0,0-.957-4.258,1.79,1.79,0,0,0-1.777-.957q-.215,0-.5.02t-.654.059V-16.6q.586-.117,2.461-.527t1.992-.449l.645-.2q.273-.078.43.3a10.409,10.409,0,0,1,.391,1.416,65.908,65.908,0,0,1,1.113,6.7q.234,2.051.469,6.074l.645-.684a41.87,41.87,0,0,0,4.023-5.059q2.012-2.93,2.012-4.141a2.3,2.3,0,0,0-.879-1.455,2.332,2.332,0,0,1-.879-1.553,1.378,1.378,0,0,1,.439-1.055A1.529,1.529,0,0,1,111.406-17.637Z" transform="translate(1090 13964)" fill="#1ec488"/>
    <path id="Trazado_40742" data-name="Trazado 40742" d="M1.5-1.289q0-.156.02-.361A2.5,2.5,0,0,1,1.6-2.07L5.273-15.723H2.3a1.687,1.687,0,0,1,.078-.664.83.83,0,0,1,.391-.273A16.237,16.237,0,0,0,5.83-18.281a19.156,19.156,0,0,0,2.959-3.008L9.1-21.66a.46.46,0,0,1,.146-.127.376.376,0,0,1,.186-.049,1.211,1.211,0,0,1,.273.078.821.821,0,0,1,.068.244.879.879,0,0,1-.01.225L8.652-17.031h3.184L11.6-15.723H8.281L4.766-2.578a.927.927,0,0,0,.059.674.542.542,0,0,0,.527.322q.508,0,1.426-1.016Q7.3-3.145,8.555-4.766l.508.293-.273.41A15.125,15.125,0,0,1,5.83-.557,4.05,4.05,0,0,1,3.4.43,1.8,1.8,0,0,1,1.953-.1,1.788,1.788,0,0,1,1.5-1.289ZM20.1-26.523a2.018,2.018,0,0,1,1.66.82,3.126,3.126,0,0,1,.645,1.992,5.151,5.151,0,0,1-1.494,3.584,12.422,12.422,0,0,1-3.1,2.49l-.605.332-.371-.645a14.544,14.544,0,0,0,1.816-1.426,3.136,3.136,0,0,0,1.211-2.07,1.257,1.257,0,0,0-.1-.488,1.258,1.258,0,0,0-.273-.41l-.371-.371a6.242,6.242,0,0,1-.859-1,1.785,1.785,0,0,1-.215-.937,1.6,1.6,0,0,1,.654-1.445A2.5,2.5,0,0,1,20.1-26.523ZM40,5V3.027H60V5ZM60,5V3.027H80V5ZM91.5-1.289q0-.156.02-.361a2.5,2.5,0,0,1,.078-.42l3.672-13.652H92.3a1.686,1.686,0,0,1,.078-.664.83.83,0,0,1,.391-.273,16.237,16.237,0,0,0,3.057-1.621,19.156,19.156,0,0,0,2.959-3.008l.313-.371a.46.46,0,0,1,.146-.127.376.376,0,0,1,.186-.049,1.211,1.211,0,0,1,.273.078.821.821,0,0,1,.068.244.879.879,0,0,1-.01.225l-1.113,4.258h3.184l-.234,1.309h-3.32L94.766-2.578a.927.927,0,0,0,.059.674.542.542,0,0,0,.527.322q.508,0,1.426-1.016.527-.547,1.777-2.168l.508.293-.273.41A15.124,15.124,0,0,1,95.83-.557,4.05,4.05,0,0,1,93.4.43,1.8,1.8,0,0,1,91.953-.1,1.788,1.788,0,0,1,91.5-1.289Z" transform="translate(1090 14035)" fill="#1ec488"/>
    <path id="Trazado_40651" data-name="Trazado 40651" d="M5576.352,12690.934h163.082" transform="translate(-4503 1296)" fill="none" stroke="#1ec488" stroke-width="2"/>
    <path id="Trazado_40739" data-name="Trazado 40739" d="M24.59-15.176,24.1-12.812H4.043l.488-2.363Zm-1.68,7.91L22.422-4.9H2.363l.488-2.363Z" transform="translate(1250 13991)" fill="#1ec488"/>
    <path id="Trazado_40738" data-name="Trazado 40738" d="M-1.328-1.8-5.293-21.016-17.539-1.8ZM3.75,0H-20.7L-3.086-27.266H-2.3ZM18.125-17.637a1.973,1.973,0,0,1,1.68.781,2.885,2.885,0,0,1,.586,1.777q0,2.637-5.215,9.238Q10.234.43,9.258.43q-.293,0-.391-.8a13.5,13.5,0,0,1-.059-1.523q0-1.309-.254-4.434t-.488-4.629a17.985,17.985,0,0,0-.957-4.258,1.79,1.79,0,0,0-1.777-.957q-.215,0-.5.02t-.654.059V-16.6q.586-.117,2.461-.527t1.992-.449l.645-.2q.273-.078.43.3a10.408,10.408,0,0,1,.391,1.416,65.907,65.907,0,0,1,1.113,6.7q.234,2.051.469,6.074l.645-.684a41.87,41.87,0,0,0,4.023-5.059q2.012-2.93,2.012-4.141a2.3,2.3,0,0,0-.879-1.455,2.332,2.332,0,0,1-.879-1.553,1.378,1.378,0,0,1,.439-1.055A1.529,1.529,0,0,1,18.125-17.637Z" transform="translate(1321 13976)" fill="#1ec488"/>
    <path id="Trazado_40652" data-name="Trazado 40652" d="M5576.352,12690.934h66.465" transform="translate(-4286 1296)" fill="none" stroke="#1ec488" stroke-width="2"/>
    <path id="Trazado_40740" data-name="Trazado 40740" d="M1.992-1.8-1.973-21.016-14.219-1.8ZM7.07,0H-17.383L.234-27.266h.781ZM8.184-1.289q0-.156.02-.361a2.5,2.5,0,0,1,.078-.42l3.672-13.652H8.984a1.687,1.687,0,0,1,.078-.664.83.83,0,0,1,.391-.273,16.237,16.237,0,0,0,3.057-1.621,19.156,19.156,0,0,0,2.959-3.008l.313-.371a.46.46,0,0,1,.146-.127.376.376,0,0,1,.186-.049,1.211,1.211,0,0,1,.273.078.821.821,0,0,1,.068.244.879.879,0,0,1-.01.225l-1.113,4.258h3.184l-.234,1.309h-3.32L11.445-2.578A.927.927,0,0,0,11.5-1.9a.542.542,0,0,0,.527.322q.508,0,1.426-1.016.527-.547,1.777-2.168l.508.293-.273.41A15.125,15.125,0,0,1,12.51-.557,4.05,4.05,0,0,1,10.078.43,1.8,1.8,0,0,1,8.633-.1,1.788,1.788,0,0,1,8.184-1.289Z" transform="translate(1321 14018)" fill="#1ec488"/>
    <g id="Grupo_16455" data-name="Grupo 16455" transform="translate(905.438 13946)">
      <path id="Trazado_38311" data-name="Trazado 38311" d="M2272,538.629h30.922" transform="translate(-2235.102 -533.501)" fill="none" stroke="#1ec488" stroke-width="1"/>
      <path id="Polígono_10" data-name="Polígono 10" d="M5,0l5,8H0Z" transform="translate(72.563) rotate(90)" fill="#1ec488"/>
    </g>
    <g id="Grupo_16456" data-name="Grupo 16456" transform="translate(1047.438 13921)">
      <path id="Trazado_38311-2" data-name="Trazado 38311" d="M2272,538.629h30.922" transform="translate(-2235.102 -533.501)" fill="none" stroke="#1ec488" stroke-width="1"/>
      <path id="Polígono_10-2" data-name="Polígono 10" d="M5,0l5,8H0Z" transform="translate(72.563) rotate(90)" fill="#1ec488"/>
    </g>
    <g id="Grupo_16457" data-name="Grupo 16457" transform="translate(1137.438 13921)">
      <path id="Trazado_38311-3" data-name="Trazado 38311" d="M2272,538.629h30.922" transform="translate(-2235.102 -533.501)" fill="none" stroke="#1ec488" stroke-width="1"/>
      <path id="Polígono_10-3" data-name="Polígono 10" d="M5,0l5,8H0Z" transform="translate(72.563) rotate(90)" fill="#1ec488"/>
    </g>
    <g id="Grupo_16458" data-name="Grupo 16458" transform="translate(1269.438 13921)">
      <path id="Trazado_38311-4" data-name="Trazado 38311" d="M2272,538.629h30.922" transform="translate(-2235.102 -533.501)" fill="none" stroke="#1ec488" stroke-width="1"/>
      <path id="Polígono_10-4" data-name="Polígono 10" d="M5,0l5,8H0Z" transform="translate(72.563) rotate(90)" fill="#1ec488"/>
    </g>
  </g>
</svg>
