<svg xmlns="http://www.w3.org/2000/svg" width="1290.449" height="115.656" viewBox="0 0 1290.449 115.656">
  <g id="Grupo_16439" data-name="Grupo 16439" transform="translate(-397.434 -2593.502)">
    <path id="Trazado_40585" data-name="Trazado 40585" d="M11.836-26.836a.418.418,0,0,1,.088.146,1.526,1.526,0,0,1,.01.225V-2.949q0,1.5.8,1.914a8,8,0,0,0,2.988.488V0H4.707V-.586A6.454,6.454,0,0,0,7.793-1.23q.723-.527.723-2.285V-21.6a3.4,3.4,0,0,0-.234-1.426,1.01,1.01,0,0,0-1.016-.488,4.216,4.216,0,0,0-1.318.283q-.811.283-1.514.6v-.547L11.6-26.836ZM20.078-.547a4.8,4.8,0,0,0,2.471-.625,2.724,2.724,0,0,0,.6-2.109v-19.57q0-1.387-.469-1.758a2.129,2.129,0,0,0-1.348-.371q-.371,0-.645.02t-.605.059v-.547l1.758-.469q2.012-.527,3.418-1a6.023,6.023,0,0,1,1-.293q.117,0,.146.049a.53.53,0,0,1,.029.225v16.426l5.41-4.766a4.971,4.971,0,0,0,.791-.84,1.042,1.042,0,0,0,.205-.547.535.535,0,0,0-.439-.566A8.84,8.84,0,0,0,30.82-17.4v-.547h8.145v.547a8.382,8.382,0,0,0-3.516.869,36.369,36.369,0,0,0-5.1,4.189L29.2-11.289,32.813-6.6a34.4,34.4,0,0,0,4.18,4.775A5.314,5.314,0,0,0,39.98-.508V0H31.289V-.547l.684-.039a1.793,1.793,0,0,0,.605-.137.4.4,0,0,0,.273-.391.847.847,0,0,0-.1-.4,3.216,3.216,0,0,0-.273-.42L26.426-9.9v7.227a1.771,1.771,0,0,0,1,1.8,5.389,5.389,0,0,0,2.012.293V0H20.078Zm23.848,4.16a2.313,2.313,0,0,0,1.846,2.266A13.163,13.163,0,0,0,50,6.5a10.85,10.85,0,0,0,5.273-1.123Q57.3,4.258,57.3,2.617q0-1.309-1.641-1.738A20.049,20.049,0,0,0,51.816.586q-.723-.02-1.523-.049T48.828.469Q48.4.449,47.441.313T46.016.078q-.234,0-1.152,1.23A3.951,3.951,0,0,0,43.926,3.613ZM46.465-6.562A5.114,5.114,0,0,1,43.7-8.652a6.026,6.026,0,0,1-.986-3.379,6.463,6.463,0,0,1,1.816-4.336,6.5,6.5,0,0,1,5.137-2.051,8.692,8.692,0,0,1,3.145.674,9.032,9.032,0,0,0,3.3.674q.41,0,1.24-.029t1.2-.029h.234v1.582H55.41q.352.82.547,1.426a7.644,7.644,0,0,1,.332,2.148,5.72,5.72,0,0,1-1.846,4.092,6.678,6.678,0,0,1-4.971,1.865,15.259,15.259,0,0,1-1.758-.176q-.566,0-1.494.957a2.633,2.633,0,0,0-.928,1.563q0,.625,1.367.918a9.4,9.4,0,0,0,1.992.2,26.748,26.748,0,0,1,6.816.566,3.8,3.8,0,0,1,2.949,3.945q0,3.086-3.447,4.922a14.675,14.675,0,0,1-6.963,1.836,8.782,8.782,0,0,1-5.078-1.3q-1.875-1.3-1.875-2.725a2.3,2.3,0,0,1,.5-1.377,16.25,16.25,0,0,1,1.963-2L44.8.156l.234-.234a6.056,6.056,0,0,1-1.348-.684,1.74,1.74,0,0,1-.781-1.387,2.689,2.689,0,0,1,.674-1.592A25.836,25.836,0,0,1,46.465-6.562Zm3.711-.391a2.761,2.761,0,0,0,1.8-.586A3.959,3.959,0,0,0,53.145-10.8a11.232,11.232,0,0,0-.947-4.18A3.254,3.254,0,0,0,49.043-17.3a2.632,2.632,0,0,0-2.637,1.816,6.571,6.571,0,0,0-.371,2.363,8.067,8.067,0,0,0,1.152,4.277A3.419,3.419,0,0,0,50.176-6.953Zm41.211-.488v2.734h-20.2V-7.441Zm0-8.066v2.734h-20.2v-2.734Z" transform="translate(393 2659)" fill="#1ec488"/>
    <path id="Trazado_40550" data-name="Trazado 40550" d="M2066,372h634" transform="translate(-1559 2278)" fill="none" stroke="#1ec488" stroke-width="2"/>
    <path id="Trazado_40586" data-name="Trazado 40586" d="M-121.289-8.887a10.06,10.06,0,0,1-2.295,6.445A7.283,7.283,0,0,1-129.551.43a8.239,8.239,0,0,1-6.26-3.223,12.548,12.548,0,0,1-2.822-8.574A15.414,15.414,0,0,1-133.164-23.2a16.532,16.532,0,0,1,10.977-4.141l.1.645a19.3,19.3,0,0,0-4.209,1.221,10.2,10.2,0,0,0-3.154,2.158,16.712,16.712,0,0,0-2.676,3.574,15.135,15.135,0,0,0-1.719,4.3,14.357,14.357,0,0,1,2.09-1.094,8.407,8.407,0,0,1,3.145-.625A7.018,7.018,0,0,1-123.4-15.02,8.389,8.389,0,0,1-121.289-8.887Zm-3.574,1.5a12.128,12.128,0,0,0-.82-4.609,4.755,4.755,0,0,0-4.648-3.359q-3.027,0-4.023,1.8a7.7,7.7,0,0,0-.586,3.516,15.167,15.167,0,0,0,1.357,6.23A4.492,4.492,0,0,0-129.3-.762a3.556,3.556,0,0,0,3.379-1.982A9.735,9.735,0,0,0-124.863-7.383ZM-110.2-.41a5.605,5.605,0,0,1-1.426,3.672A8.789,8.789,0,0,1-114.687,5.7l-.371-.781a6.651,6.651,0,0,0,2.588-2.285,4.356,4.356,0,0,0,.713-2.051.343.343,0,0,0-.176-.352A.9.9,0,0,0-112.3.156l-1.309.137a2.379,2.379,0,0,1-1.5-.537A1.857,1.857,0,0,1-115.8-1.8a2.488,2.488,0,0,1,.566-1.523,2.187,2.187,0,0,1,1.855-.742,3.06,3.06,0,0,1,2.207.967A3.609,3.609,0,0,1-110.2-.41Zm18.906-8.477a10.06,10.06,0,0,1-2.295,6.445A7.283,7.283,0,0,1-99.551.43a8.239,8.239,0,0,1-6.26-3.223,12.548,12.548,0,0,1-2.822-8.574A15.414,15.414,0,0,1-103.164-23.2a16.532,16.532,0,0,1,10.977-4.141l.1.645A19.3,19.3,0,0,0-96.3-25.479a10.2,10.2,0,0,0-3.154,2.158,16.712,16.712,0,0,0-2.676,3.574,15.134,15.134,0,0,0-1.719,4.3,14.357,14.357,0,0,1,2.09-1.094,8.407,8.407,0,0,1,3.145-.625A7.018,7.018,0,0,1-93.4-15.02,8.389,8.389,0,0,1-91.289-8.887Zm-3.574,1.5a12.128,12.128,0,0,0-.82-4.609,4.755,4.755,0,0,0-4.648-3.359q-3.027,0-4.023,1.8a7.7,7.7,0,0,0-.586,3.516,15.167,15.167,0,0,0,1.357,6.23A4.492,4.492,0,0,0-99.3-.762a3.556,3.556,0,0,0,3.379-1.982A9.735,9.735,0,0,0-94.863-7.383Zm6.055,6.934a127.078,127.078,0,0,0,9.707-10.9,11.487,11.487,0,0,0,2.559-6.777,5.855,5.855,0,0,0-1.562-4.4,5.175,5.175,0,0,0-3.73-1.514,5.419,5.419,0,0,0-4.336,1.953,11.334,11.334,0,0,0-1.758,3.3l-.84-.176q.977-4.492,3.311-6.24a8.2,8.2,0,0,1,5.01-1.748,7.15,7.15,0,0,1,5.342,2.08,6.988,6.988,0,0,1,2.041,5.088,10.213,10.213,0,0,1-2.207,6.172,132.9,132.9,0,0,1-9.59,10.566H-75.9A5.557,5.557,0,0,0-73.262-3.5a5.857,5.857,0,0,0,1.719-2.187l.508.234L-73.2,0H-88.809Zm37.52-8.437a10.06,10.06,0,0,1-2.295,6.445A7.283,7.283,0,0,1-59.551.43a8.239,8.239,0,0,1-6.26-3.223,12.548,12.548,0,0,1-2.822-8.574A15.414,15.414,0,0,1-63.164-23.2a16.532,16.532,0,0,1,10.977-4.141l.1.645A19.3,19.3,0,0,0-56.3-25.479a10.2,10.2,0,0,0-3.154,2.158,16.712,16.712,0,0,0-2.676,3.574,15.135,15.135,0,0,0-1.719,4.3,14.357,14.357,0,0,1,2.09-1.094,8.407,8.407,0,0,1,3.145-.625A7.018,7.018,0,0,1-53.4-15.02,8.389,8.389,0,0,1-51.289-8.887Zm-3.574,1.5a12.128,12.128,0,0,0-.82-4.609,4.755,4.755,0,0,0-4.648-3.359q-3.027,0-4.023,1.8a7.7,7.7,0,0,0-.586,3.516,15.167,15.167,0,0,0,1.357,6.23A4.492,4.492,0,0,0-59.3-.762a3.556,3.556,0,0,0,3.379-1.982A9.735,9.735,0,0,0-54.863-7.383ZM-30.43-.723q2.871,0,3.945-3.145a29.618,29.618,0,0,0,1.074-9.1,35.524,35.524,0,0,0-.645-7.578q-1.211-5.273-4.531-5.273t-4.551,5.43a36.267,36.267,0,0,0-.645,7.617,30.326,30.326,0,0,0,.664,7.09Q-33.867-.723-30.43-.723Zm-.059-26.152q4.492,0,6.973,4.707a18.754,18.754,0,0,1,1.973,8.75,21.884,21.884,0,0,1-1.211,7.324Q-25.039.371-30.664.371a7.481,7.481,0,0,1-6.328-3.5q-2.656-3.73-2.656-10.137a19.553,19.553,0,0,1,1.777-8.672Q-35.469-26.875-30.488-26.875Zm28.438.41v.645L-10.527.371h-2.578L-5.2-23.516h-8.516a4.6,4.6,0,0,0-2.725.625,10.609,10.609,0,0,0-2.1,2.617l-.684-.312q1.27-3.125,1.572-3.857t.791-2.021ZM9.57-.723q2.871,0,3.945-3.145a29.618,29.618,0,0,0,1.074-9.1,35.524,35.524,0,0,0-.645-7.578Q12.734-25.82,9.414-25.82t-4.551,5.43a36.267,36.267,0,0,0-.645,7.617,30.326,30.326,0,0,0,.664,7.09Q6.133-.723,9.57-.723ZM9.512-26.875q4.492,0,6.973,4.707a18.754,18.754,0,0,1,1.973,8.75,21.884,21.884,0,0,1-1.211,7.324Q14.961.371,9.336.371a7.481,7.481,0,0,1-6.328-3.5Q.352-6.855.352-13.262a19.553,19.553,0,0,1,1.777-8.672Q4.531-26.875,9.512-26.875Zm22.324.039a.418.418,0,0,1,.088.146,1.526,1.526,0,0,1,.01.225V-2.949q0,1.5.8,1.914a8,8,0,0,0,2.988.488V0H24.707V-.586a6.454,6.454,0,0,0,3.086-.645q.723-.527.723-2.285V-21.6a3.4,3.4,0,0,0-.234-1.426,1.01,1.01,0,0,0-1.016-.488,4.216,4.216,0,0,0-1.318.283q-.811.283-1.514.6v-.547L31.6-26.836ZM42.988-3.574a5.667,5.667,0,0,1,2.92,1.26,5.651,5.651,0,0,0,2.783,1.26,5.021,5.021,0,0,0,3.926-1.982A7.281,7.281,0,0,0,54.3-7.91q0-5.059-5.391-7.285a14.691,14.691,0,0,0-5.566-1.23,2.824,2.824,0,0,1-.537-.029.639.639,0,0,1-.264-.205q.039-.156.068-.264a1.892,1.892,0,0,1,.068-.205l4.258-9.336h8.379a1.819,1.819,0,0,0,.967-.215,5.043,5.043,0,0,0,.889-.8l.313.273-1.523,3.613q-.078.176-.43.225a5.55,5.55,0,0,1-.762.049H47.207L45.547-19.9a35.665,35.665,0,0,1,4.688,1.035,10.551,10.551,0,0,1,4.082,2.422,9.493,9.493,0,0,1,2.129,3.115,9.4,9.4,0,0,1,.723,3.662,9.483,9.483,0,0,1-3.076,7.207A10.916,10.916,0,0,1,46.309.43,10.5,10.5,0,0,1,43.223.059Q41.27-.547,41.27-2.109a1.438,1.438,0,0,1,.42-1.025A1.721,1.721,0,0,1,42.988-3.574Zm36.27-14.375v.547A4.075,4.075,0,0,0,78-17.2a.742.742,0,0,0-.518.771,7.254,7.254,0,0,0,1.035,2.09q.547.9,1.387,2.207,1.152-1.582,1.719-2.48a5.157,5.157,0,0,0,.957-1.875.672.672,0,0,0-.41-.684,3.78,3.78,0,0,0-1.152-.234v-.547H87.3v.547a4.67,4.67,0,0,0-1.855.537,3.876,3.876,0,0,0-1.387,1.221l-3.34,4.824,5.156,7.813a6.984,6.984,0,0,0,1.689,1.973,3.12,3.12,0,0,0,1.592.488V0H81.094V-.547l.566-.039a1.4,1.4,0,0,0,.752-.273.714.714,0,0,0,.3-.586,4.83,4.83,0,0,0-.742-1.641q-.352-.625-1.055-1.7-.332-.527-.986-1.465t-1.1-1.6l-3.145,4.9a12.974,12.974,0,0,0-.7,1.172,1.214,1.214,0,0,0-.137.488.47.47,0,0,0,.3.488,7.275,7.275,0,0,0,1.318.254V0H70.684V-.547a4.644,4.644,0,0,0,1.563-.547,6.146,6.146,0,0,0,1.348-1.543l4.551-6.621-3.75-5.684a10.043,10.043,0,0,0-1.562-2.012,4.343,4.343,0,0,0-1.875-.449v-.547Zm32.578-8.887a.418.418,0,0,1,.088.146,1.527,1.527,0,0,1,.01.225V-2.949q0,1.5.8,1.914a8,8,0,0,0,2.988.488V0H104.707V-.586a6.454,6.454,0,0,0,3.086-.645q.723-.527.723-2.285V-21.6a3.4,3.4,0,0,0-.234-1.426,1.01,1.01,0,0,0-1.016-.488,4.216,4.216,0,0,0-1.318.283q-.811.283-1.514.6v-.547l7.168-3.652ZM129.57-.723q2.871,0,3.945-3.145a29.618,29.618,0,0,0,1.074-9.1,35.524,35.524,0,0,0-.645-7.578q-1.211-5.273-4.531-5.273t-4.551,5.43a36.267,36.267,0,0,0-.645,7.617,30.326,30.326,0,0,0,.664,7.09Q126.133-.723,129.57-.723Zm-.059-26.152q4.492,0,6.973,4.707a18.754,18.754,0,0,1,1.973,8.75,21.884,21.884,0,0,1-1.211,7.324Q134.961.371,129.336.371a7.481,7.481,0,0,1-6.328-3.5q-2.656-3.73-2.656-10.137a19.553,19.553,0,0,1,1.777-8.672Q124.531-26.875,129.512-26.875Z" transform="translate(667 2694)" fill="#1ec488"/>
    <path id="Trazado_40555" data-name="Trazado 40555" d="M1977.038,327s17.852,21.445,0,51.826" transform="translate(-1126 2329.825)" fill="none" stroke="#1ec488" stroke-width="2"/>
    <path id="Trazado_40587" data-name="Trazado 40587" d="M-14.431-5.907h5.649V-4.47h-5.649Zm8.546,3.953a3.376,3.376,0,0,1,1.634.64,3.43,3.43,0,0,0,1.724.64A2.686,2.686,0,0,0-.191-1.735,3.87,3.87,0,0,0,.573-4.043,3.668,3.668,0,0,0-.045-6.154,3.949,3.949,0,0,0-3.571-7.693q-.146,0-.281.006t-.314.028l-.022-.292a9.732,9.732,0,0,0,2.83-1.494A2.727,2.727,0,0,0-.326-11.668a2.229,2.229,0,0,0-.814-1.864A2.926,2.926,0,0,0-3-14.173a3.046,3.046,0,0,0-2.179.91,6.952,6.952,0,0,0-1.112,1.527l-.348-.079a5.153,5.153,0,0,1,1.673-2.729,4.286,4.286,0,0,1,2.83-1.022,3.58,3.58,0,0,1,2.656.943,3,3,0,0,1,.938,2.179,3.015,3.015,0,0,1-.775,2A7.186,7.186,0,0,1-.674-9.288,5.8,5.8,0,0,1,1.056-8.209,3.971,3.971,0,0,1,2.28-5.222,5.094,5.094,0,0,1,.6-1.46,6.584,6.584,0,0,1-4.178.168a3.39,3.39,0,0,1-1.937-.41,1.129,1.129,0,0,1-.556-.882.977.977,0,0,1,.185-.562A.677.677,0,0,1-5.885-1.954ZM10.534-13.117,5.02-5.323h5.514Zm.741-2.313h1.067V-5.323h2.347V-3.83H12.342V0H10.557V-3.83H4.088V-5.323Z" transform="translate(826 2681)" fill="#1ec488"/>
    <path id="Trazado_40556" data-name="Trazado 40556" d="M1984.972,327s-17.852,21.445,0,51.825" transform="translate(-1462 2329.825)" fill="none" stroke="#1ec488" stroke-width="2"/>
    <path id="Trazado_40557" data-name="Trazado 40557" d="M1984.972,327s-17.852,21.445,0,51.825" transform="translate(-1462 2329.825)" fill="none" stroke="#1ec488" stroke-width="2"/>
    <path id="Trazado_40588" data-name="Trazado 40588" d="M-5.065-.258A73.07,73.07,0,0,0,.517-6.525a6.605,6.605,0,0,0,1.471-3.9,3.367,3.367,0,0,0-.9-2.532,2.975,2.975,0,0,0-2.145-.87A3.116,3.116,0,0,0-3.549-12.7,6.517,6.517,0,0,0-4.56-10.8l-.483-.1a5.865,5.865,0,0,1,1.9-3.588A4.715,4.715,0,0,1-.258-15.5a4.111,4.111,0,0,1,3.072,1.2,4.018,4.018,0,0,1,1.174,2.926A5.873,5.873,0,0,1,2.718-7.828,76.416,76.416,0,0,1-2.8-1.752H2.358A3.2,3.2,0,0,0,3.875-2.01a3.368,3.368,0,0,0,.988-1.258l.292.135L3.908,0H-5.065Z" transform="translate(901 2609)" fill="#1ec488"/>
    <path id="Trazado_40589" data-name="Trazado 40589" d="M-100.02-11.191a5.9,5.9,0,0,0,2.744-.742q1.416-.742,1.611-1.25a7.816,7.816,0,0,0,.137-1.455q.059-1.26.059-2.041a13.889,13.889,0,0,0-1.367-6.6,4.33,4.33,0,0,0-4-2.539,3.594,3.594,0,0,0-3.1,1.738,9.292,9.292,0,0,0-1.182,5.2,12.567,12.567,0,0,0,1.1,5.273A4.012,4.012,0,0,0-100.02-11.191Zm-.547-15.742a7.576,7.576,0,0,1,6.641,3.428,13.243,13.243,0,0,1,2.344,7.646A17.608,17.608,0,0,1-92.7-9.824a16.822,16.822,0,0,1-3.242,5.469,14.952,14.952,0,0,1-6.289,4.121A25.871,25.871,0,0,1-107.6.938l-.2-.781a24.7,24.7,0,0,0,3.379-1,12,12,0,0,0,3.887-2.344,16.274,16.274,0,0,0,3.311-4.4,16.064,16.064,0,0,0,1.553-4.072l-.684.508a8.412,8.412,0,0,1-3.4,1.5,8.31,8.31,0,0,1-1.855.234,6.468,6.468,0,0,1-5.264-2.354,8.538,8.538,0,0,1-1.943-5.615,10.15,10.15,0,0,1,2.314-6.855A7.462,7.462,0,0,1-100.566-26.934Zm32.4.1a.418.418,0,0,1,.088.146,1.527,1.527,0,0,1,.01.225V-2.949q0,1.5.8,1.914a8,8,0,0,0,2.988.488V0H-75.293V-.586a6.454,6.454,0,0,0,3.086-.645q.723-.527.723-2.285V-21.6a3.4,3.4,0,0,0-.234-1.426,1.01,1.01,0,0,0-1.016-.488,4.216,4.216,0,0,0-1.318.283q-.811.283-1.514.6v-.547l7.168-3.652ZM-50.02-11.191a5.9,5.9,0,0,0,2.744-.742q1.416-.742,1.611-1.25a7.817,7.817,0,0,0,.137-1.455q.059-1.26.059-2.041a13.889,13.889,0,0,0-1.367-6.6,4.33,4.33,0,0,0-4-2.539,3.594,3.594,0,0,0-3.1,1.738,9.292,9.292,0,0,0-1.182,5.2,12.567,12.567,0,0,0,1.1,5.273A4.012,4.012,0,0,0-50.02-11.191Zm-.547-15.742a7.576,7.576,0,0,1,6.641,3.428,13.243,13.243,0,0,1,2.344,7.646A17.608,17.608,0,0,1-42.7-9.824a16.822,16.822,0,0,1-3.242,5.469A14.952,14.952,0,0,1-52.227-.234,25.871,25.871,0,0,1-57.6.938l-.2-.781a24.7,24.7,0,0,0,3.379-1,12,12,0,0,0,3.887-2.344,16.275,16.275,0,0,0,3.311-4.4,16.064,16.064,0,0,0,1.553-4.072l-.684.508a8.412,8.412,0,0,1-3.4,1.5,8.31,8.31,0,0,1-1.855.234,6.468,6.468,0,0,1-5.264-2.354,8.538,8.538,0,0,1-1.943-5.615,10.15,10.15,0,0,1,2.314-6.855A7.462,7.462,0,0,1-50.566-26.934ZM-38.809-.449a127.078,127.078,0,0,0,9.707-10.9,11.487,11.487,0,0,0,2.559-6.777,5.855,5.855,0,0,0-1.562-4.4,5.175,5.175,0,0,0-3.73-1.514,5.419,5.419,0,0,0-4.336,1.953,11.334,11.334,0,0,0-1.758,3.3l-.84-.176q.977-4.492,3.311-6.24a8.2,8.2,0,0,1,5.01-1.748,7.15,7.15,0,0,1,5.342,2.08,6.988,6.988,0,0,1,2.041,5.088,10.213,10.213,0,0,1-2.207,6.172,132.9,132.9,0,0,1-9.59,10.566H-25.9A5.557,5.557,0,0,0-23.262-3.5a5.857,5.857,0,0,0,1.719-2.187l.508.234L-23.2,0H-38.809ZM8.711-8.887A10.06,10.06,0,0,1,6.416-2.441,7.283,7.283,0,0,1,.449.43a8.239,8.239,0,0,1-6.26-3.223,12.548,12.548,0,0,1-2.822-8.574A15.414,15.414,0,0,1-3.164-23.2,16.532,16.532,0,0,1,7.813-27.344l.1.645A19.3,19.3,0,0,0,3.7-25.479,10.2,10.2,0,0,0,.547-23.32a16.712,16.712,0,0,0-2.676,3.574,15.135,15.135,0,0,0-1.719,4.3,14.357,14.357,0,0,1,2.09-1.094,8.407,8.407,0,0,1,3.145-.625A7.018,7.018,0,0,1,6.6-15.02,8.389,8.389,0,0,1,8.711-8.887Zm-3.574,1.5a12.128,12.128,0,0,0-.82-4.609A4.755,4.755,0,0,0-.332-15.352q-3.027,0-4.023,1.8a7.7,7.7,0,0,0-.586,3.516,15.167,15.167,0,0,0,1.357,6.23A4.492,4.492,0,0,0,.7-.762,3.556,3.556,0,0,0,4.082-2.744,9.735,9.735,0,0,0,5.137-7.383ZM13.105-3.4a5.871,5.871,0,0,1,2.842,1.113,5.965,5.965,0,0,0,3,1.113,4.671,4.671,0,0,0,4.063-1.846,6.73,6.73,0,0,0,1.328-4.014A6.379,6.379,0,0,0,23.262-10.7q-1.816-2.676-6.133-2.676-.254,0-.488.01t-.547.049l-.039-.508a16.926,16.926,0,0,0,4.922-2.6,4.743,4.743,0,0,0,1.8-3.867,3.877,3.877,0,0,0-1.416-3.242,5.088,5.088,0,0,0-3.232-1.113,5.3,5.3,0,0,0-3.789,1.582A12.091,12.091,0,0,0,12.4-20.41l-.605-.137a8.962,8.962,0,0,1,2.91-4.746,7.454,7.454,0,0,1,4.922-1.777,6.225,6.225,0,0,1,4.619,1.641,5.219,5.219,0,0,1,1.631,3.789,5.244,5.244,0,0,1-1.348,3.477,12.5,12.5,0,0,1-2.363,2.012,10.087,10.087,0,0,1,3.008,1.875,6.906,6.906,0,0,1,2.129,5.2,8.859,8.859,0,0,1-2.92,6.543Q21.465.293,16.074.293A5.9,5.9,0,0,1,12.705-.42a1.964,1.964,0,0,1-.967-1.533,1.7,1.7,0,0,1,.322-.977A1.177,1.177,0,0,1,13.105-3.4Zm28.73-23.437a.418.418,0,0,1,.088.146,1.526,1.526,0,0,1,.01.225V-2.949q0,1.5.8,1.914a8,8,0,0,0,2.988.488V0H34.707V-.586a6.454,6.454,0,0,0,3.086-.645q.723-.527.723-2.285V-21.6a3.4,3.4,0,0,0-.234-1.426,1.01,1.01,0,0,0-1.016-.488,4.216,4.216,0,0,0-1.318.283q-.811.283-1.514.6v-.547L41.6-26.836Zm26.113.371v.645L59.473.371H56.895L64.8-23.516H56.289a4.6,4.6,0,0,0-2.725.625,10.609,10.609,0,0,0-2.1,2.617l-.684-.312q1.27-3.125,1.572-3.857t.791-2.021Zm20,0v.645L79.473.371H76.895L84.8-23.516H76.289a4.6,4.6,0,0,0-2.725.625,10.609,10.609,0,0,0-2.1,2.617l-.684-.312q1.27-3.125,1.572-3.857t.791-2.021ZM99.57-.723q2.871,0,3.945-3.145a29.618,29.618,0,0,0,1.074-9.1,35.524,35.524,0,0,0-.645-7.578q-1.211-5.273-4.531-5.273t-4.551,5.43a36.267,36.267,0,0,0-.645,7.617,30.326,30.326,0,0,0,.664,7.09Q96.133-.723,99.57-.723Zm-.059-26.152q4.492,0,6.973,4.707a18.755,18.755,0,0,1,1.973,8.75,21.884,21.884,0,0,1-1.211,7.324Q104.961.371,99.336.371a7.481,7.481,0,0,1-6.328-3.5q-2.656-3.73-2.656-10.137a19.553,19.553,0,0,1,1.777-8.672Q94.531-26.875,99.512-26.875Z" transform="translate(997 2697)" fill="#1ec488"/>
    <path id="Trazado_40590" data-name="Trazado 40590" d="M-116.484-10.039a18.683,18.683,0,0,1,4.063-11.934,20.065,20.065,0,0,1,5.9-5.059l.371.645a17.838,17.838,0,0,0-4.492,4.863q-2.363,4.121-2.363,10.977a32.607,32.607,0,0,0,.9,8.379,14.44,14.44,0,0,0,5.957,8.652l-.508.645a16.7,16.7,0,0,1-5.2-4.512A19.252,19.252,0,0,1-116.484-10.039Zm22.676,9.59a127.078,127.078,0,0,0,9.707-10.9,11.487,11.487,0,0,0,2.559-6.777,5.855,5.855,0,0,0-1.562-4.4,5.175,5.175,0,0,0-3.73-1.514,5.419,5.419,0,0,0-4.336,1.953,11.334,11.334,0,0,0-1.758,3.3l-.84-.176q.977-4.492,3.311-6.24a8.2,8.2,0,0,1,5.01-1.748,7.15,7.15,0,0,1,5.342,2.08,6.988,6.988,0,0,1,2.041,5.088,10.213,10.213,0,0,1-2.207,6.172,132.9,132.9,0,0,1-9.59,10.566H-80.9A5.557,5.557,0,0,0-78.262-3.5a5.857,5.857,0,0,0,1.719-2.187l.508.234L-78.2,0H-93.809ZM-65.02-11.191a5.9,5.9,0,0,0,2.744-.742q1.416-.742,1.611-1.25a7.817,7.817,0,0,0,.137-1.455q.059-1.26.059-2.041a13.889,13.889,0,0,0-1.367-6.6,4.33,4.33,0,0,0-4-2.539,3.594,3.594,0,0,0-3.1,1.738,9.292,9.292,0,0,0-1.182,5.2,12.567,12.567,0,0,0,1.1,5.273A4.012,4.012,0,0,0-65.02-11.191Zm-.547-15.742a7.576,7.576,0,0,1,6.641,3.428,13.243,13.243,0,0,1,2.344,7.646A17.608,17.608,0,0,1-57.7-9.824a16.822,16.822,0,0,1-3.242,5.469A14.952,14.952,0,0,1-67.227-.234,25.871,25.871,0,0,1-72.6.938l-.2-.781a24.7,24.7,0,0,0,3.379-1,12,12,0,0,0,3.887-2.344,16.275,16.275,0,0,0,3.311-4.4,16.064,16.064,0,0,0,1.553-4.072l-.684.508a8.412,8.412,0,0,1-3.4,1.5,8.31,8.31,0,0,1-1.855.234,6.468,6.468,0,0,1-5.264-2.354,8.538,8.538,0,0,1-1.943-5.615,10.15,10.15,0,0,1,2.314-6.855A7.462,7.462,0,0,1-65.566-26.934ZM-45.02-11.191a5.9,5.9,0,0,0,2.744-.742q1.416-.742,1.611-1.25a7.817,7.817,0,0,0,.137-1.455q.059-1.26.059-2.041a13.889,13.889,0,0,0-1.367-6.6,4.33,4.33,0,0,0-4-2.539,3.594,3.594,0,0,0-3.1,1.738,9.292,9.292,0,0,0-1.182,5.2,12.567,12.567,0,0,0,1.1,5.273A4.012,4.012,0,0,0-45.02-11.191Zm-.547-15.742a7.576,7.576,0,0,1,6.641,3.428,13.243,13.243,0,0,1,2.344,7.646A17.608,17.608,0,0,1-37.7-9.824a16.822,16.822,0,0,1-3.242,5.469A14.952,14.952,0,0,1-47.227-.234,25.871,25.871,0,0,1-52.6.938l-.2-.781a24.7,24.7,0,0,0,3.379-1,12,12,0,0,0,3.887-2.344,16.275,16.275,0,0,0,3.311-4.4,16.064,16.064,0,0,0,1.553-4.072l-.684.508a8.412,8.412,0,0,1-3.4,1.5,8.31,8.31,0,0,1-1.855.234,6.468,6.468,0,0,1-5.264-2.354,8.538,8.538,0,0,1-1.943-5.615,10.15,10.15,0,0,1,2.314-6.855A7.462,7.462,0,0,1-45.566-26.934Zm38.516.469v.645L-15.527.371h-2.578l7.91-23.887h-8.516a4.6,4.6,0,0,0-2.725.625,10.609,10.609,0,0,0-2.1,2.617l-.684-.312q1.27-3.125,1.572-3.857t.791-2.021ZM4.98-11.191a5.9,5.9,0,0,0,2.744-.742q1.416-.742,1.611-1.25a7.817,7.817,0,0,0,.137-1.455q.059-1.26.059-2.041a13.889,13.889,0,0,0-1.367-6.6,4.33,4.33,0,0,0-4-2.539,3.594,3.594,0,0,0-3.1,1.738,9.292,9.292,0,0,0-1.182,5.2,12.567,12.567,0,0,0,1.1,5.273A4.012,4.012,0,0,0,4.98-11.191ZM4.434-26.934a7.576,7.576,0,0,1,6.641,3.428,13.243,13.243,0,0,1,2.344,7.646A17.608,17.608,0,0,1,12.3-9.824,16.822,16.822,0,0,1,9.063-4.355,14.952,14.952,0,0,1,2.773-.234,25.871,25.871,0,0,1-2.6.938l-.2-.781a24.7,24.7,0,0,0,3.379-1A12,12,0,0,0,4.473-3.184a16.275,16.275,0,0,0,3.311-4.4A16.064,16.064,0,0,0,9.336-11.66l-.684.508a8.412,8.412,0,0,1-3.4,1.5A8.31,8.31,0,0,1,3.4-9.414a6.468,6.468,0,0,1-5.264-2.354,8.538,8.538,0,0,1-1.943-5.615,10.15,10.15,0,0,1,2.314-6.855A7.462,7.462,0,0,1,4.434-26.934ZM16.191-.449a127.078,127.078,0,0,0,9.707-10.9,11.487,11.487,0,0,0,2.559-6.777,5.855,5.855,0,0,0-1.562-4.4,5.175,5.175,0,0,0-3.73-1.514,5.419,5.419,0,0,0-4.336,1.953,11.334,11.334,0,0,0-1.758,3.3l-.84-.176q.977-4.492,3.311-6.24a8.2,8.2,0,0,1,5.01-1.748,7.15,7.15,0,0,1,5.342,2.08,6.988,6.988,0,0,1,2.041,5.088,10.213,10.213,0,0,1-2.207,6.172,132.9,132.9,0,0,1-9.59,10.566H29.1A5.557,5.557,0,0,0,31.738-3.5a5.857,5.857,0,0,0,1.719-2.187l.508.234L31.8,0H16.191ZM56.66-22.812,47.07-9.258h9.59Zm1.289-4.023H59.8V-9.258h4.082v2.6H59.8V0H56.7V-6.66H45.449v-2.6ZM67.988-3.574a5.667,5.667,0,0,1,2.92,1.26,5.651,5.651,0,0,0,2.783,1.26,5.021,5.021,0,0,0,3.926-1.982A7.281,7.281,0,0,0,79.3-7.91q0-5.059-5.391-7.285a14.691,14.691,0,0,0-5.566-1.23,2.824,2.824,0,0,1-.537-.029.639.639,0,0,1-.264-.205q.039-.156.068-.264a1.893,1.893,0,0,1,.068-.205l4.258-9.336h8.379a1.819,1.819,0,0,0,.967-.215,5.043,5.043,0,0,0,.889-.8l.313.273-1.523,3.613q-.078.176-.43.225a5.55,5.55,0,0,1-.762.049H72.207L70.547-19.9a35.665,35.665,0,0,1,4.688,1.035,10.551,10.551,0,0,1,4.082,2.422,9.493,9.493,0,0,1,2.129,3.115,9.4,9.4,0,0,1,.723,3.662,9.483,9.483,0,0,1-3.076,7.207A10.916,10.916,0,0,1,71.309.43,10.5,10.5,0,0,1,68.223.059Q66.27-.547,66.27-2.109a1.438,1.438,0,0,1,.42-1.025A1.721,1.721,0,0,1,67.988-3.574Zm27.07,2.91a4.4,4.4,0,0,0,3.4-1.25,4.434,4.434,0,0,0,1.152-3.125,4.872,4.872,0,0,0-1.221-3.447,36.218,36.218,0,0,0-5.01-3.994,6.238,6.238,0,0,0-2.441,2.734A7.835,7.835,0,0,0,90.176-6.5a6.259,6.259,0,0,0,1.377,4.258A4.443,4.443,0,0,0,95.059-.664Zm.254-14.922a12.836,12.836,0,0,0,2.539-2.168,5.61,5.61,0,0,0,1.211-3.633,4.609,4.609,0,0,0-1.143-3.154,4.376,4.376,0,0,0-3.467-1.3,4.1,4.1,0,0,0-2.969,1.133,3.687,3.687,0,0,0-1.172,2.754,5.077,5.077,0,0,0,1.377,3.408A15.808,15.808,0,0,0,95.313-15.586ZM92.3-13.32a22.068,22.068,0,0,1-3.516-3.3,6.626,6.626,0,0,1-1.445-4.141,5.516,5.516,0,0,1,2.139-4.375,8.346,8.346,0,0,1,5.557-1.8,7.117,7.117,0,0,1,5,1.7,5.205,5.205,0,0,1,1.855,3.945,5.557,5.557,0,0,1-1.895,4.1A18.034,18.034,0,0,1,96.465-14.8a25.509,25.509,0,0,1,4.756,4.287,6.762,6.762,0,0,1,1.436,4.307,6.117,6.117,0,0,1-2.119,4.727A8.144,8.144,0,0,1,94.863.43,8.632,8.632,0,0,1,89.4-1.338,5.613,5.613,0,0,1,87.129-6a6.626,6.626,0,0,1,1.582-4.375A17.955,17.955,0,0,1,92.3-13.32Zm24.082,3.477a19.48,19.48,0,0,1-.762,5.508A19.134,19.134,0,0,1,113.4.566a19.277,19.277,0,0,1-4.121,4.59,15.6,15.6,0,0,1-2.852,1.973l-.371-.645a16.526,16.526,0,0,0,4.395-4.668Q112.91-2.4,112.91-9.336a30.806,30.806,0,0,0-1.133-9.16,14.669,14.669,0,0,0-5.723-7.891l.508-.645a18.978,18.978,0,0,1,5.742,5.2A19.283,19.283,0,0,1,116.387-9.844Z" transform="translate(776 2633)" fill="#1ec488"/>
    <path id="Trazado_40558" data-name="Trazado 40558" d="M1977.038,327s17.852,21.445,0,51.826" transform="translate(-862 2329.825)" fill="none" stroke="#1ec488" stroke-width="2"/>
    <path id="Trazado_40559" data-name="Trazado 40559" d="M1984.972,327s-17.852,21.445,0,51.825" transform="translate(-1108 2329.825)" fill="none" stroke="#1ec488" stroke-width="2"/>
    <path id="Trazado_40591" data-name="Trazado 40591" d="M3.623-17.637a4.667,4.667,0,0,1,3.438,1.074,3.073,3.073,0,0,1,1.055,2.09,1.849,1.849,0,0,1-.547,1.426,1.832,1.832,0,0,1-1.289.508,1.721,1.721,0,0,1-1.211-.449A1.452,1.452,0,0,1,4.58-14.1,2.289,2.289,0,0,1,4.9-15.2a2.286,2.286,0,0,0,.322-.762.7.7,0,0,0-.4-.6A2.549,2.549,0,0,0,3.545-16.8Q.4-16.8-1.914-13.223a13.588,13.588,0,0,0-2.314,7.5,5.65,5.65,0,0,0,.938,3.457A3.291,3.291,0,0,0-.479-1.016a5.512,5.512,0,0,0,2.92-.869A11.541,11.541,0,0,0,5.049-4.1l.137-.156.566.43A14.286,14.286,0,0,1,3.115-1.152,8.315,8.315,0,0,1-1.865.469,5.641,5.641,0,0,1-6.1-1.2,6.269,6.269,0,0,1-7.725-5.762a11.532,11.532,0,0,1,3.613-8.164Q-.537-17.637,3.623-17.637Z" transform="translate(1197 2697)" fill="#1ec488"/>
    <path id="Trazado_40592" data-name="Trazado 40592" d="M-5.065-.258A73.07,73.07,0,0,0,.517-6.525a6.605,6.605,0,0,0,1.471-3.9,3.367,3.367,0,0,0-.9-2.532,2.975,2.975,0,0,0-2.145-.87A3.116,3.116,0,0,0-3.549-12.7,6.517,6.517,0,0,0-4.56-10.8l-.483-.1a5.865,5.865,0,0,1,1.9-3.588A4.715,4.715,0,0,1-.258-15.5a4.111,4.111,0,0,1,3.072,1.2,4.018,4.018,0,0,1,1.174,2.926A5.873,5.873,0,0,1,2.718-7.828,76.416,76.416,0,0,1-2.8-1.752H2.358A3.2,3.2,0,0,0,3.875-2.01a3.368,3.368,0,0,0,.988-1.258l.292.135L3.908,0H-5.065Z" transform="translate(1215 2681)" fill="#1ec488"/>
    <path id="Trazado_40560" data-name="Trazado 40560" d="M2066,372h106.883" transform="translate(-904 2278)" fill="none" stroke="#1ec488" stroke-width="2"/>
    <path id="Trazado_40593" data-name="Trazado 40593" d="M-27.8-26.191l2.021-.283q.771-.107,1.338-.205,2.3-.449,2.48-.488a1.354,1.354,0,0,1,.273-.039q.234.117.234.293l-4.59,17.441a46.833,46.833,0,0,1,4.023-5.312q2.734-2.891,5.02-2.891a3.152,3.152,0,0,1,1.807.6,2.41,2.41,0,0,1,.869,2.139,6.068,6.068,0,0,1-.1.957,8.228,8.228,0,0,1-.234,1.035l-2.637,9.355q-.117.391-.2.752a3.123,3.123,0,0,0-.078.654.7.7,0,0,0,.156.5.587.587,0,0,0,.449.166,2.234,2.234,0,0,0,1.426-.84q.508-.527,1.895-2.3l.508.469A19.838,19.838,0,0,1-15.459-1.23,4.956,4.956,0,0,1-18.877.43a1.853,1.853,0,0,1-1.309-.488,1.822,1.822,0,0,1-.527-1.406,3.7,3.7,0,0,1,.029-.479,3.461,3.461,0,0,1,.107-.5l3.008-11.445q.039-.156.068-.322a1.963,1.963,0,0,0,.029-.342.991.991,0,0,0-.293-.762,1.172,1.172,0,0,0-.8-.273q-1.309,0-3.3,2.1A27.2,27.2,0,0,0-25.225-9.2a15.59,15.59,0,0,0-1.416,2.91Q-27.119-4.922-28.486,0h-3.027l6.25-23.691a3.867,3.867,0,0,0,.078-.43,3.013,3.013,0,0,0,.02-.332q0-.84-.547-1.006a7.27,7.27,0,0,0-2.09-.088ZM10.068-1.8,2.021-21.016-6.143-1.8ZM15.537,0H-8.916L2.9-27.266h.781ZM20.83-18.145v.605a5.146,5.146,0,0,0-1.436.313.847.847,0,0,0-.42.859,2,2,0,0,0,.088.6q.088.283.3.83l4.063,10.1,3.516-8.945q.254-.645.479-1.348a3.871,3.871,0,0,0,.225-1.074,1.128,1.128,0,0,0-.723-1.094,4.019,4.019,0,0,0-1.172-.234v-.605H31.3v.605a1.811,1.811,0,0,0-1.377.635A13.475,13.475,0,0,0,28.7-14.336L23.057-.273A2.95,2.95,0,0,1,22.8.234a.317.317,0,0,1-.273.137A.392.392,0,0,1,22.2.146,6,6,0,0,1,21.9-.41l-5.977-14.3a5.72,5.72,0,0,0-1.543-2.363,3.107,3.107,0,0,0-1.426-.469v-.605Z" transform="translate(1215 2634)" fill="#1ec488"/>
    <path id="Trazado_40594" data-name="Trazado 40594" d="M-3.359-9.209a3.531,3.531,0,0,1,2.1.63A1.742,1.742,0,0,1-.371-7.2.938.938,0,0,1-.6-6.6a.838.838,0,0,1-.693.278.867.867,0,0,1-.6-.234,1.358,1.358,0,0,1-.376-.684l-.117-.469a1.188,1.188,0,0,0-.439-.732,1.563,1.563,0,0,0-.85-.205,2.316,2.316,0,0,0-1.88.972,4.053,4.053,0,0,0-.767,2.583,4.415,4.415,0,0,0,.845,2.646A2.668,2.668,0,0,0-3.193-1.27a2.731,2.731,0,0,0,1.807-.664A6.2,6.2,0,0,0-.371-3.145l.273.166A7.742,7.742,0,0,1-1.27-1.123,3.59,3.59,0,0,1-4,.186a3.663,3.663,0,0,1-2.7-1.2A4.47,4.47,0,0,1-7.871-4.277,5.088,5.088,0,0,1-6.592-7.754,4.119,4.119,0,0,1-3.359-9.209ZM1.582-3.076H1.9A5.1,5.1,0,0,0,2.51-1.367a2.216,2.216,0,0,0,2,1.094A1.607,1.607,0,0,0,5.669-.679a1.386,1.386,0,0,0,.425-1.05A1.446,1.446,0,0,0,5.85-2.52a2.5,2.5,0,0,0-.859-.742L3.9-3.887a6.235,6.235,0,0,1-1.768-1.3,2.282,2.282,0,0,1-.566-1.543,2.31,2.31,0,0,1,.781-1.8,2.824,2.824,0,0,1,1.963-.7,3.813,3.813,0,0,1,1.138.2,5.272,5.272,0,0,0,.7.2A.5.5,0,0,0,6.4-8.887a.409.409,0,0,0,.137-.156h.234l.068,2.725h-.3a4.518,4.518,0,0,0-.527-1.475A1.938,1.938,0,0,0,4.258-8.77a1.4,1.4,0,0,0-1.074.42,1.4,1.4,0,0,0-.391.986q0,.9,1.348,1.6l1.289.693Q7.51-3.936,7.51-2.432A2.358,2.358,0,0,1,6.646-.547,3.377,3.377,0,0,1,4.385.186a5.282,5.282,0,0,1-1.328-.2,6,6,0,0,0-.879-.2.289.289,0,0,0-.205.083.577.577,0,0,0-.137.2H1.582Z" transform="translate(1255 2636)" fill="#1ec488"/>
    <path id="Trazado_40595" data-name="Trazado 40595" d="M-15.2-14.766a10.373,10.373,0,0,1,2.51-1.748A6.337,6.337,0,0,1-9.9-17.129a13.525,13.525,0,0,1,5.049,1.465A13.545,13.545,0,0,0-.215-14.2a5.736,5.736,0,0,0,3.037-.85,9.531,9.531,0,0,0,2.354-1.982v3.34a11.454,11.454,0,0,1-2.129,1.426,7.026,7.026,0,0,1-3.2.8A13.213,13.213,0,0,1-5.283-12.93a13.059,13.059,0,0,0-4.678-1.465,5.6,5.6,0,0,0-3.145.938,12.421,12.421,0,0,0-2.09,1.895Zm0,8.242a10.373,10.373,0,0,1,2.51-1.748A6.337,6.337,0,0,1-9.9-8.887,13.525,13.525,0,0,1-4.854-7.422,13.545,13.545,0,0,0-.215-5.957a5.736,5.736,0,0,0,3.037-.85A9.531,9.531,0,0,0,5.176-8.789v3.34A12.436,12.436,0,0,1,2.734-3.867a6.452,6.452,0,0,1-2.891.645A13.147,13.147,0,0,1-5.273-4.687,12.984,12.984,0,0,0-9.961-6.152a5.5,5.5,0,0,0-3.105.918A11.977,11.977,0,0,0-15.2-3.32Z" transform="translate(1311 2659)" fill="#1ec488"/>
    <path id="Trazado_40596" data-name="Trazado 40596" d="M-103.164-26.836a.418.418,0,0,1,.088.146,1.527,1.527,0,0,1,.01.225V-2.949q0,1.5.8,1.914a8,8,0,0,0,2.988.488V0h-11.016V-.586a6.454,6.454,0,0,0,3.086-.645q.723-.527.723-2.285V-21.6a3.4,3.4,0,0,0-.234-1.426,1.01,1.01,0,0,0-1.016-.488,4.216,4.216,0,0,0-1.318.283q-.811.283-1.514.6v-.547l7.168-3.652ZM-85.2-.41a5.605,5.605,0,0,1-1.426,3.672A8.789,8.789,0,0,1-89.687,5.7l-.371-.781a6.651,6.651,0,0,0,2.588-2.285A4.356,4.356,0,0,0-86.758.586a.343.343,0,0,0-.176-.352A.9.9,0,0,0-87.3.156l-1.309.137a2.379,2.379,0,0,1-1.5-.537A1.857,1.857,0,0,1-90.8-1.8a2.488,2.488,0,0,1,.566-1.523,2.187,2.187,0,0,1,1.855-.742,3.06,3.06,0,0,1,2.207.967A3.609,3.609,0,0,1-85.2-.41Zm11.855-22.4L-82.93-9.258h9.59Zm1.289-4.023H-70.2V-9.258h4.082v2.6H-70.2V0H-73.3V-6.66h-11.25v-2.6Zm25,.371v.645L-55.527.371h-2.578l7.91-23.887h-8.516a4.6,4.6,0,0,0-2.725.625,10.609,10.609,0,0,0-2.1,2.617l-.684-.312q1.27-3.125,1.572-3.857t.791-2.021Zm5.039,22.891a5.667,5.667,0,0,1,2.92,1.26,5.651,5.651,0,0,0,2.783,1.26,5.021,5.021,0,0,0,3.926-1.982A7.281,7.281,0,0,0-30.7-7.91q0-5.059-5.391-7.285a14.691,14.691,0,0,0-5.566-1.23,2.824,2.824,0,0,1-.537-.029.639.639,0,0,1-.264-.205q.039-.156.068-.264a1.892,1.892,0,0,1,.068-.205l4.258-9.336h8.379a1.819,1.819,0,0,0,.967-.215,5.043,5.043,0,0,0,.889-.8l.313.273-1.523,3.613q-.078.176-.43.225a5.55,5.55,0,0,1-.762.049h-7.559l-1.66,3.418a35.665,35.665,0,0,1,4.688,1.035,10.551,10.551,0,0,1,4.082,2.422,9.493,9.493,0,0,1,2.129,3.115,9.4,9.4,0,0,1,.723,3.662,9.483,9.483,0,0,1-3.076,7.207A10.916,10.916,0,0,1-38.691.43,10.5,10.5,0,0,1-41.777.059Q-43.73-.547-43.73-2.109a1.438,1.438,0,0,1,.42-1.025A1.721,1.721,0,0,1-42.012-3.574Zm20,0a5.667,5.667,0,0,1,2.92,1.26,5.651,5.651,0,0,0,2.783,1.26,5.021,5.021,0,0,0,3.926-1.982A7.281,7.281,0,0,0-10.7-7.91q0-5.059-5.391-7.285a14.691,14.691,0,0,0-5.566-1.23,2.824,2.824,0,0,1-.537-.029.639.639,0,0,1-.264-.205q.039-.156.068-.264a1.893,1.893,0,0,1,.068-.205l4.258-9.336h8.379a1.819,1.819,0,0,0,.967-.215,5.043,5.043,0,0,0,.889-.8l.313.273-1.523,3.613q-.078.176-.43.225a5.55,5.55,0,0,1-.762.049h-7.559l-1.66,3.418a35.665,35.665,0,0,1,4.688,1.035,10.551,10.551,0,0,1,4.082,2.422A9.493,9.493,0,0,1-8.555-13.33a9.4,9.4,0,0,1,.723,3.662,9.483,9.483,0,0,1-3.076,7.207A10.916,10.916,0,0,1-18.691.43,10.5,10.5,0,0,1-21.777.059Q-23.73-.547-23.73-2.109a1.438,1.438,0,0,1,.42-1.025A1.721,1.721,0,0,1-22.012-3.574Zm18.2,3.125A127.078,127.078,0,0,0,5.9-11.348a11.487,11.487,0,0,0,2.559-6.777,5.855,5.855,0,0,0-1.562-4.4,5.175,5.175,0,0,0-3.73-1.514A5.419,5.419,0,0,0-1.172-22.09a11.334,11.334,0,0,0-1.758,3.3l-.84-.176q.977-4.492,3.311-6.24a8.2,8.2,0,0,1,5.01-1.748,7.15,7.15,0,0,1,5.342,2.08,6.988,6.988,0,0,1,2.041,5.088,10.213,10.213,0,0,1-2.207,6.172A132.9,132.9,0,0,1,.137-3.047H9.1A5.557,5.557,0,0,0,11.738-3.5a5.857,5.857,0,0,0,1.719-2.187l.508.234L11.8,0H-3.809ZM26.836-26.836a.418.418,0,0,1,.088.146,1.526,1.526,0,0,1,.01.225V-2.949q0,1.5.8,1.914a8,8,0,0,0,2.988.488V0H19.707V-.586a6.454,6.454,0,0,0,3.086-.645q.723-.527.723-2.285V-21.6a3.4,3.4,0,0,0-.234-1.426,1.01,1.01,0,0,0-1.016-.488,4.216,4.216,0,0,0-1.318.283q-.811.283-1.514.6v-.547L26.6-26.836ZM46.66-22.812,37.07-9.258h9.59Zm1.289-4.023H49.8V-9.258h4.082v2.6H49.8V0H46.7V-6.66H35.449v-2.6Zm16.309,8.887v.547A4.075,4.075,0,0,0,63-17.2a.742.742,0,0,0-.518.771,7.254,7.254,0,0,0,1.035,2.09q.547.9,1.387,2.207,1.152-1.582,1.719-2.48a5.157,5.157,0,0,0,.957-1.875.672.672,0,0,0-.41-.684,3.78,3.78,0,0,0-1.152-.234v-.547H72.3v.547a4.67,4.67,0,0,0-1.855.537,3.876,3.876,0,0,0-1.387,1.221l-3.34,4.824,5.156,7.813a6.984,6.984,0,0,0,1.689,1.973,3.12,3.12,0,0,0,1.592.488V0H66.094V-.547l.566-.039a1.4,1.4,0,0,0,.752-.273.714.714,0,0,0,.3-.586,4.83,4.83,0,0,0-.742-1.641q-.352-.625-1.055-1.7-.332-.527-.986-1.465t-1.1-1.6l-3.145,4.9a12.972,12.972,0,0,0-.7,1.172,1.214,1.214,0,0,0-.137.488.47.47,0,0,0,.3.488,7.275,7.275,0,0,0,1.318.254V0H55.684V-.547a4.645,4.645,0,0,0,1.563-.547,6.146,6.146,0,0,0,1.348-1.543l4.551-6.621-3.75-5.684a10.043,10.043,0,0,0-1.562-2.012,4.343,4.343,0,0,0-1.875-.449v-.547Zm22.578-8.887a.418.418,0,0,1,.088.146,1.527,1.527,0,0,1,.01.225V-2.949q0,1.5.8,1.914a8,8,0,0,0,2.988.488V0H79.707V-.586a6.454,6.454,0,0,0,3.086-.645q.723-.527.723-2.285V-21.6a3.4,3.4,0,0,0-.234-1.426,1.01,1.01,0,0,0-1.016-.488,4.216,4.216,0,0,0-1.318.283q-.811.283-1.514.6v-.547L86.6-26.836ZM104.57-.723q2.871,0,3.945-3.145a29.618,29.618,0,0,0,1.074-9.1,35.524,35.524,0,0,0-.645-7.578q-1.211-5.273-4.531-5.273t-4.551,5.43a36.267,36.267,0,0,0-.645,7.617,30.326,30.326,0,0,0,.664,7.09Q101.133-.723,104.57-.723Zm-.059-26.152q4.492,0,6.973,4.707a18.755,18.755,0,0,1,1.973,8.75,21.884,21.884,0,0,1-1.211,7.324Q109.961.371,104.336.371a7.481,7.481,0,0,1-6.328-3.5q-2.656-3.73-2.656-10.137a19.553,19.553,0,0,1,1.777-8.672Q99.531-26.875,104.512-26.875Z" transform="translate(1449 2660)" fill="#1ec488"/>
    <path id="Trazado_40597" data-name="Trazado 40597" d="M-4.8-13.117-10.31-5.323H-4.8Zm.741-2.313h1.067V-5.323H-.64V-3.83H-2.987V0H-4.773V-3.83h-6.469V-5.323ZM5.5-.416A2.3,2.3,0,0,0,7.771-2.224a17.031,17.031,0,0,0,.618-5.233,20.426,20.426,0,0,0-.371-4.357q-.7-3.032-2.605-3.032T2.8-11.725a20.854,20.854,0,0,0-.371,4.38,17.437,17.437,0,0,0,.382,4.077Q3.526-.416,5.5-.416ZM5.469-15.453a4.4,4.4,0,0,1,4.009,2.707,10.784,10.784,0,0,1,1.134,5.031,12.583,12.583,0,0,1-.7,4.211Q8.6.213,5.368.213A4.3,4.3,0,0,1,1.729-1.8,9.877,9.877,0,0,1,.2-7.625a11.243,11.243,0,0,1,1.022-4.986A4.49,4.49,0,0,1,5.469-15.453Z" transform="translate(1569 2632)" fill="#1ec488"/>
    <path id="Trazado_40598" data-name="Trazado 40598" d="M3.623-17.637a4.667,4.667,0,0,1,3.438,1.074,3.073,3.073,0,0,1,1.055,2.09,1.849,1.849,0,0,1-.547,1.426,1.832,1.832,0,0,1-1.289.508,1.721,1.721,0,0,1-1.211-.449A1.452,1.452,0,0,1,4.58-14.1,2.289,2.289,0,0,1,4.9-15.2a2.286,2.286,0,0,0,.322-.762.7.7,0,0,0-.4-.6A2.549,2.549,0,0,0,3.545-16.8Q.4-16.8-1.914-13.223a13.588,13.588,0,0,0-2.314,7.5,5.65,5.65,0,0,0,.938,3.457A3.291,3.291,0,0,0-.479-1.016a5.512,5.512,0,0,0,2.92-.869A11.541,11.541,0,0,0,5.049-4.1l.137-.156.566.43A14.286,14.286,0,0,1,3.115-1.152,8.315,8.315,0,0,1-1.865.469,5.641,5.641,0,0,1-6.1-1.2,6.269,6.269,0,0,1-7.725-5.762a11.532,11.532,0,0,1,3.613-8.164Q-.537-17.637,3.623-17.637Z" transform="translate(1616 2697)" fill="#1ec488"/>
    <path id="Trazado_40599" data-name="Trazado 40599" d="M-5.065-.258A73.07,73.07,0,0,0,.517-6.525a6.605,6.605,0,0,0,1.471-3.9,3.367,3.367,0,0,0-.9-2.532,2.975,2.975,0,0,0-2.145-.87A3.116,3.116,0,0,0-3.549-12.7,6.517,6.517,0,0,0-4.56-10.8l-.483-.1a5.865,5.865,0,0,1,1.9-3.588A4.715,4.715,0,0,1-.258-15.5a4.111,4.111,0,0,1,3.072,1.2,4.018,4.018,0,0,1,1.174,2.926A5.873,5.873,0,0,1,2.718-7.828,76.416,76.416,0,0,1-2.8-1.752H2.358A3.2,3.2,0,0,0,3.875-2.01a3.368,3.368,0,0,0,.988-1.258l.292.135L3.908,0H-5.065Z" transform="translate(1634 2681)" fill="#1ec488"/>
    <path id="Trazado_40561" data-name="Trazado 40561" d="M2066,372h106.883" transform="translate(-485 2278)" fill="none" stroke="#1ec488" stroke-width="2"/>
    <path id="Trazado_40600" data-name="Trazado 40600" d="M-27.8-26.191l2.021-.283q.771-.107,1.338-.205,2.3-.449,2.48-.488a1.354,1.354,0,0,1,.273-.039q.234.117.234.293l-4.59,17.441a46.833,46.833,0,0,1,4.023-5.312q2.734-2.891,5.02-2.891a3.152,3.152,0,0,1,1.807.6,2.41,2.41,0,0,1,.869,2.139,6.068,6.068,0,0,1-.1.957,8.228,8.228,0,0,1-.234,1.035l-2.637,9.355q-.117.391-.2.752a3.123,3.123,0,0,0-.078.654.7.7,0,0,0,.156.5.587.587,0,0,0,.449.166,2.234,2.234,0,0,0,1.426-.84q.508-.527,1.895-2.3l.508.469A19.838,19.838,0,0,1-15.459-1.23,4.956,4.956,0,0,1-18.877.43a1.853,1.853,0,0,1-1.309-.488,1.822,1.822,0,0,1-.527-1.406,3.7,3.7,0,0,1,.029-.479,3.461,3.461,0,0,1,.107-.5l3.008-11.445q.039-.156.068-.322a1.963,1.963,0,0,0,.029-.342.991.991,0,0,0-.293-.762,1.172,1.172,0,0,0-.8-.273q-1.309,0-3.3,2.1A27.2,27.2,0,0,0-25.225-9.2a15.59,15.59,0,0,0-1.416,2.91Q-27.119-4.922-28.486,0h-3.027l6.25-23.691a3.867,3.867,0,0,0,.078-.43,3.013,3.013,0,0,0,.02-.332q0-.84-.547-1.006a7.27,7.27,0,0,0-2.09-.088ZM10.068-1.8,2.021-21.016-6.143-1.8ZM15.537,0H-8.916L2.9-27.266h.781ZM20.83-18.145v.605a5.146,5.146,0,0,0-1.436.313.847.847,0,0,0-.42.859,2,2,0,0,0,.088.6q.088.283.3.83l4.063,10.1,3.516-8.945q.254-.645.479-1.348a3.871,3.871,0,0,0,.225-1.074,1.128,1.128,0,0,0-.723-1.094,4.019,4.019,0,0,0-1.172-.234v-.605H31.3v.605a1.811,1.811,0,0,0-1.377.635A13.475,13.475,0,0,0,28.7-14.336L23.057-.273A2.95,2.95,0,0,1,22.8.234a.317.317,0,0,1-.273.137A.392.392,0,0,1,22.2.146,6,6,0,0,1,21.9-.41l-5.977-14.3a5.72,5.72,0,0,0-1.543-2.363,3.107,3.107,0,0,0-1.426-.469v-.605Z" transform="translate(1634 2634)" fill="#1ec488"/>
    <path id="Trazado_40601" data-name="Trazado 40601" d="M-3.359-9.209a3.531,3.531,0,0,1,2.1.63A1.742,1.742,0,0,1-.371-7.2.938.938,0,0,1-.6-6.6a.838.838,0,0,1-.693.278.867.867,0,0,1-.6-.234,1.358,1.358,0,0,1-.376-.684l-.117-.469a1.188,1.188,0,0,0-.439-.732,1.563,1.563,0,0,0-.85-.205,2.316,2.316,0,0,0-1.88.972,4.053,4.053,0,0,0-.767,2.583,4.415,4.415,0,0,0,.845,2.646A2.668,2.668,0,0,0-3.193-1.27a2.731,2.731,0,0,0,1.807-.664A6.2,6.2,0,0,0-.371-3.145l.273.166A7.742,7.742,0,0,1-1.27-1.123,3.59,3.59,0,0,1-4,.186a3.663,3.663,0,0,1-2.7-1.2A4.47,4.47,0,0,1-7.871-4.277,5.088,5.088,0,0,1-6.592-7.754,4.119,4.119,0,0,1-3.359-9.209ZM1.582-3.076H1.9A5.1,5.1,0,0,0,2.51-1.367a2.216,2.216,0,0,0,2,1.094A1.607,1.607,0,0,0,5.669-.679a1.386,1.386,0,0,0,.425-1.05A1.446,1.446,0,0,0,5.85-2.52a2.5,2.5,0,0,0-.859-.742L3.9-3.887a6.235,6.235,0,0,1-1.768-1.3,2.282,2.282,0,0,1-.566-1.543,2.31,2.31,0,0,1,.781-1.8,2.824,2.824,0,0,1,1.963-.7,3.813,3.813,0,0,1,1.138.2,5.272,5.272,0,0,0,.7.2A.5.5,0,0,0,6.4-8.887a.409.409,0,0,0,.137-.156h.234l.068,2.725h-.3a4.518,4.518,0,0,0-.527-1.475A1.938,1.938,0,0,0,4.258-8.77a1.4,1.4,0,0,0-1.074.42,1.4,1.4,0,0,0-.391.986q0,.9,1.348,1.6l1.289.693Q7.51-3.936,7.51-2.432A2.358,2.358,0,0,1,6.646-.547,3.377,3.377,0,0,1,4.385.186a5.282,5.282,0,0,1-1.328-.2,6,6,0,0,0-.879-.2.289.289,0,0,0-.205.083.577.577,0,0,0-.137.2H1.582Z" transform="translate(1675 2635)" fill="#1ec488"/>
  </g>
</svg>
