<svg xmlns="http://www.w3.org/2000/svg" width="591.245" height="50.335" viewBox="0 0 591.245 50.335">
  <g id="Grupo_16481" data-name="Grupo 16481" transform="translate(-944.25 -2553.788)">
    <path id="Trazado_40792" data-name="Trazado 40792" d="M7.871-.781q3.73,0,6.465-7.422A34.793,34.793,0,0,0,16.7-20.352a10.063,10.063,0,0,0-.43-3.242,2.962,2.962,0,0,0-2.949-2.344q-4,0-6.777,8.633a37.571,37.571,0,0,0-2.109,11A9.655,9.655,0,0,0,4.863-3.2,3.053,3.053,0,0,0,7.871-.781ZM13.379-27.07a5.6,5.6,0,0,1,5.41,3.73,14.007,14.007,0,0,1,1.074,5.684,21.509,21.509,0,0,1-3.77,12.578Q12.383.234,7.715.234A5.706,5.706,0,0,1,3.125-2.08a9.891,9.891,0,0,1-1.875-6.4A23.147,23.147,0,0,1,4.941-21.113Q8.73-27.07,13.379-27.07ZM30,5V3.027H50V5ZM50,5V3.027H70V5ZM87.871-.781q3.73,0,6.465-7.422A34.792,34.792,0,0,0,96.7-20.352a10.063,10.063,0,0,0-.43-3.242,2.962,2.962,0,0,0-2.949-2.344q-4,0-6.777,8.633a37.571,37.571,0,0,0-2.109,11,9.655,9.655,0,0,0,.43,3.105A3.053,3.053,0,0,0,87.871-.781ZM93.379-27.07a5.6,5.6,0,0,1,5.41,3.73,14.007,14.007,0,0,1,1.074,5.684,21.509,21.509,0,0,1-3.77,12.578Q92.383.234,87.715.234a5.706,5.706,0,0,1-4.59-2.314,9.891,9.891,0,0,1-1.875-6.4,23.147,23.147,0,0,1,3.691-12.637Q88.73-27.07,93.379-27.07ZM144.59-15.176l-.488,2.363H124.043l.488-2.363Zm-1.68,7.91L142.422-4.9H122.363l.488-2.363Zm40-8.027a9.358,9.358,0,0,1-1.582,4.336,40.912,40.912,0,0,1-2.48,3.652q-1.641,2.207-3.379,4.355-2.754,3.4-3.242,3.4a.256.256,0,0,1-.273-.176A9.011,9.011,0,0,1,171.8-.918l-1.152-12.168L162.539.2a.314.314,0,0,1-.146.156.452.452,0,0,1-.186.039l-.273-.059-.039-.176-.234-4.824q-.078-1.621-.225-3.35t-.283-3a15.27,15.27,0,0,0-.869-4.336,1.777,1.777,0,0,0-1.689-.8q-.234,0-.469.01a4.426,4.426,0,0,0-.488.049v-.566q.8-.137,1.533-.293t1.611-.352l1.836-.469q.664,0,1.348,5.566.371,3.047.664,6.934L172.3-17.4a.9.9,0,0,1,.2-.264.392.392,0,0,1,.273-.107.236.236,0,0,1,.234.117,1.007,1.007,0,0,1,.078.352l1.309,14.121q.137-.176,2.168-2.764t2.129-2.744a20.29,20.29,0,0,0,1.953-3.262,3.712,3.712,0,0,0,.313-1.445,1.688,1.688,0,0,0-.078-.518,1.29,1.29,0,0,0-.371-.518L179.9-15a3.008,3.008,0,0,1-.439-.557,1.337,1.337,0,0,1-.186-.713,1.783,1.783,0,0,1,.342-1,1.387,1.387,0,0,1,1.24-.508,2.1,2.1,0,0,1,1.387.576A2.4,2.4,0,0,1,182.91-15.293Zm33.34-10.859a26.762,26.762,0,0,0-2.949,3.613,26.327,26.327,0,0,0-3.2,6.836,41.8,41.8,0,0,0-1.543,6.631,38.45,38.45,0,0,0-.449,5.244,32.75,32.75,0,0,0,.361,5.381A37.15,37.15,0,0,0,210,7.051l-.684.234A28.269,28.269,0,0,1,206.279.107a28.433,28.433,0,0,1-.947-7.217,21.154,21.154,0,0,1,1.582-8.437q2.363-5.488,8.828-11.211ZM218.5-1.289q0-.156.02-.361a2.494,2.494,0,0,1,.078-.42l3.672-13.652H219.3a1.687,1.687,0,0,1,.078-.664.83.83,0,0,1,.391-.273,16.236,16.236,0,0,0,3.057-1.621,19.156,19.156,0,0,0,2.959-3.008l.313-.371a.46.46,0,0,1,.146-.127.376.376,0,0,1,.186-.049,1.211,1.211,0,0,1,.273.078.821.821,0,0,1,.068.244.879.879,0,0,1-.01.225l-1.113,4.258h3.184l-.234,1.309h-3.32L221.758-2.578a.927.927,0,0,0,.059.674.542.542,0,0,0,.527.322q.508,0,1.426-1.016.527-.547,1.777-2.168l.508.293-.273.41a15.125,15.125,0,0,1-2.959,3.506,4.05,4.05,0,0,1-2.432.986A1.8,1.8,0,0,1,218.945-.1,1.788,1.788,0,0,1,218.5-1.289ZM238.105,5V3.027h20V5Zm20,0V3.027h20V5Zm41.5-6.289q0-.156.02-.361a2.5,2.5,0,0,1,.078-.42l3.672-13.652H300.41a1.686,1.686,0,0,1,.078-.664.83.83,0,0,1,.391-.273,16.237,16.237,0,0,0,3.057-1.621,19.156,19.156,0,0,0,2.959-3.008l.313-.371a.46.46,0,0,1,.146-.127.377.377,0,0,1,.186-.049,1.211,1.211,0,0,1,.273.078.821.821,0,0,1,.068.244.879.879,0,0,1-.01.225l-1.113,4.258h3.184l-.234,1.309h-3.32L302.871-2.578a.927.927,0,0,0,.059.674.542.542,0,0,0,.527.322q.508,0,1.426-1.016.527-.547,1.777-2.168l.508.293-.273.41a15.124,15.124,0,0,1-2.959,3.506A4.05,4.05,0,0,1,301.5.43,1.8,1.8,0,0,1,300.059-.1,1.788,1.788,0,0,1,299.609-1.289Zm20.254,7.871a32.21,32.21,0,0,0,3.105-3.789A26.434,26.434,0,0,0,326-3.867a43.928,43.928,0,0,0,1.523-6.387,38.258,38.258,0,0,0,.488-5.937,28.753,28.753,0,0,0-.576-6.094,20.22,20.22,0,0,0-1.377-4.316l.742-.234a26.632,26.632,0,0,1,2.92,6.768,27.8,27.8,0,0,1,1.064,7.607,21.307,21.307,0,0,1-1.309,7.734q-2.363,6.133-9.1,11.914ZM346-8.828v-2.363h8.848v-8.848h2.363v8.848h8.848v2.363h-8.848V0h-2.363V-8.828Z" transform="translate(943 2592)" fill="#1ec488"/>
    <path id="Trazado_40793" data-name="Trazado 40793" d="M.236-.359l4.43-4.7A20.29,20.29,0,0,0,6.48-7.208a5.271,5.271,0,0,0,1.2-2.851,2.618,2.618,0,0,0-.7-1.846,2.491,2.491,0,0,0-1.923-.759,2.923,2.923,0,0,0-2.01.769,5.348,5.348,0,0,0-.933,1.21l-.441-.154a5.024,5.024,0,0,1,2.481-2.953,4.306,4.306,0,0,1,1.876-.42,3.148,3.148,0,0,1,2.538,1.1,3.688,3.688,0,0,1,.928,2.44,3.821,3.821,0,0,1-.713,2.2A21.609,21.609,0,0,1,6.368-5.732l-4.04,4.04V-1.6H6.316a2.415,2.415,0,0,0,1.3-.277,2.519,2.519,0,0,0,.795-1.036l.338.144L7.7,0H.236Z" transform="translate(1333 2604)" fill="#1ec488"/>
    <path id="Trazado_40794" data-name="Trazado 40794" d="M1.015-.349l.7-.01a3.123,3.123,0,0,0,1.1-.3,1.179,1.179,0,0,0,.564-.764L6.265-11.761q.072-.256.108-.436a1.663,1.663,0,0,0,.036-.323A.492.492,0,0,0,6.173-13a1.7,1.7,0,0,0-.749-.123l-1,.051v-.318l.267-.041q.287-.051,1.523-.3t1.759-.359l.318-.072.195-.031.123.072q0,.062-.005.123a.526.526,0,0,1-.026.123L5.127-1.312q-.021.082-.036.164a.888.888,0,0,0-.015.164.5.5,0,0,0,.369.533A6.461,6.461,0,0,0,6.87-.308V0H1.015Z" transform="translate(1333 2578)" fill="#1ec488"/>
    <path id="Trazado_40773" data-name="Trazado 40773" d="M2066,372h27.955" transform="translate(-743 2211.319)" fill="none" stroke="#1ec488" stroke-width="2"/>
    <path id="Trazado_40790" data-name="Trazado 40790" d="M14.57-14.1a2.879,2.879,0,0,0-.645-2.07,2.1,2.1,0,0,0-1.562-.664q-3.184,0-5.918,4.883a15.812,15.812,0,0,0-2.4,7.4,3.233,3.233,0,0,0,.674,2.275,2.205,2.205,0,0,0,1.67.713q2.949,0,5.684-4.746A15.894,15.894,0,0,0,14.57-14.1Zm-2.441-3.613a3.317,3.317,0,0,1,2.383.8,2.9,2.9,0,0,1,.7,1.133l.1.273.43-1.484a1.488,1.488,0,0,1,.137-.342.359.359,0,0,1,.273-.107l2.207-.254q.176,0,.205.068a.452.452,0,0,1-.01.244q-.078.254-.117.4t-.117.42l-1.8,6.992q-.586,2.285-1,3.945A29.878,29.878,0,0,0,14.8-2.187a.5.5,0,0,0,.146.4.532.532,0,0,0,.361.127.776.776,0,0,0,.381-.117,4.076,4.076,0,0,0,.5-.352l.332-.273q.156-.137.352-.322t.469-.459l1.211-1.25.469.41A20.469,20.469,0,0,1,15.762-.5,3.95,3.95,0,0,1,13.418.43a1.349,1.349,0,0,1-1.123-.508,1.987,1.987,0,0,1-.4-1.27,11.163,11.163,0,0,1,.264-2.021q.264-1.318.518-2.217Q12.324-5,11.494-3.877A13.744,13.744,0,0,1,9.453-1.7,9.642,9.642,0,0,1,6.719.1,5.963,5.963,0,0,1,4.766.449,3.964,3.964,0,0,1,1.895-.85,5,5,0,0,1,.605-4.531q0-4.1,3.672-8.555Q8.066-17.715,12.129-17.715Zm30.449-8.437a26.762,26.762,0,0,0-2.949,3.613,26.327,26.327,0,0,0-3.2,6.836,41.8,41.8,0,0,0-1.543,6.631,38.451,38.451,0,0,0-.449,5.244,32.751,32.751,0,0,0,.361,5.381,37.15,37.15,0,0,0,1.533,5.5l-.684.234A28.269,28.269,0,0,1,32.607.107a28.433,28.433,0,0,1-.947-7.217,21.154,21.154,0,0,1,1.582-8.437q2.363-5.488,8.828-11.211ZM44.824-1.289q0-.156.02-.361a2.5,2.5,0,0,1,.078-.42l3.672-13.652H45.625a1.687,1.687,0,0,1,.078-.664.83.83,0,0,1,.391-.273,16.237,16.237,0,0,0,3.057-1.621,19.156,19.156,0,0,0,2.959-3.008l.313-.371a.46.46,0,0,1,.146-.127.376.376,0,0,1,.186-.049,1.211,1.211,0,0,1,.273.078.821.821,0,0,1,.068.244.879.879,0,0,1-.01.225l-1.113,4.258h3.184l-.234,1.309H51.6L48.086-2.578a.927.927,0,0,0,.059.674.542.542,0,0,0,.527.322q.508,0,1.426-1.016.527-.547,1.777-2.168l.508.293-.273.41A15.125,15.125,0,0,1,49.15-.557,4.05,4.05,0,0,1,46.719.43,1.8,1.8,0,0,1,45.273-.1,1.788,1.788,0,0,1,44.824-1.289ZM64.434,5V3.027h20V5Zm20,0V3.027h20V5Zm31.5-6.289q0-.156.02-.361a2.5,2.5,0,0,1,.078-.42l3.672-13.652h-2.969a1.686,1.686,0,0,1,.078-.664.83.83,0,0,1,.391-.273,16.237,16.237,0,0,0,3.057-1.621,19.156,19.156,0,0,0,2.959-3.008l.313-.371a.46.46,0,0,1,.146-.127.376.376,0,0,1,.186-.049,1.211,1.211,0,0,1,.273.078.821.821,0,0,1,.068.244.879.879,0,0,1-.01.225l-1.113,4.258h3.184l-.234,1.309h-3.32L119.2-2.578a.927.927,0,0,0,.059.674.542.542,0,0,0,.527.322q.508,0,1.426-1.016.527-.547,1.777-2.168l.508.293-.273.41a15.124,15.124,0,0,1-2.959,3.506,4.05,4.05,0,0,1-2.432.986A1.8,1.8,0,0,1,116.387-.1,1.788,1.788,0,0,1,115.938-1.289Zm30.254,7.871A32.207,32.207,0,0,0,149.3,2.793a26.434,26.434,0,0,0,3.027-6.66,43.924,43.924,0,0,0,1.523-6.387,38.26,38.26,0,0,0,.488-5.937,28.754,28.754,0,0,0-.576-6.094,20.218,20.218,0,0,0-1.377-4.316l.742-.234a26.632,26.632,0,0,1,2.92,6.768,27.8,27.8,0,0,1,1.064,7.607A21.307,21.307,0,0,1,155.8-4.727q-2.363,6.133-9.1,11.914Z" transform="translate(1362 2592)" fill="#1ec488"/>
    <path id="Trazado_40797" data-name="Trazado 40797" d="M3.936-.391Q5.8-.391,7.168-4.1A17.4,17.4,0,0,0,8.35-10.176,5.032,5.032,0,0,0,8.135-11.8,1.481,1.481,0,0,0,6.66-12.969q-2,0-3.389,4.316a18.786,18.786,0,0,0-1.055,5.5A4.827,4.827,0,0,0,2.432-1.6,1.527,1.527,0,0,0,3.936-.391ZM6.689-13.535A2.8,2.8,0,0,1,9.395-11.67a7,7,0,0,1,.537,2.842A10.754,10.754,0,0,1,8.047-2.539Q6.191.117,3.857.117A2.853,2.853,0,0,1,1.563-1.04a4.945,4.945,0,0,1-.937-3.2,11.574,11.574,0,0,1,1.846-6.318Q4.365-13.535,6.689-13.535Z" transform="translate(1042 2599)" fill="#1ec488"/>
    <path id="Trazado_40796" data-name="Trazado 40796" d="M3.936-.391Q5.8-.391,7.168-4.1A17.4,17.4,0,0,0,8.35-10.176,5.032,5.032,0,0,0,8.135-11.8,1.481,1.481,0,0,0,6.66-12.969q-2,0-3.389,4.316a18.786,18.786,0,0,0-1.055,5.5A4.827,4.827,0,0,0,2.432-1.6,1.527,1.527,0,0,0,3.936-.391ZM6.689-13.535A2.8,2.8,0,0,1,9.395-11.67a7,7,0,0,1,.537,2.842A10.754,10.754,0,0,1,8.047-2.539Q6.191.117,3.857.117A2.853,2.853,0,0,1,1.563-1.04a4.945,4.945,0,0,1-.937-3.2,11.574,11.574,0,0,1,1.846-6.318Q4.365-13.535,6.689-13.535Z" transform="translate(1123 2599)" fill="#1ec488"/>
    <path id="Trazado_40795" data-name="Trazado 40795" d="M3.936-.391Q5.8-.391,7.168-4.1A17.4,17.4,0,0,0,8.35-10.176,5.032,5.032,0,0,0,8.135-11.8,1.481,1.481,0,0,0,6.66-12.969q-2,0-3.389,4.316a18.786,18.786,0,0,0-1.055,5.5A4.827,4.827,0,0,0,2.432-1.6,1.527,1.527,0,0,0,3.936-.391ZM6.689-13.535A2.8,2.8,0,0,1,9.395-11.67a7,7,0,0,1,.537,2.842A10.754,10.754,0,0,1,8.047-2.539Q6.191.117,3.857.117A2.853,2.853,0,0,1,1.563-1.04a4.945,4.945,0,0,1-.937-3.2,11.574,11.574,0,0,1,1.846-6.318Q4.365-13.535,6.689-13.535Z" transform="translate(1249 2599)" fill="#1ec488"/>
    <path id="Trazado_40791" data-name="Trazado 40791" d="M4.132-.41q1.958,0,3.394-3.9a18.266,18.266,0,0,0,1.241-6.378,5.283,5.283,0,0,0-.226-1.7,1.555,1.555,0,0,0-1.548-1.23q-2.1,0-3.558,4.532A19.725,19.725,0,0,0,2.328-3.312a5.069,5.069,0,0,0,.226,1.63A1.6,1.6,0,0,0,4.132-.41Zm2.892-13.8a2.94,2.94,0,0,1,2.84,1.958,7.354,7.354,0,0,1,.564,2.984,11.292,11.292,0,0,1-1.979,6.6Q6.5.123,4.05.123a3,3,0,0,1-2.41-1.215A5.193,5.193,0,0,1,.656-4.45a12.152,12.152,0,0,1,1.938-6.634Q4.583-14.212,7.024-14.212Z" transform="translate(1487 2604)" fill="#1ec488"/>
    <path id="Trazado_40789" data-name="Trazado 40789" d="M.236-.359l4.43-4.7A20.29,20.29,0,0,0,6.48-7.208a5.271,5.271,0,0,0,1.2-2.851,2.618,2.618,0,0,0-.7-1.846,2.491,2.491,0,0,0-1.923-.759,2.923,2.923,0,0,0-2.01.769,5.348,5.348,0,0,0-.933,1.21l-.441-.154a5.024,5.024,0,0,1,2.481-2.953,4.306,4.306,0,0,1,1.876-.42,3.148,3.148,0,0,1,2.538,1.1,3.688,3.688,0,0,1,.928,2.44,3.821,3.821,0,0,1-.713,2.2A21.609,21.609,0,0,1,6.368-5.732l-4.04,4.04V-1.6H6.316a2.415,2.415,0,0,0,1.3-.277,2.519,2.519,0,0,0,.795-1.036l.338.144L7.7,0H.236Z" transform="translate(1526 2568)" fill="#1ec488"/>
  </g>
</svg>
