<svg xmlns="http://www.w3.org/2000/svg" width="72.563" height="53.504" viewBox="0 0 72.563 53.504">
  <g id="Grupo_16163" data-name="Grupo 16163" transform="translate(-685.438 -13031)">
    <path id="Trazado_40772" data-name="Trazado 40772" d="M12.136-28.45v.8a8.819,8.819,0,0,0-2.2.21A1.334,1.334,0,0,0,8.9-26.077a4.42,4.42,0,0,0,.367,1.47q.367.945,1.375,3.17l6.719,14.97,6.11-16.209q.4-1.071.609-1.806a4.572,4.572,0,0,0,.21-1.2,1.655,1.655,0,0,0-1.071-1.68,6.638,6.638,0,0,0-2.079-.294v-.8h8.8v.735a3.979,3.979,0,0,0-2.016.735,8.325,8.325,0,0,0-1.953,3.3L16.461.5H15.81L5.207-23.138a13.092,13.092,0,0,0-2.152-3.737,3.8,3.8,0,0,0-2.362-.84v-.735ZM41.11-25.216a6.153,6.153,0,0,1-1.522,4.031,9.235,9.235,0,0,1-3.328,2.625l-.4-.84a9.288,9.288,0,0,0,2.509-2.068,3.87,3.87,0,0,0,1.039-2.509.491.491,0,0,0-.168-.42.646.646,0,0,0-.4-.126q-1.239.147-1.449.147a2.59,2.59,0,0,1-1.575-.567,1.967,1.967,0,0,1-.756-1.68,2.693,2.693,0,0,1,.609-1.627,2.337,2.337,0,0,1,1.995-.808,3.172,3.172,0,0,1,2.446,1.1A3.932,3.932,0,0,1,41.11-25.216Z" transform="translate(706 13084)" fill="#082143"/>
    <g id="Grupo_16162" data-name="Grupo 16162" transform="translate(685.438 13031)">
      <path id="Trazado_38311" data-name="Trazado 38311" d="M2272,538.629h67.821" transform="translate(-2272 -533.501)" fill="none" stroke="#082143" stroke-width="1"/>
      <path id="Polígono_10" data-name="Polígono 10" d="M5,0l5,8H0Z" transform="translate(72.563) rotate(90)" fill="#082143"/>
    </g>
  </g>
</svg>
