<svg xmlns="http://www.w3.org/2000/svg" width="377.238" height="52.065" viewBox="0 0 377.238 52.065">
  <g id="Grupo_16482" data-name="Grupo 16482" transform="translate(-943.645 -2762.081)">
    <path id="Trazado_40804" data-name="Trazado 40804" d="M25.918-15.293a9.358,9.358,0,0,1-1.582,4.336A40.911,40.911,0,0,1,21.855-7.3Q20.215-5.1,18.477-2.949q-2.754,3.4-3.242,3.4a.256.256,0,0,1-.273-.176A9.01,9.01,0,0,1,14.8-.918L13.652-13.086,5.547.2A.314.314,0,0,1,5.4.352a.452.452,0,0,1-.186.039L4.941.332,4.9.156,4.668-4.668q-.078-1.621-.225-3.35t-.283-3a15.27,15.27,0,0,0-.869-4.336,1.777,1.777,0,0,0-1.689-.8q-.234,0-.469.01a4.426,4.426,0,0,0-.488.049v-.566q.8-.137,1.533-.293T3.789-17.3l1.836-.469q.664,0,1.348,5.566.371,3.047.664,6.934L15.313-17.4a.9.9,0,0,1,.2-.264.392.392,0,0,1,.273-.107.236.236,0,0,1,.234.117,1.007,1.007,0,0,1,.078.352L17.4-3.184,19.57-5.947Q21.6-8.535,21.7-8.691a20.29,20.29,0,0,0,1.953-3.262,3.711,3.711,0,0,0,.313-1.445,1.688,1.688,0,0,0-.078-.518,1.29,1.29,0,0,0-.371-.518L22.91-15a3.007,3.007,0,0,1-.439-.557,1.337,1.337,0,0,1-.186-.713,1.783,1.783,0,0,1,.342-1,1.387,1.387,0,0,1,1.24-.508,2.1,2.1,0,0,1,1.387.576A2.4,2.4,0,0,1,25.918-15.293Zm45.352.117-.488,2.363H50.723l.488-2.363Zm-1.68,7.91L69.1-4.9H49.043l.488-2.363Z" transform="translate(943 2797)" fill="#1ec488"/>
    <path id="Trazado_40803" data-name="Trazado 40803" d="M25.918-15.293a9.358,9.358,0,0,1-1.582,4.336A40.911,40.911,0,0,1,21.855-7.3Q20.215-5.1,18.477-2.949q-2.754,3.4-3.242,3.4a.256.256,0,0,1-.273-.176A9.01,9.01,0,0,1,14.8-.918L13.652-13.086,5.547.2A.314.314,0,0,1,5.4.352a.452.452,0,0,1-.186.039L4.941.332,4.9.156,4.668-4.668q-.078-1.621-.225-3.35t-.283-3a15.27,15.27,0,0,0-.869-4.336,1.777,1.777,0,0,0-1.689-.8q-.234,0-.469.01a4.426,4.426,0,0,0-.488.049v-.566q.8-.137,1.533-.293T3.789-17.3l1.836-.469q.664,0,1.348,5.566.371,3.047.664,6.934L15.313-17.4a.9.9,0,0,1,.2-.264.392.392,0,0,1,.273-.107.236.236,0,0,1,.234.117,1.007,1.007,0,0,1,.078.352L17.4-3.184,19.57-5.947Q21.6-8.535,21.7-8.691a20.29,20.29,0,0,0,1.953-3.262,3.711,3.711,0,0,0,.313-1.445,1.688,1.688,0,0,0-.078-.518,1.29,1.29,0,0,0-.371-.518L22.91-15a3.007,3.007,0,0,1-.439-.557,1.337,1.337,0,0,1-.186-.713,1.783,1.783,0,0,1,.342-1,1.387,1.387,0,0,1,1.24-.508,2.1,2.1,0,0,1,1.387.576A2.4,2.4,0,0,1,25.918-15.293Z" transform="translate(1021 2797)" fill="#1ec488"/>
    <path id="Trazado_40801" data-name="Trazado 40801" d="M.281-.427,5.554-6.018A24.155,24.155,0,0,0,7.715-8.582a6.275,6.275,0,0,0,1.428-3.394,3.117,3.117,0,0,0-.836-2.2,2.966,2.966,0,0,0-2.289-.9,3.48,3.48,0,0,0-2.393.916,6.367,6.367,0,0,0-1.111,1.44L1.99-12.9a5.981,5.981,0,0,1,2.954-3.516,5.126,5.126,0,0,1,2.234-.5A3.748,3.748,0,0,1,10.2-15.613a4.39,4.39,0,0,1,1.1,2.905,4.549,4.549,0,0,1-.848,2.625A25.725,25.725,0,0,1,7.581-6.824l-4.81,4.81v.11H7.52a2.876,2.876,0,0,0,1.544-.33,3,3,0,0,0,.946-1.233l.4.171L9.167,0H.281Z" transform="translate(1048 2779)" fill="#1ec488"/>
    <path id="Trazado_40802" data-name="Trazado 40802" d="M4.919-.488q2.332,0,4.041-4.639a21.745,21.745,0,0,0,1.477-7.593,6.29,6.29,0,0,0-.269-2.026,1.852,1.852,0,0,0-1.843-1.465q-2.5,0-4.236,5.4A23.482,23.482,0,0,0,2.771-3.943,6.034,6.034,0,0,0,3.04-2,1.908,1.908,0,0,0,4.919-.488ZM8.362-16.919a3.5,3.5,0,0,1,3.381,2.332,8.754,8.754,0,0,1,.671,3.552,13.443,13.443,0,0,1-2.356,7.861Q7.739.146,4.822.146A3.566,3.566,0,0,1,1.953-1.3a6.182,6.182,0,0,1-1.172-4,14.467,14.467,0,0,1,2.307-7.9Q5.457-16.919,8.362-16.919Z" transform="translate(1048 2814)" fill="#1ec488"/>
    <path id="Trazado_40800" data-name="Trazado 40800" d="M3.457-8.828v-2.363H12.3v-8.848h2.363v8.848h8.848v2.363H14.668V0H12.3V-8.828Z" transform="translate(1075 2797)" fill="#1ec488"/>
    <path id="Trazado_40798" data-name="Trazado 40798" d="M.449-.684,8.887-9.629a38.648,38.648,0,0,0,3.457-4.1q2.285-3.2,2.285-5.43a4.987,4.987,0,0,0-1.338-3.516,4.745,4.745,0,0,0-3.662-1.445A5.568,5.568,0,0,0,5.8-22.656a10.187,10.187,0,0,0-1.777,2.3l-.84-.293A9.57,9.57,0,0,1,7.91-26.27a8.2,8.2,0,0,1,3.574-.8,6,6,0,0,1,4.834,2.09,7.024,7.024,0,0,1,1.768,4.648,7.278,7.278,0,0,1-1.357,4.2,41.16,41.16,0,0,1-4.6,5.215l-7.7,7.7v.176h7.6A4.6,4.6,0,0,0,14.5-3.574a4.8,4.8,0,0,0,1.514-1.973l.645.273L14.668,0H.449ZM34.57-14.1a2.879,2.879,0,0,0-.645-2.07,2.1,2.1,0,0,0-1.562-.664q-3.184,0-5.918,4.883a15.812,15.812,0,0,0-2.4,7.4,3.233,3.233,0,0,0,.674,2.275,2.205,2.205,0,0,0,1.67.713q2.949,0,5.684-4.746A15.894,15.894,0,0,0,34.57-14.1Zm-2.441-3.613a3.317,3.317,0,0,1,2.383.8,2.9,2.9,0,0,1,.7,1.133l.1.273.43-1.484a1.488,1.488,0,0,1,.137-.342.359.359,0,0,1,.273-.107l2.207-.254q.176,0,.205.068a.451.451,0,0,1-.01.244q-.078.254-.117.4t-.117.42l-1.8,6.992q-.586,2.285-1,3.945A29.878,29.878,0,0,0,34.8-2.187a.5.5,0,0,0,.146.4.532.532,0,0,0,.361.127.776.776,0,0,0,.381-.117,4.076,4.076,0,0,0,.5-.352l.332-.273q.156-.137.352-.322t.469-.459l1.211-1.25.469.41A20.469,20.469,0,0,1,35.762-.5,3.95,3.95,0,0,1,33.418.43a1.349,1.349,0,0,1-1.123-.508,1.987,1.987,0,0,1-.4-1.27,11.163,11.163,0,0,1,.264-2.021q.264-1.318.518-2.217Q32.324-5,31.494-3.877A13.744,13.744,0,0,1,29.453-1.7,9.642,9.642,0,0,1,26.719.1a5.963,5.963,0,0,1-1.953.352,3.964,3.964,0,0,1-2.871-1.3,5,5,0,0,1-1.289-3.682q0-4.1,3.672-8.555Q28.066-17.715,32.129-17.715Zm30.449-8.437a26.762,26.762,0,0,0-2.949,3.613,26.327,26.327,0,0,0-3.2,6.836,41.8,41.8,0,0,0-1.543,6.631,38.451,38.451,0,0,0-.449,5.244,32.751,32.751,0,0,0,.361,5.381,37.15,37.15,0,0,0,1.533,5.5l-.684.234A28.269,28.269,0,0,1,52.607.107a28.433,28.433,0,0,1-.947-7.217,21.154,21.154,0,0,1,1.582-8.437q2.363-5.488,8.828-11.211ZM81.191-.781q3.73,0,6.465-7.422A34.792,34.792,0,0,0,90.02-20.352a10.063,10.063,0,0,0-.43-3.242,2.962,2.962,0,0,0-2.949-2.344q-4,0-6.777,8.633a37.571,37.571,0,0,0-2.109,11,9.655,9.655,0,0,0,.43,3.105A3.053,3.053,0,0,0,81.191-.781ZM86.7-27.07a5.6,5.6,0,0,1,5.41,3.73,14.007,14.007,0,0,1,1.074,5.684,21.509,21.509,0,0,1-3.77,12.578Q85.7.234,81.035.234a5.706,5.706,0,0,1-4.59-2.314,9.891,9.891,0,0,1-1.875-6.4,23.147,23.147,0,0,1,3.691-12.637Q82.051-27.07,86.7-27.07ZM103.32,5V3.027h20V5Zm20,0V3.027h20V5ZM161.191-.781q3.73,0,6.465-7.422a34.793,34.793,0,0,0,2.363-12.148,10.063,10.063,0,0,0-.43-3.242,2.962,2.962,0,0,0-2.949-2.344q-4,0-6.777,8.633a37.571,37.571,0,0,0-2.109,11,9.655,9.655,0,0,0,.43,3.105A3.053,3.053,0,0,0,161.191-.781ZM166.7-27.07a5.6,5.6,0,0,1,5.41,3.73,14.007,14.007,0,0,1,1.074,5.684,21.509,21.509,0,0,1-3.77,12.578Q165.7.234,161.035.234a5.706,5.706,0,0,1-4.59-2.314,9.891,9.891,0,0,1-1.875-6.4,23.147,23.147,0,0,1,3.691-12.637Q162.051-27.07,166.7-27.07ZM193.965,6.582a32.207,32.207,0,0,0,3.105-3.789,26.434,26.434,0,0,0,3.027-6.66,43.924,43.924,0,0,0,1.523-6.387,38.26,38.26,0,0,0,.488-5.937,28.754,28.754,0,0,0-.576-6.094,20.218,20.218,0,0,0-1.377-4.316l.742-.234a26.632,26.632,0,0,1,2.92,6.768,27.8,27.8,0,0,1,1.064,7.607,21.307,21.307,0,0,1-1.309,7.734q-2.363,6.133-9.1,11.914Z" transform="translate(1116 2797)" fill="#1ec488"/>
    <path id="Trazado_40799" data-name="Trazado 40799" d="M4.919-.488q2.332,0,4.041-4.639a21.745,21.745,0,0,0,1.477-7.593,6.29,6.29,0,0,0-.269-2.026,1.852,1.852,0,0,0-1.843-1.465q-2.5,0-4.236,5.4A23.482,23.482,0,0,0,2.771-3.943,6.034,6.034,0,0,0,3.04-2,1.908,1.908,0,0,0,4.919-.488ZM8.362-16.919a3.5,3.5,0,0,1,3.381,2.332,8.754,8.754,0,0,1,.671,3.552,13.443,13.443,0,0,1-2.356,7.861Q7.739.146,4.822.146A3.566,3.566,0,0,1,1.953-1.3a6.182,6.182,0,0,1-1.172-4,14.467,14.467,0,0,1,2.307-7.9Q5.457-16.919,8.362-16.919Z" transform="translate(1286 2809)" fill="#1ec488"/>
    <path id="Trazado_40805" data-name="Trazado 40805" d="M.281-.427,5.554-6.018A24.155,24.155,0,0,0,7.715-8.582a6.275,6.275,0,0,0,1.428-3.394,3.117,3.117,0,0,0-.836-2.2,2.966,2.966,0,0,0-2.289-.9,3.48,3.48,0,0,0-2.393.916,6.367,6.367,0,0,0-1.111,1.44L1.99-12.9a5.981,5.981,0,0,1,2.954-3.516,5.126,5.126,0,0,1,2.234-.5A3.748,3.748,0,0,1,10.2-15.613a4.39,4.39,0,0,1,1.1,2.905,4.549,4.549,0,0,1-.848,2.625A25.725,25.725,0,0,1,7.581-6.824l-4.81,4.81v.11H7.52a2.876,2.876,0,0,0,1.544-.33,3,3,0,0,0,.946-1.233l.4.171L9.167,0H.281Z" transform="translate(975 2779)" fill="#1ec488"/>
  </g>
</svg>
