<svg xmlns="http://www.w3.org/2000/svg" width="668.89" height="46.212" viewBox="0 0 668.89 46.212">
  <g id="Grupo_16480" data-name="Grupo 16480" transform="translate(-971.605 -2666.788)">
    <path id="Trazado_40788" data-name="Trazado 40788" d="M14.57-14.1a2.879,2.879,0,0,0-.645-2.07,2.1,2.1,0,0,0-1.562-.664q-3.184,0-5.918,4.883a15.812,15.812,0,0,0-2.4,7.4,3.233,3.233,0,0,0,.674,2.275,2.205,2.205,0,0,0,1.67.713q2.949,0,5.684-4.746A15.894,15.894,0,0,0,14.57-14.1Zm-2.441-3.613a3.317,3.317,0,0,1,2.383.8,2.9,2.9,0,0,1,.7,1.133l.1.273.43-1.484a1.488,1.488,0,0,1,.137-.342.359.359,0,0,1,.273-.107l2.207-.254q.176,0,.205.068a.452.452,0,0,1-.01.244q-.078.254-.117.4t-.117.42l-1.8,6.992q-.586,2.285-1,3.945A29.878,29.878,0,0,0,14.8-2.187a.5.5,0,0,0,.146.4.532.532,0,0,0,.361.127.776.776,0,0,0,.381-.117,4.076,4.076,0,0,0,.5-.352l.332-.273q.156-.137.352-.322t.469-.459l1.211-1.25.469.41A20.469,20.469,0,0,1,15.762-.5,3.95,3.95,0,0,1,13.418.43a1.349,1.349,0,0,1-1.123-.508,1.987,1.987,0,0,1-.4-1.27,11.163,11.163,0,0,1,.264-2.021q.264-1.318.518-2.217Q12.324-5,11.494-3.877A13.744,13.744,0,0,1,9.453-1.7,9.642,9.642,0,0,1,6.719.1,5.963,5.963,0,0,1,4.766.449,3.964,3.964,0,0,1,1.895-.85,5,5,0,0,1,.605-4.531q0-4.1,3.672-8.555Q8.066-17.715,12.129-17.715ZM54.59-15.176,54.1-12.812H34.043l.488-2.363Zm-1.68,7.91L52.422-4.9H32.363l.488-2.363ZM79.492-17.637a4.667,4.667,0,0,1,3.438,1.074,3.073,3.073,0,0,1,1.055,2.09,1.849,1.849,0,0,1-.547,1.426,1.832,1.832,0,0,1-1.289.508,1.721,1.721,0,0,1-1.211-.449,1.452,1.452,0,0,1-.488-1.113,2.289,2.289,0,0,1,.322-1.094,2.286,2.286,0,0,0,.322-.762.7.7,0,0,0-.4-.6,2.549,2.549,0,0,0-1.279-.244q-3.145,0-5.459,3.574a13.588,13.588,0,0,0-2.314,7.5,5.65,5.65,0,0,0,.938,3.457,3.291,3.291,0,0,0,2.813,1.25,5.512,5.512,0,0,0,2.92-.869A11.541,11.541,0,0,0,80.918-4.1l.137-.156.566.43a14.286,14.286,0,0,1-2.637,2.676A8.315,8.315,0,0,1,74,.469,5.641,5.641,0,0,1,69.766-1.2a6.269,6.269,0,0,1-1.621-4.561,11.532,11.532,0,0,1,3.613-8.164Q75.332-17.637,79.492-17.637ZM86.25-1.289q0-.156.02-.361a2.5,2.5,0,0,1,.078-.42L90.02-15.723H87.051a1.686,1.686,0,0,1,.078-.664.83.83,0,0,1,.391-.273,16.237,16.237,0,0,0,3.057-1.621,19.156,19.156,0,0,0,2.959-3.008l.313-.371a.46.46,0,0,1,.146-.127.376.376,0,0,1,.186-.049,1.211,1.211,0,0,1,.273.078.821.821,0,0,1,.068.244.879.879,0,0,1-.01.225L93.4-17.031h3.184l-.234,1.309h-3.32L89.512-2.578a.927.927,0,0,0,.059.674.542.542,0,0,0,.527.322q.508,0,1.426-1.016.527-.547,1.777-2.168l.508.293-.273.41A15.124,15.124,0,0,1,90.576-.557,4.05,4.05,0,0,1,88.145.43,1.8,1.8,0,0,1,86.7-.1,1.788,1.788,0,0,1,86.25-1.289ZM97.109-5.176q0-4.336,3.906-8.4,3.867-4.063,7.988-4.062a3.827,3.827,0,0,1,2.422.7,2.491,2.491,0,0,1,.9,2.09q0,2.813-3.291,4.814a17.29,17.29,0,0,1-6.924,2.451L101-7.441a13.254,13.254,0,0,0-.352,1.279,6.156,6.156,0,0,0-.1,1.2,3.325,3.325,0,0,0,1.123,2.676,3.977,3.977,0,0,0,2.666.957,6.11,6.11,0,0,0,3.105-.977,25.764,25.764,0,0,0,2.715-2.031l.508.449a12.315,12.315,0,0,1-2.52,2.285A9.962,9.962,0,0,1,102.3.488,5.147,5.147,0,0,1,98.672-.977,5.477,5.477,0,0,1,97.109-5.176Zm4.16-3.145a11.4,11.4,0,0,0,6.074-2.627q2.344-2.08,2.344-4.131a1.838,1.838,0,0,0-.352-1.182A1.247,1.247,0,0,0,108.3-16.7a3.749,3.749,0,0,0-2.49,1.084,14.656,14.656,0,0,0-2.2,2.451,19.234,19.234,0,0,0-1.641,3.066Q101.641-9.316,101.27-8.32Z" transform="translate(971 2701)" fill="#1ec488"/>
    <path id="Trazado_40786" data-name="Trazado 40786" d="M25.918-15.293a9.358,9.358,0,0,1-1.582,4.336A40.911,40.911,0,0,1,21.855-7.3Q20.215-5.1,18.477-2.949q-2.754,3.4-3.242,3.4a.256.256,0,0,1-.273-.176A9.01,9.01,0,0,1,14.8-.918L13.652-13.086,5.547.2A.314.314,0,0,1,5.4.352a.452.452,0,0,1-.186.039L4.941.332,4.9.156,4.668-4.668q-.078-1.621-.225-3.35t-.283-3a15.27,15.27,0,0,0-.869-4.336,1.777,1.777,0,0,0-1.689-.8q-.234,0-.469.01a4.426,4.426,0,0,0-.488.049v-.566q.8-.137,1.533-.293T3.789-17.3l1.836-.469q.664,0,1.348,5.566.371,3.047.664,6.934L15.313-17.4a.9.9,0,0,1,.2-.264.392.392,0,0,1,.273-.107.236.236,0,0,1,.234.117,1.007,1.007,0,0,1,.078.352L17.4-3.184,19.57-5.947Q21.6-8.535,21.7-8.691a20.29,20.29,0,0,0,1.953-3.262,3.711,3.711,0,0,0,.313-1.445,1.688,1.688,0,0,0-.078-.518,1.29,1.29,0,0,0-.371-.518L22.91-15a3.007,3.007,0,0,1-.439-.557,1.337,1.337,0,0,1-.186-.713,1.783,1.783,0,0,1,.342-1,1.387,1.387,0,0,1,1.24-.508,2.1,2.1,0,0,1,1.387.576A2.4,2.4,0,0,1,25.918-15.293Zm25.352.117-.488,2.363H30.723l.488-2.363Zm-1.68,7.91L49.1-4.9H29.043l.488-2.363Zm30-8.027a9.358,9.358,0,0,1-1.582,4.336A40.91,40.91,0,0,1,75.527-7.3Q73.887-5.1,72.148-2.949q-2.754,3.4-3.242,3.4a.256.256,0,0,1-.273-.176,9.009,9.009,0,0,1-.156-1.191L67.324-13.086,59.219.2a.314.314,0,0,1-.146.156.452.452,0,0,1-.186.039L58.613.332,58.574.156,58.34-4.668q-.078-1.621-.225-3.35t-.283-3a15.27,15.27,0,0,0-.869-4.336,1.777,1.777,0,0,0-1.689-.8q-.234,0-.469.01a4.426,4.426,0,0,0-.488.049v-.566q.8-.137,1.533-.293t1.611-.352l1.836-.469q.664,0,1.348,5.566.371,3.047.664,6.934L68.984-17.4a.9.9,0,0,1,.2-.264.392.392,0,0,1,.273-.107.236.236,0,0,1,.234.117,1.007,1.007,0,0,1,.078.352L71.074-3.184l2.168-2.764q2.031-2.588,2.129-2.744a20.29,20.29,0,0,0,1.953-3.262,3.711,3.711,0,0,0,.313-1.445,1.688,1.688,0,0,0-.078-.518,1.29,1.29,0,0,0-.371-.518L76.582-15a3.007,3.007,0,0,1-.439-.557,1.337,1.337,0,0,1-.186-.713,1.783,1.783,0,0,1,.342-1,1.387,1.387,0,0,1,1.24-.508,2.1,2.1,0,0,1,1.387.576A2.4,2.4,0,0,1,79.59-15.293Z" transform="translate(1123 2701)" fill="#1ec488"/>
    <path id="Trazado_40787" data-name="Trazado 40787" d="M3.936-.391Q5.8-.391,7.168-4.1A17.4,17.4,0,0,0,8.35-10.176,5.032,5.032,0,0,0,8.135-11.8,1.481,1.481,0,0,0,6.66-12.969q-2,0-3.389,4.316a18.786,18.786,0,0,0-1.055,5.5A4.827,4.827,0,0,0,2.432-1.6,1.527,1.527,0,0,0,3.936-.391ZM6.689-13.535A2.8,2.8,0,0,1,9.395-11.67a7,7,0,0,1,.537,2.842A10.754,10.754,0,0,1,8.047-2.539Q6.191.117,3.857.117A2.853,2.853,0,0,1,1.563-1.04a4.945,4.945,0,0,1-.937-3.2,11.574,11.574,0,0,1,1.846-6.318Q4.365-13.535,6.689-13.535Z" transform="translate(1203 2708)" fill="#1ec488"/>
    <path id="Trazado_40785" data-name="Trazado 40785" d="M3.457-8.828v-2.363H12.3v-8.848h2.363v8.848h8.848v2.363H14.668V0H12.3V-8.828ZM51.563-14.1a2.879,2.879,0,0,0-.645-2.07,2.1,2.1,0,0,0-1.562-.664q-3.184,0-5.918,4.883a15.812,15.812,0,0,0-2.4,7.4,3.233,3.233,0,0,0,.674,2.275,2.205,2.205,0,0,0,1.67.713q2.949,0,5.684-4.746A15.894,15.894,0,0,0,51.563-14.1Zm-2.441-3.613a3.317,3.317,0,0,1,2.383.8,2.9,2.9,0,0,1,.7,1.133l.1.273.43-1.484a1.488,1.488,0,0,1,.137-.342.359.359,0,0,1,.273-.107l2.207-.254q.176,0,.205.068a.451.451,0,0,1-.01.244q-.078.254-.117.4t-.117.42l-1.8,6.992q-.586,2.285-1,3.945A29.878,29.878,0,0,0,51.8-2.187a.5.5,0,0,0,.146.4.532.532,0,0,0,.361.127.776.776,0,0,0,.381-.117,4.076,4.076,0,0,0,.5-.352l.332-.273q.156-.137.352-.322t.469-.459l1.211-1.25.469.41A20.469,20.469,0,0,1,52.754-.5,3.95,3.95,0,0,1,50.41.43a1.349,1.349,0,0,1-1.123-.508,1.987,1.987,0,0,1-.4-1.27,11.163,11.163,0,0,1,.264-2.021q.264-1.318.518-2.217Q49.316-5,48.486-3.877A13.744,13.744,0,0,1,46.445-1.7,9.642,9.642,0,0,1,43.711.1a5.963,5.963,0,0,1-1.953.352,3.964,3.964,0,0,1-2.871-1.3A5,5,0,0,1,37.6-4.531q0-4.1,3.672-8.555Q45.059-17.715,49.121-17.715ZM58.5-1.289q0-.156.02-.361a2.5,2.5,0,0,1,.078-.42l3.672-13.652H59.3a1.687,1.687,0,0,1,.078-.664.83.83,0,0,1,.391-.273,16.237,16.237,0,0,0,3.057-1.621,19.156,19.156,0,0,0,2.959-3.008l.313-.371a.46.46,0,0,1,.146-.127.376.376,0,0,1,.186-.049,1.211,1.211,0,0,1,.273.078.821.821,0,0,1,.068.244.879.879,0,0,1-.01.225l-1.113,4.258h3.184l-.234,1.309h-3.32L61.758-2.578a.927.927,0,0,0,.059.674.542.542,0,0,0,.527.322q.508,0,1.426-1.016.527-.547,1.777-2.168l.508.293-.273.41A15.125,15.125,0,0,1,62.822-.557,4.05,4.05,0,0,1,60.391.43,1.8,1.8,0,0,1,58.945-.1,1.788,1.788,0,0,1,58.5-1.289Z" transform="translate(1219 2701)" fill="#1ec488"/>
    <path id="Trazado_40783" data-name="Trazado 40783" d="M7.871-.781q3.73,0,6.465-7.422A34.793,34.793,0,0,0,16.7-20.352a10.063,10.063,0,0,0-.43-3.242,2.962,2.962,0,0,0-2.949-2.344q-4,0-6.777,8.633a37.571,37.571,0,0,0-2.109,11A9.655,9.655,0,0,0,4.863-3.2,3.053,3.053,0,0,0,7.871-.781ZM13.379-27.07a5.6,5.6,0,0,1,5.41,3.73,14.007,14.007,0,0,1,1.074,5.684,21.509,21.509,0,0,1-3.77,12.578Q12.383.234,7.715.234A5.706,5.706,0,0,1,3.125-2.08a9.891,9.891,0,0,1-1.875-6.4A23.147,23.147,0,0,1,4.941-21.113Q8.73-27.07,13.379-27.07ZM44.59-15.176,44.1-12.812H24.043l.488-2.363Zm-1.68,7.91L42.422-4.9H22.363l.488-2.363ZM54.863-.781q3.73,0,6.465-7.422a34.793,34.793,0,0,0,2.363-12.148,10.063,10.063,0,0,0-.43-3.242,2.962,2.962,0,0,0-2.949-2.344q-4,0-6.777,8.633a37.571,37.571,0,0,0-2.109,11,9.655,9.655,0,0,0,.43,3.105A3.053,3.053,0,0,0,54.863-.781ZM60.371-27.07a5.6,5.6,0,0,1,5.41,3.73,14.007,14.007,0,0,1,1.074,5.684,21.509,21.509,0,0,1-3.77,12.578Q59.375.234,54.707.234a5.706,5.706,0,0,1-4.59-2.314,9.891,9.891,0,0,1-1.875-6.4,23.147,23.147,0,0,1,3.691-12.637Q55.723-27.07,60.371-27.07Z" transform="translate(1328 2701)" fill="#1ec488"/>
    <path id="Trazado_40784" data-name="Trazado 40784" d="M4.132-.41q1.958,0,3.394-3.9a18.266,18.266,0,0,0,1.241-6.378,5.283,5.283,0,0,0-.226-1.7,1.555,1.555,0,0,0-1.548-1.23q-2.1,0-3.558,4.532A19.725,19.725,0,0,0,2.328-3.312a5.069,5.069,0,0,0,.226,1.63A1.6,1.6,0,0,0,4.132-.41Zm2.892-13.8a2.94,2.94,0,0,1,2.84,1.958,7.354,7.354,0,0,1,.564,2.984,11.292,11.292,0,0,1-1.979,6.6Q6.5.123,4.05.123a3,3,0,0,1-2.41-1.215A5.193,5.193,0,0,1,.656-4.45a12.152,12.152,0,0,1,1.938-6.634Q4.583-14.212,7.024-14.212Z" transform="translate(1396 2708)" fill="#1ec488"/>
    <path id="Trazado_40777" data-name="Trazado 40777" d="M3.457-8.828v-2.363H12.3v-8.848h2.363v8.848h8.848v2.363H14.668V0H12.3V-8.828Z" transform="translate(1418 2701)" fill="#1ec488"/>
    <path id="Trazado_40778" data-name="Trazado 40778" d="M25.918-15.293a9.358,9.358,0,0,1-1.582,4.336A40.911,40.911,0,0,1,21.855-7.3Q20.215-5.1,18.477-2.949q-2.754,3.4-3.242,3.4a.256.256,0,0,1-.273-.176A9.01,9.01,0,0,1,14.8-.918L13.652-13.086,5.547.2A.314.314,0,0,1,5.4.352a.452.452,0,0,1-.186.039L4.941.332,4.9.156,4.668-4.668q-.078-1.621-.225-3.35t-.283-3a15.27,15.27,0,0,0-.869-4.336,1.777,1.777,0,0,0-1.689-.8q-.234,0-.469.01a4.426,4.426,0,0,0-.488.049v-.566q.8-.137,1.533-.293T3.789-17.3l1.836-.469q.664,0,1.348,5.566.371,3.047.664,6.934L15.313-17.4a.9.9,0,0,1,.2-.264.392.392,0,0,1,.273-.107.236.236,0,0,1,.234.117,1.007,1.007,0,0,1,.078.352L17.4-3.184,19.57-5.947Q21.6-8.535,21.7-8.691a20.29,20.29,0,0,0,1.953-3.262,3.711,3.711,0,0,0,.313-1.445,1.688,1.688,0,0,0-.078-.518,1.29,1.29,0,0,0-.371-.518L22.91-15a3.007,3.007,0,0,1-.439-.557,1.337,1.337,0,0,1-.186-.713,1.783,1.783,0,0,1,.342-1,1.387,1.387,0,0,1,1.24-.508,2.1,2.1,0,0,1,1.387.576A2.4,2.4,0,0,1,25.918-15.293Z" transform="translate(1451 2701)" fill="#1ec488"/>
    <path id="Trazado_40779" data-name="Trazado 40779" d="M4.132-.41q1.958,0,3.394-3.9a18.266,18.266,0,0,0,1.241-6.378,5.283,5.283,0,0,0-.226-1.7,1.555,1.555,0,0,0-1.548-1.23q-2.1,0-3.558,4.532A19.725,19.725,0,0,0,2.328-3.312a5.069,5.069,0,0,0,.226,1.63A1.6,1.6,0,0,0,4.132-.41Zm2.892-13.8a2.94,2.94,0,0,1,2.84,1.958,7.354,7.354,0,0,1,.564,2.984,11.292,11.292,0,0,1-1.979,6.6Q6.5.123,4.05.123a3,3,0,0,1-2.41-1.215A5.193,5.193,0,0,1,.656-4.45a12.152,12.152,0,0,1,1.938-6.634Q4.583-14.212,7.024-14.212Z" transform="translate(1476 2708)" fill="#1ec488"/>
    <path id="Trazado_40780" data-name="Trazado 40780" d="M1.5-1.289q0-.156.02-.361A2.5,2.5,0,0,1,1.6-2.07L5.273-15.723H2.3a1.687,1.687,0,0,1,.078-.664.83.83,0,0,1,.391-.273A16.237,16.237,0,0,0,5.83-18.281a19.156,19.156,0,0,0,2.959-3.008L9.1-21.66a.46.46,0,0,1,.146-.127.376.376,0,0,1,.186-.049,1.211,1.211,0,0,1,.273.078.821.821,0,0,1,.068.244.879.879,0,0,1-.01.225L8.652-17.031h3.184L11.6-15.723H8.281L4.766-2.578a.927.927,0,0,0,.059.674.542.542,0,0,0,.527.322q.508,0,1.426-1.016Q7.3-3.145,8.555-4.766l.508.293-.273.41A15.125,15.125,0,0,1,5.83-.557,4.05,4.05,0,0,1,3.4.43,1.8,1.8,0,0,1,1.953-.1,1.788,1.788,0,0,1,1.5-1.289ZM24.57-8.828v-2.363h8.848v-8.848h2.363v8.848h8.848v2.363H35.781V0H33.418V-8.828Z" transform="translate(1491 2701)" fill="#1ec488"/>
    <path id="Trazado_40781" data-name="Trazado 40781" d="M.236-.359l4.43-4.7A20.29,20.29,0,0,0,6.48-7.208a5.271,5.271,0,0,0,1.2-2.851,2.618,2.618,0,0,0-.7-1.846,2.491,2.491,0,0,0-1.923-.759,2.923,2.923,0,0,0-2.01.769,5.348,5.348,0,0,0-.933,1.21l-.441-.154a5.024,5.024,0,0,1,2.481-2.953,4.306,4.306,0,0,1,1.876-.42,3.148,3.148,0,0,1,2.538,1.1,3.688,3.688,0,0,1,.928,2.44,3.821,3.821,0,0,1-.713,2.2A21.609,21.609,0,0,1,6.368-5.732l-4.04,4.04V-1.6H6.316a2.415,2.415,0,0,0,1.3-.277,2.519,2.519,0,0,0,.795-1.036l.338.144L7.7,0H.236Z" transform="translate(1555 2713)" fill="#1ec488"/>
    <path id="Trazado_40782" data-name="Trazado 40782" d="M1.015-.349l.7-.01a3.123,3.123,0,0,0,1.1-.3,1.179,1.179,0,0,0,.564-.764L6.265-11.761q.072-.256.108-.436a1.663,1.663,0,0,0,.036-.323A.492.492,0,0,0,6.173-13a1.7,1.7,0,0,0-.749-.123l-1,.051v-.318l.267-.041q.287-.051,1.523-.3t1.759-.359l.318-.072.195-.031.123.072q0,.062-.005.123a.526.526,0,0,1-.026.123L5.127-1.312q-.021.082-.036.164a.888.888,0,0,0-.015.164.5.5,0,0,0,.369.533A6.461,6.461,0,0,0,6.87-.308V0H1.015Z" transform="translate(1555 2687)" fill="#1ec488"/>
    <path id="Trazado_40774" data-name="Trazado 40774" d="M2066,372h27.955" transform="translate(-521 2320.319)" fill="none" stroke="#1ec488" stroke-width="2"/>
    <path id="Trazado_40776" data-name="Trazado 40776" d="M14.57-14.1a2.879,2.879,0,0,0-.645-2.07,2.1,2.1,0,0,0-1.562-.664q-3.184,0-5.918,4.883a15.812,15.812,0,0,0-2.4,7.4,3.233,3.233,0,0,0,.674,2.275,2.205,2.205,0,0,0,1.67.713q2.949,0,5.684-4.746A15.894,15.894,0,0,0,14.57-14.1Zm-2.441-3.613a3.317,3.317,0,0,1,2.383.8,2.9,2.9,0,0,1,.7,1.133l.1.273.43-1.484a1.488,1.488,0,0,1,.137-.342.359.359,0,0,1,.273-.107l2.207-.254q.176,0,.205.068a.452.452,0,0,1-.01.244q-.078.254-.117.4t-.117.42l-1.8,6.992q-.586,2.285-1,3.945A29.878,29.878,0,0,0,14.8-2.187a.5.5,0,0,0,.146.4.532.532,0,0,0,.361.127.776.776,0,0,0,.381-.117,4.076,4.076,0,0,0,.5-.352l.332-.273q.156-.137.352-.322t.469-.459l1.211-1.25.469.41A20.469,20.469,0,0,1,15.762-.5,3.95,3.95,0,0,1,13.418.43a1.349,1.349,0,0,1-1.123-.508,1.987,1.987,0,0,1-.4-1.27,11.163,11.163,0,0,1,.264-2.021q.264-1.318.518-2.217Q12.324-5,11.494-3.877A13.744,13.744,0,0,1,9.453-1.7,9.642,9.642,0,0,1,6.719.1,5.963,5.963,0,0,1,4.766.449,3.964,3.964,0,0,1,1.895-.85,5,5,0,0,1,.605-4.531q0-4.1,3.672-8.555Q8.066-17.715,12.129-17.715ZM21.5-1.289q0-.156.02-.361a2.5,2.5,0,0,1,.078-.42l3.672-13.652H22.3a1.686,1.686,0,0,1,.078-.664.83.83,0,0,1,.391-.273,16.237,16.237,0,0,0,3.057-1.621,19.156,19.156,0,0,0,2.959-3.008l.313-.371a.46.46,0,0,1,.146-.127.376.376,0,0,1,.186-.049,1.211,1.211,0,0,1,.273.078.821.821,0,0,1,.068.244.879.879,0,0,1-.01.225l-1.113,4.258h3.184L31.6-15.723h-3.32L24.766-2.578a.927.927,0,0,0,.059.674.542.542,0,0,0,.527.322q.508,0,1.426-1.016.527-.547,1.777-2.168l.508.293-.273.41A15.125,15.125,0,0,1,25.83-.557,4.05,4.05,0,0,1,23.4.43,1.8,1.8,0,0,1,21.953-.1,1.788,1.788,0,0,1,21.5-1.289Z" transform="translate(1586 2701)" fill="#1ec488"/>
    <path id="Trazado_40775" data-name="Trazado 40775" d="M.236-.359l4.43-4.7A20.29,20.29,0,0,0,6.48-7.208a5.271,5.271,0,0,0,1.2-2.851,2.618,2.618,0,0,0-.7-1.846,2.491,2.491,0,0,0-1.923-.759,2.923,2.923,0,0,0-2.01.769,5.348,5.348,0,0,0-.933,1.21l-.441-.154a5.024,5.024,0,0,1,2.481-2.953,4.306,4.306,0,0,1,1.876-.42,3.148,3.148,0,0,1,2.538,1.1,3.688,3.688,0,0,1,.928,2.44,3.821,3.821,0,0,1-.713,2.2A21.609,21.609,0,0,1,6.368-5.732l-4.04,4.04V-1.6H6.316a2.415,2.415,0,0,0,1.3-.277,2.519,2.519,0,0,0,.795-1.036l.338.144L7.7,0H.236Z" transform="translate(1631 2681)" fill="#1ec488"/>
  </g>
</svg>
