<svg xmlns="http://www.w3.org/2000/svg" width="762.67" height="338.372" viewBox="0 0 762.67 338.372">
  <g id="Grupo_16424" data-name="Grupo 16424" transform="translate(-606.009 -7660.999)">
    <path id="Trazado_40514" data-name="Trazado 40514" d="M-9276.1,1632H-9350v-4.74a267.646,267.646,0,0,0,9.173-28.722c2.706-10.351,5.035-21.445,6.925-32.971A469.854,469.854,0,0,0-9328,1490a469.8,469.8,0,0,0-5.9-75.566c-1.89-11.526-4.219-22.62-6.925-32.974a267.5,267.5,0,0,0-9.173-28.722V1348h73.9a251.621,251.621,0,0,0-9.937,29.245c-2.942,10.638-5.475,22.08-7.525,34.01-2.088,12.142-3.692,24.887-4.77,37.883-1.105,13.343-1.666,27.09-1.666,40.861s.561,27.522,1.667,40.861c1.076,12.992,2.681,25.737,4.769,37.883,2.05,11.924,4.582,23.367,7.526,34.011A251.76,251.76,0,0,0-9276.1,1632Z" transform="translate(9978 6313)" fill="#a3ffde"/>
    <path id="Trazado_40515" data-name="Trazado 40515" d="M-9280,1580h-70V1296h70v.334a250.965,250.965,0,0,0-36.178,66.988A223.764,223.764,0,0,0-9329,1437.829a223.774,223.774,0,0,0,12.822,74.509A251,251,0,0,0-9280,1579.329V1580Z" transform="translate(10174 6365)" fill="#a3ffde"/>
    <path id="Trazado_40238" data-name="Trazado 40238" d="M614.822,399.9H571.644s-22.887,49.993-22.887,142c0,93.849,22.887,142,22.887,142h43.178c-33.74-38.21-45.754-91.363-45.754-142S583.541,434.127,614.822,399.9Z" transform="translate(457.217 7261.097)" fill="#a3ffde"/>
    <g id="Grupo_16344" data-name="Grupo 16344" transform="translate(-235.928 8462.533) rotate(-90)">
      <path id="Trazado_38307" data-name="Trazado 38307" d="M1906.2,273.762h257.666" transform="translate(-1380.012 1250)" fill="none" stroke="#404040" stroke-width="3"/>
      <path id="Polígono_8" data-name="Polígono 8" d="M10,0,20,17H0Z" transform="translate(798.533 1513.5) rotate(90)" fill="#404040"/>
      <path id="Polígono_19" data-name="Polígono 19" d="M10,0,20,17H0Z" transform="translate(517.533 1533.5) rotate(-90)" fill="#404040"/>
    </g>
    <path id="Trazado_40516" data-name="Trazado 40516" d="M10.345-8.2a3.631,3.631,0,0,1,2.922,3.846,4.168,4.168,0,0,1-1.235,3.185A5.1,5.1,0,0,1,8.4,0H2.009V-15.522H7.036a5.7,5.7,0,0,1,3.8,1.123,3.894,3.894,0,0,1,1.316,3.131,3.652,3.652,0,0,1-.457,1.842A3.007,3.007,0,0,1,10.345-8.2ZM7.068-12.848H5.113V-9.2H7.208A1.962,1.962,0,0,0,8.69-9.711a1.875,1.875,0,0,0,.494-1.354,1.666,1.666,0,0,0-.537-1.294A2.273,2.273,0,0,0,7.068-12.848ZM7.8-2.761a2.475,2.475,0,0,0,1.778-.548,1.863,1.863,0,0,0,.564-1.4,1.951,1.951,0,0,0-.569-1.439,2.519,2.519,0,0,0-1.837-.569H5.113v3.953ZM17.306-12.7a1.737,1.737,0,0,1-1.268-.521,1.71,1.71,0,0,1-.526-1.262,1.69,1.69,0,0,1,.532-1.251,1.742,1.742,0,0,1,1.262-.521,1.712,1.712,0,0,1,1.246.521,1.7,1.7,0,0,1,.526,1.251,1.71,1.71,0,0,1-.526,1.262A1.712,1.712,0,0,1,17.306-12.7ZM15.727,0V-11.043h3.115V0ZM27.038.2a5.9,5.9,0,0,1-4.265-1.59,5.491,5.491,0,0,1-1.654-4.146,5.479,5.479,0,0,1,1.649-4.146,5.918,5.918,0,0,1,4.27-1.579,5.884,5.884,0,0,1,3.577,1.063,4.748,4.748,0,0,1,1.848,3l-2.857.312a2.448,2.448,0,0,0-.924-1.45,2.809,2.809,0,0,0-1.676-.483,2.533,2.533,0,0,0-2.02.9,3.538,3.538,0,0,0-.773,2.385,3.542,3.542,0,0,0,.773,2.379,2.526,2.526,0,0,0,2.02.908,2.785,2.785,0,0,0,1.67-.483,2.505,2.505,0,0,0,.929-1.45l2.857.312a4.761,4.761,0,0,1-1.864,3A5.86,5.86,0,0,1,27.038.2ZM38.854-12.547,41.669-16.5l1.525,1.074-2.438,2.879ZM39.811.215a6.944,6.944,0,0,1-3.126-.677,5.058,5.058,0,0,1-2.143-1.987,5.922,5.922,0,0,1-.779-3.083,5.4,5.4,0,0,1,1.676-4.189,6.217,6.217,0,0,1,4.372-1.536,6.232,6.232,0,0,1,4.383,1.536,5.4,5.4,0,0,1,1.676,4.189,5.432,5.432,0,0,1-1.676,4.206A6.219,6.219,0,0,1,39.811.215Zm-.032-2.46a2.835,2.835,0,0,0,2.186-.9A3.378,3.378,0,0,0,42.8-5.532a3.378,3.378,0,0,0-.833-2.385,2.835,2.835,0,0,0-2.186-.9,2.731,2.731,0,0,0-2.122.908,3.409,3.409,0,0,0-.822,2.379,3.409,3.409,0,0,0,.822,2.379A2.731,2.731,0,0,0,39.778-2.245Zm14.91-9.013a4.3,4.3,0,0,1,3.051.994A3.684,3.684,0,0,1,58.8-7.434V0H55.7V-6.768a1.923,1.923,0,0,0-.553-1.525,2.084,2.084,0,0,0-1.423-.483,2.908,2.908,0,0,0-.924.14,2.373,2.373,0,0,0-.773.435,1.923,1.923,0,0,0-.553.833,3.85,3.85,0,0,0-.209,1.278V0H48.168V-11.043h3.094v1.225A4.255,4.255,0,0,1,54.688-11.258ZM66.795.2a5.9,5.9,0,0,1-4.265-1.59,5.491,5.491,0,0,1-1.654-4.146,5.479,5.479,0,0,1,1.649-4.146,5.918,5.918,0,0,1,4.27-1.579,5.884,5.884,0,0,1,3.577,1.063,4.748,4.748,0,0,1,1.848,3l-2.857.312a2.448,2.448,0,0,0-.924-1.45,2.809,2.809,0,0,0-1.676-.483,2.533,2.533,0,0,0-2.02.9,3.538,3.538,0,0,0-.773,2.385,3.542,3.542,0,0,0,.773,2.379,2.526,2.526,0,0,0,2.02.908,2.785,2.785,0,0,0,1.67-.483,2.505,2.505,0,0,0,.929-1.45l2.857.312a4.761,4.761,0,0,1-1.864,3A5.86,5.86,0,0,1,66.795.2ZM83.478-3a10.331,10.331,0,0,0,.269,2.7V0h-2.89l-.247-1.2A3.591,3.591,0,0,1,79.063-.14a5.7,5.7,0,0,1-2,.354,5.254,5.254,0,0,1-1.031-.1A3.506,3.506,0,0,1,75.1-.209a2.82,2.82,0,0,1-.768-.575,2.52,2.52,0,0,1-.516-.875,3.488,3.488,0,0,1-.193-1.2,3.321,3.321,0,0,1,.2-1.2,2.807,2.807,0,0,1,.537-.9,3.258,3.258,0,0,1,.87-.655,6.658,6.658,0,0,1,1.1-.473,13.092,13.092,0,0,1,1.311-.344l1.815-.408a2,2,0,0,0,.822-.349.7.7,0,0,0,.242-.553A1.14,1.14,0,0,0,79.981-8.8a2.533,2.533,0,0,0-1.316-.322,1.894,1.894,0,0,0-2.159,1.687l-2.739-.494a3.708,3.708,0,0,1,1.6-2.519,6.362,6.362,0,0,1,3.47-.811q4.641,0,4.641,3.985ZM78.031-1.88a2.488,2.488,0,0,0,1.912-.8,3.372,3.372,0,0,0,.741-2.369l-2.621.741a3.1,3.1,0,0,0-1.1.451.927.927,0,0,0-.381.795,1.029,1.029,0,0,0,.408.875A1.689,1.689,0,0,0,78.031-1.88Zm15.426-9.163h3.276L92.028,0H89.343L84.691-11.043h3.255L90.7-3.491ZM106.971-3a10.331,10.331,0,0,0,.269,2.7V0h-2.89L104.1-1.2A3.591,3.591,0,0,1,102.556-.14a5.7,5.7,0,0,1-2,.354,5.254,5.254,0,0,1-1.031-.1A3.506,3.506,0,0,1,98.6-.209a2.82,2.82,0,0,1-.768-.575,2.52,2.52,0,0,1-.516-.875,3.488,3.488,0,0,1-.193-1.2,3.321,3.321,0,0,1,.2-1.2,2.807,2.807,0,0,1,.537-.9,3.258,3.258,0,0,1,.87-.655,6.658,6.658,0,0,1,1.1-.473,13.092,13.092,0,0,1,1.311-.344l1.815-.408a2,2,0,0,0,.822-.349.7.7,0,0,0,.242-.553,1.14,1.14,0,0,0-.542-1.063,2.533,2.533,0,0,0-1.316-.322A1.894,1.894,0,0,0,100-7.434L97.26-7.928a3.708,3.708,0,0,1,1.6-2.519,6.362,6.362,0,0,1,3.47-.811q4.641,0,4.641,3.985ZM101.524-1.88a2.488,2.488,0,0,0,1.912-.8,3.372,3.372,0,0,0,.741-2.369l-2.621.741a3.1,3.1,0,0,0-1.1.451.927.927,0,0,0-.381.795,1.029,1.029,0,0,0,.408.875A1.689,1.689,0,0,0,101.524-1.88Z" transform="translate(604 7994)" fill="#00223d"/>
    <path id="Trazado_40517" data-name="Trazado 40517" d="M8.465-15.522a4.671,4.671,0,0,1,3.577,1.445A5.026,5.026,0,0,1,13.4-10.506a4.9,4.9,0,0,1-1.343,3.55A4.756,4.756,0,0,1,8.465-5.564H5.231V0H2.009V-15.522ZM7.928-8.261A2.368,2.368,0,0,0,9.7-8.868a2.308,2.308,0,0,0,.591-1.681,2.289,2.289,0,0,0-.6-1.66,2.347,2.347,0,0,0-1.767-.618h-2.7v4.565ZM15.694,0V-16.5H18.82V0ZM31.077-3a10.331,10.331,0,0,0,.269,2.7V0h-2.89l-.247-1.2A3.591,3.591,0,0,1,26.662-.14a5.7,5.7,0,0,1-2,.354,5.254,5.254,0,0,1-1.031-.1A3.506,3.506,0,0,1,22.7-.209a2.82,2.82,0,0,1-.768-.575,2.52,2.52,0,0,1-.516-.875,3.488,3.488,0,0,1-.193-1.2,3.321,3.321,0,0,1,.2-1.2,2.807,2.807,0,0,1,.537-.9,3.258,3.258,0,0,1,.87-.655,6.658,6.658,0,0,1,1.1-.473,13.092,13.092,0,0,1,1.311-.344l1.815-.408a2,2,0,0,0,.822-.349.7.7,0,0,0,.242-.553A1.14,1.14,0,0,0,27.581-8.8a2.533,2.533,0,0,0-1.316-.322,1.894,1.894,0,0,0-2.159,1.687l-2.739-.494a3.708,3.708,0,0,1,1.6-2.519,6.362,6.362,0,0,1,3.47-.811q4.641,0,4.641,3.985ZM25.631-1.88a2.488,2.488,0,0,0,1.912-.8,3.372,3.372,0,0,0,.741-2.369l-2.621.741a3.1,3.1,0,0,0-1.1.451.927.927,0,0,0-.381.795,1.029,1.029,0,0,0,.408.875A1.689,1.689,0,0,0,25.631-1.88Zm14.975-9.378a4.3,4.3,0,0,1,3.051.994A3.684,3.684,0,0,1,44.72-7.434V0h-3.1V-6.768a1.923,1.923,0,0,0-.553-1.525,2.084,2.084,0,0,0-1.423-.483,2.908,2.908,0,0,0-.924.14,2.373,2.373,0,0,0-.773.435,1.923,1.923,0,0,0-.553.833,3.85,3.85,0,0,0-.209,1.278V0H34.085V-11.043h3.094v1.225A4.255,4.255,0,0,1,40.605-11.258ZM52.862.215a6.944,6.944,0,0,1-3.126-.677,5.058,5.058,0,0,1-2.143-1.987,5.922,5.922,0,0,1-.779-3.083A5.4,5.4,0,0,1,48.49-9.722a6.217,6.217,0,0,1,4.372-1.536,6.232,6.232,0,0,1,4.383,1.536,5.4,5.4,0,0,1,1.676,4.189,5.432,5.432,0,0,1-1.676,4.206A6.219,6.219,0,0,1,52.862.215Zm-.032-2.46a2.835,2.835,0,0,0,2.186-.9,3.378,3.378,0,0,0,.833-2.385,3.378,3.378,0,0,0-.833-2.385,2.835,2.835,0,0,0-2.186-.9,2.731,2.731,0,0,0-2.122.908,3.409,3.409,0,0,0-.822,2.379,3.409,3.409,0,0,0,.822,2.379A2.731,2.731,0,0,0,52.83-2.245ZM71.072-.07a5.9,5.9,0,0,1-4.265-1.59,5.491,5.491,0,0,1-1.654-4.146A5.479,5.479,0,0,1,66.8-9.953a5.918,5.918,0,0,1,4.27-1.579,5.884,5.884,0,0,1,3.577,1.063,4.748,4.748,0,0,1,1.848,3L73.64-7.16a2.448,2.448,0,0,0-.924-1.45,2.809,2.809,0,0,0-1.676-.483,2.533,2.533,0,0,0-2.02.9,3.538,3.538,0,0,0-.773,2.385,3.542,3.542,0,0,0,.773,2.379,2.526,2.526,0,0,0,2.02.908A2.785,2.785,0,0,0,72.71-3a2.505,2.505,0,0,0,.929-1.45l2.857.312a4.761,4.761,0,0,1-1.864,3A5.86,5.86,0,0,1,71.072-.07ZM82.889-12.821,85.7-16.774,87.229-15.7,84.79-12.821ZM83.845-.059a6.944,6.944,0,0,1-3.126-.677,5.058,5.058,0,0,1-2.143-1.987A5.922,5.922,0,0,1,77.8-5.806,5.4,5.4,0,0,1,79.473-10a6.217,6.217,0,0,1,4.372-1.536A6.232,6.232,0,0,1,88.228-10,5.4,5.4,0,0,1,89.9-5.806,5.432,5.432,0,0,1,88.228-1.6,6.219,6.219,0,0,1,83.845-.059Zm-.032-2.46A2.835,2.835,0,0,0,86-3.421a3.378,3.378,0,0,0,.833-2.385A3.378,3.378,0,0,0,86-8.191a2.835,2.835,0,0,0-2.186-.9,2.731,2.731,0,0,0-2.122.908,3.409,3.409,0,0,0-.822,2.379,3.409,3.409,0,0,0,.822,2.379A2.731,2.731,0,0,0,83.813-2.519Zm14.91-9.013a4.3,4.3,0,0,1,3.051.994,3.684,3.684,0,0,1,1.063,2.831V-.274h-3.1V-7.042a1.924,1.924,0,0,0-.553-1.525,2.084,2.084,0,0,0-1.423-.483,2.908,2.908,0,0,0-.924.14,2.373,2.373,0,0,0-.773.435,1.923,1.923,0,0,0-.553.833A3.85,3.85,0,0,0,95.3-6.365V-.274H92.2V-11.317H95.3v1.225A4.255,4.255,0,0,1,98.723-11.532ZM110.829-.07a5.9,5.9,0,0,1-4.265-1.59,5.491,5.491,0,0,1-1.654-4.146,5.479,5.479,0,0,1,1.649-4.146,5.918,5.918,0,0,1,4.27-1.579,5.884,5.884,0,0,1,3.577,1.063,4.748,4.748,0,0,1,1.848,3L113.4-7.16a2.448,2.448,0,0,0-.924-1.45,2.809,2.809,0,0,0-1.676-.483,2.533,2.533,0,0,0-2.02.9A3.538,3.538,0,0,0,108-5.806a3.542,3.542,0,0,0,.773,2.379,2.526,2.526,0,0,0,2.02.908A2.785,2.785,0,0,0,112.467-3a2.505,2.505,0,0,0,.929-1.45l2.857.312a4.761,4.761,0,0,1-1.864,3A5.86,5.86,0,0,1,110.829-.07ZM123.6-.059a6.944,6.944,0,0,1-3.126-.677,5.058,5.058,0,0,1-2.143-1.987,5.922,5.922,0,0,1-.779-3.083A5.4,5.4,0,0,1,119.229-10a6.217,6.217,0,0,1,4.372-1.536A6.232,6.232,0,0,1,127.984-10a5.4,5.4,0,0,1,1.676,4.189A5.432,5.432,0,0,1,127.984-1.6,6.219,6.219,0,0,1,123.6-.059Zm-.032-2.46a2.835,2.835,0,0,0,2.186-.9,3.378,3.378,0,0,0,.833-2.385,3.378,3.378,0,0,0-.833-2.385,2.835,2.835,0,0,0-2.186-.9,2.731,2.731,0,0,0-2.122.908,3.409,3.409,0,0,0-.822,2.379,3.409,3.409,0,0,0,.822,2.379A2.731,2.731,0,0,0,123.569-2.519Zm15.136-8.8h3.276L137.276-.274h-2.686l-4.651-11.043h3.255l2.75,7.552Zm13.514,8.046a10.331,10.331,0,0,0,.269,2.7v.3H149.6l-.247-1.2A3.591,3.591,0,0,1,147.8-.414a5.7,5.7,0,0,1-2,.354,5.254,5.254,0,0,1-1.031-.1,3.506,3.506,0,0,1-.929-.328,2.82,2.82,0,0,1-.768-.575,2.52,2.52,0,0,1-.516-.875,3.488,3.488,0,0,1-.193-1.2,3.322,3.322,0,0,1,.2-1.2,2.807,2.807,0,0,1,.537-.9,3.258,3.258,0,0,1,.87-.655,6.658,6.658,0,0,1,1.1-.473,13.092,13.092,0,0,1,1.311-.344l1.815-.408a2,2,0,0,0,.822-.349.7.7,0,0,0,.242-.553,1.14,1.14,0,0,0-.542-1.063,2.533,2.533,0,0,0-1.316-.322,1.894,1.894,0,0,0-2.159,1.687L142.508-8.2a3.708,3.708,0,0,1,1.6-2.519,6.362,6.362,0,0,1,3.47-.811q4.641,0,4.641,3.985Zm-5.446,1.117a2.488,2.488,0,0,0,1.912-.8,3.372,3.372,0,0,0,.741-2.369l-2.621.741a3.1,3.1,0,0,0-1.1.451.927.927,0,0,0-.381.795,1.029,1.029,0,0,0,.408.875A1.689,1.689,0,0,0,146.772-2.154Z" transform="translate(775 7994)" fill="#00223d"/>
    <path id="Trazado_40518" data-name="Trazado 40518" d="M8.884.215A8.664,8.664,0,0,1,5.72-.354,7.439,7.439,0,0,1,3.2-1.944,7.167,7.167,0,0,1,1.547-4.469a8.8,8.8,0,0,1-.6-3.3,8.408,8.408,0,0,1,1.031-4.216,7.021,7.021,0,0,1,2.831-2.788,8.476,8.476,0,0,1,4.077-.967,8.237,8.237,0,0,1,4.555,1.257,6.88,6.88,0,0,1,2.782,3.459l-3.008,1.1a4.252,4.252,0,0,0-1.665-2.095,4.756,4.756,0,0,0-2.664-.752,4.559,4.559,0,0,0-3.395,1.354A4.98,4.98,0,0,0,4.157-7.767,4.988,4.988,0,0,0,5.495-4.109,4.554,4.554,0,0,0,8.884-2.75a4.738,4.738,0,0,0,2.659-.757,4.271,4.271,0,0,0,1.67-2.1l3.008,1.1a6.908,6.908,0,0,1-2.782,3.464A8.211,8.211,0,0,1,8.884.215ZM23.6.215a6.944,6.944,0,0,1-3.126-.677,5.058,5.058,0,0,1-2.143-1.987,5.922,5.922,0,0,1-.779-3.083,5.4,5.4,0,0,1,1.676-4.189A6.217,6.217,0,0,1,23.6-11.258a6.232,6.232,0,0,1,4.383,1.536,5.4,5.4,0,0,1,1.676,4.189,5.432,5.432,0,0,1-1.676,4.206A6.219,6.219,0,0,1,23.6.215Zm-.032-2.46a2.835,2.835,0,0,0,2.186-.9,3.378,3.378,0,0,0,.833-2.385,3.378,3.378,0,0,0-.833-2.385,2.835,2.835,0,0,0-2.186-.9,2.731,2.731,0,0,0-2.122.908,3.409,3.409,0,0,0-.822,2.379,3.409,3.409,0,0,0,.822,2.379A2.731,2.731,0,0,0,23.568-2.245Zm14.91-9.013a4.3,4.3,0,0,1,3.051.994,3.684,3.684,0,0,1,1.063,2.831V0h-3.1V-6.768a1.923,1.923,0,0,0-.553-1.525,2.084,2.084,0,0,0-1.423-.483,2.908,2.908,0,0,0-.924.14,2.373,2.373,0,0,0-.773.435,1.923,1.923,0,0,0-.553.833,3.85,3.85,0,0,0-.209,1.278V0H31.958V-11.043h3.094v1.225A4.255,4.255,0,0,1,38.479-11.258Zm14.029.215h3.276L51.079,0H48.394L43.742-11.043H47l2.75,7.552Zm14.846,5.36-.032.741H59.136a2.859,2.859,0,0,0,.881,2.02,2.817,2.817,0,0,0,1.944.7A2.715,2.715,0,0,0,63.417-2.6a2.344,2.344,0,0,0,.929-1.112l2.836.419A4.821,4.821,0,0,1,65.248-.709a5.749,5.749,0,0,1-3.266.924,5.978,5.978,0,0,1-4.3-1.52,5.546,5.546,0,0,1-1.6-4.216,5.579,5.579,0,0,1,1.6-4.216,5.8,5.8,0,0,1,4.2-1.542A5.544,5.544,0,0,1,65.85-9.872,5.52,5.52,0,0,1,67.354-5.683ZM61.907-9.088a2.445,2.445,0,0,0-2.686,2.127h5.07a2.326,2.326,0,0,0-.763-1.579A2.417,2.417,0,0,0,61.907-9.088ZM67.772,0l4.533-5.532-4.533-5.511H71.64l2.535,3.48,2.557-3.48h3.835L76.022-5.521,80.566,0H76.731L74.2-3.459,71.65,0ZM86.99.215a6.944,6.944,0,0,1-3.126-.677,5.058,5.058,0,0,1-2.143-1.987,5.922,5.922,0,0,1-.779-3.083,5.4,5.4,0,0,1,1.676-4.189,6.217,6.217,0,0,1,4.372-1.536,6.232,6.232,0,0,1,4.383,1.536,5.4,5.4,0,0,1,1.676,4.189,5.432,5.432,0,0,1-1.676,4.206A6.219,6.219,0,0,1,86.99.215Zm-.032-2.46a2.835,2.835,0,0,0,2.186-.9,3.378,3.378,0,0,0,.833-2.385,3.378,3.378,0,0,0-.833-2.385,2.835,2.835,0,0,0-2.186-.9,2.731,2.731,0,0,0-2.122.908,3.409,3.409,0,0,0-.822,2.379,3.409,3.409,0,0,0,.822,2.379A2.731,2.731,0,0,0,86.958-2.245ZM107.343.2a5.9,5.9,0,0,1-4.265-1.59,5.491,5.491,0,0,1-1.654-4.146,5.479,5.479,0,0,1,1.649-4.146,5.918,5.918,0,0,1,4.27-1.579,5.884,5.884,0,0,1,3.577,1.063,4.748,4.748,0,0,1,1.848,3l-2.857.312a2.448,2.448,0,0,0-.924-1.45,2.809,2.809,0,0,0-1.676-.483,2.533,2.533,0,0,0-2.02.9,3.538,3.538,0,0,0-.773,2.385,3.542,3.542,0,0,0,.773,2.379,2.526,2.526,0,0,0,2.02.908,2.785,2.785,0,0,0,1.67-.483,2.505,2.505,0,0,0,.929-1.45l2.857.312a4.761,4.761,0,0,1-1.864,3A5.86,5.86,0,0,1,107.343.2Zm11.816-12.751,2.814-3.953,1.525,1.074-2.438,2.879ZM120.115.215a6.944,6.944,0,0,1-3.126-.677,5.058,5.058,0,0,1-2.143-1.987,5.922,5.922,0,0,1-.779-3.083,5.4,5.4,0,0,1,1.676-4.189,6.217,6.217,0,0,1,4.372-1.536A6.232,6.232,0,0,1,124.5-9.722a5.4,5.4,0,0,1,1.676,4.189A5.432,5.432,0,0,1,124.5-1.327,6.219,6.219,0,0,1,120.115.215Zm-.032-2.46a2.835,2.835,0,0,0,2.186-.9,3.378,3.378,0,0,0,.833-2.385,3.378,3.378,0,0,0-.833-2.385,2.835,2.835,0,0,0-2.186-.9,2.731,2.731,0,0,0-2.122.908,3.409,3.409,0,0,0-.822,2.379,3.409,3.409,0,0,0,.822,2.379A2.731,2.731,0,0,0,120.083-2.245Zm14.91-9.013a4.3,4.3,0,0,1,3.051.994,3.684,3.684,0,0,1,1.063,2.831V0H136V-6.768a1.923,1.923,0,0,0-.553-1.525,2.084,2.084,0,0,0-1.423-.483,2.908,2.908,0,0,0-.924.14,2.373,2.373,0,0,0-.773.435,1.923,1.923,0,0,0-.553.833,3.851,3.851,0,0,0-.209,1.278V0h-3.094V-11.043h3.094v1.225A4.255,4.255,0,0,1,134.993-11.258ZM147.1.2a5.9,5.9,0,0,1-4.265-1.59,5.491,5.491,0,0,1-1.654-4.146,5.479,5.479,0,0,1,1.649-4.146,5.918,5.918,0,0,1,4.27-1.579,5.884,5.884,0,0,1,3.577,1.063,4.748,4.748,0,0,1,1.848,3l-2.857.312a2.448,2.448,0,0,0-.924-1.45,2.809,2.809,0,0,0-1.676-.483,2.533,2.533,0,0,0-2.02.9,3.538,3.538,0,0,0-.773,2.385,3.542,3.542,0,0,0,.773,2.379,2.526,2.526,0,0,0,2.02.908,2.785,2.785,0,0,0,1.67-.483,2.505,2.505,0,0,0,.929-1.45l2.857.312a4.761,4.761,0,0,1-1.864,3A5.86,5.86,0,0,1,147.1.2ZM163.782-3a10.331,10.331,0,0,0,.269,2.7V0h-2.89l-.247-1.2A3.591,3.591,0,0,1,159.367-.14a5.7,5.7,0,0,1-2,.354,5.254,5.254,0,0,1-1.031-.1,3.506,3.506,0,0,1-.929-.328,2.82,2.82,0,0,1-.768-.575,2.52,2.52,0,0,1-.516-.875,3.488,3.488,0,0,1-.193-1.2,3.322,3.322,0,0,1,.2-1.2,2.807,2.807,0,0,1,.537-.9,3.258,3.258,0,0,1,.87-.655,6.658,6.658,0,0,1,1.1-.473,13.092,13.092,0,0,1,1.311-.344l1.815-.408a2,2,0,0,0,.822-.349.7.7,0,0,0,.242-.553,1.14,1.14,0,0,0-.542-1.063,2.533,2.533,0,0,0-1.316-.322,1.894,1.894,0,0,0-2.159,1.687l-2.739-.494a3.708,3.708,0,0,1,1.6-2.519,6.362,6.362,0,0,1,3.47-.811q4.641,0,4.641,3.985ZM158.336-1.88a2.488,2.488,0,0,0,1.912-.8,3.372,3.372,0,0,0,.741-2.369l-2.621.741a3.1,3.1,0,0,0-1.1.451.927.927,0,0,0-.381.795,1.029,1.029,0,0,0,.408.875A1.689,1.689,0,0,0,158.336-1.88Zm15.426-9.163h3.276L172.333,0h-2.686L165-11.043h3.255L171-3.491ZM187.275-3a10.331,10.331,0,0,0,.269,2.7V0h-2.89l-.247-1.2A3.591,3.591,0,0,1,182.86-.14a5.7,5.7,0,0,1-2,.354,5.254,5.254,0,0,1-1.031-.1,3.506,3.506,0,0,1-.929-.328,2.82,2.82,0,0,1-.768-.575,2.52,2.52,0,0,1-.516-.875,3.488,3.488,0,0,1-.193-1.2,3.322,3.322,0,0,1,.2-1.2,2.807,2.807,0,0,1,.537-.9,3.258,3.258,0,0,1,.87-.655,6.658,6.658,0,0,1,1.1-.473,13.092,13.092,0,0,1,1.311-.344l1.815-.408a2,2,0,0,0,.822-.349.7.7,0,0,0,.242-.553,1.14,1.14,0,0,0-.542-1.063,2.533,2.533,0,0,0-1.316-.322A1.894,1.894,0,0,0,180.3-7.434l-2.739-.494a3.708,3.708,0,0,1,1.6-2.519,6.362,6.362,0,0,1,3.47-.811q4.641,0,4.641,3.985ZM181.829-1.88a2.488,2.488,0,0,0,1.912-.8,3.372,3.372,0,0,0,.741-2.369l-2.621.741a3.1,3.1,0,0,0-1.1.451.927.927,0,0,0-.381.795,1.029,1.029,0,0,0,.408.875A1.689,1.689,0,0,0,181.829-1.88Z" transform="translate(948 7994)" fill="#00223d"/>
    <path id="Trazado_40519" data-name="Trazado 40519" d="M10.205,0,6.166-6.832H5.231V0H2.009V-15.522H7.638a6.511,6.511,0,0,1,2.256.36,3.9,3.9,0,0,1,1.563,1,4.278,4.278,0,0,1,.881,1.466,5.363,5.363,0,0,1,.3,1.815,3.791,3.791,0,0,1-.849,2.551A4.277,4.277,0,0,1,9.346-6.993L14.019,0ZM5.231-12.848v3.706h1.9q2.417,0,2.417-1.848a1.682,1.682,0,0,0-.591-1.364,2.809,2.809,0,0,0-1.826-.494ZM25.706-5.683l-.032.741H17.488a2.859,2.859,0,0,0,.881,2.02,2.817,2.817,0,0,0,1.944.7A2.715,2.715,0,0,0,21.769-2.6,2.344,2.344,0,0,0,22.7-3.717l2.836.419A4.821,4.821,0,0,1,23.6-.709a5.749,5.749,0,0,1-3.266.924,5.978,5.978,0,0,1-4.3-1.52,5.546,5.546,0,0,1-1.6-4.216,5.579,5.579,0,0,1,1.6-4.216,5.8,5.8,0,0,1,4.2-1.542A5.544,5.544,0,0,1,24.2-9.872,5.52,5.52,0,0,1,25.706-5.683ZM20.26-9.088a2.445,2.445,0,0,0-2.686,2.127h5.07a2.326,2.326,0,0,0-.763-1.579A2.417,2.417,0,0,0,20.26-9.088Zm14.276-2.17a5.371,5.371,0,0,1,2.063.4,5.161,5.161,0,0,1,1.692,1.117,5.054,5.054,0,0,1,1.144,1.821A6.76,6.76,0,0,1,39.854-5.5a6.76,6.76,0,0,1-.419,2.422,5.054,5.054,0,0,1-1.144,1.821A5.161,5.161,0,0,1,36.6-.14a5.371,5.371,0,0,1-2.062.4,4.792,4.792,0,0,1-2-.408,3.131,3.131,0,0,1-1.386-1.16V5.371H28.059V-11.043h2.933l.086,1.482a3.025,3.025,0,0,1,1.38-1.251A4.744,4.744,0,0,1,34.536-11.258Zm-.7,8.948a2.779,2.779,0,0,0,2.089-.865A3.212,3.212,0,0,0,36.76-5.5a3.212,3.212,0,0,0-.833-2.326,2.779,2.779,0,0,0-2.089-.865,2.784,2.784,0,0,0-2.105.881,3.213,3.213,0,0,0-.838,2.31,3.213,3.213,0,0,0,.838,2.31A2.784,2.784,0,0,0,33.838-2.31ZM45.149-9.292a3.585,3.585,0,0,1,1.45-1.327,4.425,4.425,0,0,1,2.159-.553v2.761a4.183,4.183,0,0,0-2.643.666A2.908,2.908,0,0,0,45.3-5.382V0H42.185V-11.043h2.965ZM60.9-5.683l-.032.741H52.68a2.859,2.859,0,0,0,.881,2.02,2.817,2.817,0,0,0,1.944.7A2.715,2.715,0,0,0,56.96-2.6a2.344,2.344,0,0,0,.929-1.112l2.836.419A4.821,4.821,0,0,1,58.792-.709a5.749,5.749,0,0,1-3.266.924,5.978,5.978,0,0,1-4.3-1.52,5.546,5.546,0,0,1-1.6-4.216,5.579,5.579,0,0,1,1.6-4.216,5.8,5.8,0,0,1,4.2-1.542,5.544,5.544,0,0,1,3.964,1.407A5.52,5.52,0,0,1,60.9-5.683ZM55.451-9.088a2.445,2.445,0,0,0-2.686,2.127h5.07a2.326,2.326,0,0,0-.763-1.579A2.417,2.417,0,0,0,55.451-9.088ZM67.139.215a6.171,6.171,0,0,1-3.223-.773,3.269,3.269,0,0,1-1.579-2.3l2.589-.73a2.08,2.08,0,0,0,2.213,1.644A2.285,2.285,0,0,0,68.267-2.2a.879.879,0,0,0,.44-.854.9.9,0,0,0-.183-.569,1.446,1.446,0,0,0-.564-.408,7.026,7.026,0,0,0-.752-.29q-.371-.118-.983-.285T65.205-4.92a6.836,6.836,0,0,1-.972-.414,4.147,4.147,0,0,1-.806-.569,2.3,2.3,0,0,1-.6-.865,3.12,3.12,0,0,1-.209-1.182,2.821,2.821,0,0,1,1.2-2.471,5.352,5.352,0,0,1,3.131-.838,5.487,5.487,0,0,1,2.89.709,3.209,3.209,0,0,1,1.482,2.213l-2.4.537a1.876,1.876,0,0,0-1.966-1.4,2.153,2.153,0,0,0-1.085.247.794.794,0,0,0-.43.73.837.837,0,0,0,.064.333.659.659,0,0,0,.226.269,3.29,3.29,0,0,0,.312.2,2.35,2.35,0,0,0,.44.177q.29.091.483.14l.564.145.575.15q.591.161,1.037.322a6.071,6.071,0,0,1,.951.451,3.412,3.412,0,0,1,.833.65,2.9,2.9,0,0,1,.542.913,3.372,3.372,0,0,1,.215,1.23,3.322,3.322,0,0,1-.371,1.6A2.782,2.782,0,0,1,70.3-.553a4.941,4.941,0,0,1-1.434.58A7.439,7.439,0,0,1,67.139.215Zm17.155-5.9-.032.741H76.076a2.859,2.859,0,0,0,.881,2.02,2.817,2.817,0,0,0,1.944.7A2.715,2.715,0,0,0,80.357-2.6a2.344,2.344,0,0,0,.929-1.112l2.836.419A4.821,4.821,0,0,1,82.188-.709a5.749,5.749,0,0,1-3.266.924,5.978,5.978,0,0,1-4.3-1.52,5.546,5.546,0,0,1-1.6-4.216,5.579,5.579,0,0,1,1.6-4.216,5.8,5.8,0,0,1,4.2-1.542A5.544,5.544,0,0,1,82.79-9.872,5.52,5.52,0,0,1,84.294-5.683ZM78.848-9.088a2.445,2.445,0,0,0-2.686,2.127h5.07A2.326,2.326,0,0,0,80.47-8.54,2.417,2.417,0,0,0,78.848-9.088Zm14.319-2.17a4.3,4.3,0,0,1,3.051.994,3.684,3.684,0,0,1,1.063,2.831V0h-3.1V-6.768a1.924,1.924,0,0,0-.553-1.525A2.084,2.084,0,0,0,92.2-8.776a2.908,2.908,0,0,0-.924.14A2.373,2.373,0,0,0,90.5-8.2a1.923,1.923,0,0,0-.553.833,3.85,3.85,0,0,0-.209,1.278V0H86.646V-11.043H89.74v1.225A4.255,4.255,0,0,1,93.167-11.258ZM104.393,0A3.335,3.335,0,0,1,101.9-.9a3.489,3.489,0,0,1-.881-2.551V-8.669H98.85v-2.374h.7a1.822,1.822,0,0,0,1.375-.462,2.378,2.378,0,0,0,.44-1.644v-1.461h2.793v3.566h2.277v2.374h-2.277v4.888q0,1.429,1.278,1.429h1V0Zm13.449-3a10.331,10.331,0,0,0,.269,2.7V0h-2.89l-.247-1.2A3.591,3.591,0,0,1,113.427-.14a5.7,5.7,0,0,1-2,.354,5.254,5.254,0,0,1-1.031-.1,3.506,3.506,0,0,1-.929-.328,2.82,2.82,0,0,1-.768-.575,2.52,2.52,0,0,1-.516-.875,3.488,3.488,0,0,1-.193-1.2,3.321,3.321,0,0,1,.2-1.2,2.807,2.807,0,0,1,.537-.9,3.258,3.258,0,0,1,.87-.655,6.658,6.658,0,0,1,1.1-.473,13.092,13.092,0,0,1,1.311-.344l1.815-.408a2,2,0,0,0,.822-.349.7.7,0,0,0,.242-.553,1.14,1.14,0,0,0-.542-1.063,2.533,2.533,0,0,0-1.316-.322,1.894,1.894,0,0,0-2.159,1.687l-2.739-.494a3.708,3.708,0,0,1,1.6-2.519,6.362,6.362,0,0,1,3.47-.811q4.641,0,4.641,3.985ZM112.4-1.88a2.488,2.488,0,0,0,1.912-.8,3.372,3.372,0,0,0,.741-2.369l-2.621.741a3.1,3.1,0,0,0-1.1.451.927.927,0,0,0-.381.795,1.029,1.029,0,0,0,.408.875A1.689,1.689,0,0,0,112.4-1.88ZM125.6.2a5.9,5.9,0,0,1-4.265-1.59,5.491,5.491,0,0,1-1.654-4.146,5.479,5.479,0,0,1,1.649-4.146,5.918,5.918,0,0,1,4.27-1.579,5.884,5.884,0,0,1,3.577,1.063,4.748,4.748,0,0,1,1.848,3l-2.857.312a2.448,2.448,0,0,0-.924-1.45,2.809,2.809,0,0,0-1.676-.483,2.533,2.533,0,0,0-2.02.9,3.538,3.538,0,0,0-.773,2.385,3.542,3.542,0,0,0,.773,2.379,2.526,2.526,0,0,0,2.02.908,2.785,2.785,0,0,0,1.67-.483,2.505,2.505,0,0,0,.929-1.45l2.857.312a4.761,4.761,0,0,1-1.864,3A5.86,5.86,0,0,1,125.6.2ZM134.8-12.7a1.737,1.737,0,0,1-1.268-.521,1.71,1.71,0,0,1-.526-1.262,1.69,1.69,0,0,1,.532-1.251,1.742,1.742,0,0,1,1.262-.521,1.712,1.712,0,0,1,1.246.521,1.7,1.7,0,0,1,.526,1.251,1.71,1.71,0,0,1-.526,1.262A1.712,1.712,0,0,1,134.8-12.7ZM133.225,0V-11.043h3.115V0ZM143.73-12.547l2.814-3.953,1.525,1.074-2.438,2.879ZM144.687.215a6.944,6.944,0,0,1-3.126-.677,5.058,5.058,0,0,1-2.143-1.987,5.922,5.922,0,0,1-.779-3.083,5.4,5.4,0,0,1,1.676-4.189,6.217,6.217,0,0,1,4.372-1.536,6.232,6.232,0,0,1,4.383,1.536,5.4,5.4,0,0,1,1.676,4.189,5.432,5.432,0,0,1-1.676,4.206A6.219,6.219,0,0,1,144.687.215Zm-.032-2.46a2.835,2.835,0,0,0,2.186-.9,3.378,3.378,0,0,0,.833-2.385,3.378,3.378,0,0,0-.833-2.385,2.835,2.835,0,0,0-2.186-.9,2.731,2.731,0,0,0-2.122.908,3.409,3.409,0,0,0-.822,2.379,3.409,3.409,0,0,0,.822,2.379A2.731,2.731,0,0,0,144.654-2.245Zm14.91-9.013a4.3,4.3,0,0,1,3.051.994,3.684,3.684,0,0,1,1.063,2.831V0h-3.1V-6.768a1.923,1.923,0,0,0-.553-1.525,2.084,2.084,0,0,0-1.423-.483,2.908,2.908,0,0,0-.924.14,2.373,2.373,0,0,0-.773.435,1.923,1.923,0,0,0-.553.833,3.85,3.85,0,0,0-.209,1.278V0h-3.094V-11.043h3.094v1.225A4.255,4.255,0,0,1,159.564-11.258Z" transform="translate(1205 7994)" fill="#00223d"/>
  </g>
</svg>
