<svg xmlns="http://www.w3.org/2000/svg" width="543.306" height="104.797" viewBox="0 0 543.306 104.797">
  <g id="Grupo_16441" data-name="Grupo 16441" transform="translate(-397.434 -3782.36)">
    <path id="Trazado_40606" data-name="Trazado 40606" d="M11.836-26.836a.418.418,0,0,1,.088.146,1.526,1.526,0,0,1,.01.225V-2.949q0,1.5.8,1.914a8,8,0,0,0,2.988.488V0H4.707V-.586A6.454,6.454,0,0,0,7.793-1.23q.723-.527.723-2.285V-21.6a3.4,3.4,0,0,0-.234-1.426,1.01,1.01,0,0,0-1.016-.488,4.216,4.216,0,0,0-1.318.283q-.811.283-1.514.6v-.547L11.6-26.836ZM37.852-10.273,33.223-21.289l-4.57,11.016ZM20.586,0V-.723A3.239,3.239,0,0,0,22.9-1.895,32.5,32.5,0,0,0,25.547-7.3l8.34-19.629h.781L44.629-4.258a9.634,9.634,0,0,0,1.592,2.8,3.782,3.782,0,0,0,2,.732V0H38.047V-.723A8.97,8.97,0,0,0,40.313-1.1q.508-.225.508-1.1a4.86,4.86,0,0,0-.2-1.035A11.261,11.261,0,0,0,40.078-4.8l-1.66-3.848H27.949q-1.562,3.926-1.865,4.795a4.485,4.485,0,0,0-.3,1.377,1.421,1.421,0,0,0,.82,1.406,6.526,6.526,0,0,0,1.914.352V0Zm57.5-7.441v2.734h-20.2V-7.441Zm0-8.066v2.734h-20.2v-2.734Z" transform="translate(393 3836)" fill="#1ec488"/>
    <path id="Trazado_40550" data-name="Trazado 40550" d="M2066,372h343.006" transform="translate(-1548.714 3455)" fill="none" stroke="#1ec488" stroke-width="2"/>
    <path id="Trazado_40607" data-name="Trazado 40607" d="M-7.627-5.176q0-4.336,3.906-8.4,3.867-4.063,7.988-4.062a3.827,3.827,0,0,1,2.422.7,2.491,2.491,0,0,1,.9,2.09q0,2.813-3.291,4.814A17.29,17.29,0,0,1-2.627-7.578l-1.113.137a13.255,13.255,0,0,0-.352,1.279,6.156,6.156,0,0,0-.1,1.2A3.325,3.325,0,0,0-3.066-2.285,3.977,3.977,0,0,0-.4-1.328,6.11,6.11,0,0,0,2.705-2.3,25.764,25.764,0,0,0,5.42-4.336l.508.449A12.315,12.315,0,0,1,3.408-1.6,9.962,9.962,0,0,1-2.432.488,5.147,5.147,0,0,1-6.064-.977,5.477,5.477,0,0,1-7.627-5.176Zm4.16-3.145a11.4,11.4,0,0,0,6.074-2.627q2.344-2.08,2.344-4.131A1.838,1.838,0,0,0,4.6-16.26,1.247,1.247,0,0,0,3.564-16.7a3.749,3.749,0,0,0-2.49,1.084,14.656,14.656,0,0,0-2.2,2.451A19.234,19.234,0,0,0-2.764-10.1Q-3.1-9.316-3.467-8.32Zm-139.7,51.484a.418.418,0,0,1,.088.146,1.526,1.526,0,0,1,.01.225V67.051q0,1.5.8,1.914a8,8,0,0,0,2.988.488V70h-11.016v-.586a6.454,6.454,0,0,0,3.086-.645q.723-.527.723-2.285V48.4a3.4,3.4,0,0,0-.234-1.426,1.01,1.01,0,0,0-1.016-.488,4.216,4.216,0,0,0-1.318.283q-.811.283-1.514.6v-.547l7.168-3.652ZM-125.2,69.59a5.605,5.605,0,0,1-1.426,3.672,8.789,8.789,0,0,1-3.066,2.441l-.371-.781a6.651,6.651,0,0,0,2.588-2.285,4.356,4.356,0,0,0,.713-2.051.343.343,0,0,0-.176-.352.9.9,0,0,0-.371-.078l-1.309.137a2.379,2.379,0,0,1-1.5-.537A1.857,1.857,0,0,1-130.8,68.2a2.488,2.488,0,0,1,.566-1.523,2.187,2.187,0,0,1,1.855-.742,3.06,3.06,0,0,1,2.207.967A3.609,3.609,0,0,1-125.2,69.59Zm18.906-8.477a10.06,10.06,0,0,1-2.295,6.445,7.283,7.283,0,0,1-5.967,2.871,8.239,8.239,0,0,1-6.26-3.223,12.548,12.548,0,0,1-2.822-8.574A15.414,15.414,0,0,1-118.164,46.8a16.532,16.532,0,0,1,10.977-4.141l.1.645a19.3,19.3,0,0,0-4.209,1.221,10.2,10.2,0,0,0-3.154,2.158,16.712,16.712,0,0,0-2.676,3.574,15.134,15.134,0,0,0-1.719,4.3,14.356,14.356,0,0,1,2.09-1.094,8.407,8.407,0,0,1,3.145-.625A7.018,7.018,0,0,1-108.4,54.98,8.389,8.389,0,0,1-106.289,61.113Zm-3.574,1.5a12.128,12.128,0,0,0-.82-4.609,4.755,4.755,0,0,0-4.648-3.359q-3.027,0-4.023,1.8a7.7,7.7,0,0,0-.586,3.516,15.167,15.167,0,0,0,1.357,6.23,4.492,4.492,0,0,0,4.287,3.047,3.556,3.556,0,0,0,3.379-1.982A9.735,9.735,0,0,0-109.863,62.617Zm14.434,6.66q2.871,0,3.945-3.145a29.618,29.618,0,0,0,1.074-9.1,35.524,35.524,0,0,0-.645-7.578q-1.211-5.273-4.531-5.273t-4.551,5.43a36.267,36.267,0,0,0-.645,7.617,30.326,30.326,0,0,0,.664,7.09Q-98.867,69.277-95.43,69.277Zm-.059-26.152q4.492,0,6.973,4.707a18.755,18.755,0,0,1,1.973,8.75,21.884,21.884,0,0,1-1.211,7.324q-2.285,6.465-7.91,6.465a7.481,7.481,0,0,1-6.328-3.5q-2.656-3.73-2.656-10.137a19.553,19.553,0,0,1,1.777-8.672Q-100.469,43.125-95.488,43.125Zm11.68,26.426a127.077,127.077,0,0,0,9.707-10.9,11.487,11.487,0,0,0,2.559-6.777,5.855,5.855,0,0,0-1.562-4.4,5.175,5.175,0,0,0-3.73-1.514,5.419,5.419,0,0,0-4.336,1.953,11.334,11.334,0,0,0-1.758,3.3l-.84-.176q.977-4.492,3.311-6.24a8.2,8.2,0,0,1,5.01-1.748,7.15,7.15,0,0,1,5.342,2.08,6.988,6.988,0,0,1,2.041,5.088,10.213,10.213,0,0,1-2.207,6.172,132.9,132.9,0,0,1-9.59,10.566H-70.9a5.557,5.557,0,0,0,2.637-.449,5.857,5.857,0,0,0,1.719-2.187l.508.234L-68.2,70H-83.809Zm40.645-26.387a.418.418,0,0,1,.088.146,1.526,1.526,0,0,1,.01.225V67.051q0,1.5.8,1.914a8,8,0,0,0,2.988.488V70H-50.293v-.586a6.454,6.454,0,0,0,3.086-.645q.723-.527.723-2.285V48.4a3.4,3.4,0,0,0-.234-1.426,1.01,1.01,0,0,0-1.016-.488,4.216,4.216,0,0,0-1.318.283q-.811.283-1.514.6v-.547l7.168-3.652Zm26.113.371v.645l-8.477,26.191h-2.578l7.91-23.887h-8.516a4.6,4.6,0,0,0-2.725.625,10.609,10.609,0,0,0-2.1,2.617l-.684-.312q1.27-3.125,1.572-3.857t.791-2.021ZM3.711,61.113a10.06,10.06,0,0,1-2.295,6.445A7.283,7.283,0,0,1-4.551,70.43a8.239,8.239,0,0,1-6.26-3.223,12.548,12.548,0,0,1-2.822-8.574A15.414,15.414,0,0,1-8.164,46.8,16.532,16.532,0,0,1,2.813,42.656l.1.645A19.3,19.3,0,0,0-1.3,44.521,10.2,10.2,0,0,0-4.453,46.68a16.712,16.712,0,0,0-2.676,3.574,15.135,15.135,0,0,0-1.719,4.3,14.357,14.357,0,0,1,2.09-1.094,8.407,8.407,0,0,1,3.145-.625A7.018,7.018,0,0,1,1.6,54.98,8.389,8.389,0,0,1,3.711,61.113Zm-3.574,1.5a12.128,12.128,0,0,0-.82-4.609,4.755,4.755,0,0,0-4.648-3.359q-3.027,0-4.023,1.8a7.7,7.7,0,0,0-.586,3.516,15.167,15.167,0,0,0,1.357,6.23A4.492,4.492,0,0,0-4.3,69.238,3.556,3.556,0,0,0-.918,67.256,9.735,9.735,0,0,0,.137,62.617Zm33.574-1.5a10.06,10.06,0,0,1-2.295,6.445,7.283,7.283,0,0,1-5.967,2.871,8.239,8.239,0,0,1-6.26-3.223,12.548,12.548,0,0,1-2.822-8.574A15.414,15.414,0,0,1,21.836,46.8a16.532,16.532,0,0,1,10.977-4.141l.1.645A19.3,19.3,0,0,0,28.7,44.521a10.2,10.2,0,0,0-3.154,2.158,16.712,16.712,0,0,0-2.676,3.574,15.135,15.135,0,0,0-1.719,4.3,14.357,14.357,0,0,1,2.09-1.094,8.407,8.407,0,0,1,3.145-.625A7.018,7.018,0,0,1,31.6,54.98,8.389,8.389,0,0,1,33.711,61.113Zm-3.574,1.5a12.128,12.128,0,0,0-.82-4.609,4.755,4.755,0,0,0-4.648-3.359q-3.027,0-4.023,1.8a7.7,7.7,0,0,0-.586,3.516,15.167,15.167,0,0,0,1.357,6.23A4.492,4.492,0,0,0,25.7,69.238a3.556,3.556,0,0,0,3.379-1.982A9.735,9.735,0,0,0,30.137,62.617ZM38.105,66.6a5.871,5.871,0,0,1,2.842,1.113,5.965,5.965,0,0,0,3,1.113,4.671,4.671,0,0,0,4.063-1.846,6.73,6.73,0,0,0,1.328-4.014A6.379,6.379,0,0,0,48.262,59.3q-1.816-2.676-6.133-2.676-.254,0-.488.01t-.547.049l-.039-.508a16.926,16.926,0,0,0,4.922-2.6,4.743,4.743,0,0,0,1.8-3.867,3.877,3.877,0,0,0-1.416-3.242,5.088,5.088,0,0,0-3.232-1.113,5.3,5.3,0,0,0-3.789,1.582A12.091,12.091,0,0,0,37.4,49.59l-.605-.137a8.962,8.962,0,0,1,2.91-4.746,7.454,7.454,0,0,1,4.922-1.777,6.225,6.225,0,0,1,4.619,1.641,5.189,5.189,0,0,1,.283,7.266,12.5,12.5,0,0,1-2.363,2.012,10.087,10.087,0,0,1,3.008,1.875,6.906,6.906,0,0,1,2.129,5.2,8.859,8.859,0,0,1-2.92,6.543q-2.92,2.832-8.311,2.832a5.9,5.9,0,0,1-3.369-.713,1.964,1.964,0,0,1-.967-1.533,1.7,1.7,0,0,1,.322-.977A1.177,1.177,0,0,1,38.105,66.6ZM66.66,47.188,57.07,60.742h9.59Zm1.289-4.023H69.8V60.742h4.082v2.6H69.8V70H66.7V63.34H55.449v-2.6Zm26.309,8.887V52.6A4.075,4.075,0,0,0,93,52.8a.742.742,0,0,0-.518.771,7.254,7.254,0,0,0,1.035,2.09q.547.9,1.387,2.207,1.152-1.582,1.719-2.48a5.157,5.157,0,0,0,.957-1.875.672.672,0,0,0-.41-.684,3.78,3.78,0,0,0-1.152-.234v-.547H102.3V52.6a4.67,4.67,0,0,0-1.855.537,3.876,3.876,0,0,0-1.387,1.221l-3.34,4.824,5.156,7.813a6.984,6.984,0,0,0,1.689,1.973,3.12,3.12,0,0,0,1.592.488V70H96.094v-.547l.566-.039a1.4,1.4,0,0,0,.752-.273.714.714,0,0,0,.3-.586,4.83,4.83,0,0,0-.742-1.641q-.352-.625-1.055-1.7-.332-.527-.986-1.465t-1.1-1.6l-3.145,4.9a12.974,12.974,0,0,0-.7,1.172,1.214,1.214,0,0,0-.137.488.47.47,0,0,0,.3.488,7.275,7.275,0,0,0,1.318.254V70H85.684v-.547a4.644,4.644,0,0,0,1.563-.547,6.146,6.146,0,0,0,1.348-1.543l4.551-6.621-3.75-5.684a10.043,10.043,0,0,0-1.562-2.012,4.343,4.343,0,0,0-1.875-.449v-.547Zm32.578-8.887a.418.418,0,0,1,.088.146,1.527,1.527,0,0,1,.01.225V67.051q0,1.5.8,1.914a8,8,0,0,0,2.988.488V70H119.707v-.586a6.454,6.454,0,0,0,3.086-.645q.723-.527.723-2.285V48.4a3.4,3.4,0,0,0-.234-1.426,1.01,1.01,0,0,0-1.016-.488,4.216,4.216,0,0,0-1.318.283q-.811.283-1.514.6v-.547l7.168-3.652ZM144.57,69.277q2.871,0,3.945-3.145a29.618,29.618,0,0,0,1.074-9.1,35.524,35.524,0,0,0-.645-7.578q-1.211-5.273-4.531-5.273t-4.551,5.43a36.267,36.267,0,0,0-.645,7.617,30.326,30.326,0,0,0,.664,7.09Q141.133,69.277,144.57,69.277Zm-.059-26.152q4.492,0,6.973,4.707a18.754,18.754,0,0,1,1.973,8.75,21.884,21.884,0,0,1-1.211,7.324q-2.285,6.465-7.91,6.465a7.481,7.481,0,0,1-6.328-3.5q-2.656-3.73-2.656-10.137a19.553,19.553,0,0,1,1.777-8.672Q139.531,43.125,144.512,43.125Z" transform="translate(672 3806)" fill="#1ec488"/>
    <path id="Trazado_40608" data-name="Trazado 40608" d="M-14.431-5.907h5.649V-4.47h-5.649ZM-.865-15.431a.24.24,0,0,1,.051.084.878.878,0,0,1,.006.129V-1.7q0,.865.46,1.1A4.6,4.6,0,0,0,1.37-.314V0H-4.964V-.337A3.711,3.711,0,0,0-3.189-.708q.416-.3.416-1.314v-10.4a1.957,1.957,0,0,0-.135-.82.581.581,0,0,0-.584-.281,2.424,2.424,0,0,0-.758.163q-.466.163-.87.343v-.314L-1-15.431Zm10.433,9a3.392,3.392,0,0,0,1.578-.427q.814-.427.927-.719a4.5,4.5,0,0,0,.079-.837q.034-.724.034-1.174a7.986,7.986,0,0,0-.786-3.8,2.49,2.49,0,0,0-2.3-1.46,2.067,2.067,0,0,0-1.78,1,5.343,5.343,0,0,0-.679,2.987,7.226,7.226,0,0,0,.635,3.032A2.307,2.307,0,0,0,9.568-6.435Zm-.314-9.052a4.356,4.356,0,0,1,3.818,1.971,7.615,7.615,0,0,1,1.348,4.4,10.125,10.125,0,0,1-.64,3.47A9.673,9.673,0,0,1,11.916-2.5,8.6,8.6,0,0,1,8.3-.135,14.876,14.876,0,0,1,5.211.539L5.1.09A14.2,14.2,0,0,0,7.042-.483,6.9,6.9,0,0,0,9.276-1.831a9.358,9.358,0,0,0,1.9-2.532A9.237,9.237,0,0,0,12.073-6.7l-.393.292a4.837,4.837,0,0,1-1.954.865,4.778,4.778,0,0,1-1.067.135A3.719,3.719,0,0,1,5.632-6.766,4.91,4.91,0,0,1,4.515-10a5.836,5.836,0,0,1,1.331-3.942A4.29,4.29,0,0,1,9.254-15.487Z" transform="translate(839 3852)" fill="#1ec488"/>
    <path id="Trazado_40562" data-name="Trazado 40562" d="M1992.906,327s-35.7,42.891,0,103.651" transform="translate(-1482 3456)" fill="none" stroke="#1ec488" stroke-width="2"/>
    <path id="Trazado_40563" data-name="Trazado 40563" d="M1977.038,327s35.7,42.891,0,103.651" transform="translate(-1111 3456)" fill="none" stroke="#1ec488" stroke-width="2"/>
    <path id="Trazado_40609" data-name="Trazado 40609" d="M-5.713-6.152h.645A10.2,10.2,0,0,0-3.857-2.734a4.432,4.432,0,0,0,4,2.188,3.215,3.215,0,0,0,2.314-.811,2.771,2.771,0,0,0,.85-2.1,2.891,2.891,0,0,0-.488-1.582A5.007,5.007,0,0,0,1.1-6.523l-2.187-1.25a12.47,12.47,0,0,1-3.535-2.6,4.564,4.564,0,0,1-1.133-3.086,4.619,4.619,0,0,1,1.563-3.594A5.648,5.648,0,0,1-.264-18.457a7.626,7.626,0,0,1,2.275.391,10.543,10.543,0,0,0,1.4.391,1,1,0,0,0,.508-.1.818.818,0,0,0,.273-.312h.469l.137,5.449H4.189a9.035,9.035,0,0,0-1.055-2.949,3.876,3.876,0,0,0-3.5-1.953,2.79,2.79,0,0,0-2.148.84,2.8,2.8,0,0,0-.781,1.973q0,1.8,2.7,3.2l2.578,1.387q4.16,2.266,4.16,5.273a4.716,4.716,0,0,1-1.729,3.77A6.754,6.754,0,0,1-.107.371,10.563,10.563,0,0,1-2.764-.02,11.994,11.994,0,0,0-4.521-.41a.579.579,0,0,0-.41.166,1.153,1.153,0,0,0-.273.4h-.508Z" transform="translate(909 3841)" fill="#1ec488"/>
    <path id="Trazado_40610" data-name="Trazado 40610" d="M-9.436-6.421H-3.3v1.563h-6.14ZM5.31-16.772a.261.261,0,0,1,.055.092.954.954,0,0,1,.006.14v14.7q0,.94.5,1.2a5,5,0,0,0,1.868.305V0H.854V-.366a4.033,4.033,0,0,0,1.929-.4q.452-.33.452-1.428V-13.5a2.128,2.128,0,0,0-.146-.891.631.631,0,0,0-.635-.305,2.635,2.635,0,0,0-.824.177q-.507.177-.946.372v-.342l4.48-2.283Z" transform="translate(933 3825)" fill="#1ec488"/>
  </g>
</svg>
