<svg xmlns="http://www.w3.org/2000/svg" width="840.67" height="336.871" viewBox="0 0 840.67 336.871">
  <g id="Grupo_16464" data-name="Grupo 16464" transform="translate(-558.009 -4367)">
    <path id="Trazado_40052" data-name="Trazado 40052" d="M143.139,314.143c34.188-41.643,53.8-90.1,53.8-141.831s-19.617-100.186-53.8-141.828c-34.188,41.642-53.8,90.1-53.8,141.828S108.951,272.5,143.139,314.143Z" transform="translate(475.666 4336.517)" fill="#a5f7d9"/>
    <path id="Trazado_40489" data-name="Trazado 40489" d="M-9278.2,1596.661v0h0l-.043-.052-.123-.15-.139-.169V1313.372l.072-.088.087-.106.146-.179c17.3,21.076,30.669,43.662,39.724,67.132a206.836,206.836,0,0,1,14.082,74.7,206.839,206.839,0,0,1-14.082,74.7c-9.058,23.474-22.422,46.061-39.724,67.135Z" transform="translate(10111 3054)" fill="#a5f7d9"/>
    <path id="Trazado_40490" data-name="Trazado 40490" d="M-9264.1,1657.782h0a502.921,502.921,0,0,0,21.715-147.036,504.587,504.587,0,0,0-18.572-136.307,283.646,283.646,0,0,1,28.555,66.64,268.665,268.665,0,0,1,7.466,35.6,267.549,267.549,0,0,1,2.551,36.818,267.487,267.487,0,0,1-2.766,38.326,269.389,269.389,0,0,1-8.086,36.995A285.515,285.515,0,0,1-9264.1,1657.782Z" transform="translate(10316 2993)" fill="#a5f7d9"/>
    <path id="Trazado_40491" data-name="Trazado 40491" d="M10.345-8.2a3.631,3.631,0,0,1,2.922,3.846,4.168,4.168,0,0,1-1.235,3.185A5.1,5.1,0,0,1,8.4,0H2.009V-15.522H7.036a5.7,5.7,0,0,1,3.8,1.123,3.894,3.894,0,0,1,1.316,3.131,3.652,3.652,0,0,1-.457,1.842A3.007,3.007,0,0,1,10.345-8.2ZM7.068-12.848H5.113V-9.2H7.208A1.962,1.962,0,0,0,8.69-9.711a1.875,1.875,0,0,0,.494-1.354,1.666,1.666,0,0,0-.537-1.294A2.273,2.273,0,0,0,7.068-12.848ZM7.8-2.761a2.475,2.475,0,0,0,1.778-.548,1.863,1.863,0,0,0,.564-1.4,1.951,1.951,0,0,0-.569-1.439,2.519,2.519,0,0,0-1.837-.569H5.113v3.953ZM17.306-12.7a1.737,1.737,0,0,1-1.268-.521,1.71,1.71,0,0,1-.526-1.262,1.69,1.69,0,0,1,.532-1.251,1.742,1.742,0,0,1,1.262-.521,1.712,1.712,0,0,1,1.246.521,1.7,1.7,0,0,1,.526,1.251,1.71,1.71,0,0,1-.526,1.262A1.712,1.712,0,0,1,17.306-12.7ZM15.727,0V-11.043h3.115V0ZM27.038.2a5.9,5.9,0,0,1-4.265-1.59,5.491,5.491,0,0,1-1.654-4.146,5.479,5.479,0,0,1,1.649-4.146,5.918,5.918,0,0,1,4.27-1.579,5.884,5.884,0,0,1,3.577,1.063,4.748,4.748,0,0,1,1.848,3l-2.857.312a2.448,2.448,0,0,0-.924-1.45,2.809,2.809,0,0,0-1.676-.483,2.533,2.533,0,0,0-2.02.9,3.538,3.538,0,0,0-.773,2.385,3.542,3.542,0,0,0,.773,2.379,2.526,2.526,0,0,0,2.02.908,2.785,2.785,0,0,0,1.67-.483,2.505,2.505,0,0,0,.929-1.45l2.857.312a4.761,4.761,0,0,1-1.864,3A5.86,5.86,0,0,1,27.038.2ZM39.811.215a6.944,6.944,0,0,1-3.126-.677,5.058,5.058,0,0,1-2.143-1.987,5.922,5.922,0,0,1-.779-3.083,5.4,5.4,0,0,1,1.676-4.189,6.217,6.217,0,0,1,4.372-1.536,6.232,6.232,0,0,1,4.383,1.536,5.4,5.4,0,0,1,1.676,4.189,5.432,5.432,0,0,1-1.676,4.206A6.219,6.219,0,0,1,39.811.215Zm-.032-2.46a2.835,2.835,0,0,0,2.186-.9A3.378,3.378,0,0,0,42.8-5.532a3.378,3.378,0,0,0-.833-2.385,2.835,2.835,0,0,0-2.186-.9,2.731,2.731,0,0,0-2.122.908,3.409,3.409,0,0,0-.822,2.379,3.409,3.409,0,0,0,.822,2.379A2.731,2.731,0,0,0,39.778-2.245Zm14.91-9.013a4.3,4.3,0,0,1,3.051.994A3.684,3.684,0,0,1,58.8-7.434V0H55.7V-6.768a1.923,1.923,0,0,0-.553-1.525,2.084,2.084,0,0,0-1.423-.483,2.908,2.908,0,0,0-.924.14,2.373,2.373,0,0,0-.773.435,1.923,1.923,0,0,0-.553.833,3.85,3.85,0,0,0-.209,1.278V0H48.168V-11.043h3.094v1.225A4.255,4.255,0,0,1,54.688-11.258Zm14.029.215h3.276L67.289,0H64.6L59.952-11.043h3.255l2.75,7.552Zm14.846,5.36-.032.741H75.346a2.859,2.859,0,0,0,.881,2.02,2.817,2.817,0,0,0,1.944.7A2.715,2.715,0,0,0,79.626-2.6a2.344,2.344,0,0,0,.929-1.112l2.836.419A4.821,4.821,0,0,1,81.458-.709a5.749,5.749,0,0,1-3.266.924,5.978,5.978,0,0,1-4.3-1.52,5.546,5.546,0,0,1-1.6-4.216,5.579,5.579,0,0,1,1.6-4.216,5.8,5.8,0,0,1,4.2-1.542A5.544,5.544,0,0,1,82.06-9.872,5.52,5.52,0,0,1,83.563-5.683ZM78.117-9.088a2.445,2.445,0,0,0-2.686,2.127H80.5a2.326,2.326,0,0,0-.763-1.579A2.417,2.417,0,0,0,78.117-9.088ZM83.982,0l4.533-5.532-4.533-5.511H87.85l2.535,3.48,2.557-3.48h3.835L92.232-5.521,96.776,0H92.941L90.406-3.459,87.86,0ZM107.11-3a10.331,10.331,0,0,0,.269,2.7V0h-2.89l-.247-1.2A3.591,3.591,0,0,1,102.7-.14a5.7,5.7,0,0,1-2,.354,5.254,5.254,0,0,1-1.031-.1,3.506,3.506,0,0,1-.929-.328,2.82,2.82,0,0,1-.768-.575,2.52,2.52,0,0,1-.516-.875,3.488,3.488,0,0,1-.193-1.2,3.321,3.321,0,0,1,.2-1.2,2.807,2.807,0,0,1,.537-.9,3.258,3.258,0,0,1,.87-.655,6.658,6.658,0,0,1,1.1-.473,13.092,13.092,0,0,1,1.311-.344l1.815-.408a2,2,0,0,0,.822-.349.7.7,0,0,0,.242-.553,1.14,1.14,0,0,0-.542-1.063A2.533,2.533,0,0,0,102.3-9.12a1.894,1.894,0,0,0-2.159,1.687L97.4-7.928A3.708,3.708,0,0,1,99-10.447a6.362,6.362,0,0,1,3.47-.811q4.641,0,4.641,3.985ZM101.664-1.88a2.488,2.488,0,0,0,1.912-.8,3.372,3.372,0,0,0,.741-2.369l-2.621.741a3.1,3.1,0,0,0-1.1.451.927.927,0,0,0-.381.795,1.029,1.029,0,0,0,.408.875A1.689,1.689,0,0,0,101.664-1.88Z" transform="translate(556 4701.253)" fill="#00223d"/>
    <g id="Grupo_16200" data-name="Grupo 16200" transform="translate(-197.928 5165.533) rotate(-90)">
      <path id="Trazado_38307" data-name="Trazado 38307" d="M1906.2,273.762h257.666" transform="translate(-1380.012 1250)" fill="none" stroke="#404040" stroke-width="3"/>
      <path id="Polígono_8" data-name="Polígono 8" d="M10,0,20,17H0Z" transform="translate(798.533 1513.5) rotate(90)" fill="#404040"/>
      <path id="Polígono_19" data-name="Polígono 19" d="M10,0,20,17H0Z" transform="translate(517.533 1533.5) rotate(-90)" fill="#404040"/>
    </g>
    <path id="Trazado_40494" data-name="Trazado 40494" d="M10.205,0,6.166-6.832H5.231V0H2.009V-15.522H7.638a6.511,6.511,0,0,1,2.256.36,3.9,3.9,0,0,1,1.563,1,4.278,4.278,0,0,1,.881,1.466,5.363,5.363,0,0,1,.3,1.815,3.791,3.791,0,0,1-.849,2.551A4.277,4.277,0,0,1,9.346-6.993L14.019,0ZM5.231-12.848v3.706h1.9q2.417,0,2.417-1.848a1.682,1.682,0,0,0-.591-1.364,2.809,2.809,0,0,0-1.826-.494ZM25.706-5.683l-.032.741H17.488a2.859,2.859,0,0,0,.881,2.02,2.817,2.817,0,0,0,1.944.7A2.715,2.715,0,0,0,21.769-2.6,2.344,2.344,0,0,0,22.7-3.717l2.836.419A4.821,4.821,0,0,1,23.6-.709a5.749,5.749,0,0,1-3.266.924,5.978,5.978,0,0,1-4.3-1.52,5.546,5.546,0,0,1-1.6-4.216,5.579,5.579,0,0,1,1.6-4.216,5.8,5.8,0,0,1,4.2-1.542A5.544,5.544,0,0,1,24.2-9.872,5.52,5.52,0,0,1,25.706-5.683ZM20.26-9.088a2.445,2.445,0,0,0-2.686,2.127h5.07a2.326,2.326,0,0,0-.763-1.579A2.417,2.417,0,0,0,20.26-9.088Zm14.276-2.17a5.371,5.371,0,0,1,2.063.4,5.161,5.161,0,0,1,1.692,1.117,5.054,5.054,0,0,1,1.144,1.821A6.76,6.76,0,0,1,39.854-5.5a6.76,6.76,0,0,1-.419,2.422,5.054,5.054,0,0,1-1.144,1.821A5.161,5.161,0,0,1,36.6-.14a5.371,5.371,0,0,1-2.062.4,4.792,4.792,0,0,1-2-.408,3.131,3.131,0,0,1-1.386-1.16V5.371H28.059V-11.043h2.933l.086,1.482a3.025,3.025,0,0,1,1.38-1.251A4.744,4.744,0,0,1,34.536-11.258Zm-.7,8.948a2.779,2.779,0,0,0,2.089-.865A3.212,3.212,0,0,0,36.76-5.5a3.212,3.212,0,0,0-.833-2.326,2.779,2.779,0,0,0-2.089-.865,2.784,2.784,0,0,0-2.105.881,3.213,3.213,0,0,0-.838,2.31,3.213,3.213,0,0,0,.838,2.31A2.784,2.784,0,0,0,33.838-2.31ZM45.149-9.292a3.585,3.585,0,0,1,1.45-1.327,4.425,4.425,0,0,1,2.159-.553v2.761a4.183,4.183,0,0,0-2.643.666A2.908,2.908,0,0,0,45.3-5.382V0H42.185V-11.043h2.965ZM60.9-5.683l-.032.741H52.68a2.859,2.859,0,0,0,.881,2.02,2.817,2.817,0,0,0,1.944.7A2.715,2.715,0,0,0,56.96-2.6a2.344,2.344,0,0,0,.929-1.112l2.836.419A4.821,4.821,0,0,1,58.792-.709a5.749,5.749,0,0,1-3.266.924,5.978,5.978,0,0,1-4.3-1.52,5.546,5.546,0,0,1-1.6-4.216,5.579,5.579,0,0,1,1.6-4.216,5.8,5.8,0,0,1,4.2-1.542,5.544,5.544,0,0,1,3.964,1.407A5.52,5.52,0,0,1,60.9-5.683ZM55.451-9.088a2.445,2.445,0,0,0-2.686,2.127h5.07a2.326,2.326,0,0,0-.763-1.579A2.417,2.417,0,0,0,55.451-9.088ZM67.139.215a6.171,6.171,0,0,1-3.223-.773,3.269,3.269,0,0,1-1.579-2.3l2.589-.73a2.08,2.08,0,0,0,2.213,1.644A2.285,2.285,0,0,0,68.267-2.2a.879.879,0,0,0,.44-.854.9.9,0,0,0-.183-.569,1.446,1.446,0,0,0-.564-.408,7.026,7.026,0,0,0-.752-.29q-.371-.118-.983-.285T65.205-4.92a6.836,6.836,0,0,1-.972-.414,4.147,4.147,0,0,1-.806-.569,2.3,2.3,0,0,1-.6-.865,3.12,3.12,0,0,1-.209-1.182,2.821,2.821,0,0,1,1.2-2.471,5.352,5.352,0,0,1,3.131-.838,5.487,5.487,0,0,1,2.89.709,3.209,3.209,0,0,1,1.482,2.213l-2.4.537a1.876,1.876,0,0,0-1.966-1.4,2.153,2.153,0,0,0-1.085.247.794.794,0,0,0-.43.73.837.837,0,0,0,.064.333.659.659,0,0,0,.226.269,3.29,3.29,0,0,0,.312.2,2.35,2.35,0,0,0,.44.177q.29.091.483.14l.564.145.575.15q.591.161,1.037.322a6.071,6.071,0,0,1,.951.451,3.412,3.412,0,0,1,.833.65,2.9,2.9,0,0,1,.542.913,3.372,3.372,0,0,1,.215,1.23,3.322,3.322,0,0,1-.371,1.6A2.782,2.782,0,0,1,70.3-.553a4.941,4.941,0,0,1-1.434.58A7.439,7.439,0,0,1,67.139.215Zm17.155-5.9-.032.741H76.076a2.859,2.859,0,0,0,.881,2.02,2.817,2.817,0,0,0,1.944.7A2.715,2.715,0,0,0,80.357-2.6a2.344,2.344,0,0,0,.929-1.112l2.836.419A4.821,4.821,0,0,1,82.188-.709a5.749,5.749,0,0,1-3.266.924,5.978,5.978,0,0,1-4.3-1.52,5.546,5.546,0,0,1-1.6-4.216,5.579,5.579,0,0,1,1.6-4.216,5.8,5.8,0,0,1,4.2-1.542A5.544,5.544,0,0,1,82.79-9.872,5.52,5.52,0,0,1,84.294-5.683ZM78.848-9.088a2.445,2.445,0,0,0-2.686,2.127h5.07A2.326,2.326,0,0,0,80.47-8.54,2.417,2.417,0,0,0,78.848-9.088Zm14.319-2.17a4.3,4.3,0,0,1,3.051.994,3.684,3.684,0,0,1,1.063,2.831V0h-3.1V-6.768a1.924,1.924,0,0,0-.553-1.525A2.084,2.084,0,0,0,92.2-8.776a2.908,2.908,0,0,0-.924.14A2.373,2.373,0,0,0,90.5-8.2a1.923,1.923,0,0,0-.553.833,3.85,3.85,0,0,0-.209,1.278V0H86.646V-11.043H89.74v1.225A4.255,4.255,0,0,1,93.167-11.258ZM104.393,0A3.335,3.335,0,0,1,101.9-.9a3.489,3.489,0,0,1-.881-2.551V-8.669H98.85v-2.374h.7a1.822,1.822,0,0,0,1.375-.462,2.378,2.378,0,0,0,.44-1.644v-1.461h2.793v3.566h2.277v2.374h-2.277v4.888q0,1.429,1.278,1.429h1V0Zm13.449-3a10.331,10.331,0,0,0,.269,2.7V0h-2.89l-.247-1.2A3.591,3.591,0,0,1,113.427-.14a5.7,5.7,0,0,1-2,.354,5.254,5.254,0,0,1-1.031-.1,3.506,3.506,0,0,1-.929-.328,2.82,2.82,0,0,1-.768-.575,2.52,2.52,0,0,1-.516-.875,3.488,3.488,0,0,1-.193-1.2,3.321,3.321,0,0,1,.2-1.2,2.807,2.807,0,0,1,.537-.9,3.258,3.258,0,0,1,.87-.655,6.658,6.658,0,0,1,1.1-.473,13.092,13.092,0,0,1,1.311-.344l1.815-.408a2,2,0,0,0,.822-.349.7.7,0,0,0,.242-.553,1.14,1.14,0,0,0-.542-1.063,2.533,2.533,0,0,0-1.316-.322,1.894,1.894,0,0,0-2.159,1.687l-2.739-.494a3.708,3.708,0,0,1,1.6-2.519,6.362,6.362,0,0,1,3.47-.811q4.641,0,4.641,3.985ZM112.4-1.88a2.488,2.488,0,0,0,1.912-.8,3.372,3.372,0,0,0,.741-2.369l-2.621.741a3.1,3.1,0,0,0-1.1.451.927.927,0,0,0-.381.795,1.029,1.029,0,0,0,.408.875A1.689,1.689,0,0,0,112.4-1.88ZM125.6.2a5.9,5.9,0,0,1-4.265-1.59,5.491,5.491,0,0,1-1.654-4.146,5.479,5.479,0,0,1,1.649-4.146,5.918,5.918,0,0,1,4.27-1.579,5.884,5.884,0,0,1,3.577,1.063,4.748,4.748,0,0,1,1.848,3l-2.857.312a2.448,2.448,0,0,0-.924-1.45,2.809,2.809,0,0,0-1.676-.483,2.533,2.533,0,0,0-2.02.9,3.538,3.538,0,0,0-.773,2.385,3.542,3.542,0,0,0,.773,2.379,2.526,2.526,0,0,0,2.02.908,2.785,2.785,0,0,0,1.67-.483,2.505,2.505,0,0,0,.929-1.45l2.857.312a4.761,4.761,0,0,1-1.864,3A5.86,5.86,0,0,1,125.6.2ZM134.8-12.7a1.737,1.737,0,0,1-1.268-.521,1.71,1.71,0,0,1-.526-1.262,1.69,1.69,0,0,1,.532-1.251,1.742,1.742,0,0,1,1.262-.521,1.712,1.712,0,0,1,1.246.521,1.7,1.7,0,0,1,.526,1.251,1.71,1.71,0,0,1-.526,1.262A1.712,1.712,0,0,1,134.8-12.7ZM133.225,0V-11.043h3.115V0ZM143.73-12.547l2.814-3.953,1.525,1.074-2.438,2.879ZM144.687.215a6.944,6.944,0,0,1-3.126-.677,5.058,5.058,0,0,1-2.143-1.987,5.922,5.922,0,0,1-.779-3.083,5.4,5.4,0,0,1,1.676-4.189,6.217,6.217,0,0,1,4.372-1.536,6.232,6.232,0,0,1,4.383,1.536,5.4,5.4,0,0,1,1.676,4.189,5.432,5.432,0,0,1-1.676,4.206A6.219,6.219,0,0,1,144.687.215Zm-.032-2.46a2.835,2.835,0,0,0,2.186-.9,3.378,3.378,0,0,0,.833-2.385,3.378,3.378,0,0,0-.833-2.385,2.835,2.835,0,0,0-2.186-.9,2.731,2.731,0,0,0-2.122.908,3.409,3.409,0,0,0-.822,2.379,3.409,3.409,0,0,0,.822,2.379A2.731,2.731,0,0,0,144.654-2.245Zm14.91-9.013a4.3,4.3,0,0,1,3.051.994,3.684,3.684,0,0,1,1.063,2.831V0h-3.1V-6.768a1.923,1.923,0,0,0-.553-1.525,2.084,2.084,0,0,0-1.423-.483,2.908,2.908,0,0,0-.924.14,2.373,2.373,0,0,0-.773.435,1.923,1.923,0,0,0-.553.833,3.85,3.85,0,0,0-.209,1.278V0h-3.094V-11.043h3.094v1.225A4.255,4.255,0,0,1,159.564-11.258Z" transform="translate(1235 4698.5)" fill="#00223d"/>
    <path id="Trazado_40660" data-name="Trazado 40660" d="M8.465-15.522a4.671,4.671,0,0,1,3.577,1.445A5.026,5.026,0,0,1,13.4-10.506a4.9,4.9,0,0,1-1.343,3.55A4.756,4.756,0,0,1,8.465-5.564H5.231V0H2.009V-15.522ZM7.928-8.261A2.368,2.368,0,0,0,9.7-8.868a2.308,2.308,0,0,0,.591-1.681,2.289,2.289,0,0,0-.6-1.66,2.347,2.347,0,0,0-1.767-.618h-2.7v4.565ZM15.694,0V-16.5H18.82V0ZM31.077-3a10.331,10.331,0,0,0,.269,2.7V0h-2.89l-.247-1.2A3.591,3.591,0,0,1,26.662-.14a5.7,5.7,0,0,1-2,.354,5.254,5.254,0,0,1-1.031-.1A3.506,3.506,0,0,1,22.7-.209a2.82,2.82,0,0,1-.768-.575,2.52,2.52,0,0,1-.516-.875,3.488,3.488,0,0,1-.193-1.2,3.321,3.321,0,0,1,.2-1.2,2.807,2.807,0,0,1,.537-.9,3.258,3.258,0,0,1,.87-.655,6.658,6.658,0,0,1,1.1-.473,13.092,13.092,0,0,1,1.311-.344l1.815-.408a2,2,0,0,0,.822-.349.7.7,0,0,0,.242-.553A1.14,1.14,0,0,0,27.581-8.8a2.533,2.533,0,0,0-1.316-.322,1.894,1.894,0,0,0-2.159,1.687l-2.739-.494a3.708,3.708,0,0,1,1.6-2.519,6.362,6.362,0,0,1,3.47-.811q4.641,0,4.641,3.985ZM25.631-1.88a2.488,2.488,0,0,0,1.912-.8,3.372,3.372,0,0,0,.741-2.369l-2.621.741a3.1,3.1,0,0,0-1.1.451.927.927,0,0,0-.381.795,1.029,1.029,0,0,0,.408.875A1.689,1.689,0,0,0,25.631-1.88Zm14.975-9.378a4.3,4.3,0,0,1,3.051.994A3.684,3.684,0,0,1,44.72-7.434V0h-3.1V-6.768a1.923,1.923,0,0,0-.553-1.525,2.084,2.084,0,0,0-1.423-.483,2.908,2.908,0,0,0-.924.14,2.373,2.373,0,0,0-.773.435,1.923,1.923,0,0,0-.553.833,3.85,3.85,0,0,0-.209,1.278V0H34.085V-11.043h3.094v1.225A4.255,4.255,0,0,1,40.605-11.258ZM52.862.215a6.944,6.944,0,0,1-3.126-.677,5.058,5.058,0,0,1-2.143-1.987,5.922,5.922,0,0,1-.779-3.083A5.4,5.4,0,0,1,48.49-9.722a6.217,6.217,0,0,1,4.372-1.536,6.232,6.232,0,0,1,4.383,1.536,5.4,5.4,0,0,1,1.676,4.189,5.432,5.432,0,0,1-1.676,4.206A6.219,6.219,0,0,1,52.862.215Zm-.032-2.46a2.835,2.835,0,0,0,2.186-.9,3.378,3.378,0,0,0,.833-2.385,3.378,3.378,0,0,0-.833-2.385,2.835,2.835,0,0,0-2.186-.9,2.731,2.731,0,0,0-2.122.908,3.409,3.409,0,0,0-.822,2.379,3.409,3.409,0,0,0,.822,2.379A2.731,2.731,0,0,0,52.83-2.245ZM71.93.2a5.9,5.9,0,0,1-4.265-1.59,5.491,5.491,0,0,1-1.654-4.146A5.479,5.479,0,0,1,67.66-9.679a5.918,5.918,0,0,1,4.27-1.579,5.884,5.884,0,0,1,3.577,1.063,4.748,4.748,0,0,1,1.848,3L74.5-6.886a2.448,2.448,0,0,0-.924-1.45A2.809,2.809,0,0,0,71.9-8.819a2.533,2.533,0,0,0-2.02.9A3.538,3.538,0,0,0,69.1-5.532a3.542,3.542,0,0,0,.773,2.379,2.526,2.526,0,0,0,2.02.908,2.785,2.785,0,0,0,1.67-.483,2.505,2.505,0,0,0,.929-1.45l2.857.312a4.761,4.761,0,0,1-1.864,3A5.86,5.86,0,0,1,71.93.2ZM84.7.215a6.944,6.944,0,0,1-3.126-.677,5.058,5.058,0,0,1-2.143-1.987,5.922,5.922,0,0,1-.779-3.083A5.4,5.4,0,0,1,80.33-9.722,6.217,6.217,0,0,1,84.7-11.258a6.232,6.232,0,0,1,4.383,1.536,5.4,5.4,0,0,1,1.676,4.189,5.432,5.432,0,0,1-1.676,4.206A6.219,6.219,0,0,1,84.7.215Zm-.032-2.46a2.835,2.835,0,0,0,2.186-.9,3.378,3.378,0,0,0,.833-2.385,3.378,3.378,0,0,0-.833-2.385,2.835,2.835,0,0,0-2.186-.9,2.731,2.731,0,0,0-2.122.908,3.409,3.409,0,0,0-.822,2.379,3.409,3.409,0,0,0,.822,2.379A2.731,2.731,0,0,0,84.67-2.245Zm14.91-9.013a4.3,4.3,0,0,1,3.051.994,3.684,3.684,0,0,1,1.063,2.831V0h-3.1V-6.768a1.924,1.924,0,0,0-.553-1.525,2.084,2.084,0,0,0-1.423-.483,2.908,2.908,0,0,0-.924.14,2.373,2.373,0,0,0-.773.435,1.923,1.923,0,0,0-.553.833,3.85,3.85,0,0,0-.209,1.278V0H93.06V-11.043h3.094v1.225A4.255,4.255,0,0,1,99.58-11.258Zm14.029.215h3.276L112.181,0H109.5l-4.651-11.043H108.1l2.75,7.552Zm14.846,5.36-.032.741h-8.186a2.859,2.859,0,0,0,.881,2.02,2.817,2.817,0,0,0,1.944.7,2.715,2.715,0,0,0,1.456-.381,2.344,2.344,0,0,0,.929-1.112l2.836.419A4.821,4.821,0,0,1,126.35-.709a5.749,5.749,0,0,1-3.266.924,5.978,5.978,0,0,1-4.3-1.52,5.546,5.546,0,0,1-1.6-4.216,5.579,5.579,0,0,1,1.6-4.216,5.8,5.8,0,0,1,4.2-1.542,5.544,5.544,0,0,1,3.964,1.407A5.52,5.52,0,0,1,128.455-5.683Zm-5.446-3.405a2.445,2.445,0,0,0-2.686,2.127h5.07a2.326,2.326,0,0,0-.763-1.579A2.417,2.417,0,0,0,123.009-9.088ZM128.874,0l4.533-5.532-4.533-5.511h3.867l2.535,3.48,2.557-3.48h3.835l-4.544,5.521L141.668,0h-3.835L135.3-3.459,132.752,0ZM152-3a10.331,10.331,0,0,0,.269,2.7V0h-2.89l-.247-1.2A3.591,3.591,0,0,1,147.587-.14a5.7,5.7,0,0,1-2,.354,5.254,5.254,0,0,1-1.031-.1,3.506,3.506,0,0,1-.929-.328,2.82,2.82,0,0,1-.768-.575,2.52,2.52,0,0,1-.516-.875,3.488,3.488,0,0,1-.193-1.2,3.322,3.322,0,0,1,.2-1.2,2.807,2.807,0,0,1,.537-.9,3.258,3.258,0,0,1,.87-.655,6.658,6.658,0,0,1,1.1-.473,13.092,13.092,0,0,1,1.311-.344l1.815-.408a2,2,0,0,0,.822-.349.7.7,0,0,0,.242-.553,1.14,1.14,0,0,0-.542-1.063,2.533,2.533,0,0,0-1.316-.322,1.894,1.894,0,0,0-2.159,1.687l-2.739-.494a3.708,3.708,0,0,1,1.6-2.519,6.362,6.362,0,0,1,3.47-.811q4.641,0,4.641,3.985ZM146.556-1.88a2.488,2.488,0,0,0,1.912-.8,3.372,3.372,0,0,0,.741-2.369l-2.621.741a3.1,3.1,0,0,0-1.1.451.927.927,0,0,0-.381.795,1.029,1.029,0,0,0,.408.875A1.689,1.689,0,0,0,146.556-1.88ZM158.9.215a6.171,6.171,0,0,1-3.223-.773,3.269,3.269,0,0,1-1.579-2.3l2.589-.73A2.08,2.08,0,0,0,158.9-1.944a2.285,2.285,0,0,0,1.128-.252.879.879,0,0,0,.44-.854.9.9,0,0,0-.183-.569,1.446,1.446,0,0,0-.564-.408,7.026,7.026,0,0,0-.752-.29q-.371-.118-.983-.285t-1.021-.317a6.836,6.836,0,0,1-.972-.414,4.147,4.147,0,0,1-.806-.569,2.3,2.3,0,0,1-.6-.865,3.12,3.12,0,0,1-.209-1.182,2.821,2.821,0,0,1,1.2-2.471,5.352,5.352,0,0,1,3.131-.838,5.487,5.487,0,0,1,2.89.709,3.209,3.209,0,0,1,1.482,2.213l-2.4.537a1.876,1.876,0,0,0-1.966-1.4,2.153,2.153,0,0,0-1.085.247.794.794,0,0,0-.43.73.837.837,0,0,0,.064.333.659.659,0,0,0,.226.269,3.289,3.289,0,0,0,.312.2,2.35,2.35,0,0,0,.44.177q.29.091.483.14l.564.145.575.15q.591.161,1.037.322a6.072,6.072,0,0,1,.951.451,3.412,3.412,0,0,1,.833.65,2.9,2.9,0,0,1,.542.913,3.372,3.372,0,0,1,.215,1.23,3.322,3.322,0,0,1-.371,1.6,2.782,2.782,0,0,1-1.015,1.08,4.941,4.941,0,0,1-1.434.58A7.439,7.439,0,0,1,158.9.215Z" transform="translate(758 4700)" fill="#00223d"/>
    <path id="Trazado_40661" data-name="Trazado 40661" d="M8.884.215A8.664,8.664,0,0,1,5.72-.354,7.439,7.439,0,0,1,3.2-1.944,7.167,7.167,0,0,1,1.547-4.469a8.8,8.8,0,0,1-.6-3.3,8.408,8.408,0,0,1,1.031-4.216,7.021,7.021,0,0,1,2.831-2.788,8.476,8.476,0,0,1,4.077-.967,8.237,8.237,0,0,1,4.555,1.257,6.88,6.88,0,0,1,2.782,3.459l-3.008,1.1a4.252,4.252,0,0,0-1.665-2.095,4.756,4.756,0,0,0-2.664-.752,4.559,4.559,0,0,0-3.395,1.354A4.98,4.98,0,0,0,4.157-7.767,4.988,4.988,0,0,0,5.495-4.109,4.554,4.554,0,0,0,8.884-2.75a4.738,4.738,0,0,0,2.659-.757,4.271,4.271,0,0,0,1.67-2.1l3.008,1.1a6.908,6.908,0,0,1-2.782,3.464A8.211,8.211,0,0,1,8.884.215ZM22.645-12.547,25.459-16.5l1.525,1.074-2.438,2.879ZM23.6.215a6.944,6.944,0,0,1-3.126-.677,5.058,5.058,0,0,1-2.143-1.987,5.922,5.922,0,0,1-.779-3.083,5.4,5.4,0,0,1,1.676-4.189A6.217,6.217,0,0,1,23.6-11.258a6.232,6.232,0,0,1,4.383,1.536,5.4,5.4,0,0,1,1.676,4.189,5.432,5.432,0,0,1-1.676,4.206A6.219,6.219,0,0,1,23.6.215Zm-.032-2.46a2.835,2.835,0,0,0,2.186-.9,3.378,3.378,0,0,0,.833-2.385,3.378,3.378,0,0,0-.833-2.385,2.835,2.835,0,0,0-2.186-.9,2.731,2.731,0,0,0-2.122.908,3.409,3.409,0,0,0-.822,2.379,3.409,3.409,0,0,0,.822,2.379A2.731,2.731,0,0,0,23.568-2.245Zm14.91-9.013a4.3,4.3,0,0,1,3.051.994,3.684,3.684,0,0,1,1.063,2.831V0h-3.1V-6.768a1.923,1.923,0,0,0-.553-1.525,2.084,2.084,0,0,0-1.423-.483,2.908,2.908,0,0,0-.924.14,2.373,2.373,0,0,0-.773.435,1.923,1.923,0,0,0-.553.833,3.85,3.85,0,0,0-.209,1.278V0H31.958V-11.043h3.094v1.225A4.255,4.255,0,0,1,38.479-11.258ZM50.585.2a5.9,5.9,0,0,1-4.265-1.59,5.491,5.491,0,0,1-1.654-4.146,5.479,5.479,0,0,1,1.649-4.146,5.918,5.918,0,0,1,4.27-1.579,5.884,5.884,0,0,1,3.577,1.063,4.748,4.748,0,0,1,1.848,3l-2.857.312a2.448,2.448,0,0,0-.924-1.45,2.809,2.809,0,0,0-1.676-.483,2.533,2.533,0,0,0-2.02.9,3.538,3.538,0,0,0-.773,2.385,3.542,3.542,0,0,0,.773,2.379,2.526,2.526,0,0,0,2.02.908,2.785,2.785,0,0,0,1.67-.483,2.505,2.505,0,0,0,.929-1.45l2.857.312a4.761,4.761,0,0,1-1.864,3A5.86,5.86,0,0,1,50.585.2ZM67.268-3a10.331,10.331,0,0,0,.269,2.7V0h-2.89L64.4-1.2A3.591,3.591,0,0,1,62.853-.14a5.7,5.7,0,0,1-2,.354,5.254,5.254,0,0,1-1.031-.1,3.506,3.506,0,0,1-.929-.328,2.82,2.82,0,0,1-.768-.575,2.52,2.52,0,0,1-.516-.875,3.488,3.488,0,0,1-.193-1.2,3.322,3.322,0,0,1,.2-1.2,2.807,2.807,0,0,1,.537-.9,3.258,3.258,0,0,1,.87-.655,6.658,6.658,0,0,1,1.1-.473,13.092,13.092,0,0,1,1.311-.344l1.815-.408a2,2,0,0,0,.822-.349.7.7,0,0,0,.242-.553A1.14,1.14,0,0,0,63.771-8.8a2.533,2.533,0,0,0-1.316-.322A1.894,1.894,0,0,0,60.3-7.434l-2.739-.494a3.708,3.708,0,0,1,1.6-2.519,6.362,6.362,0,0,1,3.47-.811q4.641,0,4.641,3.985ZM61.821-1.88a2.488,2.488,0,0,0,1.912-.8,3.372,3.372,0,0,0,.741-2.369l-2.621.741a3.1,3.1,0,0,0-1.1.451.927.927,0,0,0-.381.795,1.029,1.029,0,0,0,.408.875A1.689,1.689,0,0,0,61.821-1.88Zm15.426-9.163h3.276L75.818,0H73.133L68.481-11.043h3.255l2.75,7.552ZM86.851.215a6.944,6.944,0,0,1-3.126-.677,5.058,5.058,0,0,1-2.143-1.987A5.922,5.922,0,0,1,80.8-5.532a5.4,5.4,0,0,1,1.676-4.189,6.217,6.217,0,0,1,4.372-1.536,6.232,6.232,0,0,1,4.383,1.536,5.4,5.4,0,0,1,1.676,4.189,5.432,5.432,0,0,1-1.676,4.206A6.219,6.219,0,0,1,86.851.215Zm-.032-2.46A2.835,2.835,0,0,0,89-3.147a3.378,3.378,0,0,0,.833-2.385A3.378,3.378,0,0,0,89-7.917a2.835,2.835,0,0,0-2.186-.9,2.731,2.731,0,0,0-2.122.908,3.409,3.409,0,0,0-.822,2.379A3.409,3.409,0,0,0,84.7-3.153,2.731,2.731,0,0,0,86.818-2.245ZM105.918.2a5.9,5.9,0,0,1-4.265-1.59A5.491,5.491,0,0,1,100-5.532a5.479,5.479,0,0,1,1.649-4.146,5.918,5.918,0,0,1,4.27-1.579,5.884,5.884,0,0,1,3.577,1.063,4.748,4.748,0,0,1,1.848,3l-2.857.312a2.448,2.448,0,0,0-.924-1.45,2.809,2.809,0,0,0-1.676-.483,2.533,2.533,0,0,0-2.02.9,3.538,3.538,0,0,0-.773,2.385,3.542,3.542,0,0,0,.773,2.379,2.526,2.526,0,0,0,2.02.908,2.785,2.785,0,0,0,1.67-.483,2.505,2.505,0,0,0,.929-1.45l2.857.312a4.761,4.761,0,0,1-1.864,3A5.86,5.86,0,0,1,105.918.2ZM118.69.215a6.944,6.944,0,0,1-3.126-.677,5.058,5.058,0,0,1-2.143-1.987,5.922,5.922,0,0,1-.779-3.083,5.4,5.4,0,0,1,1.676-4.189,6.217,6.217,0,0,1,4.372-1.536,6.232,6.232,0,0,1,4.383,1.536,5.4,5.4,0,0,1,1.676,4.189,5.432,5.432,0,0,1-1.676,4.206A6.219,6.219,0,0,1,118.69.215Zm-.032-2.46a2.835,2.835,0,0,0,2.186-.9,3.378,3.378,0,0,0,.833-2.385,3.378,3.378,0,0,0-.833-2.385,2.835,2.835,0,0,0-2.186-.9,2.731,2.731,0,0,0-2.122.908,3.409,3.409,0,0,0-.822,2.379,3.409,3.409,0,0,0,.822,2.379A2.731,2.731,0,0,0,118.658-2.245Zm14.91-9.013a4.3,4.3,0,0,1,3.051.994,3.684,3.684,0,0,1,1.063,2.831V0h-3.1V-6.768a1.923,1.923,0,0,0-.553-1.525,2.084,2.084,0,0,0-1.423-.483,2.908,2.908,0,0,0-.924.14,2.373,2.373,0,0,0-.773.435,1.923,1.923,0,0,0-.553.833,3.85,3.85,0,0,0-.209,1.278V0h-3.094V-11.043h3.094v1.225A4.255,4.255,0,0,1,133.568-11.258Zm14.029.215h3.276L146.169,0h-2.686l-4.651-11.043h3.255l2.75,7.552Zm14.846,5.36-.032.741h-8.186a2.859,2.859,0,0,0,.881,2.02,2.817,2.817,0,0,0,1.944.7,2.715,2.715,0,0,0,1.456-.381,2.344,2.344,0,0,0,.929-1.112l2.836.419a4.821,4.821,0,0,1-1.934,2.589,5.749,5.749,0,0,1-3.266.924,5.978,5.978,0,0,1-4.3-1.52,5.546,5.546,0,0,1-1.6-4.216,5.579,5.579,0,0,1,1.6-4.216,5.8,5.8,0,0,1,4.2-1.542,5.543,5.543,0,0,1,3.964,1.407A5.52,5.52,0,0,1,162.443-5.683ZM157-9.088a2.445,2.445,0,0,0-2.686,2.127h5.07a2.326,2.326,0,0,0-.763-1.579A2.417,2.417,0,0,0,157-9.088ZM162.862,0,167.4-5.532l-4.533-5.511h3.867l2.535,3.48,2.557-3.48h3.835l-4.544,5.521L175.656,0h-3.835l-2.535-3.459L166.74,0ZM185.99-3a10.331,10.331,0,0,0,.269,2.7V0h-2.89l-.247-1.2A3.591,3.591,0,0,1,181.575-.14a5.7,5.7,0,0,1-2,.354,5.254,5.254,0,0,1-1.031-.1,3.506,3.506,0,0,1-.929-.328,2.82,2.82,0,0,1-.768-.575,2.52,2.52,0,0,1-.516-.875,3.488,3.488,0,0,1-.193-1.2,3.322,3.322,0,0,1,.2-1.2,2.807,2.807,0,0,1,.537-.9,3.258,3.258,0,0,1,.87-.655,6.658,6.658,0,0,1,1.1-.473,13.092,13.092,0,0,1,1.311-.344l1.815-.408a2,2,0,0,0,.822-.349.7.7,0,0,0,.242-.553,1.14,1.14,0,0,0-.542-1.063,2.533,2.533,0,0,0-1.316-.322,1.894,1.894,0,0,0-2.159,1.687l-2.739-.494a3.708,3.708,0,0,1,1.6-2.519,6.362,6.362,0,0,1,3.47-.811q4.641,0,4.641,3.985ZM180.544-1.88a2.488,2.488,0,0,0,1.912-.8,3.372,3.372,0,0,0,.741-2.369l-2.621.741a3.1,3.1,0,0,0-1.1.451.927.927,0,0,0-.381.795,1.029,1.029,0,0,0,.408.875A1.689,1.689,0,0,0,180.544-1.88ZM192.887.215a6.171,6.171,0,0,1-3.223-.773,3.269,3.269,0,0,1-1.579-2.3l2.589-.73a2.08,2.08,0,0,0,2.213,1.644,2.285,2.285,0,0,0,1.128-.252.879.879,0,0,0,.44-.854.9.9,0,0,0-.183-.569,1.446,1.446,0,0,0-.564-.408,7.026,7.026,0,0,0-.752-.29q-.371-.118-.983-.285t-1.021-.317a6.836,6.836,0,0,1-.972-.414,4.147,4.147,0,0,1-.806-.569,2.3,2.3,0,0,1-.6-.865,3.12,3.12,0,0,1-.209-1.182,2.821,2.821,0,0,1,1.2-2.471,5.352,5.352,0,0,1,3.131-.838,5.487,5.487,0,0,1,2.89.709,3.209,3.209,0,0,1,1.482,2.213l-2.4.537A1.876,1.876,0,0,0,192.7-9.2a2.153,2.153,0,0,0-1.085.247.794.794,0,0,0-.43.73.837.837,0,0,0,.064.333.659.659,0,0,0,.226.269,3.289,3.289,0,0,0,.312.2,2.35,2.35,0,0,0,.44.177q.29.091.483.14l.564.145.575.15q.591.161,1.037.322a6.072,6.072,0,0,1,.951.451,3.412,3.412,0,0,1,.833.65,2.9,2.9,0,0,1,.542.913,3.372,3.372,0,0,1,.215,1.23,3.322,3.322,0,0,1-.371,1.6,2.782,2.782,0,0,1-1.015,1.08,4.941,4.941,0,0,1-1.434.58A7.439,7.439,0,0,1,192.887.215Z" transform="translate(974 4700)" fill="#00223d"/>
  </g>
</svg>
