<svg xmlns="http://www.w3.org/2000/svg" width="1281.609" height="118.507" viewBox="0 0 1281.609 118.507">
  <g id="Grupo_16442" data-name="Grupo 16442" transform="translate(-393 -4337)">
    <text id="_1K_" data-name="1K =                             " transform="translate(393 4405)" fill="#1ec488" font-size="40" font-family="Times-Roman, Times"><tspan x="0" y="0" xml:space="preserve">1K =                             </tspan></text>
    <path id="Trazado_40550" data-name="Trazado 40550" d="M2066,372h620.276" transform="translate(-1548.714 4024)" fill="none" stroke="#1ec488" stroke-width="2"/>
    <text id="_6_62607015_x_10" data-name="6,62607015 x 10" transform="translate(676 4445)" fill="#1ec488" font-size="40" font-family="Times-Roman, Times"><tspan x="-135" y="0">6,62607015 x 10</tspan></text>
    <text id="_-34" data-name="-34" transform="translate(832 4421)" fill="#1ec488" font-size="23" font-family="Times-Roman, Times"><tspan x="-15.33" y="0">-34</tspan></text>
    <path id="Trazado_40563" data-name="Trazado 40563" d="M1977.038,327s17.567,21.1,0,51" transform="translate(-1117 4077)" fill="none" stroke="#1ec488" stroke-width="2"/>
    <text id="_1_380649_x_10" data-name="1,380649 x 10" transform="translate(672 4378)" fill="#1ec488" font-size="40" font-family="Times-Roman, Times"><tspan x="-115" y="0">1,380649 x 10</tspan></text>
    <text id="_-29" data-name="-29" transform="translate(807 4354)" fill="#1ec488" font-size="23" font-family="Times-Roman, Times"><tspan x="-15.33" y="0">-29</tspan></text>
    <path id="Trazado_40564" data-name="Trazado 40564" d="M1984.845,327s-17.567,21.1,0,51" transform="translate(-1459 4077)" fill="none" stroke="#1ec488" stroke-width="2"/>
    <text id="_9_192631770" data-name="9 192631770" transform="translate(1007 4445)" fill="#1ec488" font-size="40" font-family="Times-Roman, Times"><tspan x="-105" y="0">9 192631770</tspan></text>
    <path id="Trazado_40565" data-name="Trazado 40565" d="M1984.845,327s-17.567,21.1,0,51" transform="translate(-1096 4077)" fill="none" stroke="#1ec488" stroke-width="2"/>
    <path id="Trazado_40566" data-name="Trazado 40566" d="M1977.038,327s17.567,21.1,0,51" transform="translate(-859 4077)" fill="none" stroke="#1ec488" stroke-width="2"/>
    <path id="Trazado_40567" data-name="Trazado 40567" d="M2066,372h124.609" transform="translate(-913 4024)" fill="none" stroke="#1ec488" stroke-width="2"/>
    <text id="k" transform="translate(1223 4438)" fill="#1ec488" font-size="40" font-family="Times-Roman, Times"><tspan x="-10" y="0">k</tspan></text>
    <text id="_V" data-name="∆V" transform="translate(1201 4375)" fill="#1ec488" font-size="40" font-family="Times-Roman, Times"><tspan x="-22.236" y="0">∆v</tspan></text>
    <text id="Cs" transform="translate(1236 4375)" fill="#1ec488" font-size="20" font-family="Times-Roman, Times"><tspan x="-8.33" y="0">cs</tspan></text>
    <text id="H" transform="translate(1259 4375)" fill="#1ec488" font-size="40" font-family="Times-Roman, Times"><tspan x="-10" y="0">h</tspan></text>
    <text id="_" data-name="≈ " transform="translate(1312 4405)" fill="#1ec488" font-size="40" font-family="Times-Roman, Times"><tspan x="-15.977" y="0">≈ </tspan></text>
    <text id="_2_266_6653" data-name="2,266 6653" transform="translate(1433 4405)" fill="#1ec488" font-size="40" font-family="Times-Roman, Times"><tspan x="-90" y="0">2,266 6653</tspan></text>
    <path id="Trazado_40568" data-name="Trazado 40568" d="M2066,372h124.609" transform="translate(-516 4024)" fill="none" stroke="#1ec488" stroke-width="2"/>
    <text id="k-2" data-name="k" transform="translate(1619 4434)" fill="#1ec488" font-size="40" font-family="Times-Roman, Times"><tspan x="-10" y="0">k</tspan></text>
    <text id="_V-2" data-name="∆V" transform="translate(1589 4379)" fill="#1ec488" font-size="40" font-family="Times-Roman, Times"><tspan x="-22.236" y="0">∆v</tspan></text>
    <text id="Cs-2" data-name="Cs" transform="translate(1624 4379)" fill="#1ec488" font-size="20" font-family="Times-Roman, Times"><tspan x="-8.33" y="0">cs</tspan></text>
    <text id="H-2" data-name="H" transform="translate(1647 4379)" fill="#1ec488" font-size="40" font-family="Times-Roman, Times"><tspan x="-10" y="0">h</tspan></text>
  </g>
</svg>
