<svg xmlns="http://www.w3.org/2000/svg" width="1129.449" height="107.501" viewBox="0 0 1129.449 107.501">
  <g id="Grupo_16437" data-name="Grupo 16437" transform="translate(-397.434 -1483.656)">
    <path id="Trazado_40569" data-name="Trazado 40569" d="M11.836-26.836a.418.418,0,0,1,.088.146,1.526,1.526,0,0,1,.01.225V-2.949q0,1.5.8,1.914a8,8,0,0,0,2.988.488V0H4.707V-.586A6.454,6.454,0,0,0,7.793-1.23q.723-.527.723-2.285V-21.6a3.4,3.4,0,0,0-.234-1.426,1.01,1.01,0,0,0-1.016-.488,4.216,4.216,0,0,0-1.318.283q-.811.283-1.514.6v-.547L11.6-26.836ZM20.645-.508a4.465,4.465,0,0,0,2.031-.508,2.663,2.663,0,0,0,.781-2.266v-10.1a3.178,3.178,0,0,0-.381-1.895,1.569,1.569,0,0,0-1.26-.449,3.564,3.564,0,0,0-.615.039,3.279,3.279,0,0,0-.479.137v-.684l1.406-.469q.762-.254,2.5-.918t1.836-.664a.109.109,0,0,1,.117.1,2.274,2.274,0,0,1,.02.371v2.637a14.9,14.9,0,0,1,3.34-2.432,6.619,6.619,0,0,1,2.891-.674,4.034,4.034,0,0,1,3.2,1.367A5.935,5.935,0,0,1,37.07-14.9a16.29,16.29,0,0,1,2.52-2.168,6.859,6.859,0,0,1,3.789-1.211,4.1,4.1,0,0,1,4.2,2.559,12.673,12.673,0,0,1,.605,4.57v8.105A2.335,2.335,0,0,0,48.8-1.162a4.333,4.333,0,0,0,2.217.654V0H42.207V-.547a3.85,3.85,0,0,0,2.236-.684,3.088,3.088,0,0,0,.537-2.148V-11.8a7.115,7.115,0,0,0-.41-2.793,2.8,2.8,0,0,0-2.832-1.6,4.484,4.484,0,0,0-2.52.84,12.479,12.479,0,0,0-1.777,1.563v10A4.283,4.283,0,0,0,38-1.387a2.815,2.815,0,0,0,2.354.879V0H31.387V-.508a3.577,3.577,0,0,0,2.363-.9,6.408,6.408,0,0,0,.508-3.262v-5.469a14.644,14.644,0,0,0-.391-4.141,2.623,2.623,0,0,0-2.734-1.914,4.7,4.7,0,0,0-2.344.654,7.363,7.363,0,0,0-2.031,1.709V-3.145a3.075,3.075,0,0,0,.518,2.051,3.2,3.2,0,0,0,2.256.586V0H20.645ZM82.5-7.441v2.734H62.3V-7.441Zm0-8.066v2.734H62.3v-2.734ZM365.742-6.152h.645A10.2,10.2,0,0,0,367.6-2.734a4.432,4.432,0,0,0,4,2.188,3.215,3.215,0,0,0,2.314-.811,2.771,2.771,0,0,0,.85-2.1,2.891,2.891,0,0,0-.488-1.582,5.007,5.007,0,0,0-1.719-1.484l-2.187-1.25a12.47,12.47,0,0,1-3.535-2.6,4.564,4.564,0,0,1-1.133-3.086,4.619,4.619,0,0,1,1.563-3.594,5.648,5.648,0,0,1,3.926-1.406,7.626,7.626,0,0,1,2.275.391,10.543,10.543,0,0,0,1.4.391,1,1,0,0,0,.508-.1.818.818,0,0,0,.273-.312h.469l.137,5.449h-.605a9.035,9.035,0,0,0-1.055-2.949,3.876,3.876,0,0,0-3.5-1.953,2.79,2.79,0,0,0-2.148.84,2.8,2.8,0,0,0-.781,1.973q0,1.8,2.7,3.2l2.578,1.387q4.16,2.266,4.16,5.273a4.716,4.716,0,0,1-1.729,3.77A6.754,6.754,0,0,1,371.348.371a10.563,10.563,0,0,1-2.656-.391,12,12,0,0,0-1.758-.391.579.579,0,0,0-.41.166,1.153,1.153,0,0,0-.273.4h-.508Zm34.883-1.289v2.734h-20.2V-7.441Zm0-8.066v2.734h-20.2v-2.734Z" transform="translate(393 1541)" fill="#1ec488"/>
    <path id="Trazado_40550" data-name="Trazado 40550" d="M2066,372h221.379" transform="translate(-1559 1160)" fill="none" stroke="#1ec488" stroke-width="2"/>
    <path id="Trazado_40570" data-name="Trazado 40570" d="M3.623-17.637a4.667,4.667,0,0,1,3.438,1.074,3.073,3.073,0,0,1,1.055,2.09,1.849,1.849,0,0,1-.547,1.426,1.832,1.832,0,0,1-1.289.508,1.721,1.721,0,0,1-1.211-.449A1.452,1.452,0,0,1,4.58-14.1,2.289,2.289,0,0,1,4.9-15.2a2.286,2.286,0,0,0,.322-.762.7.7,0,0,0-.4-.6A2.549,2.549,0,0,0,3.545-16.8Q.4-16.8-1.914-13.223a13.588,13.588,0,0,0-2.314,7.5,5.65,5.65,0,0,0,.938,3.457A3.291,3.291,0,0,0-.479-1.016a5.512,5.512,0,0,0,2.92-.869A11.541,11.541,0,0,0,5.049-4.1l.137-.156.566.43A14.286,14.286,0,0,1,3.115-1.152,8.315,8.315,0,0,1-1.865.469,5.641,5.641,0,0,1-6.1-1.2,6.269,6.269,0,0,1-7.725-5.762a11.532,11.532,0,0,1,3.613-8.164Q-.537-17.637,3.623-17.637ZM-98.809,69.551a127.077,127.077,0,0,0,9.707-10.9,11.487,11.487,0,0,0,2.559-6.777,5.855,5.855,0,0,0-1.562-4.4,5.175,5.175,0,0,0-3.73-1.514,5.419,5.419,0,0,0-4.336,1.953,11.334,11.334,0,0,0-1.758,3.3l-.84-.176q.977-4.492,3.311-6.24a8.2,8.2,0,0,1,5.01-1.748,7.15,7.15,0,0,1,5.342,2.08,6.988,6.988,0,0,1,2.041,5.088,10.213,10.213,0,0,1-2.207,6.172,132.9,132.9,0,0,1-9.59,10.566H-85.9a5.557,5.557,0,0,0,2.637-.449,5.857,5.857,0,0,0,1.719-2.187l.508.234L-83.2,70H-98.809ZM-70.02,58.809a5.9,5.9,0,0,0,2.744-.742q1.416-.742,1.611-1.25a7.816,7.816,0,0,0,.137-1.455q.059-1.26.059-2.041a13.889,13.889,0,0,0-1.367-6.6,4.33,4.33,0,0,0-4-2.539,3.594,3.594,0,0,0-3.1,1.738,9.292,9.292,0,0,0-1.182,5.2,12.567,12.567,0,0,0,1.1,5.273A4.012,4.012,0,0,0-70.02,58.809Zm-.547-15.742a7.576,7.576,0,0,1,6.641,3.428,13.243,13.243,0,0,1,2.344,7.646A17.608,17.608,0,0,1-62.7,60.176a16.822,16.822,0,0,1-3.242,5.469,14.952,14.952,0,0,1-6.289,4.121A25.871,25.871,0,0,1-77.6,70.938l-.2-.781a24.7,24.7,0,0,0,3.379-1,12,12,0,0,0,3.887-2.344,16.274,16.274,0,0,0,3.311-4.4,16.064,16.064,0,0,0,1.553-4.072l-.684.508a8.412,8.412,0,0,1-3.4,1.5,8.31,8.31,0,0,1-1.855.234,6.468,6.468,0,0,1-5.264-2.354,8.538,8.538,0,0,1-1.943-5.615,10.15,10.15,0,0,1,2.314-6.855A7.462,7.462,0,0,1-70.566,43.066ZM-50.02,58.809a5.9,5.9,0,0,0,2.744-.742q1.416-.742,1.611-1.25a7.817,7.817,0,0,0,.137-1.455q.059-1.26.059-2.041a13.889,13.889,0,0,0-1.367-6.6,4.33,4.33,0,0,0-4-2.539,3.594,3.594,0,0,0-3.1,1.738,9.292,9.292,0,0,0-1.182,5.2,12.567,12.567,0,0,0,1.1,5.273A4.012,4.012,0,0,0-50.02,58.809Zm-.547-15.742a7.576,7.576,0,0,1,6.641,3.428,13.243,13.243,0,0,1,2.344,7.646A17.608,17.608,0,0,1-42.7,60.176a16.822,16.822,0,0,1-3.242,5.469,14.952,14.952,0,0,1-6.289,4.121A25.871,25.871,0,0,1-57.6,70.938l-.2-.781a24.7,24.7,0,0,0,3.379-1,12,12,0,0,0,3.887-2.344,16.275,16.275,0,0,0,3.311-4.4,16.064,16.064,0,0,0,1.553-4.072l-.684.508a8.412,8.412,0,0,1-3.4,1.5,8.31,8.31,0,0,1-1.855.234,6.468,6.468,0,0,1-5.264-2.354,8.538,8.538,0,0,1-1.943-5.615,10.15,10.15,0,0,1,2.314-6.855A7.462,7.462,0,0,1-50.566,43.066Zm38.516.469v.645l-8.477,26.191h-2.578l7.91-23.887h-8.516a4.6,4.6,0,0,0-2.725.625,10.609,10.609,0,0,0-2.1,2.617l-.684-.312q1.27-3.125,1.572-3.857t.791-2.021ZM-.02,58.809a5.9,5.9,0,0,0,2.744-.742q1.416-.742,1.611-1.25a7.817,7.817,0,0,0,.137-1.455q.059-1.26.059-2.041a13.889,13.889,0,0,0-1.367-6.6,4.33,4.33,0,0,0-4-2.539,3.594,3.594,0,0,0-3.1,1.738,9.292,9.292,0,0,0-1.182,5.2,12.567,12.567,0,0,0,1.1,5.273A4.012,4.012,0,0,0-.02,58.809ZM-.566,43.066a7.576,7.576,0,0,1,6.641,3.428,13.243,13.243,0,0,1,2.344,7.646A17.608,17.608,0,0,1,7.3,60.176a16.822,16.822,0,0,1-3.242,5.469,14.952,14.952,0,0,1-6.289,4.121A25.871,25.871,0,0,1-7.6,70.938l-.2-.781a24.7,24.7,0,0,0,3.379-1A12,12,0,0,0-.527,66.816a16.275,16.275,0,0,0,3.311-4.4A16.064,16.064,0,0,0,4.336,58.34l-.684.508a8.412,8.412,0,0,1-3.4,1.5,8.31,8.31,0,0,1-1.855.234,6.468,6.468,0,0,1-5.264-2.354,8.538,8.538,0,0,1-1.943-5.615,10.15,10.15,0,0,1,2.314-6.855A7.462,7.462,0,0,1-.566,43.066ZM11.191,69.551a127.078,127.078,0,0,0,9.707-10.9,11.487,11.487,0,0,0,2.559-6.777,5.855,5.855,0,0,0-1.562-4.4,5.175,5.175,0,0,0-3.73-1.514,5.419,5.419,0,0,0-4.336,1.953,11.334,11.334,0,0,0-1.758,3.3l-.84-.176q.977-4.492,3.311-6.24a8.2,8.2,0,0,1,5.01-1.748,7.15,7.15,0,0,1,5.342,2.08,6.988,6.988,0,0,1,2.041,5.088,10.213,10.213,0,0,1-2.207,6.172,132.9,132.9,0,0,1-9.59,10.566H24.1a5.557,5.557,0,0,0,2.637-.449,5.857,5.857,0,0,0,1.719-2.187l.508.234L26.8,70H11.191ZM51.66,47.188,42.07,60.742h9.59Zm1.289-4.023H54.8V60.742h4.082v2.6H54.8V70H51.7V63.34H40.449v-2.6ZM62.988,66.426a5.667,5.667,0,0,1,2.92,1.26,5.651,5.651,0,0,0,2.783,1.26,5.021,5.021,0,0,0,3.926-1.982A7.281,7.281,0,0,0,74.3,62.09q0-5.059-5.391-7.285a14.691,14.691,0,0,0-5.566-1.23,2.824,2.824,0,0,1-.537-.029.639.639,0,0,1-.264-.205q.039-.156.068-.264a1.893,1.893,0,0,1,.068-.205l4.258-9.336h8.379a1.819,1.819,0,0,0,.967-.215,5.043,5.043,0,0,0,.889-.8l.313.273-1.523,3.613q-.078.176-.43.225a5.551,5.551,0,0,1-.762.049H67.207L65.547,50.1a35.665,35.665,0,0,1,4.688,1.035,10.551,10.551,0,0,1,4.082,2.422,9.494,9.494,0,0,1,2.129,3.115,9.873,9.873,0,0,1-2.354,10.869,10.916,10.916,0,0,1-7.783,2.891,10.5,10.5,0,0,1-3.086-.371q-1.953-.605-1.953-2.168a1.438,1.438,0,0,1,.42-1.025A1.721,1.721,0,0,1,62.988,66.426Zm27.07,2.91a4.147,4.147,0,0,0,4.551-4.375,4.872,4.872,0,0,0-1.221-3.447,36.218,36.218,0,0,0-5.01-3.994,6.238,6.238,0,0,0-2.441,2.734,7.835,7.835,0,0,0-.762,3.242,6.259,6.259,0,0,0,1.377,4.258A4.443,4.443,0,0,0,90.059,69.336Zm.254-14.922a12.836,12.836,0,0,0,2.539-2.168,5.61,5.61,0,0,0,1.211-3.633,4.609,4.609,0,0,0-1.143-3.154,4.376,4.376,0,0,0-3.467-1.3,4.1,4.1,0,0,0-2.969,1.133,3.687,3.687,0,0,0-1.172,2.754,5.077,5.077,0,0,0,1.377,3.408A15.808,15.808,0,0,0,90.313,54.414ZM87.3,56.68a22.068,22.068,0,0,1-3.516-3.3,6.626,6.626,0,0,1-1.445-4.141,5.516,5.516,0,0,1,2.139-4.375,8.346,8.346,0,0,1,5.557-1.8,7.117,7.117,0,0,1,5,1.7,5.205,5.205,0,0,1,1.855,3.945A5.557,5.557,0,0,1,95,52.813,18.034,18.034,0,0,1,91.465,55.2a25.509,25.509,0,0,1,4.756,4.287,6.762,6.762,0,0,1,1.436,4.307,6.117,6.117,0,0,1-2.119,4.727,8.144,8.144,0,0,1-5.674,1.914A8.632,8.632,0,0,1,84.4,68.662,5.613,5.613,0,0,1,82.129,64a6.626,6.626,0,0,1,1.582-4.375A17.955,17.955,0,0,1,87.3,56.68Z" transform="translate(613 1511)" fill="#1ec488"/>
    <path id="Trazado_40551" data-name="Trazado 40551" d="M2066,372h209.836" transform="translate(-1235 1161)" fill="none" stroke="#1ec488" stroke-width="2"/>
    <path id="Trazado_40571" data-name="Trazado 40571" d="M-90.02-11.191a5.9,5.9,0,0,0,2.744-.742q1.416-.742,1.611-1.25a7.816,7.816,0,0,0,.137-1.455q.059-1.26.059-2.041a13.889,13.889,0,0,0-1.367-6.6,4.33,4.33,0,0,0-4-2.539,3.594,3.594,0,0,0-3.1,1.738,9.292,9.292,0,0,0-1.182,5.2,12.567,12.567,0,0,0,1.1,5.273A4.012,4.012,0,0,0-90.02-11.191Zm-.547-15.742a7.576,7.576,0,0,1,6.641,3.428,13.243,13.243,0,0,1,2.344,7.646A17.608,17.608,0,0,1-82.7-9.824a16.822,16.822,0,0,1-3.242,5.469A14.952,14.952,0,0,1-92.227-.234,25.871,25.871,0,0,1-97.6.938l-.2-.781a24.7,24.7,0,0,0,3.379-1,12,12,0,0,0,3.887-2.344,16.274,16.274,0,0,0,3.311-4.4,16.064,16.064,0,0,0,1.553-4.072l-.684.508a8.412,8.412,0,0,1-3.4,1.5,8.31,8.31,0,0,1-1.855.234,6.468,6.468,0,0,1-5.264-2.354,8.538,8.538,0,0,1-1.943-5.615,10.15,10.15,0,0,1,2.314-6.855A7.462,7.462,0,0,1-90.566-26.934Zm22.4.1a.418.418,0,0,1,.088.146,1.527,1.527,0,0,1,.01.225V-2.949q0,1.5.8,1.914a8,8,0,0,0,2.988.488V0H-75.293V-.586a6.454,6.454,0,0,0,3.086-.645q.723-.527.723-2.285V-21.6a3.4,3.4,0,0,0-.234-1.426,1.01,1.01,0,0,0-1.016-.488,4.216,4.216,0,0,0-1.318.283q-.811.283-1.514.6v-.547l7.168-3.652ZM-50.02-11.191a5.9,5.9,0,0,0,2.744-.742q1.416-.742,1.611-1.25a7.817,7.817,0,0,0,.137-1.455q.059-1.26.059-2.041a13.889,13.889,0,0,0-1.367-6.6,4.33,4.33,0,0,0-4-2.539,3.594,3.594,0,0,0-3.1,1.738,9.292,9.292,0,0,0-1.182,5.2,12.567,12.567,0,0,0,1.1,5.273A4.012,4.012,0,0,0-50.02-11.191Zm-.547-15.742a7.576,7.576,0,0,1,6.641,3.428,13.243,13.243,0,0,1,2.344,7.646A17.608,17.608,0,0,1-42.7-9.824a16.822,16.822,0,0,1-3.242,5.469A14.952,14.952,0,0,1-52.227-.234,25.871,25.871,0,0,1-57.6.938l-.2-.781a24.7,24.7,0,0,0,3.379-1,12,12,0,0,0,3.887-2.344,16.275,16.275,0,0,0,3.311-4.4,16.064,16.064,0,0,0,1.553-4.072l-.684.508a8.412,8.412,0,0,1-3.4,1.5,8.31,8.31,0,0,1-1.855.234,6.468,6.468,0,0,1-5.264-2.354,8.538,8.538,0,0,1-1.943-5.615,10.15,10.15,0,0,1,2.314-6.855A7.462,7.462,0,0,1-50.566-26.934ZM-38.809-.449a127.078,127.078,0,0,0,9.707-10.9,11.487,11.487,0,0,0,2.559-6.777,5.855,5.855,0,0,0-1.562-4.4,5.175,5.175,0,0,0-3.73-1.514,5.419,5.419,0,0,0-4.336,1.953,11.334,11.334,0,0,0-1.758,3.3l-.84-.176q.977-4.492,3.311-6.24a8.2,8.2,0,0,1,5.01-1.748,7.15,7.15,0,0,1,5.342,2.08,6.988,6.988,0,0,1,2.041,5.088,10.213,10.213,0,0,1-2.207,6.172,132.9,132.9,0,0,1-9.59,10.566H-25.9A5.557,5.557,0,0,0-23.262-3.5a5.857,5.857,0,0,0,1.719-2.187l.508.234L-23.2,0H-38.809Zm37.52-8.437A10.06,10.06,0,0,1-3.584-2.441,7.283,7.283,0,0,1-9.551.43a8.239,8.239,0,0,1-6.26-3.223,12.548,12.548,0,0,1-2.822-8.574A15.414,15.414,0,0,1-13.164-23.2,16.532,16.532,0,0,1-2.187-27.344l.1.645A19.3,19.3,0,0,0-6.3-25.479,10.2,10.2,0,0,0-9.453-23.32a16.712,16.712,0,0,0-2.676,3.574,15.135,15.135,0,0,0-1.719,4.3,14.357,14.357,0,0,1,2.09-1.094,8.407,8.407,0,0,1,3.145-.625A7.018,7.018,0,0,1-3.4-15.02,8.389,8.389,0,0,1-1.289-8.887Zm-3.574,1.5a12.128,12.128,0,0,0-.82-4.609,4.755,4.755,0,0,0-4.648-3.359q-3.027,0-4.023,1.8a7.7,7.7,0,0,0-.586,3.516,15.167,15.167,0,0,0,1.357,6.23A4.492,4.492,0,0,0-9.3-.762,3.556,3.556,0,0,0-5.918-2.744,9.735,9.735,0,0,0-4.863-7.383ZM3.105-3.4A5.871,5.871,0,0,1,5.947-2.285a5.965,5.965,0,0,0,3,1.113,4.671,4.671,0,0,0,4.063-1.846,6.73,6.73,0,0,0,1.328-4.014A6.379,6.379,0,0,0,13.262-10.7q-1.816-2.676-6.133-2.676-.254,0-.488.01t-.547.049l-.039-.508a16.926,16.926,0,0,0,4.922-2.6,4.743,4.743,0,0,0,1.8-3.867,3.877,3.877,0,0,0-1.416-3.242,5.088,5.088,0,0,0-3.232-1.113,5.3,5.3,0,0,0-3.789,1.582A12.091,12.091,0,0,0,2.4-20.41L1.8-20.547a8.962,8.962,0,0,1,2.91-4.746A7.454,7.454,0,0,1,9.629-27.07a6.225,6.225,0,0,1,4.619,1.641,5.219,5.219,0,0,1,1.631,3.789,5.244,5.244,0,0,1-1.348,3.477,12.5,12.5,0,0,1-2.363,2.012,10.087,10.087,0,0,1,3.008,1.875,6.906,6.906,0,0,1,2.129,5.2,8.859,8.859,0,0,1-2.92,6.543Q11.465.293,6.074.293A5.9,5.9,0,0,1,2.705-.42a1.964,1.964,0,0,1-.967-1.533,1.7,1.7,0,0,1,.322-.977A1.177,1.177,0,0,1,3.105-3.4Zm28.73-23.437a.418.418,0,0,1,.088.146,1.526,1.526,0,0,1,.01.225V-2.949q0,1.5.8,1.914a8,8,0,0,0,2.988.488V0H24.707V-.586a6.454,6.454,0,0,0,3.086-.645q.723-.527.723-2.285V-21.6a3.4,3.4,0,0,0-.234-1.426,1.01,1.01,0,0,0-1.016-.488,4.216,4.216,0,0,0-1.318.283q-.811.283-1.514.6v-.547L31.6-26.836Zm26.113.371v.645L49.473.371H46.895L54.8-23.516H46.289a4.6,4.6,0,0,0-2.725.625,10.609,10.609,0,0,0-2.1,2.617l-.684-.312q1.27-3.125,1.572-3.857t.791-2.021Zm20,0v.645L69.473.371H66.895L74.8-23.516H66.289a4.6,4.6,0,0,0-2.725.625,10.609,10.609,0,0,0-2.1,2.617l-.684-.312q1.27-3.125,1.572-3.857t.791-2.021ZM89.57-.723q2.871,0,3.945-3.145a29.618,29.618,0,0,0,1.074-9.1,35.524,35.524,0,0,0-.645-7.578q-1.211-5.273-4.531-5.273t-4.551,5.43a36.267,36.267,0,0,0-.645,7.617,30.326,30.326,0,0,0,.664,7.09Q86.133-.723,89.57-.723Zm-.059-26.152q4.492,0,6.973,4.707a18.755,18.755,0,0,1,1.973,8.75,21.884,21.884,0,0,1-1.211,7.324Q94.961.371,89.336.371a7.481,7.481,0,0,1-6.328-3.5q-2.656-3.73-2.656-10.137a19.553,19.553,0,0,1,1.777-8.672Q84.531-26.875,89.512-26.875ZM-98.809,69.551a127.077,127.077,0,0,0,9.707-10.9,11.487,11.487,0,0,0,2.559-6.777,5.855,5.855,0,0,0-1.562-4.4,5.175,5.175,0,0,0-3.73-1.514,5.419,5.419,0,0,0-4.336,1.953,11.334,11.334,0,0,0-1.758,3.3l-.84-.176q.977-4.492,3.311-6.24a8.2,8.2,0,0,1,5.01-1.748,7.15,7.15,0,0,1,5.342,2.08,6.988,6.988,0,0,1,2.041,5.088,10.213,10.213,0,0,1-2.207,6.172,132.9,132.9,0,0,1-9.59,10.566H-85.9a5.557,5.557,0,0,0,2.637-.449,5.857,5.857,0,0,0,1.719-2.187l.508.234L-83.2,70H-98.809ZM-70.02,58.809a5.9,5.9,0,0,0,2.744-.742q1.416-.742,1.611-1.25a7.816,7.816,0,0,0,.137-1.455q.059-1.26.059-2.041a13.889,13.889,0,0,0-1.367-6.6,4.33,4.33,0,0,0-4-2.539,3.594,3.594,0,0,0-3.1,1.738,9.292,9.292,0,0,0-1.182,5.2,12.567,12.567,0,0,0,1.1,5.273A4.012,4.012,0,0,0-70.02,58.809Zm-.547-15.742a7.576,7.576,0,0,1,6.641,3.428,13.243,13.243,0,0,1,2.344,7.646A17.608,17.608,0,0,1-62.7,60.176a16.822,16.822,0,0,1-3.242,5.469,14.952,14.952,0,0,1-6.289,4.121A25.871,25.871,0,0,1-77.6,70.938l-.2-.781a24.7,24.7,0,0,0,3.379-1,12,12,0,0,0,3.887-2.344,16.274,16.274,0,0,0,3.311-4.4,16.064,16.064,0,0,0,1.553-4.072l-.684.508a8.412,8.412,0,0,1-3.4,1.5,8.31,8.31,0,0,1-1.855.234,6.468,6.468,0,0,1-5.264-2.354,8.538,8.538,0,0,1-1.943-5.615,10.15,10.15,0,0,1,2.314-6.855A7.462,7.462,0,0,1-70.566,43.066ZM-50.02,58.809a5.9,5.9,0,0,0,2.744-.742q1.416-.742,1.611-1.25a7.817,7.817,0,0,0,.137-1.455q.059-1.26.059-2.041a13.889,13.889,0,0,0-1.367-6.6,4.33,4.33,0,0,0-4-2.539,3.594,3.594,0,0,0-3.1,1.738,9.292,9.292,0,0,0-1.182,5.2,12.567,12.567,0,0,0,1.1,5.273A4.012,4.012,0,0,0-50.02,58.809Zm-.547-15.742a7.576,7.576,0,0,1,6.641,3.428,13.243,13.243,0,0,1,2.344,7.646A17.608,17.608,0,0,1-42.7,60.176a16.822,16.822,0,0,1-3.242,5.469,14.952,14.952,0,0,1-6.289,4.121A25.871,25.871,0,0,1-57.6,70.938l-.2-.781a24.7,24.7,0,0,0,3.379-1,12,12,0,0,0,3.887-2.344,16.275,16.275,0,0,0,3.311-4.4,16.064,16.064,0,0,0,1.553-4.072l-.684.508a8.412,8.412,0,0,1-3.4,1.5,8.31,8.31,0,0,1-1.855.234,6.468,6.468,0,0,1-5.264-2.354,8.538,8.538,0,0,1-1.943-5.615,10.15,10.15,0,0,1,2.314-6.855A7.462,7.462,0,0,1-50.566,43.066Zm38.516.469v.645l-8.477,26.191h-2.578l7.91-23.887h-8.516a4.6,4.6,0,0,0-2.725.625,10.609,10.609,0,0,0-2.1,2.617l-.684-.312q1.27-3.125,1.572-3.857t.791-2.021ZM-.02,58.809a5.9,5.9,0,0,0,2.744-.742q1.416-.742,1.611-1.25a7.817,7.817,0,0,0,.137-1.455q.059-1.26.059-2.041a13.889,13.889,0,0,0-1.367-6.6,4.33,4.33,0,0,0-4-2.539,3.594,3.594,0,0,0-3.1,1.738,9.292,9.292,0,0,0-1.182,5.2,12.567,12.567,0,0,0,1.1,5.273A4.012,4.012,0,0,0-.02,58.809ZM-.566,43.066a7.576,7.576,0,0,1,6.641,3.428,13.243,13.243,0,0,1,2.344,7.646A17.608,17.608,0,0,1,7.3,60.176a16.822,16.822,0,0,1-3.242,5.469,14.952,14.952,0,0,1-6.289,4.121A25.871,25.871,0,0,1-7.6,70.938l-.2-.781a24.7,24.7,0,0,0,3.379-1A12,12,0,0,0-.527,66.816a16.275,16.275,0,0,0,3.311-4.4A16.064,16.064,0,0,0,4.336,58.34l-.684.508a8.412,8.412,0,0,1-3.4,1.5,8.31,8.31,0,0,1-1.855.234,6.468,6.468,0,0,1-5.264-2.354,8.538,8.538,0,0,1-1.943-5.615,10.15,10.15,0,0,1,2.314-6.855A7.462,7.462,0,0,1-.566,43.066ZM11.191,69.551a127.078,127.078,0,0,0,9.707-10.9,11.487,11.487,0,0,0,2.559-6.777,5.855,5.855,0,0,0-1.562-4.4,5.175,5.175,0,0,0-3.73-1.514,5.419,5.419,0,0,0-4.336,1.953,11.334,11.334,0,0,0-1.758,3.3l-.84-.176q.977-4.492,3.311-6.24a8.2,8.2,0,0,1,5.01-1.748,7.15,7.15,0,0,1,5.342,2.08,6.988,6.988,0,0,1,2.041,5.088,10.213,10.213,0,0,1-2.207,6.172,132.9,132.9,0,0,1-9.59,10.566H24.1a5.557,5.557,0,0,0,2.637-.449,5.857,5.857,0,0,0,1.719-2.187l.508.234L26.8,70H11.191ZM51.66,47.188,42.07,60.742h9.59Zm1.289-4.023H54.8V60.742h4.082v2.6H54.8V70H51.7V63.34H40.449v-2.6ZM62.988,66.426a5.667,5.667,0,0,1,2.92,1.26,5.651,5.651,0,0,0,2.783,1.26,5.021,5.021,0,0,0,3.926-1.982A7.281,7.281,0,0,0,74.3,62.09q0-5.059-5.391-7.285a14.691,14.691,0,0,0-5.566-1.23,2.824,2.824,0,0,1-.537-.029.639.639,0,0,1-.264-.205q.039-.156.068-.264a1.893,1.893,0,0,1,.068-.205l4.258-9.336h8.379a1.819,1.819,0,0,0,.967-.215,5.043,5.043,0,0,0,.889-.8l.313.273-1.523,3.613q-.078.176-.43.225a5.551,5.551,0,0,1-.762.049H67.207L65.547,50.1a35.665,35.665,0,0,1,4.688,1.035,10.551,10.551,0,0,1,4.082,2.422,9.494,9.494,0,0,1,2.129,3.115,9.873,9.873,0,0,1-2.354,10.869,10.916,10.916,0,0,1-7.783,2.891,10.5,10.5,0,0,1-3.086-.371q-1.953-.605-1.953-2.168a1.438,1.438,0,0,1,.42-1.025A1.721,1.721,0,0,1,62.988,66.426Zm27.07,2.91a4.147,4.147,0,0,0,4.551-4.375,4.872,4.872,0,0,0-1.221-3.447,36.218,36.218,0,0,0-5.01-3.994,6.238,6.238,0,0,0-2.441,2.734,7.835,7.835,0,0,0-.762,3.242,6.259,6.259,0,0,0,1.377,4.258A4.443,4.443,0,0,0,90.059,69.336Zm.254-14.922a12.836,12.836,0,0,0,2.539-2.168,5.61,5.61,0,0,0,1.211-3.633,4.609,4.609,0,0,0-1.143-3.154,4.376,4.376,0,0,0-3.467-1.3,4.1,4.1,0,0,0-2.969,1.133,3.687,3.687,0,0,0-1.172,2.754,5.077,5.077,0,0,0,1.377,3.408A15.808,15.808,0,0,0,90.313,54.414ZM87.3,56.68a22.068,22.068,0,0,1-3.516-3.3,6.626,6.626,0,0,1-1.445-4.141,5.516,5.516,0,0,1,2.139-4.375,8.346,8.346,0,0,1,5.557-1.8,7.117,7.117,0,0,1,5,1.7,5.205,5.205,0,0,1,1.855,3.945A5.557,5.557,0,0,1,95,52.813,18.034,18.034,0,0,1,91.465,55.2a25.509,25.509,0,0,1,4.756,4.287,6.762,6.762,0,0,1,1.436,4.307,6.117,6.117,0,0,1-2.119,4.727,8.144,8.144,0,0,1-5.674,1.914A8.632,8.632,0,0,1,84.4,68.662,5.613,5.613,0,0,1,82.129,64a6.626,6.626,0,0,1,1.582-4.375A17.955,17.955,0,0,1,87.3,56.68Z" transform="translate(932 1511)" fill="#1ec488"/>
    <path id="Trazado_40552" data-name="Trazado 40552" d="M2066,372h106.883" transform="translate(-1007 1161)" fill="none" stroke="#1ec488" stroke-width="2"/>
    <path id="Trazado_40572" data-name="Trazado 40572" d="M3.623-17.637a4.667,4.667,0,0,1,3.438,1.074,3.073,3.073,0,0,1,1.055,2.09,1.849,1.849,0,0,1-.547,1.426,1.832,1.832,0,0,1-1.289.508,1.721,1.721,0,0,1-1.211-.449A1.452,1.452,0,0,1,4.58-14.1,2.289,2.289,0,0,1,4.9-15.2a2.286,2.286,0,0,0,.322-.762.7.7,0,0,0-.4-.6A2.549,2.549,0,0,0,3.545-16.8Q.4-16.8-1.914-13.223a13.588,13.588,0,0,0-2.314,7.5,5.65,5.65,0,0,0,.938,3.457A3.291,3.291,0,0,0-.479-1.016a5.512,5.512,0,0,0,2.92-.869A11.541,11.541,0,0,0,5.049-4.1l.137-.156.566.43A14.286,14.286,0,0,1,3.115-1.152,8.315,8.315,0,0,1-1.865.469,5.641,5.641,0,0,1-6.1-1.2,6.269,6.269,0,0,1-7.725-5.762a11.532,11.532,0,0,1,3.613-8.164Q-.537-17.637,3.623-17.637Z" transform="translate(1108 1511)" fill="#1ec488"/>
    <path id="Trazado_40573" data-name="Trazado 40573" d="M.068-1.8-7.979-21.016-16.143-1.8ZM5.537,0H-18.916L-7.1-27.266h.781ZM10.83-18.145v.605a5.146,5.146,0,0,0-1.436.313.847.847,0,0,0-.42.859,2,2,0,0,0,.088.6q.088.283.3.83l4.063,10.1,3.516-8.945q.254-.645.479-1.348a3.871,3.871,0,0,0,.225-1.074,1.128,1.128,0,0,0-.723-1.094,4.019,4.019,0,0,0-1.172-.234v-.605H21.3v.605a1.811,1.811,0,0,0-1.377.635A13.475,13.475,0,0,0,18.7-14.336L13.057-.273A2.95,2.95,0,0,1,12.8.234a.317.317,0,0,1-.273.137A.392.392,0,0,1,12.2.146,6,6,0,0,1,11.9-.41l-5.977-14.3A5.72,5.72,0,0,0,4.385-17.07a3.107,3.107,0,0,0-1.426-.469v-.605Z" transform="translate(1108 1575)" fill="#1ec488"/>
    <path id="Trazado_40574" data-name="Trazado 40574" d="M-3.359-9.209a3.531,3.531,0,0,1,2.1.63A1.742,1.742,0,0,1-.371-7.2.938.938,0,0,1-.6-6.6a.838.838,0,0,1-.693.278.867.867,0,0,1-.6-.234,1.358,1.358,0,0,1-.376-.684l-.117-.469a1.188,1.188,0,0,0-.439-.732,1.563,1.563,0,0,0-.85-.205,2.316,2.316,0,0,0-1.88.972,4.053,4.053,0,0,0-.767,2.583,4.415,4.415,0,0,0,.845,2.646A2.668,2.668,0,0,0-3.193-1.27a2.731,2.731,0,0,0,1.807-.664A6.2,6.2,0,0,0-.371-3.145l.273.166A7.742,7.742,0,0,1-1.27-1.123,3.59,3.59,0,0,1-4,.186a3.663,3.663,0,0,1-2.7-1.2A4.47,4.47,0,0,1-7.871-4.277,5.088,5.088,0,0,1-6.592-7.754,4.119,4.119,0,0,1-3.359-9.209ZM1.582-3.076H1.9A5.1,5.1,0,0,0,2.51-1.367a2.216,2.216,0,0,0,2,1.094A1.607,1.607,0,0,0,5.669-.679a1.386,1.386,0,0,0,.425-1.05A1.446,1.446,0,0,0,5.85-2.52a2.5,2.5,0,0,0-.859-.742L3.9-3.887a6.235,6.235,0,0,1-1.768-1.3,2.282,2.282,0,0,1-.566-1.543,2.31,2.31,0,0,1,.781-1.8,2.824,2.824,0,0,1,1.963-.7,3.813,3.813,0,0,1,1.138.2,5.272,5.272,0,0,0,.7.2A.5.5,0,0,0,6.4-8.887a.409.409,0,0,0,.137-.156h.234l.068,2.725h-.3a4.518,4.518,0,0,0-.527-1.475A1.938,1.938,0,0,0,4.258-8.77a1.4,1.4,0,0,0-1.074.42,1.4,1.4,0,0,0-.391.986q0,.9,1.348,1.6l1.289.693Q7.51-3.936,7.51-2.432A2.358,2.358,0,0,1,6.646-.547,3.377,3.377,0,0,1,4.385.186a5.282,5.282,0,0,1-1.328-.2,6,6,0,0,0-.879-.2.289.289,0,0,0-.205.083.577.577,0,0,0-.137.2H1.582Z" transform="translate(1142 1575)" fill="#1ec488"/>
    <path id="Trazado_40575" data-name="Trazado 40575" d="M-10.2-14.766a10.373,10.373,0,0,1,2.51-1.748A6.337,6.337,0,0,1-4.9-17.129,13.525,13.525,0,0,1,.146-15.664,13.545,13.545,0,0,0,4.785-14.2a5.736,5.736,0,0,0,3.037-.85,9.531,9.531,0,0,0,2.354-1.982v3.34a11.454,11.454,0,0,1-2.129,1.426,7.026,7.026,0,0,1-3.2.8A13.213,13.213,0,0,1-.283-12.93a13.059,13.059,0,0,0-4.678-1.465,5.6,5.6,0,0,0-3.145.938,12.421,12.421,0,0,0-2.09,1.895Zm0,8.242a10.373,10.373,0,0,1,2.51-1.748A6.337,6.337,0,0,1-4.9-8.887,13.525,13.525,0,0,1,.146-7.422,13.545,13.545,0,0,0,4.785-5.957a5.736,5.736,0,0,0,3.037-.85,9.531,9.531,0,0,0,2.354-1.982v3.34A12.436,12.436,0,0,1,7.734-3.867a6.452,6.452,0,0,1-2.891.645A13.147,13.147,0,0,1-.273-4.687,12.984,12.984,0,0,0-4.961-6.152a5.5,5.5,0,0,0-3.105.918A11.977,11.977,0,0,0-10.2-3.32Z" transform="translate(1201 1541)" fill="#1ec488"/>
    <path id="Trazado_40576" data-name="Trazado 40576" d="M-86.895-3.4a5.871,5.871,0,0,1,2.842,1.113,5.965,5.965,0,0,0,3,1.113,4.671,4.671,0,0,0,4.063-1.846,6.73,6.73,0,0,0,1.328-4.014A6.379,6.379,0,0,0-76.738-10.7q-1.816-2.676-6.133-2.676-.254,0-.488.01t-.547.049l-.039-.508a16.925,16.925,0,0,0,4.922-2.6,4.743,4.743,0,0,0,1.8-3.867,3.877,3.877,0,0,0-1.416-3.242,5.088,5.088,0,0,0-3.232-1.113,5.3,5.3,0,0,0-3.789,1.582A12.09,12.09,0,0,0-87.6-20.41l-.605-.137a8.962,8.962,0,0,1,2.91-4.746,7.454,7.454,0,0,1,4.922-1.777,6.225,6.225,0,0,1,4.619,1.641,5.219,5.219,0,0,1,1.631,3.789,5.244,5.244,0,0,1-1.348,3.477,12.5,12.5,0,0,1-2.363,2.012,10.087,10.087,0,0,1,3.008,1.875,6.906,6.906,0,0,1,2.129,5.2,8.859,8.859,0,0,1-2.92,6.543Q-78.535.293-83.926.293A5.9,5.9,0,0,1-87.295-.42a1.964,1.964,0,0,1-.967-1.533,1.7,1.7,0,0,1,.322-.977A1.177,1.177,0,0,1-86.895-3.4ZM-60.43-.723q2.871,0,3.945-3.145a29.618,29.618,0,0,0,1.074-9.1,35.524,35.524,0,0,0-.645-7.578q-1.211-5.273-4.531-5.273t-4.551,5.43a36.267,36.267,0,0,0-.645,7.617,30.326,30.326,0,0,0,.664,7.09Q-63.867-.723-60.43-.723Zm-.059-26.152q4.492,0,6.973,4.707a18.754,18.754,0,0,1,1.973,8.75,21.884,21.884,0,0,1-1.211,7.324Q-55.039.371-60.664.371a7.481,7.481,0,0,1-6.328-3.5q-2.656-3.73-2.656-10.137a19.553,19.553,0,0,1,1.777-8.672Q-65.469-26.875-60.488-26.875ZM-40.2-.41a5.605,5.605,0,0,1-1.426,3.672A8.789,8.789,0,0,1-44.687,5.7l-.371-.781a6.651,6.651,0,0,0,2.588-2.285A4.356,4.356,0,0,0-41.758.586a.343.343,0,0,0-.176-.352A.9.9,0,0,0-42.3.156l-1.309.137a2.379,2.379,0,0,1-1.5-.537A1.857,1.857,0,0,1-45.8-1.8a2.488,2.488,0,0,1,.566-1.523,2.187,2.187,0,0,1,1.855-.742,3.06,3.06,0,0,1,2.207.967A3.609,3.609,0,0,1-40.2-.41Zm18.906-8.477a10.06,10.06,0,0,1-2.295,6.445A7.283,7.283,0,0,1-29.551.43a8.239,8.239,0,0,1-6.26-3.223,12.548,12.548,0,0,1-2.822-8.574A15.414,15.414,0,0,1-33.164-23.2a16.532,16.532,0,0,1,10.977-4.141l.1.645A19.3,19.3,0,0,0-26.3-25.479a10.2,10.2,0,0,0-3.154,2.158,16.712,16.712,0,0,0-2.676,3.574,15.135,15.135,0,0,0-1.719,4.3,14.357,14.357,0,0,1,2.09-1.094,8.407,8.407,0,0,1,3.145-.625A7.018,7.018,0,0,1-23.4-15.02,8.389,8.389,0,0,1-21.289-8.887Zm-3.574,1.5a12.128,12.128,0,0,0-.82-4.609,4.755,4.755,0,0,0-4.648-3.359q-3.027,0-4.023,1.8a7.7,7.7,0,0,0-.586,3.516,15.167,15.167,0,0,0,1.357,6.23A4.492,4.492,0,0,0-29.3-.762a3.556,3.556,0,0,0,3.379-1.982A9.735,9.735,0,0,0-24.863-7.383Zm23.574-1.5A10.06,10.06,0,0,1-3.584-2.441,7.283,7.283,0,0,1-9.551.43a8.239,8.239,0,0,1-6.26-3.223,12.548,12.548,0,0,1-2.822-8.574A15.414,15.414,0,0,1-13.164-23.2,16.532,16.532,0,0,1-2.187-27.344l.1.645A19.3,19.3,0,0,0-6.3-25.479,10.2,10.2,0,0,0-9.453-23.32a16.712,16.712,0,0,0-2.676,3.574,15.135,15.135,0,0,0-1.719,4.3,14.357,14.357,0,0,1,2.09-1.094,8.407,8.407,0,0,1,3.145-.625A7.018,7.018,0,0,1-3.4-15.02,8.389,8.389,0,0,1-1.289-8.887Zm-3.574,1.5a12.128,12.128,0,0,0-.82-4.609,4.755,4.755,0,0,0-4.648-3.359q-3.027,0-4.023,1.8a7.7,7.7,0,0,0-.586,3.516,15.167,15.167,0,0,0,1.357,6.23A4.492,4.492,0,0,0-9.3-.762,3.556,3.556,0,0,0-5.918-2.744,9.735,9.735,0,0,0-4.863-7.383ZM3.105-3.4A5.871,5.871,0,0,1,5.947-2.285a5.965,5.965,0,0,0,3,1.113,4.671,4.671,0,0,0,4.063-1.846,6.73,6.73,0,0,0,1.328-4.014A6.379,6.379,0,0,0,13.262-10.7q-1.816-2.676-6.133-2.676-.254,0-.488.01t-.547.049l-.039-.508a16.926,16.926,0,0,0,4.922-2.6,4.743,4.743,0,0,0,1.8-3.867,3.877,3.877,0,0,0-1.416-3.242,5.088,5.088,0,0,0-3.232-1.113,5.3,5.3,0,0,0-3.789,1.582A12.091,12.091,0,0,0,2.4-20.41L1.8-20.547a8.962,8.962,0,0,1,2.91-4.746A7.454,7.454,0,0,1,9.629-27.07a6.225,6.225,0,0,1,4.619,1.641,5.219,5.219,0,0,1,1.631,3.789,5.244,5.244,0,0,1-1.348,3.477,12.5,12.5,0,0,1-2.363,2.012,10.087,10.087,0,0,1,3.008,1.875,6.906,6.906,0,0,1,2.129,5.2,8.859,8.859,0,0,1-2.92,6.543Q11.465.293,6.074.293A5.9,5.9,0,0,1,2.705-.42a1.964,1.964,0,0,1-.967-1.533,1.7,1.7,0,0,1,.322-.977A1.177,1.177,0,0,1,3.105-3.4Zm30,0a5.871,5.871,0,0,1,2.842,1.113,5.965,5.965,0,0,0,3,1.113,4.671,4.671,0,0,0,4.063-1.846,6.73,6.73,0,0,0,1.328-4.014A6.379,6.379,0,0,0,43.262-10.7q-1.816-2.676-6.133-2.676-.254,0-.488.01t-.547.049l-.039-.508a16.926,16.926,0,0,0,4.922-2.6,4.743,4.743,0,0,0,1.8-3.867,3.877,3.877,0,0,0-1.416-3.242,5.088,5.088,0,0,0-3.232-1.113,5.3,5.3,0,0,0-3.789,1.582A12.091,12.091,0,0,0,32.4-20.41l-.605-.137a8.962,8.962,0,0,1,2.91-4.746,7.454,7.454,0,0,1,4.922-1.777,6.225,6.225,0,0,1,4.619,1.641,5.219,5.219,0,0,1,1.631,3.789,5.244,5.244,0,0,1-1.348,3.477,12.5,12.5,0,0,1-2.363,2.012,10.087,10.087,0,0,1,3.008,1.875,6.906,6.906,0,0,1,2.129,5.2,8.859,8.859,0,0,1-2.92,6.543Q41.465.293,36.074.293A5.9,5.9,0,0,1,32.705-.42a1.964,1.964,0,0,1-.967-1.533,1.7,1.7,0,0,1,.322-.977A1.177,1.177,0,0,1,33.105-3.4Zm28.73-23.437a.418.418,0,0,1,.088.146,1.526,1.526,0,0,1,.01.225V-2.949q0,1.5.8,1.914a8,8,0,0,0,2.988.488V0H54.707V-.586a6.454,6.454,0,0,0,3.086-.645q.723-.527.723-2.285V-21.6a3.4,3.4,0,0,0-.234-1.426,1.01,1.01,0,0,0-1.016-.488,4.216,4.216,0,0,0-1.318.283q-.811.283-1.514.6v-.547L61.6-26.836ZM79.98-11.191a5.9,5.9,0,0,0,2.744-.742q1.416-.742,1.611-1.25a7.816,7.816,0,0,0,.137-1.455q.059-1.26.059-2.041a13.889,13.889,0,0,0-1.367-6.6,4.33,4.33,0,0,0-4-2.539,3.594,3.594,0,0,0-3.1,1.738,9.292,9.292,0,0,0-1.182,5.2,12.567,12.567,0,0,0,1.1,5.273A4.012,4.012,0,0,0,79.98-11.191Zm-.547-15.742a7.576,7.576,0,0,1,6.641,3.428,13.243,13.243,0,0,1,2.344,7.646A17.608,17.608,0,0,1,87.3-9.824a16.822,16.822,0,0,1-3.242,5.469A14.952,14.952,0,0,1,77.773-.234,25.871,25.871,0,0,1,72.4.938l-.2-.781a24.7,24.7,0,0,0,3.379-1,12,12,0,0,0,3.887-2.344,16.274,16.274,0,0,0,3.311-4.4,16.064,16.064,0,0,0,1.553-4.072l-.684.508a8.412,8.412,0,0,1-3.4,1.5,8.31,8.31,0,0,1-1.855.234,6.468,6.468,0,0,1-5.264-2.354,8.538,8.538,0,0,1-1.943-5.615,10.15,10.15,0,0,1,2.314-6.855A7.462,7.462,0,0,1,79.434-26.934Z" transform="translate(1311 1541)" fill="#1ec488"/>
    <path id="Trazado_40553" data-name="Trazado 40553" d="M2066,372h106.883" transform="translate(-646 1161)" fill="none" stroke="#1ec488" stroke-width="2"/>
    <path id="Trazado_40577" data-name="Trazado 40577" d="M3.623-17.637a4.667,4.667,0,0,1,3.438,1.074,3.073,3.073,0,0,1,1.055,2.09,1.849,1.849,0,0,1-.547,1.426,1.832,1.832,0,0,1-1.289.508,1.721,1.721,0,0,1-1.211-.449A1.452,1.452,0,0,1,4.58-14.1,2.289,2.289,0,0,1,4.9-15.2a2.286,2.286,0,0,0,.322-.762.7.7,0,0,0-.4-.6A2.549,2.549,0,0,0,3.545-16.8Q.4-16.8-1.914-13.223a13.588,13.588,0,0,0-2.314,7.5,5.65,5.65,0,0,0,.938,3.457A3.291,3.291,0,0,0-.479-1.016a5.512,5.512,0,0,0,2.92-.869A11.541,11.541,0,0,0,5.049-4.1l.137-.156.566.43A14.286,14.286,0,0,1,3.115-1.152,8.315,8.315,0,0,1-1.865.469,5.641,5.641,0,0,1-6.1-1.2,6.269,6.269,0,0,1-7.725-5.762a11.532,11.532,0,0,1,3.613-8.164Q-.537-17.637,3.623-17.637Z" transform="translate(1469 1511)" fill="#1ec488"/>
    <path id="Trazado_40578" data-name="Trazado 40578" d="M.068-1.8-7.979-21.016-16.143-1.8ZM5.537,0H-18.916L-7.1-27.266h.781ZM10.83-18.145v.605a5.146,5.146,0,0,0-1.436.313.847.847,0,0,0-.42.859,2,2,0,0,0,.088.6q.088.283.3.83l4.063,10.1,3.516-8.945q.254-.645.479-1.348a3.871,3.871,0,0,0,.225-1.074,1.128,1.128,0,0,0-.723-1.094,4.019,4.019,0,0,0-1.172-.234v-.605H21.3v.605a1.811,1.811,0,0,0-1.377.635A13.475,13.475,0,0,0,18.7-14.336L13.057-.273A2.95,2.95,0,0,1,12.8.234a.317.317,0,0,1-.273.137A.392.392,0,0,1,12.2.146,6,6,0,0,1,11.9-.41l-5.977-14.3A5.72,5.72,0,0,0,4.385-17.07a3.107,3.107,0,0,0-1.426-.469v-.605Z" transform="translate(1469 1575)" fill="#1ec488"/>
    <path id="Trazado_40554" data-name="Trazado 40554" d="M1992.906,327s-35.7,42.891,0,103.651" transform="translate(-1487 1160)" fill="none" stroke="#1ec488" stroke-width="2"/>
    <path id="Trazado_40555" data-name="Trazado 40555" d="M1977.038,327s35.7,42.891,0,103.651" transform="translate(-1250 1160)" fill="none" stroke="#1ec488" stroke-width="2"/>
    <path id="Trazado_40579" data-name="Trazado 40579" d="M-3.359-9.209a3.531,3.531,0,0,1,2.1.63A1.742,1.742,0,0,1-.371-7.2.938.938,0,0,1-.6-6.6a.838.838,0,0,1-.693.278.867.867,0,0,1-.6-.234,1.358,1.358,0,0,1-.376-.684l-.117-.469a1.188,1.188,0,0,0-.439-.732,1.563,1.563,0,0,0-.85-.205,2.316,2.316,0,0,0-1.88.972,4.053,4.053,0,0,0-.767,2.583,4.415,4.415,0,0,0,.845,2.646A2.668,2.668,0,0,0-3.193-1.27a2.731,2.731,0,0,0,1.807-.664A6.2,6.2,0,0,0-.371-3.145l.273.166A7.742,7.742,0,0,1-1.27-1.123,3.59,3.59,0,0,1-4,.186a3.663,3.663,0,0,1-2.7-1.2A4.47,4.47,0,0,1-7.871-4.277,5.088,5.088,0,0,1-6.592-7.754,4.119,4.119,0,0,1-3.359-9.209ZM1.582-3.076H1.9A5.1,5.1,0,0,0,2.51-1.367a2.216,2.216,0,0,0,2,1.094A1.607,1.607,0,0,0,5.669-.679a1.386,1.386,0,0,0,.425-1.05A1.446,1.446,0,0,0,5.85-2.52a2.5,2.5,0,0,0-.859-.742L3.9-3.887a6.235,6.235,0,0,1-1.768-1.3,2.282,2.282,0,0,1-.566-1.543,2.31,2.31,0,0,1,.781-1.8,2.824,2.824,0,0,1,1.963-.7,3.813,3.813,0,0,1,1.138.2,5.272,5.272,0,0,0,.7.2A.5.5,0,0,0,6.4-8.887a.409.409,0,0,0,.137-.156h.234l.068,2.725h-.3a4.518,4.518,0,0,0-.527-1.475A1.938,1.938,0,0,0,4.258-8.77a1.4,1.4,0,0,0-1.074.42,1.4,1.4,0,0,0-.391.986q0,.9,1.348,1.6l1.289.693Q7.51-3.936,7.51-2.432A2.358,2.358,0,0,1,6.646-.547,3.377,3.377,0,0,1,4.385.186a5.282,5.282,0,0,1-1.328-.2,6,6,0,0,0-.879-.2.289.289,0,0,0-.205.083.577.577,0,0,0-.137.2H1.582Z" transform="translate(1503 1575)" fill="#1ec488"/>
  </g>
</svg>
