<svg xmlns="http://www.w3.org/2000/svg" width="493.98" height="97.402" viewBox="0 0 493.98 97.402">
  <g id="Grupo_16463" data-name="Grupo 16463" transform="translate(-811.191 -4150.969)">
    <path id="Trazado_40550" data-name="Trazado 40550" d="M2066,372h141.172" transform="translate(-1108 3827)" fill="none" stroke="#1ec488" stroke-width="2"/>
    <path id="Trazado_40660" data-name="Trazado 40660" d="M-32.588-17.949v.547a4.075,4.075,0,0,0-1.26.205.742.742,0,0,0-.518.771,7.254,7.254,0,0,0,1.035,2.09q.547.9,1.387,2.207,1.152-1.582,1.719-2.48a5.157,5.157,0,0,0,.957-1.875.672.672,0,0,0-.41-.684A3.78,3.78,0,0,0-30.83-17.4v-.547h6.289v.547a4.67,4.67,0,0,0-1.855.537,3.876,3.876,0,0,0-1.387,1.221l-3.34,4.824,5.156,7.813a6.984,6.984,0,0,0,1.689,1.973,3.12,3.12,0,0,0,1.592.488V0h-8.066V-.547l.566-.039a1.4,1.4,0,0,0,.752-.273.714.714,0,0,0,.3-.586,4.83,4.83,0,0,0-.742-1.641q-.352-.625-1.055-1.7-.332-.527-.986-1.465t-1.1-1.6l-3.145,4.9a12.972,12.972,0,0,0-.7,1.172A1.214,1.214,0,0,0-37-1.289a.47.47,0,0,0,.3.488,7.275,7.275,0,0,0,1.318.254V0h-5.781V-.547A4.645,4.645,0,0,0-39.6-1.094a6.146,6.146,0,0,0,1.348-1.543L-33.7-9.258l-3.75-5.684a10.043,10.043,0,0,0-1.562-2.012,4.343,4.343,0,0,0-1.875-.449v-.547Zm20.1-5.508a5.723,5.723,0,0,1-1.416,3.75A8.591,8.591,0,0,1-17-17.266l-.371-.781a8.64,8.64,0,0,0,2.334-1.924,3.6,3.6,0,0,0,.967-2.334.457.457,0,0,0-.156-.391.6.6,0,0,0-.371-.117q-1.152.137-1.348.137a2.41,2.41,0,0,1-1.465-.527,1.83,1.83,0,0,1-.7-1.562,2.5,2.5,0,0,1,.566-1.514,2.173,2.173,0,0,1,1.855-.752,2.951,2.951,0,0,1,2.275,1.025A3.658,3.658,0,0,1-12.49-23.457ZM.088-10.273H9.912v2.5H.088ZM31.1-17.949v.547a4.075,4.075,0,0,0-1.26.205.742.742,0,0,0-.518.771,7.254,7.254,0,0,0,1.035,2.09q.547.9,1.387,2.207,1.152-1.582,1.719-2.48a5.157,5.157,0,0,0,.957-1.875.672.672,0,0,0-.41-.684,3.78,3.78,0,0,0-1.152-.234v-.547H39.15v.547a4.67,4.67,0,0,0-1.855.537,3.876,3.876,0,0,0-1.387,1.221l-3.34,4.824,5.156,7.813a6.984,6.984,0,0,0,1.689,1.973,3.12,3.12,0,0,0,1.592.488V0H32.939V-.547l.566-.039a1.4,1.4,0,0,0,.752-.273.714.714,0,0,0,.3-.586,4.83,4.83,0,0,0-.742-1.641q-.352-.625-1.055-1.7-.332-.527-.986-1.465t-1.1-1.6l-3.145,4.9a12.973,12.973,0,0,0-.7,1.172,1.214,1.214,0,0,0-.137.488.47.47,0,0,0,.3.488,7.275,7.275,0,0,0,1.318.254V0H22.529V-.547a4.644,4.644,0,0,0,1.563-.547,6.146,6.146,0,0,0,1.348-1.543L29.99-9.258l-3.75-5.684a10.043,10.043,0,0,0-1.562-2.012A4.343,4.343,0,0,0,22.8-17.4v-.547Z" transform="translate(1025 4178)" fill="#1ec488"/>
    <path id="Trazado_40663" data-name="Trazado 40663" d="M-4.932-1.8l-8.047-19.219L-21.143-1.8ZM.537,0H-23.916L-12.1-27.266h.781ZM16.494-17.949v.547a4.075,4.075,0,0,0-1.26.205.742.742,0,0,0-.518.771,7.254,7.254,0,0,0,1.035,2.09q.547.9,1.387,2.207,1.152-1.582,1.719-2.48a5.157,5.157,0,0,0,.957-1.875.672.672,0,0,0-.41-.684,3.78,3.78,0,0,0-1.152-.234v-.547h6.289v.547a4.67,4.67,0,0,0-1.855.537A3.876,3.876,0,0,0,21.3-15.645l-3.34,4.824,5.156,7.813A6.984,6.984,0,0,0,24.8-1.035,3.12,3.12,0,0,0,26.4-.547V0H18.33V-.547L18.9-.586a1.4,1.4,0,0,0,.752-.273.714.714,0,0,0,.3-.586,4.83,4.83,0,0,0-.742-1.641q-.352-.625-1.055-1.7-.332-.527-.986-1.465t-1.1-1.6l-3.145,4.9a12.972,12.972,0,0,0-.7,1.172,1.214,1.214,0,0,0-.137.488.47.47,0,0,0,.3.488A7.275,7.275,0,0,0,13.7-.547V0H7.92V-.547a4.644,4.644,0,0,0,1.563-.547A6.146,6.146,0,0,0,10.83-2.637l4.551-6.621-3.75-5.684a10.043,10.043,0,0,0-1.562-2.012A4.343,4.343,0,0,0,8.193-17.4v-.547Z" transform="translate(1222 4187)" fill="#1ec488"/>
    <path id="Trazado_40661" data-name="Trazado 40661" d="M-22.783-18.008V-16.6h-3.984l-.039,11.25a7.526,7.526,0,0,0,.254,2.246,1.8,1.8,0,0,0,1.836,1.348A2.211,2.211,0,0,0-23.5-2.09a6.406,6.406,0,0,0,1.182-1.055l.508.43-.43.586A6.249,6.249,0,0,1-24.385-.2a4.884,4.884,0,0,1-2.187.566A3.078,3.078,0,0,1-29.7-1.68a8.493,8.493,0,0,1-.449-3.086V-16.6h-2.129a.575.575,0,0,1-.146-.117.236.236,0,0,1-.049-.156.466.466,0,0,1,.088-.3,5.858,5.858,0,0,1,.557-.5,16.818,16.818,0,0,0,1.943-1.807q.6-.693,2.8-3.662a.651.651,0,0,1,.3.039q.049.039.049.293v4.8Zm10.293-5.449a5.723,5.723,0,0,1-1.416,3.75A8.591,8.591,0,0,1-17-17.266l-.371-.781a8.64,8.64,0,0,0,2.334-1.924,3.6,3.6,0,0,0,.967-2.334.457.457,0,0,0-.156-.391.6.6,0,0,0-.371-.117q-1.152.137-1.348.137a2.41,2.41,0,0,1-1.465-.527,1.83,1.83,0,0,1-.7-1.562,2.5,2.5,0,0,1,.566-1.514,2.173,2.173,0,0,1,1.855-.752,2.951,2.951,0,0,1,2.275,1.025A3.658,3.658,0,0,1-12.49-23.457ZM.088-10.273H9.912v2.5H.088Zm31.934-7.734V-16.6H28.037L28-5.352a7.526,7.526,0,0,0,.254,2.246,1.8,1.8,0,0,0,1.836,1.348,2.211,2.211,0,0,0,1.221-.332A6.406,6.406,0,0,0,32.49-3.145l.508.43-.43.586A6.249,6.249,0,0,1,30.42-.2a4.884,4.884,0,0,1-2.187.566A3.078,3.078,0,0,1,25.107-1.68a8.493,8.493,0,0,1-.449-3.086V-16.6H22.529a.575.575,0,0,1-.146-.117.236.236,0,0,1-.049-.156.466.466,0,0,1,.088-.3,5.858,5.858,0,0,1,.557-.5,16.818,16.818,0,0,0,1.943-1.807q.6-.693,2.8-3.662a.651.651,0,0,1,.3.039q.049.039.049.293v4.8Z" transform="translate(1027 4248)" fill="#1ec488"/>
    <path id="Trazado_40659" data-name="Trazado 40659" d="M21.387-2.637V.332l-20.2-9.9v-1.074l20.2-9.9v2.969L6.426-10.137ZM41.152-18.145v.605a5.146,5.146,0,0,0-1.436.313.847.847,0,0,0-.42.859,2,2,0,0,0,.088.6q.088.283.3.83l4.063,10.1,3.516-8.945q.254-.645.479-1.348a3.871,3.871,0,0,0,.225-1.074,1.128,1.128,0,0,0-.723-1.094,4.019,4.019,0,0,0-1.172-.234v-.605h5.547v.605a1.811,1.811,0,0,0-1.377.635,13.475,13.475,0,0,0-1.221,2.568L43.379-.273a2.95,2.95,0,0,1-.254.508.317.317,0,0,1-.273.137A.392.392,0,0,1,42.52.146a6,6,0,0,1-.293-.557l-5.977-14.3a5.72,5.72,0,0,0-1.543-2.363,3.107,3.107,0,0,0-1.426-.469v-.605Zm21.758.566v-2.969l21.777,9.9V-9.57L62.91.332V-2.637l16.543-7.5ZM126.5-7.441v2.734h-20.2V-7.441Zm0-8.066v2.734h-20.2v-2.734Z" transform="translate(810 4207)" fill="#1ec488"/>
    <path id="Trazado_40662" data-name="Trazado 40662" d="M21.387-7.441v2.734H1.191V-7.441Zm0-8.066v2.734H1.191v-2.734Z" transform="translate(1121 4207)" fill="#1ec488"/>
    <path id="Trazado_40619" data-name="Trazado 40619" d="M2066,372h141.172" transform="translate(-902 3827)" fill="none" stroke="#1ec488" stroke-width="2"/>
    <path id="Trazado_40664" data-name="Trazado 40664" d="M-.488-1.8-8.535-21.016-16.7-1.8ZM4.98,0H-19.473L-7.656-27.266h.781ZM21.855-18.008V-16.6H17.871l-.039,11.25a7.526,7.526,0,0,0,.254,2.246,1.8,1.8,0,0,0,1.836,1.348,2.211,2.211,0,0,0,1.221-.332,6.406,6.406,0,0,0,1.182-1.055l.508.43-.43.586A6.249,6.249,0,0,1,20.254-.2a4.884,4.884,0,0,1-2.187.566A3.078,3.078,0,0,1,14.941-1.68a8.493,8.493,0,0,1-.449-3.086V-16.6H12.363a.575.575,0,0,1-.146-.117.236.236,0,0,1-.049-.156.466.466,0,0,1,.088-.3,5.858,5.858,0,0,1,.557-.5,16.818,16.818,0,0,0,1.943-1.807q.6-.693,2.8-3.662a.651.651,0,0,1,.3.039q.049.039.049.293v4.8Z" transform="translate(1222 4247)" fill="#1ec488"/>
  </g>
</svg>
