<svg xmlns="http://www.w3.org/2000/svg" width="457.835" height="125.788" viewBox="0 0 457.835 125.788">
  <g id="Grupo_16479" data-name="Grupo 16479" transform="translate(-910.547 -14371.569)">
    <path id="Trazado_40766" data-name="Trazado 40766" d="M9.258-17.949v.547A4.075,4.075,0,0,0,8-17.2a.742.742,0,0,0-.518.771,7.254,7.254,0,0,0,1.035,2.09q.547.9,1.387,2.207,1.152-1.582,1.719-2.48a5.157,5.157,0,0,0,.957-1.875.672.672,0,0,0-.41-.684,3.78,3.78,0,0,0-1.152-.234v-.547H17.3v.547a4.67,4.67,0,0,0-1.855.537,3.876,3.876,0,0,0-1.387,1.221l-3.34,4.824,5.156,7.813a6.984,6.984,0,0,0,1.689,1.973,3.12,3.12,0,0,0,1.592.488V0H11.094V-.547l.566-.039a1.4,1.4,0,0,0,.752-.273.714.714,0,0,0,.3-.586,4.83,4.83,0,0,0-.742-1.641q-.352-.625-1.055-1.7-.332-.527-.986-1.465t-1.1-1.6l-3.145,4.9a12.973,12.973,0,0,0-.7,1.172,1.214,1.214,0,0,0-.137.488.47.47,0,0,0,.3.488,7.275,7.275,0,0,0,1.318.254V0H.684V-.547a4.644,4.644,0,0,0,1.563-.547A6.146,6.146,0,0,0,3.594-2.637L8.145-9.258l-3.75-5.684a10.043,10.043,0,0,0-1.562-2.012A4.343,4.343,0,0,0,.957-17.4v-.547ZM51.387-7.441v2.734h-20.2V-7.441Zm0-8.066v2.734h-20.2v-2.734Zm20.43-2.441v.547a4.075,4.075,0,0,0-1.26.205.742.742,0,0,0-.518.771,7.254,7.254,0,0,0,1.035,2.09q.547.9,1.387,2.207,1.152-1.582,1.719-2.48a5.157,5.157,0,0,0,.957-1.875.672.672,0,0,0-.41-.684,3.78,3.78,0,0,0-1.152-.234v-.547h6.289v.547a4.67,4.67,0,0,0-1.855.537,3.876,3.876,0,0,0-1.387,1.221l-3.34,4.824,5.156,7.813a6.984,6.984,0,0,0,1.689,1.973,3.12,3.12,0,0,0,1.592.488V0H73.652V-.547l.566-.039a1.4,1.4,0,0,0,.752-.273.714.714,0,0,0,.3-.586,4.83,4.83,0,0,0-.742-1.641q-.352-.625-1.055-1.7-.332-.527-.986-1.465t-1.1-1.6l-3.145,4.9a12.974,12.974,0,0,0-.7,1.172,1.214,1.214,0,0,0-.137.488.47.47,0,0,0,.3.488,7.275,7.275,0,0,0,1.318.254V0H63.242V-.547A4.644,4.644,0,0,0,64.8-1.094a6.146,6.146,0,0,0,1.348-1.543L70.7-9.258l-3.75-5.684a10.043,10.043,0,0,0-1.562-2.012,4.343,4.343,0,0,0-1.875-.449v-.547Zm12.578,7.91a18.683,18.683,0,0,1,4.063-11.934,20.065,20.065,0,0,1,5.9-5.059l.371.645a17.838,17.838,0,0,0-4.492,4.863Q87.871-17.4,87.871-10.547a32.607,32.607,0,0,0,.9,8.379,14.44,14.44,0,0,0,5.957,8.652l-.508.645a16.7,16.7,0,0,1-5.2-4.512A19.252,19.252,0,0,1,84.395-10.039Zm21.66-7.969V-16.6H102.07l-.039,11.25a7.526,7.526,0,0,0,.254,2.246,1.8,1.8,0,0,0,1.836,1.348,2.211,2.211,0,0,0,1.221-.332,6.406,6.406,0,0,0,1.182-1.055l.508.43-.43.586A6.249,6.249,0,0,1,104.453-.2a4.884,4.884,0,0,1-2.187.566A3.078,3.078,0,0,1,99.141-1.68a8.493,8.493,0,0,1-.449-3.086V-16.6H96.563a.575.575,0,0,1-.146-.117.236.236,0,0,1-.049-.156.466.466,0,0,1,.088-.3,5.858,5.858,0,0,1,.557-.5,16.818,16.818,0,0,0,1.943-1.807q.6-.693,2.8-3.662a.651.651,0,0,1,.3.039q.049.039.049.293v4.8Zm12.324,8.164a19.48,19.48,0,0,1-.762,5.508,19.134,19.134,0,0,1-2.227,4.9,19.277,19.277,0,0,1-4.121,4.59,15.6,15.6,0,0,1-2.852,1.973l-.371-.645a16.526,16.526,0,0,0,4.395-4.668Q114.9-2.4,114.9-9.336a30.806,30.806,0,0,0-1.133-9.16,14.669,14.669,0,0,0-5.723-7.891l.508-.645a18.978,18.978,0,0,1,5.742,5.2A19.283,19.283,0,0,1,118.379-9.844Z" transform="translate(910 14409)" fill="#1ec488"/>
    <path id="Trazado_40767" data-name="Trazado 40767" d="M.547-17.949H8.789v.605a5.255,5.255,0,0,0-1.445.176q-.9.254-.9,1a1.7,1.7,0,0,0,.1.557q.1.283.352.85l4.57,10.137,3.672-10.215q.059-.156.186-.7a4.057,4.057,0,0,0,.127-.742.828.828,0,0,0-.352-.742,1.831,1.831,0,0,0-.9-.273l-.605-.039v-.605h5.371v.605a1.842,1.842,0,0,0-1.2.547,3.866,3.866,0,0,0-.693,1.25L10.918.742A24.924,24.924,0,0,1,7.852,6.855,4.5,4.5,0,0,1,4.141,8.75,4.067,4.067,0,0,1,2.09,8.2a1.856,1.856,0,0,1-.957-1.738,1.614,1.614,0,0,1,.576-1.279,2.146,2.146,0,0,1,1.455-.5,4.885,4.885,0,0,1,1.514.371,4.894,4.894,0,0,0,1.436.371q1.094,0,2.3-2.539a10.508,10.508,0,0,0,1.211-3.4,1.966,1.966,0,0,0-.059-.43,3.08,3.08,0,0,0-.137-.449L3.184-14.9a6.449,6.449,0,0,0-1.162-1.9,2.679,2.679,0,0,0-1.475-.6ZM51.387-7.441v2.734h-20.2V-7.441Zm0-8.066v2.734h-20.2v-2.734Zm11.719-2.441h8.242v.605a5.255,5.255,0,0,0-1.445.176q-.9.254-.9,1a1.7,1.7,0,0,0,.1.557q.1.283.352.85l4.57,10.137L77.7-14.844q.059-.156.186-.7a4.057,4.057,0,0,0,.127-.742.828.828,0,0,0-.352-.742,1.831,1.831,0,0,0-.9-.273l-.605-.039v-.605h5.371v.605a1.842,1.842,0,0,0-1.2.547,3.866,3.866,0,0,0-.693,1.25L73.477.742A24.924,24.924,0,0,1,70.41,6.855,4.5,4.5,0,0,1,66.7,8.75,4.067,4.067,0,0,1,64.648,8.2a1.856,1.856,0,0,1-.957-1.738,1.614,1.614,0,0,1,.576-1.279,2.146,2.146,0,0,1,1.455-.5,4.885,4.885,0,0,1,1.514.371,4.894,4.894,0,0,0,1.436.371q1.094,0,2.3-2.539a10.508,10.508,0,0,0,1.211-3.4,1.966,1.966,0,0,0-.059-.43,3.079,3.079,0,0,0-.137-.449L65.742-14.9a6.449,6.449,0,0,0-1.162-1.9,2.679,2.679,0,0,0-1.475-.6Zm21.289,7.91a18.683,18.683,0,0,1,4.063-11.934,20.065,20.065,0,0,1,5.9-5.059l.371.645a17.838,17.838,0,0,0-4.492,4.863Q87.871-17.4,87.871-10.547a32.607,32.607,0,0,0,.9,8.379,14.44,14.44,0,0,0,5.957,8.652l-.508.645a16.7,16.7,0,0,1-5.2-4.512A19.252,19.252,0,0,1,84.395-10.039Zm21.66-7.969V-16.6H102.07l-.039,11.25a7.526,7.526,0,0,0,.254,2.246,1.8,1.8,0,0,0,1.836,1.348,2.211,2.211,0,0,0,1.221-.332,6.406,6.406,0,0,0,1.182-1.055l.508.43-.43.586A6.249,6.249,0,0,1,104.453-.2a4.884,4.884,0,0,1-2.187.566A3.078,3.078,0,0,1,99.141-1.68a8.493,8.493,0,0,1-.449-3.086V-16.6H96.563a.575.575,0,0,1-.146-.117.236.236,0,0,1-.049-.156.466.466,0,0,1,.088-.3,5.858,5.858,0,0,1,.557-.5,16.818,16.818,0,0,0,1.943-1.807q.6-.693,2.8-3.662a.651.651,0,0,1,.3.039q.049.039.049.293v4.8Zm12.324,8.164a19.48,19.48,0,0,1-.762,5.508,19.134,19.134,0,0,1-2.227,4.9,19.277,19.277,0,0,1-4.121,4.59,15.6,15.6,0,0,1-2.852,1.973l-.371-.645a16.526,16.526,0,0,0,4.395-4.668Q114.9-2.4,114.9-9.336a30.806,30.806,0,0,0-1.133-9.16,14.669,14.669,0,0,0-5.723-7.891l.508-.645a18.978,18.978,0,0,1,5.742,5.2A19.283,19.283,0,0,1,118.379-9.844Z" transform="translate(910 14480)" fill="#1ec488"/>
    <path id="Trazado_40763" data-name="Trazado 40763" d="M8.594-18.145v.605a5.146,5.146,0,0,0-1.436.313.847.847,0,0,0-.42.859,2,2,0,0,0,.088.6q.088.283.3.83l4.063,10.1,3.516-8.945q.254-.645.479-1.348a3.871,3.871,0,0,0,.225-1.074,1.128,1.128,0,0,0-.723-1.094,4.019,4.019,0,0,0-1.172-.234v-.605h5.547v.605a1.811,1.811,0,0,0-1.377.635,13.475,13.475,0,0,0-1.221,2.568L10.82-.273a2.95,2.95,0,0,1-.254.508.317.317,0,0,1-.273.137A.392.392,0,0,1,9.961.146,6,6,0,0,1,9.668-.41l-5.977-14.3A5.72,5.72,0,0,0,2.148-17.07a3.107,3.107,0,0,0-1.426-.469v-.605Zm42.793,10.7v2.734h-20.2V-7.441Zm0-8.066v2.734h-20.2v-2.734Z" transform="translate(1082 14409)" fill="#1ec488"/>
    <path id="Trazado_40759" data-name="Trazado 40759" d="M6.394-12.458a3.744,3.744,0,0,1,1.767.422,4.218,4.218,0,0,1,1.015.765v-4.192A2.393,2.393,0,0,0,9-16.572q-.178-.3-.85-.3a2.542,2.542,0,0,0-.277.013l-.527.053v-.435l1.081-.277q.593-.158,1.187-.33t1.042-.33q.211-.066.7-.25l.079.026L11.4-17.02q-.013.751-.026,1.549T11.364-13.9L11.338-3.125a2.447,2.447,0,0,0,.211,1.2q.211.343,1.121.343.145,0,.29-.007a2.171,2.171,0,0,0,.29-.033v.435l-1.912.659L9.268.25,9.176.132V-1.49A6.882,6.882,0,0,1,7.9-.343,4.159,4.159,0,0,1,5.669.25,4.436,4.436,0,0,1,2.037-1.483,6.23,6.23,0,0,1,.646-5.5a7.536,7.536,0,0,1,1.668-4.911A5.08,5.08,0,0,1,6.394-12.458ZM6.882-1.173A2.3,2.3,0,0,0,8.543-1.78a1.679,1.679,0,0,0,.633-1.147V-8.583A2.873,2.873,0,0,0,8.26-11a2.949,2.949,0,0,0-1.786-.705,2.9,2.9,0,0,0-2.584,1.47,6.679,6.679,0,0,0-.923,3.619,7.292,7.292,0,0,0,.982,3.784A3.2,3.2,0,0,0,6.882-1.173ZM19.749-12.116v.369a2.751,2.751,0,0,0-.85.138.5.5,0,0,0-.349.521,4.9,4.9,0,0,0,.7,1.411q.369.606.936,1.49.778-1.068,1.16-1.674a3.481,3.481,0,0,0,.646-1.266.454.454,0,0,0-.277-.461,2.552,2.552,0,0,0-.778-.158v-.369h4.245v.369a3.152,3.152,0,0,0-1.252.363,2.616,2.616,0,0,0-.936.824L20.738-7.3l3.48,5.273A4.714,4.714,0,0,0,25.359-.7a2.106,2.106,0,0,0,1.074.33V0H20.988V-.369L21.371-.4a.943.943,0,0,0,.508-.185.482.482,0,0,0,.2-.4,3.26,3.26,0,0,0-.5-1.107Q21.344-2.5,20.87-3.23q-.224-.356-.666-.989T19.459-5.3L17.336-1.991a8.756,8.756,0,0,0-.475.791.819.819,0,0,0-.092.33.317.317,0,0,0,.2.33,4.911,4.911,0,0,0,.89.171V0h-3.9V-.369a3.135,3.135,0,0,0,1.055-.369,4.148,4.148,0,0,0,.91-1.042L19-6.249l-2.531-3.836a6.779,6.779,0,0,0-1.055-1.358,2.931,2.931,0,0,0-1.266-.3v-.369Z" transform="translate(1155 14390)" fill="#1ec488"/>
    <path id="Trazado_40655" data-name="Trazado 40655" d="M5576.352,12690.934h44.238" transform="translate(-4430 1706.228)" fill="none" stroke="#1ec488" stroke-width="2"/>
    <path id="Trazado_40760" data-name="Trazado 40760" d="M6.394-12.458a3.744,3.744,0,0,1,1.767.422,4.218,4.218,0,0,1,1.015.765v-4.192A2.393,2.393,0,0,0,9-16.572q-.178-.3-.85-.3a2.542,2.542,0,0,0-.277.013l-.527.053v-.435l1.081-.277q.593-.158,1.187-.33t1.042-.33q.211-.066.7-.25l.079.026L11.4-17.02q-.013.751-.026,1.549T11.364-13.9L11.338-3.125a2.447,2.447,0,0,0,.211,1.2q.211.343,1.121.343.145,0,.29-.007a2.171,2.171,0,0,0,.29-.033v.435l-1.912.659L9.268.25,9.176.132V-1.49A6.882,6.882,0,0,1,7.9-.343,4.159,4.159,0,0,1,5.669.25,4.436,4.436,0,0,1,2.037-1.483,6.23,6.23,0,0,1,.646-5.5a7.536,7.536,0,0,1,1.668-4.911A5.08,5.08,0,0,1,6.394-12.458ZM6.882-1.173A2.3,2.3,0,0,0,8.543-1.78a1.679,1.679,0,0,0,.633-1.147V-8.583A2.873,2.873,0,0,0,8.26-11a2.949,2.949,0,0,0-1.786-.705,2.9,2.9,0,0,0-2.584,1.47,6.679,6.679,0,0,0-.923,3.619,7.292,7.292,0,0,0,.982,3.784A3.2,3.2,0,0,0,6.882-1.173ZM20.369-12.155v.949H17.679l-.026,7.594A5.08,5.08,0,0,0,17.824-2.1a1.218,1.218,0,0,0,1.239.91,1.493,1.493,0,0,0,.824-.224,4.324,4.324,0,0,0,.8-.712l.343.29-.29.4a4.218,4.218,0,0,1-1.45,1.305A3.3,3.3,0,0,1,17.811.25,2.078,2.078,0,0,1,15.7-1.134a5.733,5.733,0,0,1-.3-2.083v-7.989H13.961a.388.388,0,0,1-.1-.079.159.159,0,0,1-.033-.105.315.315,0,0,1,.059-.2,3.954,3.954,0,0,1,.376-.336,11.352,11.352,0,0,0,1.312-1.219q.4-.468,1.892-2.472a.44.44,0,0,1,.2.026q.033.026.033.2v3.243Z" transform="translate(1155 14421)" fill="#1ec488"/>
    <path id="Trazado_40765" data-name="Trazado 40765" d="M-.584-.7a.641.641,0,0,1,.246-.569.878.878,0,0,1,.5-.169A.875.875,0,0,1,.41-1.4a1.252,1.252,0,0,1,.267.118l.359.195a.514.514,0,0,0,.138.056.662.662,0,0,0,.149.015.56.56,0,0,0,.395-.128,10.153,10.153,0,0,0,.713-.9q.379-.5,1.723-2.451,0-.072-.236-1.1T3.486-7.342A3.758,3.758,0,0,0,3.138-8.3a.641.641,0,0,0-.574-.231,3,3,0,0,0-.564.1q-.267.062-.574.144L1.333-8.6l1.138-.39q.441-.154.815-.246a2.744,2.744,0,0,1,.641-.092.8.8,0,0,1,.646.256,3.985,3.985,0,0,1,.554,1.62l.215,1.169A18.227,18.227,0,0,1,6.778-8.275a4.139,4.139,0,0,1,.872-.779,1.48,1.48,0,0,1,.779-.256,1.32,1.32,0,0,1,.564.1.7.7,0,0,1,.39.7.735.735,0,0,1-.195.543.68.68,0,0,1-.5.195A.885.885,0,0,1,8.47-7.8a1.264,1.264,0,0,1-.215-.077l-.267-.113q-.113-.051-.215-.087a.52.52,0,0,0-.154-.036q-.461,0-1.282,1.195a5.757,5.757,0,0,0-.82,1.379,7.922,7.922,0,0,0,.19,1q.19.846.415,1.789a8.515,8.515,0,0,0,.349,1.23q.236.554.533.554a.8.8,0,0,0,.564-.308,12.51,12.51,0,0,0,.861-1.107l.287.174A8.585,8.585,0,0,1,7.8-.841,2.4,2.4,0,0,1,6.1.226a.909.909,0,0,1-.81-.492,3.648,3.648,0,0,1-.338-.943L4.317-3.743,2.215-.984a6.785,6.785,0,0,1-.948.964A1.351,1.351,0,0,1,.441.226a.939.939,0,0,1-.892-.41A.955.955,0,0,1-.584-.7Z" transform="translate(1098 14417)" fill="#1ec488"/>
    <path id="Trazado_40764" data-name="Trazado 40764" d="M8.594-18.145v.605a5.146,5.146,0,0,0-1.436.313.847.847,0,0,0-.42.859,2,2,0,0,0,.088.6q.088.283.3.83l4.063,10.1,3.516-8.945q.254-.645.479-1.348a3.871,3.871,0,0,0,.225-1.074,1.128,1.128,0,0,0-.723-1.094,4.019,4.019,0,0,0-1.172-.234v-.605h5.547v.605a1.811,1.811,0,0,0-1.377.635,13.475,13.475,0,0,0-1.221,2.568L10.82-.273a2.95,2.95,0,0,1-.254.508.317.317,0,0,1-.273.137A.392.392,0,0,1,9.961.146,6,6,0,0,1,9.668-.41l-5.977-14.3A5.72,5.72,0,0,0,2.148-17.07a3.107,3.107,0,0,0-1.426-.469v-.605Zm42.793,10.7v2.734h-20.2V-7.441Zm0-8.066v2.734h-20.2v-2.734Z" transform="translate(1082 14485)" fill="#1ec488"/>
    <path id="Trazado_40761" data-name="Trazado 40761" d="M6.394-12.458a3.744,3.744,0,0,1,1.767.422,4.218,4.218,0,0,1,1.015.765v-4.192A2.393,2.393,0,0,0,9-16.572q-.178-.3-.85-.3a2.542,2.542,0,0,0-.277.013l-.527.053v-.435l1.081-.277q.593-.158,1.187-.33t1.042-.33q.211-.066.7-.25l.079.026L11.4-17.02q-.013.751-.026,1.549T11.364-13.9L11.338-3.125a2.447,2.447,0,0,0,.211,1.2q.211.343,1.121.343.145,0,.29-.007a2.171,2.171,0,0,0,.29-.033v.435l-1.912.659L9.268.25,9.176.132V-1.49A6.882,6.882,0,0,1,7.9-.343,4.159,4.159,0,0,1,5.669.25,4.436,4.436,0,0,1,2.037-1.483,6.23,6.23,0,0,1,.646-5.5a7.536,7.536,0,0,1,1.668-4.911A5.08,5.08,0,0,1,6.394-12.458ZM6.882-1.173A2.3,2.3,0,0,0,8.543-1.78a1.679,1.679,0,0,0,.633-1.147V-8.583A2.873,2.873,0,0,0,8.26-11a2.949,2.949,0,0,0-1.786-.705,2.9,2.9,0,0,0-2.584,1.47,6.679,6.679,0,0,0-.923,3.619,7.292,7.292,0,0,0,.982,3.784A3.2,3.2,0,0,0,6.882-1.173Zm6.987-10.942h5.563v.409a3.547,3.547,0,0,0-.976.119q-.606.171-.606.672a1.148,1.148,0,0,0,.066.376q.066.191.237.573l3.085,6.842,2.479-6.9q.04-.105.125-.475a2.738,2.738,0,0,0,.086-.5.559.559,0,0,0-.237-.5,1.236,1.236,0,0,0-.606-.185l-.409-.026v-.409H26.3v.409a1.243,1.243,0,0,0-.811.369,2.609,2.609,0,0,0-.468.844L20.87.5A16.824,16.824,0,0,1,18.8,4.627a3.04,3.04,0,0,1-2.5,1.279,2.745,2.745,0,0,1-1.384-.369,1.253,1.253,0,0,1-.646-1.173,1.09,1.09,0,0,1,.389-.864,1.448,1.448,0,0,1,.982-.336,3.3,3.3,0,0,1,1.022.25,3.3,3.3,0,0,0,.969.25q.738,0,1.556-1.714A7.093,7.093,0,0,0,20-.343a1.327,1.327,0,0,0-.04-.29,2.079,2.079,0,0,0-.092-.3l-4.219-9.123a4.353,4.353,0,0,0-.784-1.285,1.808,1.808,0,0,0-1-.4Z" transform="translate(1155 14466)" fill="#1ec488"/>
    <path id="Trazado_40656" data-name="Trazado 40656" d="M5576.352,12690.934h44.238" transform="translate(-4430 1782.228)" fill="none" stroke="#1ec488" stroke-width="2"/>
    <path id="Trazado_40768" data-name="Trazado 40768" d="M6.394-12.458a3.744,3.744,0,0,1,1.767.422,4.218,4.218,0,0,1,1.015.765v-4.192A2.393,2.393,0,0,0,9-16.572q-.178-.3-.85-.3a2.542,2.542,0,0,0-.277.013l-.527.053v-.435l1.081-.277q.593-.158,1.187-.33t1.042-.33q.211-.066.7-.25l.079.026L11.4-17.02q-.013.751-.026,1.549T11.364-13.9L11.338-3.125a2.447,2.447,0,0,0,.211,1.2q.211.343,1.121.343.145,0,.29-.007a2.171,2.171,0,0,0,.29-.033v.435l-1.912.659L9.268.25,9.176.132V-1.49A6.882,6.882,0,0,1,7.9-.343,4.159,4.159,0,0,1,5.669.25,4.436,4.436,0,0,1,2.037-1.483,6.23,6.23,0,0,1,.646-5.5a7.536,7.536,0,0,1,1.668-4.911A5.08,5.08,0,0,1,6.394-12.458ZM6.882-1.173A2.3,2.3,0,0,0,8.543-1.78a1.679,1.679,0,0,0,.633-1.147V-8.583A2.873,2.873,0,0,0,8.26-11a2.949,2.949,0,0,0-1.786-.705,2.9,2.9,0,0,0-2.584,1.47,6.679,6.679,0,0,0-.923,3.619,7.292,7.292,0,0,0,.982,3.784A3.2,3.2,0,0,0,6.882-1.173ZM20.369-12.155v.949H17.679l-.026,7.594A5.08,5.08,0,0,0,17.824-2.1a1.218,1.218,0,0,0,1.239.91,1.493,1.493,0,0,0,.824-.224,4.324,4.324,0,0,0,.8-.712l.343.29-.29.4a4.218,4.218,0,0,1-1.45,1.305A3.3,3.3,0,0,1,17.811.25,2.078,2.078,0,0,1,15.7-1.134a5.733,5.733,0,0,1-.3-2.083v-7.989H13.961a.388.388,0,0,1-.1-.079.159.159,0,0,1-.033-.105.315.315,0,0,1,.059-.2,3.954,3.954,0,0,1,.376-.336,11.352,11.352,0,0,0,1.312-1.219q.4-.468,1.892-2.472a.44.44,0,0,1,.2.026q.033.026.033.2v3.243Z" transform="translate(1155 14497)" fill="#1ec488"/>
    <path id="Trazado_40769" data-name="Trazado 40769" d="M-.543,3.4A.831.831,0,0,1-.338,2.84.746.746,0,0,1,.256,2.6a1,1,0,0,1,.451.1,2.056,2.056,0,0,1,.41.282l.144.1a.423.423,0,0,0,.138.077.532.532,0,0,0,.169.026q.5,0,1.615-1.328A3.918,3.918,0,0,0,4.3-.072a12.73,12.73,0,0,0-.385-2.256q-.385-1.682-.743-2.994a10.377,10.377,0,0,0-.918-2.5A1.358,1.358,0,0,0,1.025-8.48q-.062,0-.21.015l-.508.056v-.338l2.8-.533L3.322-9.3q.256-.031.984,2.307a27.13,27.13,0,0,1,.82,3.056l.41,2.44Q6.614-3.3,7.116-4.266A7.209,7.209,0,0,0,8.1-6.921a1,1,0,0,0-.062-.344.575.575,0,0,0-.287-.292l-.174-.092a1.558,1.558,0,0,1-.385-.308.828.828,0,0,1-.22-.6A.743.743,0,0,1,7.178-9.1a.811.811,0,0,1,.615-.215,1.155,1.155,0,0,1,.831.3,1.382,1.382,0,0,1,.318,1.031,9.44,9.44,0,0,1-1.2,3.527,35.437,35.437,0,0,1-2.061,3.6A32.185,32.185,0,0,1,3.23,2.5Q1.6,4.358.523,4.358A1.162,1.162,0,0,1-.22,4.1.843.843,0,0,1-.543,3.4Z" transform="translate(1098 14493)" fill="#1ec488"/>
    <path id="Trazado_40754" data-name="Trazado 40754" d="M11.465-10.82A17.883,17.883,0,0,0,7.754-9.18Q4.941-7.441,4.941-5.234A3,3,0,0,0,6.113-2.617a2.845,2.845,0,0,0,1.7.547,4.667,4.667,0,0,0,2.471-.723,2.12,2.12,0,0,0,1.182-1.836Zm-10,6.934A5.563,5.563,0,0,1,4.3-8.613,42.73,42.73,0,0,1,11.465-11.8v-1.66a6.839,6.839,0,0,0-.391-2.773A2.785,2.785,0,0,0,8.32-17.539a3.794,3.794,0,0,0-1.895.508,1.613,1.613,0,0,0-.9,1.445,5.3,5.3,0,0,0,.1.791,5.615,5.615,0,0,1,.1.713A1.624,1.624,0,0,1,5-12.559a1.818,1.818,0,0,1-.977.254,1.637,1.637,0,0,1-1.348-.576,1.978,1.978,0,0,1-.469-1.279A4.068,4.068,0,0,1,3.9-17.021a7.26,7.26,0,0,1,4.951-1.494q3.789,0,5.137,2.461a8.5,8.5,0,0,1,.723,3.926V-4.3a5.24,5.24,0,0,0,.156,1.563,1.02,1.02,0,0,0,1.055.762,1.757,1.757,0,0,0,.742-.137,7.586,7.586,0,0,0,1.016-.664v1.016a6.357,6.357,0,0,1-1.348,1.25A3.927,3.927,0,0,1,14.1.234a2.174,2.174,0,0,1-1.924-.859,3.854,3.854,0,0,1-.654-2.051A18.393,18.393,0,0,1,8.984-.762,6.654,6.654,0,0,1,5.605.293,4.061,4.061,0,0,1,2.7-.889,3.978,3.978,0,0,1,1.465-3.887ZM49.141-7.441v2.734h-20.2V-7.441Zm0-8.066v2.734h-20.2v-2.734Z" transform="translate(1258 14409)" fill="#1ec488"/>
    <path id="Trazado_40752" data-name="Trazado 40752" d="M6.394-12.458a3.744,3.744,0,0,1,1.767.422,4.218,4.218,0,0,1,1.015.765v-4.192A2.393,2.393,0,0,0,9-16.572q-.178-.3-.85-.3a2.542,2.542,0,0,0-.277.013l-.527.053v-.435l1.081-.277q.593-.158,1.187-.33t1.042-.33q.211-.066.7-.25l.079.026L11.4-17.02q-.013.751-.026,1.549T11.364-13.9L11.338-3.125a2.447,2.447,0,0,0,.211,1.2q.211.343,1.121.343.145,0,.29-.007a2.171,2.171,0,0,0,.29-.033v.435l-1.912.659L9.268.25,9.176.132V-1.49A6.882,6.882,0,0,1,7.9-.343,4.159,4.159,0,0,1,5.669.25,4.436,4.436,0,0,1,2.037-1.483,6.23,6.23,0,0,1,.646-5.5a7.536,7.536,0,0,1,1.668-4.911A5.08,5.08,0,0,1,6.394-12.458ZM6.882-1.173A2.3,2.3,0,0,0,8.543-1.78a1.679,1.679,0,0,0,.633-1.147V-8.583A2.873,2.873,0,0,0,8.26-11a2.949,2.949,0,0,0-1.786-.705,2.9,2.9,0,0,0-2.584,1.47,6.679,6.679,0,0,0-.923,3.619,7.292,7.292,0,0,0,.982,3.784A3.2,3.2,0,0,0,6.882-1.173ZM19.3-12.248v.409a3.473,3.473,0,0,0-.969.211.572.572,0,0,0-.283.58,1.349,1.349,0,0,0,.059.4q.059.191.2.56L21.054-3.27l2.373-6.038q.171-.435.323-.91a2.613,2.613,0,0,0,.152-.725.761.761,0,0,0-.488-.738,2.713,2.713,0,0,0-.791-.158v-.409h3.744v.409a1.223,1.223,0,0,0-.929.428,9.1,9.1,0,0,0-.824,1.734L20.8-.185a1.991,1.991,0,0,1-.171.343.214.214,0,0,1-.185.092A.264.264,0,0,1,20.224.1a4.053,4.053,0,0,1-.2-.376l-4.034-9.65a3.861,3.861,0,0,0-1.042-1.6,2.1,2.1,0,0,0-.962-.316v-.409Z" transform="translate(1331 14390)" fill="#1ec488"/>
    <path id="Trazado_40657" data-name="Trazado 40657" d="M5576.352,12690.934h44.238" transform="translate(-4254 1706.228)" fill="none" stroke="#1ec488" stroke-width="2"/>
    <path id="Trazado_40755" data-name="Trazado 40755" d="M6.394-12.458a3.744,3.744,0,0,1,1.767.422,4.218,4.218,0,0,1,1.015.765v-4.192A2.393,2.393,0,0,0,9-16.572q-.178-.3-.85-.3a2.542,2.542,0,0,0-.277.013l-.527.053v-.435l1.081-.277q.593-.158,1.187-.33t1.042-.33q.211-.066.7-.25l.079.026L11.4-17.02q-.013.751-.026,1.549T11.364-13.9L11.338-3.125a2.447,2.447,0,0,0,.211,1.2q.211.343,1.121.343.145,0,.29-.007a2.171,2.171,0,0,0,.29-.033v.435l-1.912.659L9.268.25,9.176.132V-1.49A6.882,6.882,0,0,1,7.9-.343,4.159,4.159,0,0,1,5.669.25,4.436,4.436,0,0,1,2.037-1.483,6.23,6.23,0,0,1,.646-5.5a7.536,7.536,0,0,1,1.668-4.911A5.08,5.08,0,0,1,6.394-12.458ZM6.882-1.173A2.3,2.3,0,0,0,8.543-1.78a1.679,1.679,0,0,0,.633-1.147V-8.583A2.873,2.873,0,0,0,8.26-11a2.949,2.949,0,0,0-1.786-.705,2.9,2.9,0,0,0-2.584,1.47,6.679,6.679,0,0,0-.923,3.619,7.292,7.292,0,0,0,.982,3.784A3.2,3.2,0,0,0,6.882-1.173ZM20.369-12.155v.949H17.679l-.026,7.594A5.08,5.08,0,0,0,17.824-2.1a1.218,1.218,0,0,0,1.239.91,1.493,1.493,0,0,0,.824-.224,4.324,4.324,0,0,0,.8-.712l.343.29-.29.4a4.218,4.218,0,0,1-1.45,1.305A3.3,3.3,0,0,1,17.811.25,2.078,2.078,0,0,1,15.7-1.134a5.733,5.733,0,0,1-.3-2.083v-7.989H13.961a.388.388,0,0,1-.1-.079.159.159,0,0,1-.033-.105.315.315,0,0,1,.059-.2,3.954,3.954,0,0,1,.376-.336,11.352,11.352,0,0,0,1.312-1.219q.4-.468,1.892-2.472a.44.44,0,0,1,.2.026q.033.026.033.2v3.243Z" transform="translate(1331 14421)" fill="#1ec488"/>
    <path id="Trazado_40756" data-name="Trazado 40756" d="M-.584-.7a.641.641,0,0,1,.246-.569.878.878,0,0,1,.5-.169A.875.875,0,0,1,.41-1.4a1.252,1.252,0,0,1,.267.118l.359.195a.514.514,0,0,0,.138.056.662.662,0,0,0,.149.015.56.56,0,0,0,.395-.128,10.153,10.153,0,0,0,.713-.9q.379-.5,1.723-2.451,0-.072-.236-1.1T3.486-7.342A3.758,3.758,0,0,0,3.138-8.3a.641.641,0,0,0-.574-.231,3,3,0,0,0-.564.1q-.267.062-.574.144L1.333-8.6l1.138-.39q.441-.154.815-.246a2.744,2.744,0,0,1,.641-.092.8.8,0,0,1,.646.256,3.985,3.985,0,0,1,.554,1.62l.215,1.169A18.227,18.227,0,0,1,6.778-8.275a4.139,4.139,0,0,1,.872-.779,1.48,1.48,0,0,1,.779-.256,1.32,1.32,0,0,1,.564.1.7.7,0,0,1,.39.7.735.735,0,0,1-.195.543.68.68,0,0,1-.5.195A.885.885,0,0,1,8.47-7.8a1.264,1.264,0,0,1-.215-.077l-.267-.113q-.113-.051-.215-.087a.52.52,0,0,0-.154-.036q-.461,0-1.282,1.195a5.757,5.757,0,0,0-.82,1.379,7.922,7.922,0,0,0,.19,1q.19.846.415,1.789a8.515,8.515,0,0,0,.349,1.23q.236.554.533.554a.8.8,0,0,0,.564-.308,12.51,12.51,0,0,0,.861-1.107l.287.174A8.585,8.585,0,0,1,7.8-.841,2.4,2.4,0,0,1,6.1.226a.909.909,0,0,1-.81-.492,3.648,3.648,0,0,1-.338-.943L4.317-3.743,2.215-.984a6.785,6.785,0,0,1-.948.964A1.351,1.351,0,0,1,.441.226a.939.939,0,0,1-.892-.41A.955.955,0,0,1-.584-.7Z" transform="translate(1274 14417)" fill="#1ec488"/>
    <path id="Trazado_40762" data-name="Trazado 40762" d="M11.465-10.82A17.883,17.883,0,0,0,7.754-9.18Q4.941-7.441,4.941-5.234A3,3,0,0,0,6.113-2.617a2.845,2.845,0,0,0,1.7.547,4.667,4.667,0,0,0,2.471-.723,2.12,2.12,0,0,0,1.182-1.836Zm-10,6.934A5.563,5.563,0,0,1,4.3-8.613,42.73,42.73,0,0,1,11.465-11.8v-1.66a6.839,6.839,0,0,0-.391-2.773A2.785,2.785,0,0,0,8.32-17.539a3.794,3.794,0,0,0-1.895.508,1.613,1.613,0,0,0-.9,1.445,5.3,5.3,0,0,0,.1.791,5.615,5.615,0,0,1,.1.713A1.624,1.624,0,0,1,5-12.559a1.818,1.818,0,0,1-.977.254,1.637,1.637,0,0,1-1.348-.576,1.978,1.978,0,0,1-.469-1.279A4.068,4.068,0,0,1,3.9-17.021a7.26,7.26,0,0,1,4.951-1.494q3.789,0,5.137,2.461a8.5,8.5,0,0,1,.723,3.926V-4.3a5.24,5.24,0,0,0,.156,1.563,1.02,1.02,0,0,0,1.055.762,1.757,1.757,0,0,0,.742-.137,7.586,7.586,0,0,0,1.016-.664v1.016a6.357,6.357,0,0,1-1.348,1.25A3.927,3.927,0,0,1,14.1.234a2.174,2.174,0,0,1-1.924-.859,3.854,3.854,0,0,1-.654-2.051A18.393,18.393,0,0,1,8.984-.762,6.654,6.654,0,0,1,5.605.293,4.061,4.061,0,0,1,2.7-.889,3.978,3.978,0,0,1,1.465-3.887ZM49.141-7.441v2.734h-20.2V-7.441Zm0-8.066v2.734h-20.2v-2.734Z" transform="translate(1258 14485)" fill="#1ec488"/>
    <path id="Trazado_40658" data-name="Trazado 40658" d="M5576.352,12690.934h44.238" transform="translate(-4254 1782.228)" fill="none" stroke="#1ec488" stroke-width="2"/>
    <path id="Trazado_40770" data-name="Trazado 40770" d="M2.742-3.059a2.625,2.625,0,0,0,.369,1.4,1.353,1.353,0,0,0,1.252.6q1.885,0,3.625-3.032A10.888,10.888,0,0,0,9.624-9.479a2.969,2.969,0,0,0-.264-1.332,1.076,1.076,0,0,0-1.068-.527q-2,0-3.876,3.243A10.478,10.478,0,0,0,2.742-3.059Zm5.405-8.9a1.871,1.871,0,0,1,1.477.5,2.246,2.246,0,0,1,.4.989l1.5-5.405a2.374,2.374,0,0,0,.086-.4,2.854,2.854,0,0,0,.02-.31q0-.514-.191-.646a.958.958,0,0,0-.547-.132q-.224,0-.415.013t-.508.04v-.435q1.49-.2,4.126-.686l.119.132-.026.145L11.654-8.675,9.927-2.4q-.053.211-.086.389a1.788,1.788,0,0,0-.033.323q0,.356.178.461a.632.632,0,0,0,.31.105q.382,0,1.081-.672Q11.786-2.2,12.5-3.059l.3.29-.185.277a9.657,9.657,0,0,1-1.252,1.477A3.769,3.769,0,0,1,8.925.316,1.327,1.327,0,0,1,8.279.158,1.2,1.2,0,0,1,7.739-.976a7.684,7.684,0,0,1,.079-.883q.079-.606.237-1.318a10.946,10.946,0,0,1-2.2,2.5A4.027,4.027,0,0,1,3.256.3a2.811,2.811,0,0,1-2-.817A3.332,3.332,0,0,1,.4-3.032,9.146,9.146,0,0,1,3.032-8.938Q5.656-11.958,8.147-11.958ZM14.515-.87q0-.105.013-.244a1.684,1.684,0,0,1,.053-.283l2.479-9.215h-2a1.138,1.138,0,0,1,.053-.448.56.56,0,0,1,.264-.185,10.96,10.96,0,0,0,2.063-1.094,12.93,12.93,0,0,0,2-2.03l.211-.25a.31.31,0,0,1,.1-.086.254.254,0,0,1,.125-.033.817.817,0,0,1,.185.053.554.554,0,0,1,.046.165.593.593,0,0,1-.007.152L19.34-11.5h2.149l-.158.883H19.09L16.717-1.74a.626.626,0,0,0,.04.455.366.366,0,0,0,.356.218q.343,0,.962-.686.356-.369,1.2-1.463l.343.2-.185.277a10.209,10.209,0,0,1-2,2.366A2.734,2.734,0,0,1,15.794.29a1.215,1.215,0,0,1-.976-.356A1.207,1.207,0,0,1,14.515-.87Z" transform="translate(1331 14497)" fill="#1ec488"/>
    <path id="Trazado_40771" data-name="Trazado 40771" d="M-.543,3.4A.831.831,0,0,1-.338,2.84.746.746,0,0,1,.256,2.6a1,1,0,0,1,.451.1,2.056,2.056,0,0,1,.41.282l.144.1a.423.423,0,0,0,.138.077.532.532,0,0,0,.169.026q.5,0,1.615-1.328A3.918,3.918,0,0,0,4.3-.072a12.73,12.73,0,0,0-.385-2.256q-.385-1.682-.743-2.994a10.377,10.377,0,0,0-.918-2.5A1.358,1.358,0,0,0,1.025-8.48q-.062,0-.21.015l-.508.056v-.338l2.8-.533L3.322-9.3q.256-.031.984,2.307a27.13,27.13,0,0,1,.82,3.056l.41,2.44Q6.614-3.3,7.116-4.266A7.209,7.209,0,0,0,8.1-6.921a1,1,0,0,0-.062-.344.575.575,0,0,0-.287-.292l-.174-.092a1.558,1.558,0,0,1-.385-.308.828.828,0,0,1-.22-.6A.743.743,0,0,1,7.178-9.1a.811.811,0,0,1,.615-.215,1.155,1.155,0,0,1,.831.3,1.382,1.382,0,0,1,.318,1.031,9.44,9.44,0,0,1-1.2,3.527,35.437,35.437,0,0,1-2.061,3.6A32.185,32.185,0,0,1,3.23,2.5Q1.6,4.358.523,4.358A1.162,1.162,0,0,1-.22,4.1.843.843,0,0,1-.543,3.4Z" transform="translate(1274 14493)" fill="#1ec488"/>
    <path id="Trazado_40753" data-name="Trazado 40753" d="M-.584-.7a.641.641,0,0,1,.246-.569.878.878,0,0,1,.5-.169A.875.875,0,0,1,.41-1.4a1.252,1.252,0,0,1,.267.118l.359.195a.514.514,0,0,0,.138.056.662.662,0,0,0,.149.015.56.56,0,0,0,.395-.128,10.153,10.153,0,0,0,.713-.9q.379-.5,1.723-2.451,0-.072-.236-1.1T3.486-7.342A3.758,3.758,0,0,0,3.138-8.3a.641.641,0,0,0-.574-.231,3,3,0,0,0-.564.1q-.267.062-.574.144L1.333-8.6l1.138-.39q.441-.154.815-.246a2.744,2.744,0,0,1,.641-.092.8.8,0,0,1,.646.256,3.985,3.985,0,0,1,.554,1.62l.215,1.169A18.227,18.227,0,0,1,6.778-8.275a4.139,4.139,0,0,1,.872-.779,1.48,1.48,0,0,1,.779-.256,1.32,1.32,0,0,1,.564.1.7.7,0,0,1,.39.7.735.735,0,0,1-.195.543.68.68,0,0,1-.5.195A.885.885,0,0,1,8.47-7.8a1.264,1.264,0,0,1-.215-.077l-.267-.113q-.113-.051-.215-.087a.52.52,0,0,0-.154-.036q-.461,0-1.282,1.195a5.757,5.757,0,0,0-.82,1.379,7.922,7.922,0,0,0,.19,1q.19.846.415,1.789a8.515,8.515,0,0,0,.349,1.23q.236.554.533.554a.8.8,0,0,0,.564-.308,12.51,12.51,0,0,0,.861-1.107l.287.174A8.585,8.585,0,0,1,7.8-.841,2.4,2.4,0,0,1,6.1.226a.909.909,0,0,1-.81-.492,3.648,3.648,0,0,1-.338-.943L4.317-3.743,2.215-.984a6.785,6.785,0,0,1-.948.964A1.351,1.351,0,0,1,.441.226a.939.939,0,0,1-.892-.41A.955.955,0,0,1-.584-.7Z" transform="translate(1359 14392)" fill="#1ec488"/>
    <path id="Trazado_40757" data-name="Trazado 40757" d="M2.742-3.059a2.625,2.625,0,0,0,.369,1.4,1.353,1.353,0,0,0,1.252.6q1.885,0,3.625-3.032A10.888,10.888,0,0,0,9.624-9.479a2.969,2.969,0,0,0-.264-1.332,1.076,1.076,0,0,0-1.068-.527q-2,0-3.876,3.243A10.478,10.478,0,0,0,2.742-3.059Zm5.405-8.9a1.871,1.871,0,0,1,1.477.5,2.246,2.246,0,0,1,.4.989l1.5-5.405a2.374,2.374,0,0,0,.086-.4,2.854,2.854,0,0,0,.02-.31q0-.514-.191-.646a.958.958,0,0,0-.547-.132q-.224,0-.415.013t-.508.04v-.435q1.49-.2,4.126-.686l.119.132-.026.145L11.654-8.675,9.927-2.4q-.053.211-.086.389a1.788,1.788,0,0,0-.033.323q0,.356.178.461a.632.632,0,0,0,.31.105q.382,0,1.081-.672Q11.786-2.2,12.5-3.059l.3.29-.185.277a9.657,9.657,0,0,1-1.252,1.477A3.769,3.769,0,0,1,8.925.316,1.327,1.327,0,0,1,8.279.158,1.2,1.2,0,0,1,7.739-.976a7.684,7.684,0,0,1,.079-.883q.079-.606.237-1.318a10.946,10.946,0,0,1-2.2,2.5A4.027,4.027,0,0,1,3.256.3a2.811,2.811,0,0,1-2-.817A3.332,3.332,0,0,1,.4-3.032,9.146,9.146,0,0,1,3.032-8.938Q5.656-11.958,8.147-11.958Zm15.319.053a1.332,1.332,0,0,1,1.134.527,1.948,1.948,0,0,1,.4,1.2q0,1.78-3.52,6.236Q18.141.29,17.481.29q-.2,0-.264-.541a9.112,9.112,0,0,1-.04-1.028q0-.883-.171-2.993T16.677-7.4a12.14,12.14,0,0,0-.646-2.874,1.208,1.208,0,0,0-1.2-.646q-.145,0-.336.013t-.442.04v-.343q.4-.079,1.661-.356t1.345-.3L17.495-12q.185-.053.29.2a7.026,7.026,0,0,1,.264.956A44.487,44.487,0,0,1,18.8-6.315q.158,1.384.316,4.1l.435-.461a28.262,28.262,0,0,0,2.716-3.415,6.391,6.391,0,0,0,1.358-2.795,1.555,1.555,0,0,0-.593-.982,1.574,1.574,0,0,1-.593-1.048.93.93,0,0,1,.3-.712A1.032,1.032,0,0,1,23.467-11.9Z" transform="translate(1331 14462)" fill="#1ec488"/>
    <path id="Trazado_40758" data-name="Trazado 40758" d="M-.543,3.4A.831.831,0,0,1-.338,2.84.746.746,0,0,1,.256,2.6a1,1,0,0,1,.451.1,2.056,2.056,0,0,1,.41.282l.144.1a.423.423,0,0,0,.138.077.532.532,0,0,0,.169.026q.5,0,1.615-1.328A3.918,3.918,0,0,0,4.3-.072a12.73,12.73,0,0,0-.385-2.256q-.385-1.682-.743-2.994a10.377,10.377,0,0,0-.918-2.5A1.358,1.358,0,0,0,1.025-8.48q-.062,0-.21.015l-.508.056v-.338l2.8-.533L3.322-9.3q.256-.031.984,2.307a27.13,27.13,0,0,1,.82,3.056l.41,2.44Q6.614-3.3,7.116-4.266A7.209,7.209,0,0,0,8.1-6.921a1,1,0,0,0-.062-.344.575.575,0,0,0-.287-.292l-.174-.092a1.558,1.558,0,0,1-.385-.308.828.828,0,0,1-.22-.6A.743.743,0,0,1,7.178-9.1a.811.811,0,0,1,.615-.215,1.155,1.155,0,0,1,.831.3,1.382,1.382,0,0,1,.318,1.031,9.44,9.44,0,0,1-1.2,3.527,35.437,35.437,0,0,1-2.061,3.6A32.185,32.185,0,0,1,3.23,2.5Q1.6,4.358.523,4.358A1.162,1.162,0,0,1-.22,4.1.843.843,0,0,1-.543,3.4Z" transform="translate(1359 14464)" fill="#1ec488"/>
  </g>
</svg>
