<svg xmlns="http://www.w3.org/2000/svg" width="231.49" height="53" viewBox="0 0 231.49 53">
  <g id="Grupo_16476" data-name="Grupo 16476" transform="translate(-421.51 -13132)">
    <g id="Grupo_16454" data-name="Grupo 16454" transform="translate(-478 -48)">
      <path id="Trazado_40650" data-name="Trazado 40650" d="M19.785-1.8,15.82-21.016,3.574-1.8ZM24.863,0H.41L18.027-27.266h.781ZM39.238-17.637a1.973,1.973,0,0,1,1.68.781,2.885,2.885,0,0,1,.586,1.777q0,2.637-5.215,9.238Q31.348.43,30.371.43q-.293,0-.391-.8a13.5,13.5,0,0,1-.059-1.523q0-1.309-.254-4.434t-.488-4.629a17.986,17.986,0,0,0-.957-4.258,1.79,1.79,0,0,0-1.777-.957q-.215,0-.5.02t-.654.059V-16.6q.586-.117,2.461-.527t1.992-.449l.645-.2q.273-.078.43.3a10.408,10.408,0,0,1,.391,1.416,65.907,65.907,0,0,1,1.113,6.7q.234,2.051.469,6.074l.645-.684a41.87,41.87,0,0,0,4.023-5.059q2.012-2.93,2.012-4.141a2.3,2.3,0,0,0-.879-1.455,2.332,2.332,0,0,1-.879-1.553,1.378,1.378,0,0,1,.439-1.055A1.529,1.529,0,0,1,39.238-17.637Zm47.578,2.461-.488,2.363H66.27l.488-2.363Zm-1.68,7.91L84.648-4.9H64.59l.488-2.363Zm28.848-10.371a1.973,1.973,0,0,1,1.68.781,2.885,2.885,0,0,1,.586,1.777q0,2.637-5.215,9.238Q106.094.43,105.117.43q-.293,0-.391-.8a13.5,13.5,0,0,1-.059-1.523q0-1.309-.254-4.434t-.488-4.629a17.986,17.986,0,0,0-.957-4.258,1.79,1.79,0,0,0-1.777-.957q-.215,0-.5.02t-.654.059V-16.6q.586-.117,2.461-.527t1.992-.449l.645-.2q.273-.078.43.3a10.409,10.409,0,0,1,.391,1.416,65.908,65.908,0,0,1,1.113,6.7q.234,2.051.469,6.074l.645-.684a41.87,41.87,0,0,0,4.023-5.059q2.012-2.93,2.012-4.141a2.3,2.3,0,0,0-.879-1.455,2.332,2.332,0,0,1-.879-1.553,1.378,1.378,0,0,1,.439-1.055A1.529,1.529,0,0,1,113.984-17.637Zm11.973-8.887a2.018,2.018,0,0,1,1.66.82,3.126,3.126,0,0,1,.645,1.992,5.151,5.151,0,0,1-1.494,3.584,12.422,12.422,0,0,1-3.1,2.49l-.605.332-.371-.645a14.544,14.544,0,0,0,1.816-1.426,3.136,3.136,0,0,0,1.211-2.07,1.257,1.257,0,0,0-.1-.488,1.258,1.258,0,0,0-.273-.41l-.371-.371a6.242,6.242,0,0,1-.859-1,1.785,1.785,0,0,1-.215-.937,1.6,1.6,0,0,1,.654-1.445A2.5,2.5,0,0,1,125.957-26.523ZM145.859,5V3.027h20V5Zm20,0V3.027h20V5Zm54.766-22.637a1.973,1.973,0,0,1,1.68.781,2.885,2.885,0,0,1,.586,1.777q0,2.637-5.215,9.238Q212.734.43,211.758.43q-.293,0-.391-.8a13.5,13.5,0,0,1-.059-1.523q0-1.309-.254-4.434t-.488-4.629a17.985,17.985,0,0,0-.957-4.258,1.79,1.79,0,0,0-1.777-.957q-.215,0-.5.02t-.654.059V-16.6q.586-.117,2.461-.527t1.992-.449l.645-.2q.273-.078.43.3a10.407,10.407,0,0,1,.391,1.416,65.9,65.9,0,0,1,1.113,6.7q.234,2.051.469,6.074l.645-.684a41.87,41.87,0,0,0,4.023-5.059q2.012-2.93,2.012-4.141a2.3,2.3,0,0,0-.879-1.455,2.332,2.332,0,0,1-.879-1.553,1.378,1.378,0,0,1,.439-1.055A1.529,1.529,0,0,1,220.625-17.637Z" transform="translate(900 13228)" fill="#1ec488"/>
      <g id="Grupo_16451" data-name="Grupo 16451" transform="translate(870.438 13180)">
        <path id="Trazado_38311" data-name="Trazado 38311" d="M2272,538.629h38.748" transform="translate(-2242.927 -533.501)" fill="none" stroke="#1ec488" stroke-width="1"/>
        <path id="Polígono_10" data-name="Polígono 10" d="M5,0l5,8H0Z" transform="translate(72.563) rotate(90)" fill="#1ec488"/>
      </g>
      <g id="Grupo_16452" data-name="Grupo 16452" transform="translate(958.438 13180)">
        <path id="Trazado_38311-2" data-name="Trazado 38311" d="M2272,538.629h30.922" transform="translate(-2235.102 -533.501)" fill="none" stroke="#1ec488" stroke-width="1"/>
        <path id="Polígono_10-2" data-name="Polígono 10" d="M5,0l5,8H0Z" transform="translate(72.563) rotate(90)" fill="#1ec488"/>
      </g>
      <g id="Grupo_16453" data-name="Grupo 16453" transform="translate(1058.438 13193)">
        <path id="Trazado_38311-3" data-name="Trazado 38311" d="M2272,538.629h25.617" transform="translate(-2229.797 -533.501)" fill="none" stroke="#1ec488" stroke-width="1"/>
        <path id="Polígono_10-3" data-name="Polígono 10" d="M5,0l5,8H0Z" transform="translate(72.563) rotate(90)" fill="#1ec488"/>
      </g>
    </g>
  </g>
</svg>
