<svg xmlns="http://www.w3.org/2000/svg" width="582.266" height="107.365" viewBox="0 0 582.266 107.365">
  <g id="Grupo_16438" data-name="Grupo 16438" transform="translate(-397.434 -2134.793)">
    <path id="Trazado_40580" data-name="Trazado 40580" d="M11.836-26.836a.418.418,0,0,1,.088.146,1.526,1.526,0,0,1,.01.225V-2.949q0,1.5.8,1.914a8,8,0,0,0,2.988.488V0H4.707V-.586A6.454,6.454,0,0,0,7.793-1.23q.723-.527.723-2.285V-21.6a3.4,3.4,0,0,0-.234-1.426,1.01,1.01,0,0,0-1.016-.488,4.216,4.216,0,0,0-1.318.283q-.811.283-1.514.6v-.547L11.6-26.836ZM20.078-.547a4.8,4.8,0,0,0,2.471-.625,2.724,2.724,0,0,0,.6-2.109v-19.57q0-1.387-.469-1.758a2.129,2.129,0,0,0-1.348-.371q-.371,0-.645.02t-.605.059v-.547l1.758-.469q2.012-.527,3.418-1a6.023,6.023,0,0,1,1-.293q.117,0,.146.049a.53.53,0,0,1,.029.225v16.426l5.41-4.766a4.971,4.971,0,0,0,.791-.84,1.042,1.042,0,0,0,.205-.547.535.535,0,0,0-.439-.566A8.84,8.84,0,0,0,30.82-17.4v-.547h8.145v.547a8.382,8.382,0,0,0-3.516.869,36.369,36.369,0,0,0-5.1,4.189L29.2-11.289,32.813-6.6a34.4,34.4,0,0,0,4.18,4.775A5.314,5.314,0,0,0,39.98-.508V0H31.289V-.547l.684-.039a1.793,1.793,0,0,0,.605-.137.4.4,0,0,0,.273-.391.847.847,0,0,0-.1-.4,3.216,3.216,0,0,0-.273-.42L26.426-9.9v7.227a1.771,1.771,0,0,0,1,1.8,5.389,5.389,0,0,0,2.012.293V0H20.078Zm23.848,4.16a2.313,2.313,0,0,0,1.846,2.266A13.163,13.163,0,0,0,50,6.5a10.85,10.85,0,0,0,5.273-1.123Q57.3,4.258,57.3,2.617q0-1.309-1.641-1.738A20.049,20.049,0,0,0,51.816.586q-.723-.02-1.523-.049T48.828.469Q48.4.449,47.441.313T46.016.078q-.234,0-1.152,1.23A3.951,3.951,0,0,0,43.926,3.613ZM46.465-6.562A5.114,5.114,0,0,1,43.7-8.652a6.026,6.026,0,0,1-.986-3.379,6.463,6.463,0,0,1,1.816-4.336,6.5,6.5,0,0,1,5.137-2.051,8.692,8.692,0,0,1,3.145.674,9.032,9.032,0,0,0,3.3.674q.41,0,1.24-.029t1.2-.029h.234v1.582H55.41q.352.82.547,1.426a7.644,7.644,0,0,1,.332,2.148,5.72,5.72,0,0,1-1.846,4.092,6.678,6.678,0,0,1-4.971,1.865,15.259,15.259,0,0,1-1.758-.176q-.566,0-1.494.957a2.633,2.633,0,0,0-.928,1.563q0,.625,1.367.918a9.4,9.4,0,0,0,1.992.2,26.748,26.748,0,0,1,6.816.566,3.8,3.8,0,0,1,2.949,3.945q0,3.086-3.447,4.922a14.675,14.675,0,0,1-6.963,1.836,8.782,8.782,0,0,1-5.078-1.3q-1.875-1.3-1.875-2.725a2.3,2.3,0,0,1,.5-1.377,16.25,16.25,0,0,1,1.963-2L44.8.156l.234-.234a6.056,6.056,0,0,1-1.348-.684,1.74,1.74,0,0,1-.781-1.387,2.689,2.689,0,0,1,.674-1.592A25.836,25.836,0,0,1,46.465-6.562Zm3.711-.391a2.761,2.761,0,0,0,1.8-.586A3.959,3.959,0,0,0,53.145-10.8a11.232,11.232,0,0,0-.947-4.18A3.254,3.254,0,0,0,49.043-17.3a2.632,2.632,0,0,0-2.637,1.816,6.571,6.571,0,0,0-.371,2.363,8.067,8.067,0,0,0,1.152,4.277A3.419,3.419,0,0,0,50.176-6.953Zm41.211-.488v2.734h-20.2V-7.441Zm0-8.066v2.734h-20.2v-2.734Z" transform="translate(393 2192)" fill="#1ec488"/>
    <path id="Trazado_40550" data-name="Trazado 40550" d="M2066,372h344.214" transform="translate(-1559 1811)" fill="none" stroke="#1ec488" stroke-width="2"/>
    <path id="Trazado_40581" data-name="Trazado 40581" d="M-5.566-26.191l2.021-.283q.771-.107,1.338-.205,2.3-.449,2.48-.488a1.354,1.354,0,0,1,.273-.039q.234.117.234.293L-3.809-9.473A46.833,46.833,0,0,1,.215-14.785q2.734-2.891,5.02-2.891a3.152,3.152,0,0,1,1.807.6,2.41,2.41,0,0,1,.869,2.139,6.068,6.068,0,0,1-.1.957,8.228,8.228,0,0,1-.234,1.035L4.941-3.594q-.117.391-.2.752a3.123,3.123,0,0,0-.078.654.7.7,0,0,0,.156.5.587.587,0,0,0,.449.166A2.234,2.234,0,0,0,6.7-2.363q.508-.527,1.895-2.3L9.1-4.2A19.838,19.838,0,0,1,6.777-1.23,4.956,4.956,0,0,1,3.359.43,1.853,1.853,0,0,1,2.051-.059a1.822,1.822,0,0,1-.527-1.406,3.7,3.7,0,0,1,.029-.479,3.461,3.461,0,0,1,.107-.5L4.668-13.887q.039-.156.068-.322a1.963,1.963,0,0,0,.029-.342.991.991,0,0,0-.293-.762,1.172,1.172,0,0,0-.8-.273q-1.309,0-3.3,2.1A27.2,27.2,0,0,0-2.988-9.2,15.59,15.59,0,0,0-4.4-6.289Q-4.883-4.922-6.25,0H-9.277l6.25-23.691a3.867,3.867,0,0,0,.078-.43,3.014,3.014,0,0,0,.02-.332q0-.84-.547-1.006a7.27,7.27,0,0,0-2.09-.088Zm-115.723,87.3a10.06,10.06,0,0,1-2.295,6.445,7.283,7.283,0,0,1-5.967,2.871,8.239,8.239,0,0,1-6.26-3.223,12.548,12.548,0,0,1-2.822-8.574A15.414,15.414,0,0,1-133.164,46.8a16.532,16.532,0,0,1,10.977-4.141l.1.645a19.3,19.3,0,0,0-4.209,1.221,10.2,10.2,0,0,0-3.154,2.158,16.712,16.712,0,0,0-2.676,3.574,15.135,15.135,0,0,0-1.719,4.3,14.357,14.357,0,0,1,2.09-1.094,8.407,8.407,0,0,1,3.145-.625A7.018,7.018,0,0,1-123.4,54.98,8.389,8.389,0,0,1-121.289,61.113Zm-3.574,1.5a12.128,12.128,0,0,0-.82-4.609,4.755,4.755,0,0,0-4.648-3.359q-3.027,0-4.023,1.8a7.7,7.7,0,0,0-.586,3.516,15.167,15.167,0,0,0,1.357,6.23,4.492,4.492,0,0,0,4.287,3.047,3.556,3.556,0,0,0,3.379-1.982A9.735,9.735,0,0,0-124.863,62.617ZM-110.2,69.59a5.605,5.605,0,0,1-1.426,3.672,8.789,8.789,0,0,1-3.066,2.441l-.371-.781a6.651,6.651,0,0,0,2.588-2.285,4.356,4.356,0,0,0,.713-2.051.343.343,0,0,0-.176-.352.9.9,0,0,0-.371-.078l-1.309.137a2.379,2.379,0,0,1-1.5-.537A1.857,1.857,0,0,1-115.8,68.2a2.488,2.488,0,0,1,.566-1.523,2.187,2.187,0,0,1,1.855-.742,3.06,3.06,0,0,1,2.207.967A3.609,3.609,0,0,1-110.2,69.59Zm18.906-8.477a10.06,10.06,0,0,1-2.295,6.445,7.283,7.283,0,0,1-5.967,2.871,8.239,8.239,0,0,1-6.26-3.223,12.548,12.548,0,0,1-2.822-8.574A15.414,15.414,0,0,1-103.164,46.8a16.532,16.532,0,0,1,10.977-4.141l.1.645A19.3,19.3,0,0,0-96.3,44.521a10.2,10.2,0,0,0-3.154,2.158,16.712,16.712,0,0,0-2.676,3.574,15.134,15.134,0,0,0-1.719,4.3,14.356,14.356,0,0,1,2.09-1.094,8.407,8.407,0,0,1,3.145-.625A7.018,7.018,0,0,1-93.4,54.98,8.389,8.389,0,0,1-91.289,61.113Zm-3.574,1.5a12.128,12.128,0,0,0-.82-4.609,4.755,4.755,0,0,0-4.648-3.359q-3.027,0-4.023,1.8a7.7,7.7,0,0,0-.586,3.516,15.167,15.167,0,0,0,1.357,6.23A4.492,4.492,0,0,0-99.3,69.238a3.556,3.556,0,0,0,3.379-1.982A9.735,9.735,0,0,0-94.863,62.617Zm6.055,6.934a127.077,127.077,0,0,0,9.707-10.9,11.487,11.487,0,0,0,2.559-6.777,5.855,5.855,0,0,0-1.562-4.4,5.175,5.175,0,0,0-3.73-1.514,5.419,5.419,0,0,0-4.336,1.953,11.334,11.334,0,0,0-1.758,3.3l-.84-.176q.977-4.492,3.311-6.24a8.2,8.2,0,0,1,5.01-1.748,7.15,7.15,0,0,1,5.342,2.08,6.988,6.988,0,0,1,2.041,5.088,10.213,10.213,0,0,1-2.207,6.172,132.9,132.9,0,0,1-9.59,10.566H-75.9a5.557,5.557,0,0,0,2.637-.449,5.857,5.857,0,0,0,1.719-2.187l.508.234L-73.2,70H-88.809Zm37.52-8.437a10.06,10.06,0,0,1-2.295,6.445,7.283,7.283,0,0,1-5.967,2.871,8.239,8.239,0,0,1-6.26-3.223,12.548,12.548,0,0,1-2.822-8.574A15.414,15.414,0,0,1-63.164,46.8a16.532,16.532,0,0,1,10.977-4.141l.1.645A19.3,19.3,0,0,0-56.3,44.521a10.2,10.2,0,0,0-3.154,2.158,16.712,16.712,0,0,0-2.676,3.574,15.135,15.135,0,0,0-1.719,4.3,14.357,14.357,0,0,1,2.09-1.094,8.407,8.407,0,0,1,3.145-.625A7.018,7.018,0,0,1-53.4,54.98,8.389,8.389,0,0,1-51.289,61.113Zm-3.574,1.5a12.128,12.128,0,0,0-.82-4.609,4.755,4.755,0,0,0-4.648-3.359q-3.027,0-4.023,1.8a7.7,7.7,0,0,0-.586,3.516,15.167,15.167,0,0,0,1.357,6.23A4.492,4.492,0,0,0-59.3,69.238a3.556,3.556,0,0,0,3.379-1.982A9.735,9.735,0,0,0-54.863,62.617Zm24.434,6.66q2.871,0,3.945-3.145a29.618,29.618,0,0,0,1.074-9.1,35.524,35.524,0,0,0-.645-7.578q-1.211-5.273-4.531-5.273t-4.551,5.43a36.267,36.267,0,0,0-.645,7.617,30.326,30.326,0,0,0,.664,7.09Q-33.867,69.277-30.43,69.277Zm-.059-26.152q4.492,0,6.973,4.707a18.754,18.754,0,0,1,1.973,8.75,21.884,21.884,0,0,1-1.211,7.324q-2.285,6.465-7.91,6.465a7.481,7.481,0,0,1-6.328-3.5q-2.656-3.73-2.656-10.137a19.553,19.553,0,0,1,1.777-8.672Q-35.469,43.125-30.488,43.125Zm28.438.41v.645l-8.477,26.191h-2.578L-5.2,46.484h-8.516a4.6,4.6,0,0,0-2.725.625,10.609,10.609,0,0,0-2.1,2.617l-.684-.312q1.27-3.125,1.572-3.857t.791-2.021ZM9.57,69.277q2.871,0,3.945-3.145a29.618,29.618,0,0,0,1.074-9.1,35.524,35.524,0,0,0-.645-7.578Q12.734,44.18,9.414,44.18t-4.551,5.43a36.267,36.267,0,0,0-.645,7.617,30.326,30.326,0,0,0,.664,7.09Q6.133,69.277,9.57,69.277ZM9.512,43.125q4.492,0,6.973,4.707a18.754,18.754,0,0,1,1.973,8.75,21.884,21.884,0,0,1-1.211,7.324q-2.285,6.465-7.91,6.465a7.481,7.481,0,0,1-6.328-3.5Q.352,63.145.352,56.738a19.553,19.553,0,0,1,1.777-8.672Q4.531,43.125,9.512,43.125Zm22.324.039a.418.418,0,0,1,.088.146,1.526,1.526,0,0,1,.01.225V67.051q0,1.5.8,1.914a8,8,0,0,0,2.988.488V70H24.707v-.586a6.454,6.454,0,0,0,3.086-.645q.723-.527.723-2.285V48.4a3.4,3.4,0,0,0-.234-1.426,1.01,1.01,0,0,0-1.016-.488,4.216,4.216,0,0,0-1.318.283q-.811.283-1.514.6v-.547L31.6,43.164ZM42.988,66.426a5.667,5.667,0,0,1,2.92,1.26,5.651,5.651,0,0,0,2.783,1.26,5.021,5.021,0,0,0,3.926-1.982A7.281,7.281,0,0,0,54.3,62.09q0-5.059-5.391-7.285a14.691,14.691,0,0,0-5.566-1.23,2.824,2.824,0,0,1-.537-.029.639.639,0,0,1-.264-.205q.039-.156.068-.264a1.893,1.893,0,0,1,.068-.205l4.258-9.336h8.379a1.819,1.819,0,0,0,.967-.215,5.043,5.043,0,0,0,.889-.8l.313.273-1.523,3.613q-.078.176-.43.225a5.551,5.551,0,0,1-.762.049H47.207L45.547,50.1a35.665,35.665,0,0,1,4.688,1.035,10.551,10.551,0,0,1,4.082,2.422,9.493,9.493,0,0,1,2.129,3.115,9.873,9.873,0,0,1-2.354,10.869,10.916,10.916,0,0,1-7.783,2.891,10.5,10.5,0,0,1-3.086-.371q-1.953-.605-1.953-2.168a1.438,1.438,0,0,1,.42-1.025A1.721,1.721,0,0,1,42.988,66.426Zm36.27-14.375V52.6A4.075,4.075,0,0,0,78,52.8a.742.742,0,0,0-.518.771,7.254,7.254,0,0,0,1.035,2.09q.547.9,1.387,2.207,1.152-1.582,1.719-2.48a5.157,5.157,0,0,0,.957-1.875.672.672,0,0,0-.41-.684,3.78,3.78,0,0,0-1.152-.234v-.547H87.3V52.6a4.67,4.67,0,0,0-1.855.537,3.876,3.876,0,0,0-1.387,1.221l-3.34,4.824,5.156,7.813a6.984,6.984,0,0,0,1.689,1.973,3.12,3.12,0,0,0,1.592.488V70H81.094v-.547l.566-.039a1.4,1.4,0,0,0,.752-.273.714.714,0,0,0,.3-.586,4.83,4.83,0,0,0-.742-1.641q-.352-.625-1.055-1.7-.332-.527-.986-1.465t-1.1-1.6l-3.145,4.9a12.974,12.974,0,0,0-.7,1.172,1.214,1.214,0,0,0-.137.488.47.47,0,0,0,.3.488,7.275,7.275,0,0,0,1.318.254V70H70.684v-.547a4.644,4.644,0,0,0,1.563-.547,6.146,6.146,0,0,0,1.348-1.543l4.551-6.621-3.75-5.684a10.043,10.043,0,0,0-1.562-2.012,4.343,4.343,0,0,0-1.875-.449v-.547Zm32.578-8.887a.418.418,0,0,1,.088.146,1.527,1.527,0,0,1,.01.225V67.051q0,1.5.8,1.914a8,8,0,0,0,2.988.488V70H104.707v-.586a6.454,6.454,0,0,0,3.086-.645q.723-.527.723-2.285V48.4a3.4,3.4,0,0,0-.234-1.426,1.01,1.01,0,0,0-1.016-.488,4.216,4.216,0,0,0-1.318.283q-.811.283-1.514.6v-.547l7.168-3.652ZM129.57,69.277q2.871,0,3.945-3.145a29.618,29.618,0,0,0,1.074-9.1,35.524,35.524,0,0,0-.645-7.578q-1.211-5.273-4.531-5.273t-4.551,5.43a36.267,36.267,0,0,0-.645,7.617,30.326,30.326,0,0,0,.664,7.09Q126.133,69.277,129.57,69.277Zm-.059-26.152q4.492,0,6.973,4.707a18.754,18.754,0,0,1,1.973,8.75,21.884,21.884,0,0,1-1.211,7.324q-2.285,6.465-7.91,6.465a7.481,7.481,0,0,1-6.328-3.5q-2.656-3.73-2.656-10.137a19.553,19.553,0,0,1,1.777-8.672Q124.531,43.125,129.512,43.125Z" transform="translate(667 2162)" fill="#1ec488"/>
    <path id="Trazado_40554" data-name="Trazado 40554" d="M1992.906,327s-35.7,42.891,0,103.651" transform="translate(-1487 1811)" fill="none" stroke="#1ec488" stroke-width="2"/>
    <path id="Trazado_40555" data-name="Trazado 40555" d="M1977.038,327s35.7,42.891,0,103.651" transform="translate(-1126 1811)" fill="none" stroke="#1ec488" stroke-width="2"/>
    <path id="Trazado_40582" data-name="Trazado 40582" d="M-14.431-5.907h5.649V-4.47h-5.649Zm8.546,3.953a3.376,3.376,0,0,1,1.634.64,3.43,3.43,0,0,0,1.724.64A2.686,2.686,0,0,0-.191-1.735,3.87,3.87,0,0,0,.573-4.043,3.668,3.668,0,0,0-.045-6.154,3.949,3.949,0,0,0-3.571-7.693q-.146,0-.281.006t-.314.028l-.022-.292a9.732,9.732,0,0,0,2.83-1.494A2.727,2.727,0,0,0-.326-11.668a2.229,2.229,0,0,0-.814-1.864A2.926,2.926,0,0,0-3-14.173a3.046,3.046,0,0,0-2.179.91,6.952,6.952,0,0,0-1.112,1.527l-.348-.079a5.153,5.153,0,0,1,1.673-2.729,4.286,4.286,0,0,1,2.83-1.022,3.58,3.58,0,0,1,2.656.943,3,3,0,0,1,.938,2.179,3.015,3.015,0,0,1-.775,2A7.186,7.186,0,0,1-.674-9.288,5.8,5.8,0,0,1,1.056-8.209,3.971,3.971,0,0,1,2.28-5.222,5.094,5.094,0,0,1,.6-1.46,6.584,6.584,0,0,1-4.178.168a3.39,3.39,0,0,1-1.937-.41,1.129,1.129,0,0,1-.556-.882.977.977,0,0,1,.185-.562A.677.677,0,0,1-5.885-1.954ZM10.534-13.117,5.02-5.323h5.514Zm.741-2.313h1.067V-5.323h2.347V-3.83H12.342V0H10.557V-3.83H4.088V-5.323Z" transform="translate(826 2214)" fill="#1ec488"/>
    <path id="Trazado_40583" data-name="Trazado 40583" d="M-42.7-.508a4.465,4.465,0,0,0,2.031-.508,2.663,2.663,0,0,0,.781-2.266v-10.1a3.178,3.178,0,0,0-.381-1.895,1.569,1.569,0,0,0-1.26-.449,3.564,3.564,0,0,0-.615.039,3.28,3.28,0,0,0-.479.137v-.684l1.406-.469q.762-.254,2.5-.918t1.836-.664a.109.109,0,0,1,.117.1,2.274,2.274,0,0,1,.02.371v2.637a14.9,14.9,0,0,1,3.34-2.432,6.619,6.619,0,0,1,2.891-.674,4.034,4.034,0,0,1,3.2,1.367A5.935,5.935,0,0,1-26.27-14.9a16.29,16.29,0,0,1,2.52-2.168,6.859,6.859,0,0,1,3.789-1.211,4.1,4.1,0,0,1,4.2,2.559,12.673,12.673,0,0,1,.605,4.57v8.105a2.335,2.335,0,0,0,.615,1.885,4.333,4.333,0,0,0,2.217.654V0h-8.809V-.547A3.85,3.85,0,0,0-18.9-1.23a3.088,3.088,0,0,0,.537-2.148V-11.8a7.115,7.115,0,0,0-.41-2.793,2.8,2.8,0,0,0-2.832-1.6,4.484,4.484,0,0,0-2.52.84A12.479,12.479,0,0,0-25.9-13.789v10a4.283,4.283,0,0,0,.557,2.4,2.815,2.815,0,0,0,2.354.879V0h-8.965V-.508a3.577,3.577,0,0,0,2.363-.9,6.408,6.408,0,0,0,.508-3.262v-5.469a14.644,14.644,0,0,0-.391-4.141,2.623,2.623,0,0,0-2.734-1.914,4.7,4.7,0,0,0-2.344.654,7.363,7.363,0,0,0-2.031,1.709V-3.145a3.075,3.075,0,0,0,.518,2.051,3.2,3.2,0,0,0,2.256.586V0H-42.7ZM29.844-6.152h.645A10.2,10.2,0,0,0,31.7-2.734a4.432,4.432,0,0,0,4,2.188,3.215,3.215,0,0,0,2.314-.811,2.771,2.771,0,0,0,.85-2.1,2.891,2.891,0,0,0-.488-1.582A5.007,5.007,0,0,0,36.66-6.523l-2.187-1.25a12.47,12.47,0,0,1-3.535-2.6A4.564,4.564,0,0,1,29.8-13.457a4.619,4.619,0,0,1,1.563-3.594,5.648,5.648,0,0,1,3.926-1.406,7.626,7.626,0,0,1,2.275.391,10.543,10.543,0,0,0,1.4.391,1,1,0,0,0,.508-.1.818.818,0,0,0,.273-.312h.469l.137,5.449h-.605a9.035,9.035,0,0,0-1.055-2.949,3.876,3.876,0,0,0-3.5-1.953,2.79,2.79,0,0,0-2.148.84,2.8,2.8,0,0,0-.781,1.973q0,1.8,2.7,3.2l2.578,1.387Q41.7-7.871,41.7-4.863a4.716,4.716,0,0,1-1.729,3.77A6.754,6.754,0,0,1,35.449.371,10.563,10.563,0,0,1,32.793-.02,11.994,11.994,0,0,0,31.035-.41a.579.579,0,0,0-.41.166,1.153,1.153,0,0,0-.273.4h-.508Z" transform="translate(938 2199)" fill="#1ec488"/>
    <path id="Trazado_40584" data-name="Trazado 40584" d="M-8.681-5.907h5.649V-4.47H-8.681ZM-1.235-.258A73.07,73.07,0,0,0,4.346-6.525a6.605,6.605,0,0,0,1.471-3.9,3.367,3.367,0,0,0-.9-2.532,2.975,2.975,0,0,0-2.145-.87A3.116,3.116,0,0,0,.281-12.7,6.517,6.517,0,0,0-.73-10.8l-.483-.1a5.865,5.865,0,0,1,1.9-3.588A4.715,4.715,0,0,1,3.571-15.5a4.111,4.111,0,0,1,3.072,1.2,4.018,4.018,0,0,1,1.174,2.926A5.873,5.873,0,0,1,6.547-7.828,76.416,76.416,0,0,1,1.033-1.752H6.188A3.2,3.2,0,0,0,7.7-2.01a3.368,3.368,0,0,0,.988-1.258l.292.135L7.738,0H-1.235Z" transform="translate(938 2176)" fill="#1ec488"/>
  </g>
</svg>
