<svg xmlns="http://www.w3.org/2000/svg" width="382.991" height="82.493" viewBox="0 0 382.991 82.493">
  <g id="Grupo_16473" data-name="Grupo 16473" transform="translate(-1011.504 -10630.788)">
    <path id="Trazado_40711" data-name="Trazado 40711" d="M1.5-1.289q0-.156.02-.361A2.5,2.5,0,0,1,1.6-2.07L5.273-15.723H2.3a1.687,1.687,0,0,1,.078-.664.83.83,0,0,1,.391-.273A16.237,16.237,0,0,0,5.83-18.281a19.156,19.156,0,0,0,2.959-3.008L9.1-21.66a.46.46,0,0,1,.146-.127.376.376,0,0,1,.186-.049,1.211,1.211,0,0,1,.273.078.821.821,0,0,1,.068.244.879.879,0,0,1-.01.225L8.652-17.031h3.184L11.6-15.723H8.281L4.766-2.578a.927.927,0,0,0,.059.674.542.542,0,0,0,.527.322q.508,0,1.426-1.016Q7.3-3.145,8.555-4.766l.508.293-.273.41A15.125,15.125,0,0,1,5.83-.557,4.05,4.05,0,0,1,3.4.43,1.8,1.8,0,0,1,1.953-.1,1.788,1.788,0,0,1,1.5-1.289ZM45.7-15.176l-.488,2.363H25.156l.488-2.363Zm-1.68,7.91L43.535-4.9H23.477l.488-2.363Z" transform="translate(1010 10682)" fill="#1ec488"/>
    <path id="Trazado_40710" data-name="Trazado 40710" d="M14.766-17.637a1.973,1.973,0,0,1,1.68.781,2.885,2.885,0,0,1,.586,1.777q0,2.637-5.215,9.238Q6.875.43,5.9.43q-.293,0-.391-.8a13.5,13.5,0,0,1-.059-1.523q0-1.309-.254-4.434t-.488-4.629a17.985,17.985,0,0,0-.957-4.258,1.79,1.79,0,0,0-1.777-.957q-.215,0-.5.02t-.654.059V-16.6q.586-.117,2.461-.527t1.992-.449l.645-.2q.273-.078.43.3a10.408,10.408,0,0,1,.391,1.416,65.907,65.907,0,0,1,1.113,6.7Q8.086-7.3,8.32-3.281l.645-.684a41.87,41.87,0,0,0,4.023-5.059Q15-11.953,15-13.164a2.3,2.3,0,0,0-.879-1.455,2.332,2.332,0,0,1-.879-1.553,1.378,1.378,0,0,1,.439-1.055A1.529,1.529,0,0,1,14.766-17.637Z" transform="translate(1091 10662)" fill="#1ec488"/>
    <path id="Trazado_40643" data-name="Trazado 40643" d="M2066,372h49" transform="translate(-992 10300.319)" fill="none" stroke="#1ec488" stroke-width="2"/>
    <path id="Trazado_40712" data-name="Trazado 40712" d="M4.132-.41q1.958,0,3.394-3.9a18.266,18.266,0,0,0,1.241-6.378,5.283,5.283,0,0,0-.226-1.7,1.555,1.555,0,0,0-1.548-1.23q-2.1,0-3.558,4.532A19.725,19.725,0,0,0,2.328-3.312a5.069,5.069,0,0,0,.226,1.63A1.6,1.6,0,0,0,4.132-.41Zm2.892-13.8a2.94,2.94,0,0,1,2.84,1.958,7.354,7.354,0,0,1,.564,2.984,11.292,11.292,0,0,1-1.979,6.6Q6.5.123,4.05.123a3,3,0,0,1-2.41-1.215A5.193,5.193,0,0,1,.656-4.45a12.152,12.152,0,0,1,1.938-6.634Q4.583-14.212,7.024-14.212Z" transform="translate(1105 10667)" fill="#1ec488"/>
    <path id="Trazado_40714" data-name="Trazado 40714" d="M6.934-10A4.258,4.258,0,0,0,7.3-8.066,2.31,2.31,0,0,0,9.551-6.875q1.758,0,3.135-2.236a9.223,9.223,0,0,0,1.377-4.932,3.23,3.23,0,0,0-.566-2.021,2.014,2.014,0,0,0-1.7-.732,3.989,3.989,0,0,0-3.525,2.324A8.974,8.974,0,0,0,6.934-10ZM7.617,7.422a6.4,6.4,0,0,0,3.857-1.113,3.23,3.23,0,0,0,1.533-2.656,2.681,2.681,0,0,0-.8-1.973A5.625,5.625,0,0,0,10.82.762Q10.02.371,8.115-.361a12.416,12.416,0,0,0-2.2-.732q-.508,0-1.973,1.357A4.105,4.105,0,0,0,2.48,3.34,3.568,3.568,0,0,0,4.727,6.914,7.274,7.274,0,0,0,7.617,7.422ZM.313,3.848A4.237,4.237,0,0,1,1.436,1.064,12.334,12.334,0,0,1,5-1.562a4,4,0,0,1-.8-.654,1.294,1.294,0,0,1-.312-.908A2.8,2.8,0,0,1,5-4.961,17.891,17.891,0,0,1,7.031-6.5,6.231,6.231,0,0,1,4.883-7.832,4.163,4.163,0,0,1,3.789-10.82a6.16,6.16,0,0,1,2.3-4.9,8.518,8.518,0,0,1,5.7-1.953,7.277,7.277,0,0,1,3.008.557,3.524,3.524,0,0,1,1.445.928h2.637v1.563H16.895a7.993,7.993,0,0,1,.176.781,6.448,6.448,0,0,1,.059,1,5.862,5.862,0,0,1-2.451,4.98A8.7,8.7,0,0,1,9.395-6.055a4.783,4.783,0,0,1-.547-.029q-.254-.029-.625-.107-.293,0-.8.566a1.6,1.6,0,0,0-.527,1.016q0,.664,4.3,2.266Q15.469-.723,15.469,2.4A5.215,5.215,0,0,1,13.32,6.514Q11.172,8.281,6.836,8.281A7.9,7.9,0,0,1,2.07,6.992,3.8,3.8,0,0,1,.313,3.848Z" transform="translate(1091 10703)" fill="#1ec488"/>
    <path id="Trazado_40713" data-name="Trazado 40713" d="M-1.113-1.328A1.22,1.22,0,0,1-.645-2.412a1.672,1.672,0,0,1,.957-.322,1.667,1.667,0,0,1,.469.068,2.386,2.386,0,0,1,.508.225l.684.371a.979.979,0,0,0,.264.107,1.262,1.262,0,0,0,.283.029,1.067,1.067,0,0,0,.752-.244A19.339,19.339,0,0,0,4.629-3.887q.723-.957,3.281-4.668,0-.137-.449-2.1t-.82-3.33a7.158,7.158,0,0,0-.664-1.826,1.221,1.221,0,0,0-1.094-.439,5.715,5.715,0,0,0-1.074.2q-.508.117-1.094.273l-.176-.605,2.168-.742q.84-.293,1.553-.469a5.227,5.227,0,0,1,1.221-.176,1.516,1.516,0,0,1,1.23.488A7.591,7.591,0,0,1,9.766-14.2l.41,2.227a34.719,34.719,0,0,1,2.734-3.789,7.883,7.883,0,0,1,1.66-1.484,2.819,2.819,0,0,1,1.484-.488,2.515,2.515,0,0,1,1.074.2,1.33,1.33,0,0,1,.742,1.328,1.4,1.4,0,0,1-.371,1.035,1.3,1.3,0,0,1-.957.371,1.685,1.685,0,0,1-.41-.049,2.407,2.407,0,0,1-.41-.146l-.508-.215q-.215-.1-.41-.166a.991.991,0,0,0-.293-.068q-.879,0-2.441,2.275a10.966,10.966,0,0,0-1.562,2.627,15.09,15.09,0,0,0,.361,1.9q.361,1.611.791,3.408a16.218,16.218,0,0,0,.664,2.344q.449,1.055,1.016,1.055a1.525,1.525,0,0,0,1.074-.586,23.828,23.828,0,0,0,1.641-2.109L16.6-4.2a16.352,16.352,0,0,1-1.738,2.6Q13.164.43,11.621.43a1.732,1.732,0,0,1-1.543-.937,6.948,6.948,0,0,1-.645-1.8L8.223-7.129l-4,5.254A12.923,12.923,0,0,1,2.412-.039,2.574,2.574,0,0,1,.84.43a1.789,1.789,0,0,1-1.7-.781A1.818,1.818,0,0,1-1.113-1.328ZM52.344-15.176l-.488,2.363H31.8l.488-2.363Zm-1.68,7.91L50.176-4.9H30.117l.488-2.363ZM63.633-1.328A1.22,1.22,0,0,1,64.1-2.412a1.672,1.672,0,0,1,.957-.322,1.667,1.667,0,0,1,.469.068,2.385,2.385,0,0,1,.508.225l.684.371a.979.979,0,0,0,.264.107,1.262,1.262,0,0,0,.283.029,1.067,1.067,0,0,0,.752-.244,19.338,19.338,0,0,0,1.357-1.709q.723-.957,3.281-4.668,0-.137-.449-2.1t-.82-3.33a7.158,7.158,0,0,0-.664-1.826,1.221,1.221,0,0,0-1.094-.439,5.715,5.715,0,0,0-1.074.2q-.508.117-1.094.273l-.176-.605,2.168-.742q.84-.293,1.553-.469a5.227,5.227,0,0,1,1.221-.176,1.516,1.516,0,0,1,1.23.488A7.591,7.591,0,0,1,74.512-14.2l.41,2.227a34.719,34.719,0,0,1,2.734-3.789,7.883,7.883,0,0,1,1.66-1.484,2.819,2.819,0,0,1,1.484-.488,2.515,2.515,0,0,1,1.074.2,1.33,1.33,0,0,1,.742,1.328,1.4,1.4,0,0,1-.371,1.035,1.3,1.3,0,0,1-.957.371,1.685,1.685,0,0,1-.41-.049,2.407,2.407,0,0,1-.41-.146l-.508-.215q-.215-.1-.41-.166a.991.991,0,0,0-.293-.068q-.879,0-2.441,2.275a10.967,10.967,0,0,0-1.562,2.627,15.091,15.091,0,0,0,.361,1.9q.361,1.611.791,3.408a16.218,16.218,0,0,0,.664,2.344q.449,1.055,1.016,1.055a1.525,1.525,0,0,0,1.074-.586A23.827,23.827,0,0,0,80.8-4.531l.547.332a16.352,16.352,0,0,1-1.738,2.6Q77.91.43,76.367.43a1.732,1.732,0,0,1-1.543-.937,6.948,6.948,0,0,1-.645-1.8L72.969-7.129l-4,5.254A12.923,12.923,0,0,1,67.158-.039,2.574,2.574,0,0,1,65.586.43a1.789,1.789,0,0,1-1.7-.781A1.818,1.818,0,0,1,63.633-1.328Z" transform="translate(1171 10681)" fill="#1ec488"/>
    <path id="Trazado_40715" data-name="Trazado 40715" d="M4.132-.41q1.958,0,3.394-3.9a18.266,18.266,0,0,0,1.241-6.378,5.283,5.283,0,0,0-.226-1.7,1.555,1.555,0,0,0-1.548-1.23q-2.1,0-3.558,4.532A19.725,19.725,0,0,0,2.328-3.312a5.069,5.069,0,0,0,.226,1.63A1.6,1.6,0,0,0,4.132-.41Zm2.892-13.8a2.94,2.94,0,0,1,2.84,1.958,7.354,7.354,0,0,1,.564,2.984,11.292,11.292,0,0,1-1.979,6.6Q6.5.123,4.05.123a3,3,0,0,1-2.41-1.215A5.193,5.193,0,0,1,.656-4.45a12.152,12.152,0,0,1,1.938-6.634Q4.583-14.212,7.024-14.212Z" transform="translate(1255 10688)" fill="#1ec488"/>
    <path id="Trazado_40716" data-name="Trazado 40716" d="M3.457-8.828v-2.363H12.3v-8.848h2.363v8.848h8.848v2.363H14.668V0H12.3V-8.828Z" transform="translate(1272 10681)" fill="#1ec488"/>
    <path id="Trazado_40717" data-name="Trazado 40717" d="M.236-.359l4.43-4.7A20.29,20.29,0,0,0,6.48-7.208a5.271,5.271,0,0,0,1.2-2.851,2.618,2.618,0,0,0-.7-1.846,2.491,2.491,0,0,0-1.923-.759,2.923,2.923,0,0,0-2.01.769,5.348,5.348,0,0,0-.933,1.21l-.441-.154a5.024,5.024,0,0,1,2.481-2.953,4.306,4.306,0,0,1,1.876-.42,3.148,3.148,0,0,1,2.538,1.1,3.688,3.688,0,0,1,.928,2.44,3.821,3.821,0,0,1-.713,2.2A21.609,21.609,0,0,1,6.368-5.732l-4.04,4.04V-1.6H6.316a2.415,2.415,0,0,0,1.3-.277,2.519,2.519,0,0,0,.795-1.036l.338.144L7.7,0H.236Z" transform="translate(1319 10693)" fill="#1ec488"/>
    <path id="Trazado_40718" data-name="Trazado 40718" d="M1.015-.349l.7-.01a3.123,3.123,0,0,0,1.1-.3,1.179,1.179,0,0,0,.564-.764L6.265-11.761q.072-.256.108-.436a1.663,1.663,0,0,0,.036-.323A.492.492,0,0,0,6.173-13a1.7,1.7,0,0,0-.749-.123l-1,.051v-.318l.267-.041q.287-.051,1.523-.3t1.759-.359l.318-.072.195-.031.123.072q0,.062-.005.123a.526.526,0,0,1-.026.123L5.127-1.312q-.021.082-.036.164a.888.888,0,0,0-.015.164.5.5,0,0,0,.369.533A6.461,6.461,0,0,0,6.87-.308V0H1.015Z" transform="translate(1319 10667)" fill="#1ec488"/>
    <path id="Trazado_40644" data-name="Trazado 40644" d="M2066,372h27.955" transform="translate(-757 10300.319)" fill="none" stroke="#1ec488" stroke-width="2"/>
    <path id="Trazado_40645" data-name="Trazado 40645" d="M2066,372h27.955" transform="translate(-706 10300.319)" fill="none" stroke="#1ec488" stroke-width="2"/>
    <path id="Trazado_40719" data-name="Trazado 40719" d="M14.766-17.637a1.973,1.973,0,0,1,1.68.781,2.885,2.885,0,0,1,.586,1.777q0,2.637-5.215,9.238Q6.875.43,5.9.43q-.293,0-.391-.8a13.5,13.5,0,0,1-.059-1.523q0-1.309-.254-4.434t-.488-4.629a17.985,17.985,0,0,0-.957-4.258,1.79,1.79,0,0,0-1.777-.957q-.215,0-.5.02t-.654.059V-16.6q.586-.117,2.461-.527t1.992-.449l.645-.2q.273-.078.43.3a10.408,10.408,0,0,1,.391,1.416,65.907,65.907,0,0,1,1.113,6.7Q8.086-7.3,8.32-3.281l.645-.684a41.87,41.87,0,0,0,4.023-5.059Q15-11.953,15-13.164a2.3,2.3,0,0,0-.879-1.455,2.332,2.332,0,0,1-.879-1.553,1.378,1.378,0,0,1,.439-1.055A1.529,1.529,0,0,1,14.766-17.637Z" transform="translate(1365 10660)" fill="#1ec488"/>
    <path id="Trazado_40720" data-name="Trazado 40720" d="M6.934-10A4.258,4.258,0,0,0,7.3-8.066,2.31,2.31,0,0,0,9.551-6.875q1.758,0,3.135-2.236a9.223,9.223,0,0,0,1.377-4.932,3.23,3.23,0,0,0-.566-2.021,2.014,2.014,0,0,0-1.7-.732,3.989,3.989,0,0,0-3.525,2.324A8.974,8.974,0,0,0,6.934-10ZM7.617,7.422a6.4,6.4,0,0,0,3.857-1.113,3.23,3.23,0,0,0,1.533-2.656,2.681,2.681,0,0,0-.8-1.973A5.625,5.625,0,0,0,10.82.762Q10.02.371,8.115-.361a12.416,12.416,0,0,0-2.2-.732q-.508,0-1.973,1.357A4.105,4.105,0,0,0,2.48,3.34,3.568,3.568,0,0,0,4.727,6.914,7.274,7.274,0,0,0,7.617,7.422ZM.313,3.848A4.237,4.237,0,0,1,1.436,1.064,12.334,12.334,0,0,1,5-1.562a4,4,0,0,1-.8-.654,1.294,1.294,0,0,1-.312-.908A2.8,2.8,0,0,1,5-4.961,17.891,17.891,0,0,1,7.031-6.5,6.231,6.231,0,0,1,4.883-7.832,4.163,4.163,0,0,1,3.789-10.82a6.16,6.16,0,0,1,2.3-4.9,8.518,8.518,0,0,1,5.7-1.953,7.277,7.277,0,0,1,3.008.557,3.524,3.524,0,0,1,1.445.928h2.637v1.563H16.895a7.993,7.993,0,0,1,.176.781,6.448,6.448,0,0,1,.059,1,5.862,5.862,0,0,1-2.451,4.98A8.7,8.7,0,0,1,9.395-6.055a4.783,4.783,0,0,1-.547-.029q-.254-.029-.625-.107-.293,0-.8.566a1.6,1.6,0,0,0-.527,1.016q0,.664,4.3,2.266Q15.469-.723,15.469,2.4A5.215,5.215,0,0,1,13.32,6.514Q11.172,8.281,6.836,8.281A7.9,7.9,0,0,1,2.07,6.992,3.8,3.8,0,0,1,.313,3.848Z" transform="translate(1365 10705)" fill="#1ec488"/>
    <path id="Trazado_40722" data-name="Trazado 40722" d="M.236-.359l4.43-4.7A20.29,20.29,0,0,0,6.48-7.208a5.271,5.271,0,0,0,1.2-2.851,2.618,2.618,0,0,0-.7-1.846,2.491,2.491,0,0,0-1.923-.759,2.923,2.923,0,0,0-2.01.769,5.348,5.348,0,0,0-.933,1.21l-.441-.154a5.024,5.024,0,0,1,2.481-2.953,4.306,4.306,0,0,1,1.876-.42,3.148,3.148,0,0,1,2.538,1.1,3.688,3.688,0,0,1,.928,2.44,3.821,3.821,0,0,1-.713,2.2A21.609,21.609,0,0,1,6.368-5.732l-4.04,4.04V-1.6H6.316a2.415,2.415,0,0,0,1.3-.277,2.519,2.519,0,0,0,.795-1.036l.338.144L7.7,0H.236Z" transform="translate(1385 10645)" fill="#1ec488"/>
    <path id="Trazado_40721" data-name="Trazado 40721" d="M4.132-.41q1.958,0,3.394-3.9a18.266,18.266,0,0,0,1.241-6.378,5.283,5.283,0,0,0-.226-1.7,1.555,1.555,0,0,0-1.548-1.23q-2.1,0-3.558,4.532A19.725,19.725,0,0,0,2.328-3.312a5.069,5.069,0,0,0,.226,1.63A1.6,1.6,0,0,0,4.132-.41Zm2.892-13.8a2.94,2.94,0,0,1,2.84,1.958,7.354,7.354,0,0,1,.564,2.984,11.292,11.292,0,0,1-1.979,6.6Q6.5.123,4.05.123a3,3,0,0,1-2.41-1.215A5.193,5.193,0,0,1,.656-4.45a12.152,12.152,0,0,1,1.938-6.634Q4.583-14.212,7.024-14.212Z" transform="translate(1384 10665)" fill="#1ec488"/>
  </g>
</svg>
