<svg xmlns="http://www.w3.org/2000/svg" width="361.405" height="99.529" viewBox="0 0 361.405 99.529">
  <g id="Grupo_16440" data-name="Grupo 16440" transform="translate(-397.434 -3177.656)">
    <path id="Trazado_40602" data-name="Trazado 40602" d="M11.836-26.836a.418.418,0,0,1,.088.146,1.526,1.526,0,0,1,.01.225V-2.949q0,1.5.8,1.914a8,8,0,0,0,2.988.488V0H4.707V-.586A6.454,6.454,0,0,0,7.793-1.23q.723-.527.723-2.285V-21.6a3.4,3.4,0,0,0-.234-1.426,1.01,1.01,0,0,0-1.016-.488,4.216,4.216,0,0,0-1.318.283q-.811.283-1.514.6v-.547L11.6-26.836ZM22.07-6.152h.645a10.2,10.2,0,0,0,1.211,3.418,4.432,4.432,0,0,0,4,2.188,3.215,3.215,0,0,0,2.314-.811,2.771,2.771,0,0,0,.85-2.1,2.891,2.891,0,0,0-.488-1.582,5.007,5.007,0,0,0-1.719-1.484L26.7-7.773a12.47,12.47,0,0,1-3.535-2.6,4.564,4.564,0,0,1-1.133-3.086,4.619,4.619,0,0,1,1.563-3.594,5.648,5.648,0,0,1,3.926-1.406,7.626,7.626,0,0,1,2.275.391,10.543,10.543,0,0,0,1.4.391,1,1,0,0,0,.508-.1.818.818,0,0,0,.273-.312h.469l.137,5.449h-.605a9.035,9.035,0,0,0-1.055-2.949,3.876,3.876,0,0,0-3.5-1.953,2.79,2.79,0,0,0-2.148.84,2.8,2.8,0,0,0-.781,1.973q0,1.8,2.7,3.2l2.578,1.387q4.16,2.266,4.16,5.273A4.716,4.716,0,0,1,32.2-1.094,6.754,6.754,0,0,1,27.676.371,10.563,10.563,0,0,1,25.02-.02,11.994,11.994,0,0,0,23.262-.41a.579.579,0,0,0-.41.166,1.153,1.153,0,0,0-.273.4H22.07ZM66.953-7.441v2.734h-20.2V-7.441Zm0-8.066v2.734h-20.2v-2.734Z" transform="translate(393 3235)" fill="#1ec488"/>
    <path id="Trazado_40550" data-name="Trazado 40550" d="M2066,372h251.839" transform="translate(-1559 2854)" fill="none" stroke="#1ec488" stroke-width="2"/>
    <path id="Trazado_40603" data-name="Trazado 40603" d="M-95.02-11.191a5.9,5.9,0,0,0,2.744-.742q1.416-.742,1.611-1.25a7.816,7.816,0,0,0,.137-1.455q.059-1.26.059-2.041a13.889,13.889,0,0,0-1.367-6.6,4.33,4.33,0,0,0-4-2.539,3.594,3.594,0,0,0-3.1,1.738,9.292,9.292,0,0,0-1.182,5.2,12.567,12.567,0,0,0,1.1,5.273A4.012,4.012,0,0,0-95.02-11.191Zm-.547-15.742a7.576,7.576,0,0,1,6.641,3.428,13.243,13.243,0,0,1,2.344,7.646A17.608,17.608,0,0,1-87.7-9.824a16.822,16.822,0,0,1-3.242,5.469A14.952,14.952,0,0,1-97.227-.234,25.871,25.871,0,0,1-102.6.938l-.2-.781a24.7,24.7,0,0,0,3.379-1,12,12,0,0,0,3.887-2.344,16.274,16.274,0,0,0,3.311-4.4,16.064,16.064,0,0,0,1.553-4.072l-.684.508a8.412,8.412,0,0,1-3.4,1.5,8.31,8.31,0,0,1-1.855.234,6.468,6.468,0,0,1-5.264-2.354,8.538,8.538,0,0,1-1.943-5.615,10.15,10.15,0,0,1,2.314-6.855A7.462,7.462,0,0,1-95.566-26.934Zm22.4.1a.418.418,0,0,1,.088.146,1.527,1.527,0,0,1,.01.225V-2.949q0,1.5.8,1.914a8,8,0,0,0,2.988.488V0H-80.293V-.586a6.454,6.454,0,0,0,3.086-.645q.723-.527.723-2.285V-21.6a3.4,3.4,0,0,0-.234-1.426,1.01,1.01,0,0,0-1.016-.488,4.216,4.216,0,0,0-1.318.283q-.811.283-1.514.6v-.547l7.168-3.652ZM-55.02-11.191a5.9,5.9,0,0,0,2.744-.742q1.416-.742,1.611-1.25a7.817,7.817,0,0,0,.137-1.455q.059-1.26.059-2.041a13.889,13.889,0,0,0-1.367-6.6,4.33,4.33,0,0,0-4-2.539,3.594,3.594,0,0,0-3.1,1.738,9.292,9.292,0,0,0-1.182,5.2,12.567,12.567,0,0,0,1.1,5.273A4.012,4.012,0,0,0-55.02-11.191Zm-.547-15.742a7.576,7.576,0,0,1,6.641,3.428,13.243,13.243,0,0,1,2.344,7.646A17.608,17.608,0,0,1-47.7-9.824a16.822,16.822,0,0,1-3.242,5.469A14.952,14.952,0,0,1-57.227-.234,25.871,25.871,0,0,1-62.6.938l-.2-.781a24.7,24.7,0,0,0,3.379-1,12,12,0,0,0,3.887-2.344,16.275,16.275,0,0,0,3.311-4.4,16.064,16.064,0,0,0,1.553-4.072l-.684.508a8.412,8.412,0,0,1-3.4,1.5,8.31,8.31,0,0,1-1.855.234,6.468,6.468,0,0,1-5.264-2.354,8.538,8.538,0,0,1-1.943-5.615,10.15,10.15,0,0,1,2.314-6.855A7.462,7.462,0,0,1-55.566-26.934ZM-43.809-.449a127.078,127.078,0,0,0,9.707-10.9,11.487,11.487,0,0,0,2.559-6.777,5.855,5.855,0,0,0-1.562-4.4,5.175,5.175,0,0,0-3.73-1.514,5.419,5.419,0,0,0-4.336,1.953,11.334,11.334,0,0,0-1.758,3.3l-.84-.176q.977-4.492,3.311-6.24a8.2,8.2,0,0,1,5.01-1.748,7.15,7.15,0,0,1,5.342,2.08,6.988,6.988,0,0,1,2.041,5.088,10.213,10.213,0,0,1-2.207,6.172,132.9,132.9,0,0,1-9.59,10.566H-30.9A5.557,5.557,0,0,0-28.262-3.5a5.857,5.857,0,0,0,1.719-2.187l.508.234L-28.2,0H-43.809ZM3.711-8.887A10.06,10.06,0,0,1,1.416-2.441,7.283,7.283,0,0,1-4.551.43a8.239,8.239,0,0,1-6.26-3.223,12.548,12.548,0,0,1-2.822-8.574A15.414,15.414,0,0,1-8.164-23.2,16.532,16.532,0,0,1,2.813-27.344l.1.645A19.3,19.3,0,0,0-1.3-25.479,10.2,10.2,0,0,0-4.453-23.32a16.712,16.712,0,0,0-2.676,3.574,15.135,15.135,0,0,0-1.719,4.3,14.357,14.357,0,0,1,2.09-1.094,8.407,8.407,0,0,1,3.145-.625A7.018,7.018,0,0,1,1.6-15.02,8.389,8.389,0,0,1,3.711-8.887ZM.137-7.383a12.128,12.128,0,0,0-.82-4.609,4.755,4.755,0,0,0-4.648-3.359q-3.027,0-4.023,1.8a7.7,7.7,0,0,0-.586,3.516,15.167,15.167,0,0,0,1.357,6.23A4.492,4.492,0,0,0-4.3-.762,3.556,3.556,0,0,0-.918-2.744,9.735,9.735,0,0,0,.137-7.383ZM8.105-3.4a5.871,5.871,0,0,1,2.842,1.113,5.965,5.965,0,0,0,3,1.113,4.671,4.671,0,0,0,4.063-1.846,6.73,6.73,0,0,0,1.328-4.014A6.379,6.379,0,0,0,18.262-10.7q-1.816-2.676-6.133-2.676-.254,0-.488.01t-.547.049l-.039-.508a16.926,16.926,0,0,0,4.922-2.6,4.743,4.743,0,0,0,1.8-3.867,3.877,3.877,0,0,0-1.416-3.242,5.088,5.088,0,0,0-3.232-1.113,5.3,5.3,0,0,0-3.789,1.582A12.091,12.091,0,0,0,7.4-20.41L6.8-20.547a8.962,8.962,0,0,1,2.91-4.746,7.454,7.454,0,0,1,4.922-1.777,6.225,6.225,0,0,1,4.619,1.641,5.219,5.219,0,0,1,1.631,3.789,5.244,5.244,0,0,1-1.348,3.477,12.5,12.5,0,0,1-2.363,2.012,10.087,10.087,0,0,1,3.008,1.875,6.906,6.906,0,0,1,2.129,5.2,8.859,8.859,0,0,1-2.92,6.543Q16.465.293,11.074.293A5.9,5.9,0,0,1,7.705-.42a1.964,1.964,0,0,1-.967-1.533,1.7,1.7,0,0,1,.322-.977A1.177,1.177,0,0,1,8.105-3.4Zm28.73-23.437a.418.418,0,0,1,.088.146,1.526,1.526,0,0,1,.01.225V-2.949q0,1.5.8,1.914a8,8,0,0,0,2.988.488V0H29.707V-.586a6.454,6.454,0,0,0,3.086-.645q.723-.527.723-2.285V-21.6a3.4,3.4,0,0,0-.234-1.426,1.01,1.01,0,0,0-1.016-.488,4.216,4.216,0,0,0-1.318.283q-.811.283-1.514.6v-.547L36.6-26.836Zm26.113.371v.645L54.473.371H51.895L59.8-23.516H51.289a4.6,4.6,0,0,0-2.725.625,10.609,10.609,0,0,0-2.1,2.617l-.684-.312q1.27-3.125,1.572-3.857t.791-2.021Zm20,0v.645L74.473.371H71.895L79.8-23.516H71.289a4.6,4.6,0,0,0-2.725.625,10.609,10.609,0,0,0-2.1,2.617l-.684-.312q1.27-3.125,1.572-3.857t.791-2.021ZM94.57-.723q2.871,0,3.945-3.145a29.618,29.618,0,0,0,1.074-9.1,35.524,35.524,0,0,0-.645-7.578q-1.211-5.273-4.531-5.273t-4.551,5.43a36.267,36.267,0,0,0-.645,7.617,30.326,30.326,0,0,0,.664,7.09Q91.133-.723,94.57-.723Zm-.059-26.152q4.492,0,6.973,4.707a18.755,18.755,0,0,1,1.973,8.75,21.884,21.884,0,0,1-1.211,7.324Q99.961.371,94.336.371a7.481,7.481,0,0,1-6.328-3.5q-2.656-3.73-2.656-10.137a19.553,19.553,0,0,1,1.777-8.672Q89.531-26.875,94.512-26.875Z" transform="translate(633 3205)" fill="#1ec488"/>
    <path id="Trazado_40604" data-name="Trazado 40604" d="M.068-1.8-7.979-21.016-16.143-1.8ZM5.537,0H-18.916L-7.1-27.266h.781ZM10.83-18.145v.605a5.146,5.146,0,0,0-1.436.313.847.847,0,0,0-.42.859,2,2,0,0,0,.088.6q.088.283.3.83l4.063,10.1,3.516-8.945q.254-.645.479-1.348a3.871,3.871,0,0,0,.225-1.074,1.128,1.128,0,0,0-.723-1.094,4.019,4.019,0,0,0-1.172-.234v-.605H21.3v.605a1.811,1.811,0,0,0-1.377.635A13.475,13.475,0,0,0,18.7-14.336L13.057-.273A2.95,2.95,0,0,1,12.8.234a.317.317,0,0,1-.273.137A.392.392,0,0,1,12.2.146,6,6,0,0,1,11.9-.41l-5.977-14.3A5.72,5.72,0,0,0,4.385-17.07a3.107,3.107,0,0,0-1.426-.469v-.605Z" transform="translate(620 3275)" fill="#1ec488"/>
    <path id="Trazado_40605" data-name="Trazado 40605" d="M-3.359-9.209a3.531,3.531,0,0,1,2.1.63A1.742,1.742,0,0,1-.371-7.2.938.938,0,0,1-.6-6.6a.838.838,0,0,1-.693.278.867.867,0,0,1-.6-.234,1.358,1.358,0,0,1-.376-.684l-.117-.469a1.188,1.188,0,0,0-.439-.732,1.563,1.563,0,0,0-.85-.205,2.316,2.316,0,0,0-1.88.972,4.053,4.053,0,0,0-.767,2.583,4.415,4.415,0,0,0,.845,2.646A2.668,2.668,0,0,0-3.193-1.27a2.731,2.731,0,0,0,1.807-.664A6.2,6.2,0,0,0-.371-3.145l.273.166A7.742,7.742,0,0,1-1.27-1.123,3.59,3.59,0,0,1-4,.186a3.663,3.663,0,0,1-2.7-1.2A4.47,4.47,0,0,1-7.871-4.277,5.088,5.088,0,0,1-6.592-7.754,4.119,4.119,0,0,1-3.359-9.209ZM1.582-3.076H1.9A5.1,5.1,0,0,0,2.51-1.367a2.216,2.216,0,0,0,2,1.094A1.607,1.607,0,0,0,5.669-.679a1.386,1.386,0,0,0,.425-1.05A1.446,1.446,0,0,0,5.85-2.52a2.5,2.5,0,0,0-.859-.742L3.9-3.887a6.235,6.235,0,0,1-1.768-1.3,2.282,2.282,0,0,1-.566-1.543,2.31,2.31,0,0,1,.781-1.8,2.824,2.824,0,0,1,1.963-.7,3.813,3.813,0,0,1,1.138.2,5.272,5.272,0,0,0,.7.2A.5.5,0,0,0,6.4-8.887a.409.409,0,0,0,.137-.156h.234l.068,2.725h-.3a4.518,4.518,0,0,0-.527-1.475A1.938,1.938,0,0,0,4.258-8.77a1.4,1.4,0,0,0-1.074.42,1.4,1.4,0,0,0-.391.986q0,.9,1.348,1.6l1.289.693Q7.51-3.936,7.51-2.432A2.358,2.358,0,0,1,6.646-.547,3.377,3.377,0,0,1,4.385.186a5.282,5.282,0,0,1-1.328-.2,6,6,0,0,0-.879-.2.289.289,0,0,0-.205.083.577.577,0,0,0-.137.2H1.582Z" transform="translate(660 3277)" fill="#1ec488"/>
  </g>
</svg>
